<svg xmlns="http://www.w3.org/2000/svg" xmlns:xlink="http://www.w3.org/1999/xlink" width="500" zoomAndPan="magnify" viewBox="0 0 375 374.999991" height="500" preserveAspectRatio="xMidYMid meet" version="1.0"><defs><filter x="0%" y="0%" width="100%" height="100%" id="e4707c5dae"><feColorMatrix values="0 0 0 0 1 0 0 0 0 1 0 0 0 0 1 0 0 0 1 0" color-interpolation-filters="sRGB"/></filter><mask id="f830bf92ac"><g filter="url(#e4707c5dae)"><rect x="-37.5" width="450" fill="#000000" y="-37.499999" height="449.999989" fill-opacity="0.3"/></g></mask><clipPath id="78e8088c7b"><path d="M 0.679688 0.238281 L 350 0.238281 L 350 363 L 0.679688 363 Z M 0.679688 0.238281 " clip-rule="nonzero"/></clipPath><clipPath id="9909b7a13e"><rect x="0" width="350" y="0" height="363"/></clipPath><mask id="64471baacf"><g filter="url(#e4707c5dae)"><rect x="-37.5" width="450" fill="#000000" y="-37.499999" height="449.999989" fill-opacity="0.3"/></g></mask><clipPath id="a7f2044a57"><path d="M 0.238281 0.679688 L 312 0.679688 L 312 324.679688 L 0.238281 324.679688 Z M 0.238281 0.679688 " clip-rule="nonzero"/></clipPath><clipPath id="53b1bcdc70"><rect x="0" width="312" y="0" height="325"/></clipPath><mask id="7b8a354bfd"><g filter="url(#e4707c5dae)"><rect x="-37.5" width="450" fill="#000000" y="-37.499999" height="449.999989" fill-opacity="0.5"/></g></mask><clipPath id="d21bb01e06"><path d="M 1 0.398438 L 14.238281 0.398438 L 14.238281 52.238281 L 1 52.238281 Z M 1 0.398438 " clip-rule="nonzero"/></clipPath><clipPath id="b1ae86115a"><rect x="0" width="15" y="0" height="53"/></clipPath><mask id="c0e5d96797"><g filter="url(#e4707c5dae)"><rect x="-37.5" width="450" fill="#000000" y="-37.499999" height="449.999989" fill-opacity="0.5"/></g></mask><clipPath id="809c8da9a1"><path d="M 0.320312 0.480469 L 14 0.480469 L 14 26.640625 L 0.320312 26.640625 Z M 0.320312 0.480469 " clip-rule="nonzero"/></clipPath><clipPath id="a0274b9488"><rect x="0" width="14" y="0" height="27"/></clipPath><mask id="c69bbf2c31"><g filter="url(#e4707c5dae)"><rect x="-37.5" width="450" fill="#000000" y="-37.499999" height="449.999989" fill-opacity="0.5"/></g></mask><clipPath id="bd708fe9c0"><path d="M 1 0.558594 L 14.558594 0.558594 L 14.558594 26.71875 L 1 26.71875 Z M 1 0.558594 " clip-rule="nonzero"/></clipPath><clipPath id="f70037000a"><rect x="0" width="15" y="0" height="27"/></clipPath><mask id="4738acae86"><g filter="url(#e4707c5dae)"><rect x="-37.5" width="450" fill="#000000" y="-37.499999" height="449.999989" fill-opacity="0.5"/></g></mask><clipPath id="498f4ce43f"><path d="M 0.398438 0.878906 L 14 0.878906 L 14 26.800781 L 0.398438 26.800781 Z M 0.398438 0.878906 " clip-rule="nonzero"/></clipPath><clipPath id="cbc09e575f"><rect x="0" width="15" y="0" height="27"/></clipPath><mask id="99b08b9d0a"><g filter="url(#e4707c5dae)"><rect x="-37.5" width="450" fill="#000000" y="-37.499999" height="449.999989" fill-opacity="0.5"/></g></mask><clipPath id="b7862d2eff"><path d="M 1 1 L 14.640625 1 L 14.640625 27 L 1 27 Z M 1 1 " clip-rule="nonzero"/></clipPath><clipPath id="1264ec201c"><rect x="0" width="15" y="0" height="28"/></clipPath><mask id="f7a6320353"><g filter="url(#e4707c5dae)"><rect x="-37.5" width="450" fill="#000000" y="-37.499999" height="449.999989" fill-opacity="0.5"/></g></mask><clipPath id="678ade636d"><path d="M 0.480469 0.0390625 L 14 0.0390625 L 14 26.199219 L 0.480469 26.199219 Z M 0.480469 0.0390625 " clip-rule="nonzero"/></clipPath><clipPath id="5c8d6ce9f0"><rect x="0" width="15" y="0" height="27"/></clipPath><mask id="550b2c2a70"><g filter="url(#e4707c5dae)"><rect x="-37.5" width="450" fill="#000000" y="-37.499999" height="449.999989" fill-opacity="0.5"/></g></mask><clipPath id="70e14a523c"><path d="M 0.0390625 0.121094 L 13.71875 0.121094 L 13.71875 26.28125 L 0.0390625 26.28125 Z M 0.0390625 0.121094 " clip-rule="nonzero"/></clipPath><clipPath id="289b49b0fe"><rect x="0" width="14" y="0" height="27"/></clipPath><mask id="a80ab26e41"><g filter="url(#e4707c5dae)"><rect x="-37.5" width="450" fill="#000000" y="-37.499999" height="449.999989" fill-opacity="0.5"/></g></mask><clipPath id="06f1b7896e"><path d="M 0.558594 0.441406 L 14 0.441406 L 14 26.359375 L 0.558594 26.359375 Z M 0.558594 0.441406 " clip-rule="nonzero"/></clipPath><clipPath id="5a164d1649"><rect x="0" width="15" y="0" height="27"/></clipPath><mask id="f43bf01ed7"><g filter="url(#e4707c5dae)"><rect x="-37.5" width="450" fill="#000000" y="-37.499999" height="449.999989" fill-opacity="0.5"/></g></mask><clipPath id="fa0f08dcf4"><path d="M 0.121094 0.519531 L 13.800781 0.519531 L 13.800781 26.679688 L 0.121094 26.679688 Z M 0.121094 0.519531 " clip-rule="nonzero"/></clipPath><clipPath id="20ac4fb29b"><rect x="0" width="14" y="0" height="27"/></clipPath><mask id="a96eb78bcd"><g filter="url(#e4707c5dae)"><rect x="-37.5" width="450" fill="#000000" y="-37.499999" height="449.999989" fill-opacity="0.5"/></g></mask><clipPath id="99f73d0f3e"><path d="M 0.878906 0.601562 L 14 0.601562 L 14 26.761719 L 0.878906 26.761719 Z M 0.878906 0.601562 " clip-rule="nonzero"/></clipPath><clipPath id="e6d69aa4f1"><rect x="0" width="15" y="0" height="27"/></clipPath><mask id="be89c8c374"><g filter="url(#e4707c5dae)"><rect x="-37.5" width="450" fill="#000000" y="-37.499999" height="449.999989" fill-opacity="0.5"/></g></mask><clipPath id="6df31e67ed"><path d="M 0.441406 0.679688 L 14 0.679688 L 14 26.839844 L 0.441406 26.839844 Z M 0.441406 0.679688 " clip-rule="nonzero"/></clipPath><clipPath id="bcfa9f8340"><rect x="0" width="15" y="0" height="27"/></clipPath><mask id="d9ea283cfe"><g filter="url(#e4707c5dae)"><rect x="-37.5" width="450" fill="#000000" y="-37.499999" height="449.999989" fill-opacity="0.5"/></g></mask><clipPath id="bc9485f939"><path d="M 0.0390625 0.238281 L 39 0.238281 L 39 13.921875 L 0.0390625 13.921875 Z M 0.0390625 0.238281 " clip-rule="nonzero"/></clipPath><clipPath id="30aa5967db"><rect x="0" width="40" y="0" height="14"/></clipPath></defs><g mask="url(#f830bf92ac)"><g transform="matrix(1, 0, 0, 1, 25, 12)"><g clip-path="url(#9909b7a13e)"><g clip-path="url(#78e8088c7b)"><path fill="#000000" d="M 337.070312 285.414062 L 337.070312 259.550781 L 324.136719 259.550781 L 324.136719 233.691406 L 311.207031 233.691406 L 311.207031 207.828125 L 298.277344 207.828125 L 298.277344 181.964844 L 285.34375 181.964844 L 285.34375 156.101562 L 272.414062 156.101562 L 272.414062 130.242188 L 259.484375 130.242188 L 259.484375 104.378906 L 246.550781 104.378906 L 246.550781 78.515625 L 233.621094 78.515625 L 233.621094 52.65625 L 220.691406 52.65625 L 220.691406 26.792969 L 207.757812 26.792969 L 207.757812 13.863281 L 194.828125 13.863281 L 194.828125 0.929688 L 156.035156 0.929688 L 156.035156 13.863281 L 143.101562 13.863281 L 143.101562 26.792969 L 130.171875 26.792969 L 130.171875 52.65625 L 117.242188 52.65625 L 117.242188 78.515625 L 104.308594 78.515625 L 104.308594 104.378906 L 91.378906 104.378906 L 91.378906 130.242188 L 78.449219 130.242188 L 78.449219 156.101562 L 65.515625 156.101562 L 65.515625 181.964844 L 52.585938 181.964844 L 52.585938 207.828125 L 39.65625 207.828125 L 39.65625 233.691406 L 26.722656 233.691406 L 26.722656 259.550781 L 13.792969 259.550781 L 13.792969 285.414062 L 0.863281 285.414062 L 0.863281 337.136719 L 13.792969 337.136719 L 13.792969 350.070312 L 26.722656 350.070312 L 26.722656 363 L 324.136719 363 L 324.136719 350.070312 L 337.070312 350.070312 L 337.070312 337.136719 L 350 337.136719 L 350 285.414062 Z M 337.070312 285.414062 " fill-opacity="1" fill-rule="nonzero"/></g></g></g></g><path fill="#7700ff" d="M 181.035156 12.929688 L 193.964844 12.929688 L 206.898438 25.863281 L 219.828125 51.722656 L 336.207031 284.484375 L 336.207031 336.207031 L 323.277344 349.136719 L 25.863281 349.136719 L 12.929688 336.207031 L 12.929688 284.484375 L 142.242188 25.863281 L 155.171875 12.929688 Z M 181.035156 12.929688 " fill-opacity="1" fill-rule="nonzero"/><path fill="#000000" d="M 168.101562 12.929688 L 155.171875 12.929688 L 155.171875 0 L 193.964844 0 L 193.964844 12.929688 Z M 155.171875 12.929688 L 142.242188 12.929688 L 142.242188 25.863281 L 155.171875 25.863281 Z M 206.898438 25.863281 L 206.898438 12.929688 L 193.964844 12.929688 L 193.964844 25.863281 Z M 142.242188 38.792969 L 142.242188 25.863281 L 129.308594 25.863281 L 129.308594 51.722656 L 142.242188 51.722656 Z M 206.898438 51.722656 L 219.828125 51.722656 L 219.828125 25.863281 L 206.898438 25.863281 Z M 129.308594 64.65625 L 129.308594 51.722656 L 116.378906 51.722656 L 116.378906 77.585938 L 129.308594 77.585938 Z M 219.828125 77.585938 L 232.757812 77.585938 L 232.757812 51.722656 L 219.828125 51.722656 Z M 116.378906 90.515625 L 116.378906 77.585938 L 103.449219 77.585938 L 103.449219 103.449219 L 116.378906 103.449219 Z M 232.757812 103.449219 L 245.691406 103.449219 L 245.691406 77.585938 L 232.757812 77.585938 Z M 193.964844 103.449219 L 155.171875 103.449219 L 155.171875 116.378906 L 142.242188 116.378906 L 142.242188 181.035156 L 155.171875 181.035156 L 155.171875 219.828125 L 168.101562 219.828125 L 168.101562 258.621094 L 181.035156 258.621094 L 181.035156 219.828125 L 193.964844 219.828125 L 193.964844 181.035156 L 206.898438 181.035156 L 206.898438 116.378906 L 193.964844 116.378906 Z M 103.449219 116.378906 L 103.449219 103.449219 L 90.515625 103.449219 L 90.515625 129.308594 L 103.449219 129.308594 Z M 245.691406 129.308594 L 258.621094 129.308594 L 258.621094 103.449219 L 245.691406 103.449219 Z M 90.515625 142.242188 L 90.515625 129.308594 L 77.585938 129.308594 L 77.585938 155.171875 L 90.515625 155.171875 Z M 258.621094 155.171875 L 271.550781 155.171875 L 271.550781 129.308594 L 258.621094 129.308594 Z M 77.585938 168.101562 L 77.585938 155.171875 L 64.65625 155.171875 L 64.65625 181.035156 L 77.585938 181.035156 Z M 271.550781 181.035156 L 284.484375 181.035156 L 284.484375 155.171875 L 271.550781 155.171875 Z M 64.65625 193.964844 L 64.65625 181.035156 L 51.722656 181.035156 L 51.722656 206.898438 L 64.65625 206.898438 Z M 284.484375 206.898438 L 297.414062 206.898438 L 297.414062 181.035156 L 284.484375 181.035156 Z M 51.722656 219.828125 L 51.722656 206.898438 L 38.792969 206.898438 L 38.792969 232.757812 L 51.722656 232.757812 Z M 297.414062 232.757812 L 310.34375 232.757812 L 310.34375 206.898438 L 297.414062 206.898438 Z M 38.792969 245.691406 L 38.792969 232.757812 L 25.863281 232.757812 L 25.863281 258.621094 L 38.792969 258.621094 Z M 310.34375 258.621094 L 323.277344 258.621094 L 323.277344 232.757812 L 310.34375 232.757812 Z M 25.863281 271.550781 L 25.863281 258.621094 L 12.929688 258.621094 L 12.929688 284.484375 L 25.863281 284.484375 Z M 181.035156 271.550781 L 168.101562 271.550781 L 168.101562 284.484375 L 155.171875 284.484375 L 155.171875 297.414062 L 168.101562 297.414062 L 168.101562 310.34375 L 181.035156 310.34375 L 181.035156 297.414062 L 193.964844 297.414062 L 193.964844 284.484375 L 181.035156 284.484375 Z M 323.277344 284.484375 L 336.207031 284.484375 L 336.207031 258.621094 L 323.277344 258.621094 Z M 336.207031 284.484375 L 336.207031 336.207031 L 349.136719 336.207031 L 349.136719 284.484375 Z M 12.929688 310.34375 L 12.929688 284.484375 L 0 284.484375 L 0 336.207031 L 12.929688 336.207031 Z M 12.929688 336.207031 L 12.929688 349.136719 L 25.863281 349.136719 L 25.863281 336.207031 Z M 323.277344 349.136719 L 336.207031 349.136719 L 336.207031 336.207031 L 323.277344 336.207031 Z M 297.414062 349.136719 L 25.863281 349.136719 L 25.863281 362.070312 L 323.277344 362.070312 L 323.277344 349.136719 Z M 297.414062 349.136719 " fill-opacity="1" fill-rule="nonzero"/><g mask="url(#64471baacf)"><g transform="matrix(1, 0, 0, 1, 12, 25)"><g clip-path="url(#53b1bcdc70)"><g clip-path="url(#a7f2044a57)"><path fill="#000000" d="M 156.101562 259.484375 L 143.171875 259.484375 L 143.171875 246.550781 L 156.101562 246.550781 Z M 156.101562 194.828125 L 143.171875 194.828125 L 143.171875 207.757812 L 156.101562 207.757812 Z M 143.171875 156.035156 L 130.242188 156.035156 L 130.242188 168.964844 L 143.171875 168.964844 Z M 181.964844 194.828125 L 169.035156 194.828125 L 169.035156 207.757812 L 181.964844 207.757812 Z M 194.898438 156.035156 L 181.964844 156.035156 L 181.964844 168.964844 L 194.898438 168.964844 Z M 156.101562 272.414062 L 143.171875 272.414062 L 143.171875 285.34375 L 156.101562 285.34375 Z M 181.964844 246.550781 L 169.035156 246.550781 L 169.035156 259.484375 L 181.964844 259.484375 Z M 181.964844 272.414062 L 169.035156 272.414062 L 169.035156 285.34375 L 181.964844 285.34375 Z M 13.863281 311.207031 L 13.863281 324.136719 L 311.277344 324.136719 L 311.277344 311.207031 Z M 0.929688 259.484375 L 0.929688 311.207031 L 13.863281 311.207031 L 13.863281 259.484375 Z M 26.792969 233.621094 L 13.863281 233.621094 L 13.863281 259.484375 L 26.792969 259.484375 Z M 39.722656 207.757812 L 26.792969 207.757812 L 26.792969 233.621094 L 39.722656 233.621094 Z M 52.65625 181.898438 L 39.722656 181.898438 L 39.722656 207.757812 L 52.65625 207.757812 Z M 65.585938 156.035156 L 52.65625 156.035156 L 52.65625 181.898438 L 65.585938 181.898438 Z M 78.515625 130.171875 L 65.585938 130.171875 L 65.585938 156.035156 L 78.515625 156.035156 Z M 91.449219 104.308594 L 78.515625 104.308594 L 78.515625 130.171875 L 91.449219 130.171875 Z M 104.378906 78.449219 L 91.449219 78.449219 L 91.449219 104.308594 L 104.378906 104.308594 Z M 117.308594 52.585938 L 104.378906 52.585938 L 104.378906 78.449219 L 117.308594 78.449219 Z M 130.242188 26.722656 L 117.308594 26.722656 L 117.308594 52.585938 L 130.242188 52.585938 Z M 143.171875 0.863281 L 130.242188 0.863281 L 130.242188 26.722656 L 143.171875 26.722656 Z M 143.171875 0.863281 " fill-opacity="1" fill-rule="nonzero"/></g></g></g></g><g mask="url(#7b8a354bfd)"><g transform="matrix(1, 0, 0, 1, 322, 284)"><g clip-path="url(#b1ae86115a)"><g clip-path="url(#d21bb01e06)"><path fill="#ffffff" d="M 1.277344 0.484375 L 14.207031 0.484375 L 14.207031 52.207031 L 1.277344 52.207031 Z M 1.277344 0.484375 " fill-opacity="1" fill-rule="nonzero"/></g></g></g></g><g mask="url(#c0e5d96797)"><g transform="matrix(1, 0, 0, 1, 310, 258)"><g clip-path="url(#a0274b9488)"><g clip-path="url(#809c8da9a1)"><path fill="#ffffff" d="M 0.34375 0.621094 L 13.277344 0.621094 L 13.277344 26.484375 L 0.34375 26.484375 Z M 0.34375 0.621094 " fill-opacity="1" fill-rule="nonzero"/></g></g></g></g><g mask="url(#c69bbf2c31)"><g transform="matrix(1, 0, 0, 1, 296, 232)"><g clip-path="url(#f70037000a)"><g clip-path="url(#bd708fe9c0)"><path fill="#ffffff" d="M 1.414062 0.757812 L 14.34375 0.757812 L 14.34375 26.621094 L 1.414062 26.621094 Z M 1.414062 0.757812 " fill-opacity="1" fill-rule="nonzero"/></g></g></g></g><g mask="url(#4738acae86)"><g transform="matrix(1, 0, 0, 1, 284, 206)"><g clip-path="url(#cbc09e575f)"><g clip-path="url(#498f4ce43f)"><path fill="#ffffff" d="M 0.484375 0.898438 L 13.414062 0.898438 L 13.414062 26.757812 L 0.484375 26.757812 Z M 0.484375 0.898438 " fill-opacity="1" fill-rule="nonzero"/></g></g></g></g><g mask="url(#99b08b9d0a)"><g transform="matrix(1, 0, 0, 1, 270, 180)"><g clip-path="url(#1264ec201c)"><g clip-path="url(#b7862d2eff)"><path fill="#ffffff" d="M 1.550781 1.035156 L 14.484375 1.035156 L 14.484375 26.898438 L 1.550781 26.898438 Z M 1.550781 1.035156 " fill-opacity="1" fill-rule="nonzero"/></g></g></g></g><g mask="url(#f7a6320353)"><g transform="matrix(1, 0, 0, 1, 258, 155)"><g clip-path="url(#5c8d6ce9f0)"><g clip-path="url(#678ade636d)"><path fill="#ffffff" d="M 0.621094 0.171875 L 13.550781 0.171875 L 13.550781 26.035156 L 0.621094 26.035156 Z M 0.621094 0.171875 " fill-opacity="1" fill-rule="nonzero"/></g></g></g></g><g mask="url(#550b2c2a70)"><g transform="matrix(1, 0, 0, 1, 245, 129)"><g clip-path="url(#289b49b0fe)"><g clip-path="url(#70e14a523c)"><path fill="#ffffff" d="M 0.691406 0.308594 L 13.621094 0.308594 L 13.621094 26.171875 L 0.691406 26.171875 Z M 0.691406 0.308594 " fill-opacity="1" fill-rule="nonzero"/></g></g></g></g><g mask="url(#a80ab26e41)"><g transform="matrix(1, 0, 0, 1, 232, 103)"><g clip-path="url(#5a164d1649)"><g clip-path="url(#06f1b7896e)"><path fill="#ffffff" d="M 0.757812 0.449219 L 13.691406 0.449219 L 13.691406 26.308594 L 0.757812 26.308594 Z M 0.757812 0.449219 " fill-opacity="1" fill-rule="nonzero"/></g></g></g></g><g mask="url(#f43bf01ed7)"><g transform="matrix(1, 0, 0, 1, 219, 77)"><g clip-path="url(#20ac4fb29b)"><g clip-path="url(#fa0f08dcf4)"><path fill="#ffffff" d="M 0.828125 0.585938 L 13.757812 0.585938 L 13.757812 26.449219 L 0.828125 26.449219 Z M 0.828125 0.585938 " fill-opacity="1" fill-rule="nonzero"/></g></g></g></g><g mask="url(#a96eb78bcd)"><g transform="matrix(1, 0, 0, 1, 206, 51)"><g clip-path="url(#e6d69aa4f1)"><g clip-path="url(#99f73d0f3e)"><path fill="#ffffff" d="M 0.898438 0.722656 L 13.828125 0.722656 L 13.828125 26.585938 L 0.898438 26.585938 Z M 0.898438 0.722656 " fill-opacity="1" fill-rule="nonzero"/></g></g></g></g><g mask="url(#be89c8c374)"><g transform="matrix(1, 0, 0, 1, 193, 25)"><g clip-path="url(#bcfa9f8340)"><g clip-path="url(#6df31e67ed)"><path fill="#ffffff" d="M 0.964844 0.863281 L 13.898438 0.863281 L 13.898438 26.722656 L 0.964844 26.722656 Z M 0.964844 0.863281 " fill-opacity="1" fill-rule="nonzero"/></g></g></g></g><g mask="url(#d9ea283cfe)"><g transform="matrix(1, 0, 0, 1, 155, 12)"><g clip-path="url(#30aa5967db)"><g clip-path="url(#bc9485f939)"><path fill="#ffffff" d="M 0.171875 0.929688 L 38.964844 0.929688 L 38.964844 13.863281 L 0.171875 13.863281 Z M 0.171875 0.929688 " fill-opacity="1" fill-rule="nonzero"/></g></g></g></g></svg>