<svg xmlns="http://www.w3.org/2000/svg" xmlns:xlink="http://www.w3.org/1999/xlink" width="500" zoomAndPan="magnify" viewBox="0 0 375 374.999991" height="500" preserveAspectRatio="xMidYMid meet" version="1.0"><defs><clipPath id="dc352a2233"><path d="M 15.4375 11.597656 L 359.6875 11.597656 L 359.6875 363.347656 L 15.4375 363.347656 Z M 15.4375 11.597656 " clip-rule="nonzero"/></clipPath><clipPath id="b3c6430b54"><path d="M 37 11.597656 L 331 11.597656 L 331 342 L 37 342 Z M 37 11.597656 " clip-rule="nonzero"/></clipPath><clipPath id="b2f39baa9c"><path d="M 15.4375 253 L 359.6875 253 L 359.6875 363.347656 L 15.4375 363.347656 Z M 15.4375 253 " clip-rule="nonzero"/></clipPath></defs><g clip-path="url(#dc352a2233)"><path fill="#31c542" d="M 271.785156 202.117188 L 264.457031 202.117188 L 264.457031 216.75 L 257.136719 216.75 L 257.136719 224.078125 L 227.835938 224.078125 L 227.835938 216.75 L 220.515625 216.75 L 220.515625 224.078125 L 213.1875 224.078125 L 213.1875 209.433594 L 220.515625 209.433594 L 220.515625 194.792969 L 227.835938 194.792969 L 227.835938 187.472656 L 242.484375 187.472656 L 242.484375 180.148438 L 264.457031 180.148438 L 264.457031 187.472656 L 271.785156 187.472656 Z M 155.859375 202.117188 L 155.859375 194.792969 L 148.539062 194.792969 L 148.539062 187.472656 L 133.886719 187.472656 L 133.886719 180.148438 L 111.917969 180.148438 L 111.917969 187.472656 L 104.589844 187.472656 L 104.589844 202.117188 L 111.917969 202.117188 L 111.917969 216.75 L 119.238281 216.75 L 119.238281 224.078125 L 148.539062 224.078125 L 148.539062 216.75 L 155.859375 216.75 L 155.859375 224.078125 L 163.1875 224.078125 L 163.1875 209.433594 L 155.859375 209.433594 Z M 176.5625 158.1875 L 176.5625 165.511719 L 198.542969 165.511719 L 198.542969 158.1875 L 220.515625 158.1875 L 220.515625 143.546875 L 205.863281 143.546875 L 205.863281 136.226562 L 169.242188 136.226562 L 169.242188 143.546875 L 154.59375 143.546875 L 154.59375 158.1875 Z M 257.136719 246.035156 L 257.136719 238.71875 L 249.808594 238.71875 L 249.808594 253.355469 L 264.457031 253.355469 L 264.457031 246.035156 Z M 257.136719 114.269531 L 257.136719 128.910156 L 271.785156 128.910156 L 271.785156 136.226562 L 279.105469 136.226562 L 279.105469 121.585938 L 264.457031 121.585938 L 264.457031 106.941406 L 271.785156 106.941406 L 271.785156 92.308594 L 279.105469 92.308594 L 279.105469 84.984375 L 286.429688 84.984375 L 286.429688 77.664062 L 293.757812 77.664062 L 293.757812 63.023438 L 301.078125 63.023438 L 301.078125 55.703125 L 308.398438 55.703125 L 308.398438 41.0625 L 301.078125 41.0625 L 301.078125 48.378906 L 293.757812 48.378906 L 293.757812 55.703125 L 286.429688 55.703125 L 286.429688 70.347656 L 279.105469 70.347656 L 279.105469 77.664062 L 271.785156 77.664062 L 271.785156 84.984375 L 264.457031 84.984375 L 264.457031 99.625 L 257.136719 99.625 Z M 117.972656 114.269531 L 117.972656 121.585938 L 125.300781 121.585938 L 125.300781 128.910156 L 132.621094 128.910156 L 132.621094 114.269531 Z M 301.078125 187.472656 L 308.398438 187.472656 L 308.398438 180.148438 L 301.078125 180.148438 Z M 301.078125 143.546875 L 301.078125 158.1875 L 308.398438 158.1875 L 308.398438 136.226562 L 301.078125 136.226562 Z M 293.757812 106.941406 L 293.757812 99.625 L 279.105469 99.625 L 279.105469 106.941406 Z M 301.078125 114.269531 L 301.078125 121.585938 L 308.398438 121.585938 L 308.398438 106.941406 L 293.757812 106.941406 L 293.757812 114.269531 Z M 293.757812 136.226562 L 293.757812 128.910156 L 286.429688 128.910156 L 286.429688 143.546875 L 293.757812 143.546875 Z M 271.785156 231.394531 L 271.785156 238.71875 L 286.429688 238.71875 L 286.429688 231.394531 Z M 293.757812 202.117188 L 286.429688 202.117188 L 286.429688 209.433594 L 293.757812 209.433594 Z M 301.078125 216.75 L 301.078125 209.433594 L 293.757812 209.433594 L 293.757812 216.75 Z M 191.214844 231.394531 L 191.214844 238.71875 L 205.863281 238.71875 L 205.863281 231.394531 Z M 213.1875 172.832031 L 198.542969 172.832031 L 198.542969 180.148438 L 213.1875 180.148438 Z M 301.078125 84.984375 L 308.398438 84.984375 L 308.398438 77.664062 L 293.757812 77.664062 L 293.757812 84.984375 Z M 198.542969 202.117188 L 191.214844 202.117188 L 191.214844 209.433594 L 183.894531 209.433594 L 183.894531 202.117188 L 176.5625 202.117188 L 176.5625 216.75 L 183.894531 216.75 L 183.894531 224.078125 L 191.214844 224.078125 L 191.214844 216.75 L 205.863281 216.75 L 205.863281 209.433594 L 198.542969 209.433594 Z M 74.027344 84.984375 L 81.351562 84.984375 L 81.351562 77.664062 L 59.378906 77.664062 L 59.378906 84.984375 Z M 88.679688 209.433594 L 81.351562 209.433594 L 81.351562 216.75 L 74.027344 216.75 L 74.027344 224.078125 L 88.679688 224.078125 L 88.679688 216.75 L 96 216.75 L 96 202.117188 L 88.679688 202.117188 Z M 117.972656 165.511719 L 132.621094 165.511719 L 132.621094 158.1875 L 125.300781 158.1875 L 125.300781 150.871094 L 110.652344 150.871094 L 110.652344 158.1875 L 117.972656 158.1875 Z M 110.652344 158.1875 L 103.320312 158.1875 L 103.320312 150.871094 L 96 150.871094 L 96 165.511719 L 110.652344 165.511719 Z M 88.679688 238.71875 L 96 238.71875 L 96 224.078125 L 88.679688 224.078125 Z M 74.027344 158.1875 L 74.027344 172.832031 L 88.679688 172.832031 L 88.679688 165.511719 L 81.351562 165.511719 L 81.351562 158.1875 Z M 110.652344 238.71875 L 110.652344 253.355469 L 117.972656 253.355469 L 117.972656 246.035156 L 125.300781 246.035156 L 125.300781 238.71875 Z M 183.894531 187.472656 L 191.214844 187.472656 L 191.214844 180.148438 L 183.894531 180.148438 Z M 169.242188 172.832031 L 169.242188 180.148438 L 176.5625 180.148438 L 176.5625 165.511719 L 169.242188 165.511719 Z M 271.785156 165.511719 L 271.785156 158.1875 L 264.457031 158.1875 L 264.457031 172.832031 L 271.785156 172.832031 Z M 235.164062 165.511719 L 235.164062 172.832031 L 242.484375 172.832031 L 242.484375 165.511719 L 249.808594 165.511719 L 249.808594 158.1875 L 235.164062 158.1875 Z M 161.921875 136.226562 L 161.921875 128.910156 L 147.273438 128.910156 L 147.273438 136.226562 Z M 235.164062 136.226562 L 235.164062 128.910156 L 227.835938 128.910156 L 227.835938 143.546875 L 235.164062 143.546875 Z M 286.429688 180.148438 L 293.757812 180.148438 L 293.757812 172.832031 L 286.429688 172.832031 Z M 81.351562 99.625 L 88.679688 99.625 L 88.679688 92.308594 L 66.707031 92.308594 L 66.707031 99.625 Z M 147.273438 143.546875 L 147.273438 136.226562 L 132.621094 136.226562 L 132.621094 143.546875 Z M 169.242188 231.394531 L 169.242188 238.71875 L 176.5625 238.71875 L 176.5625 224.078125 L 169.242188 224.078125 Z M 74.027344 55.703125 L 81.351562 55.703125 L 81.351562 70.347656 L 88.679688 70.347656 L 88.679688 77.664062 L 96 77.664062 L 96 92.308594 L 103.320312 92.308594 L 103.320312 99.625 L 96 99.625 L 96 114.269531 L 88.679688 114.269531 L 88.679688 128.910156 L 96 128.910156 L 96 121.585938 L 103.320312 121.585938 L 103.320312 106.941406 L 110.652344 106.941406 L 110.652344 84.984375 L 103.320312 84.984375 L 103.320312 70.347656 L 96 70.347656 L 96 63.023438 L 88.679688 63.023438 L 88.679688 48.378906 L 81.351562 48.378906 L 81.351562 41.0625 L 74.027344 41.0625 L 74.027344 33.746094 L 66.707031 33.746094 L 66.707031 48.378906 L 74.027344 48.378906 Z M 359.671875 260.679688 L 359.671875 267.996094 L 345.019531 267.996094 L 345.019531 260.679688 L 308.398438 260.679688 L 308.398438 267.996094 L 301.078125 267.996094 L 301.078125 275.320312 L 293.757812 275.320312 L 293.757812 260.679688 L 271.785156 260.679688 L 271.785156 267.996094 L 257.136719 267.996094 L 257.136719 282.640625 L 286.429688 282.640625 L 286.429688 275.320312 L 293.757812 275.320312 L 293.757812 297.28125 L 308.398438 297.28125 L 308.398438 304.597656 L 323.050781 304.597656 L 323.050781 311.917969 L 330.378906 311.917969 L 330.378906 319.242188 L 315.730469 319.242188 L 315.730469 311.917969 L 301.078125 311.917969 L 301.078125 304.597656 L 286.429688 304.597656 L 286.429688 297.28125 L 279.105469 297.28125 L 279.105469 304.597656 L 271.785156 304.597656 L 271.785156 319.242188 L 279.105469 319.242188 L 279.105469 326.558594 L 286.429688 326.558594 L 286.429688 333.882812 L 293.757812 333.882812 L 293.757812 348.519531 L 286.429688 348.519531 L 286.429688 341.203125 L 279.105469 341.203125 L 279.105469 333.882812 L 271.785156 333.882812 L 271.785156 326.558594 L 264.457031 326.558594 L 264.457031 319.242188 L 257.136719 319.242188 L 257.136719 311.917969 L 242.484375 311.917969 L 242.484375 319.242188 L 220.515625 319.242188 L 220.515625 326.558594 L 213.1875 326.558594 L 213.1875 333.882812 L 198.542969 333.882812 L 198.542969 326.558594 L 205.863281 326.558594 L 205.863281 319.242188 L 198.542969 319.242188 L 198.542969 326.558594 L 176.566406 326.558594 L 176.566406 319.242188 L 191.214844 319.242188 L 191.214844 304.597656 L 183.894531 304.597656 L 183.894531 297.28125 L 176.566406 297.28125 L 176.566406 304.597656 L 169.242188 304.597656 L 169.242188 311.917969 L 161.921875 311.917969 L 161.921875 319.242188 L 169.242188 319.242188 L 169.242188 326.558594 L 176.566406 326.558594 L 176.566406 333.882812 L 198.542969 333.882812 L 198.542969 341.203125 L 169.242188 341.203125 L 169.242188 333.882812 L 161.921875 333.882812 L 161.921875 326.558594 L 154.59375 326.558594 L 154.59375 319.242188 L 147.273438 319.242188 L 147.273438 326.558594 L 132.621094 326.558594 L 132.621094 319.242188 L 125.300781 319.242188 L 125.300781 326.558594 L 117.972656 326.558594 L 117.972656 333.882812 L 110.652344 333.882812 L 110.652344 348.519531 L 103.320312 348.519531 L 103.320312 363.164062 L 96 363.164062 L 96 341.203125 L 103.320312 341.203125 L 103.320312 326.558594 L 110.652344 326.558594 L 110.652344 319.242188 L 117.972656 319.242188 L 117.972656 304.597656 L 88.679688 304.597656 L 88.679688 311.917969 L 74.027344 311.917969 L 74.027344 319.242188 L 66.707031 319.242188 L 66.707031 326.558594 L 52.058594 326.558594 L 52.058594 333.882812 L 44.730469 333.882812 L 44.730469 341.203125 L 37.40625 341.203125 L 37.40625 326.558594 L 44.730469 326.558594 L 44.730469 319.242188 L 59.378906 319.242188 L 59.378906 311.917969 L 66.707031 311.917969 L 66.707031 304.597656 L 81.351562 304.597656 L 81.351562 297.28125 L 96 297.28125 L 96 289.957031 L 88.679688 289.957031 L 88.679688 282.640625 L 81.351562 282.640625 L 81.351562 275.320312 L 52.058594 275.320312 L 52.058594 282.640625 L 37.40625 282.640625 L 37.40625 289.957031 L 22.757812 289.957031 L 22.757812 297.28125 L 15.4375 297.28125 L 15.4375 282.640625 L 30.085938 282.640625 L 30.085938 275.320312 L 44.730469 275.320312 L 44.730469 267.996094 L 66.707031 267.996094 L 66.707031 260.679688 L 59.378906 260.679688 L 59.378906 231.394531 L 52.058594 231.394531 L 52.058594 194.792969 L 44.730469 194.792969 L 44.730469 165.511719 L 52.058594 165.511719 L 52.058594 143.546875 L 44.730469 143.546875 L 44.730469 106.941406 L 37.40625 106.941406 L 37.40625 26.417969 L 44.730469 26.417969 L 44.730469 11.777344 L 81.351562 11.777344 L 81.351562 19.101562 L 96 19.101562 L 96 26.417969 L 103.320312 26.417969 L 103.320312 41.0625 L 110.652344 41.0625 L 110.652344 48.378906 L 117.972656 48.378906 L 117.972656 63.023438 L 125.300781 63.023438 L 125.300781 77.664062 L 132.621094 77.664062 L 132.621094 92.308594 L 139.941406 92.308594 L 139.941406 99.625 L 242.484375 99.625 L 242.484375 92.308594 L 249.808594 92.308594 L 249.808594 77.664062 L 257.136719 77.664062 L 257.136719 63.023438 L 264.457031 63.023438 L 264.457031 48.378906 L 271.785156 48.378906 L 271.785156 41.0625 L 279.105469 41.0625 L 279.105469 33.746094 L 286.429688 33.746094 L 286.429688 26.417969 L 293.757812 26.417969 L 293.757812 19.101562 L 301.078125 19.101562 L 301.078125 11.777344 L 315.730469 11.777344 L 315.730469 19.101562 L 323.050781 19.101562 L 323.050781 41.0625 L 330.378906 41.0625 L 330.378906 70.347656 L 330.484375 70.347656 L 330.484375 77.664062 L 330.378906 77.664062 L 330.378906 180.148438 L 323.050781 180.148438 L 323.050781 202.117188 L 315.730469 202.117188 L 315.730469 253.355469 L 352.351562 253.355469 L 352.351562 260.679688 Z M 110.652344 289.957031 L 110.652344 275.320312 L 103.320312 275.320312 L 103.320312 267.996094 L 88.679688 267.996094 L 88.679688 275.320312 L 96 275.320312 L 96 282.640625 L 103.320312 282.640625 L 103.320312 289.957031 Z M 132.621094 304.597656 L 132.621094 297.28125 L 125.300781 297.28125 L 125.300781 304.597656 Z M 257.136719 289.957031 L 257.136719 304.597656 L 264.457031 304.597656 L 264.457031 297.28125 L 271.785156 297.28125 L 271.785156 289.957031 Z M 249.808594 275.320312 L 242.484375 275.320312 L 242.484375 282.640625 L 249.808594 282.640625 Z M 293.757812 253.355469 L 301.078125 253.355469 L 301.078125 246.035156 L 308.398438 246.035156 L 308.398438 194.792969 L 315.730469 194.792969 L 315.730469 172.832031 L 323.050781 172.832031 L 323.050781 48.378906 L 315.730469 48.378906 L 315.730469 26.417969 L 301.078125 26.417969 L 301.078125 33.746094 L 293.757812 33.746094 L 293.757812 41.0625 L 286.429688 41.0625 L 286.429688 48.378906 L 279.105469 48.378906 L 279.105469 55.703125 L 271.785156 55.703125 L 271.785156 70.347656 L 264.457031 70.347656 L 264.457031 84.984375 L 257.136719 84.984375 L 257.136719 99.625 L 249.808594 99.625 L 249.808594 106.941406 L 242.484375 106.941406 L 242.484375 121.585938 L 227.835938 121.585938 L 227.835938 106.941406 L 147.273438 106.941406 L 147.273438 114.269531 L 132.621094 114.269531 L 132.621094 99.625 L 125.300781 99.625 L 125.300781 84.984375 L 117.972656 84.984375 L 117.972656 70.347656 L 110.652344 70.347656 L 110.652344 55.703125 L 103.320312 55.703125 L 103.320312 48.378906 L 96 48.378906 L 96 33.746094 L 88.679688 33.746094 L 88.679688 26.417969 L 74.027344 26.417969 L 74.027344 19.101562 L 52.058594 19.101562 L 52.058594 33.746094 L 44.730469 33.746094 L 44.730469 99.625 L 52.058594 99.625 L 52.058594 136.226562 L 59.378906 136.226562 L 59.378906 172.832031 L 52.058594 172.832031 L 52.058594 187.472656 L 59.378906 187.472656 L 59.378906 224.078125 L 66.707031 224.078125 L 66.707031 253.355469 L 74.027344 253.355469 L 74.027344 260.679688 L 110.652344 260.679688 L 110.652344 267.996094 L 132.621094 267.996094 L 132.621094 275.320312 L 147.273438 275.320312 L 147.273438 282.640625 L 154.59375 282.640625 L 154.59375 289.957031 L 139.941406 289.957031 L 139.941406 282.640625 L 117.972656 282.640625 L 117.972656 289.957031 L 139.941406 289.957031 L 139.941406 297.28125 L 147.273438 297.28125 L 147.273438 304.597656 L 139.941406 304.597656 L 139.941406 311.917969 L 154.59375 311.917969 L 154.59375 304.597656 L 161.921875 304.597656 L 161.921875 297.28125 L 169.242188 297.28125 L 169.242188 289.957031 L 176.5625 289.957031 L 176.5625 275.320312 L 169.242188 275.320312 L 169.242188 267.996094 L 161.921875 267.996094 L 161.921875 253.355469 L 176.5625 253.355469 L 176.5625 260.679688 L 198.542969 260.679688 L 198.542969 253.355469 L 205.863281 253.355469 L 205.863281 267.996094 L 198.542969 267.996094 L 198.542969 275.320312 L 191.214844 275.320312 L 191.214844 297.28125 L 198.542969 297.28125 L 198.542969 304.597656 L 213.1875 304.597656 L 213.1875 311.917969 L 235.164062 311.917969 L 235.164062 304.597656 L 227.835938 304.597656 L 227.835938 297.28125 L 249.808594 297.28125 L 249.808594 289.957031 L 235.164062 289.957031 L 235.164062 282.640625 L 227.835938 282.640625 L 227.835938 275.320312 L 235.164062 275.320312 L 235.164062 267.996094 L 249.808594 267.996094 L 249.808594 260.679688 L 264.457031 260.679688 L 264.457031 253.355469 Z M 293.757812 253.355469 " fill-opacity="1" fill-rule="nonzero"/></g><path fill="#31c542" d="M 155.859375 209.433594 L 163.1875 209.433594 L 163.1875 224.078125 L 155.859375 224.078125 L 155.859375 216.75 L 148.539062 216.75 L 148.539062 224.078125 L 119.238281 224.078125 L 119.238281 216.75 L 111.917969 216.75 L 111.917969 202.117188 L 104.589844 202.117188 L 104.589844 187.472656 L 111.917969 187.472656 L 111.917969 180.148438 L 133.886719 180.148438 L 133.886719 187.472656 L 148.539062 187.472656 L 148.539062 194.792969 L 155.859375 194.792969 Z M 176.5625 158.1875 L 176.5625 165.511719 L 198.542969 165.511719 L 198.542969 158.1875 L 220.515625 158.1875 L 220.515625 143.546875 L 205.863281 143.546875 L 205.863281 136.226562 L 169.242188 136.226562 L 169.242188 143.546875 L 154.59375 143.546875 L 154.59375 158.1875 Z M 271.785156 194.792969 L 271.785156 187.472656 L 264.457031 187.472656 L 264.457031 180.148438 L 242.484375 180.148438 L 242.484375 187.472656 L 227.835938 187.472656 L 227.835938 194.792969 L 220.515625 194.792969 L 220.515625 209.433594 L 213.1875 209.433594 L 213.1875 224.078125 L 220.515625 224.078125 L 220.515625 216.75 L 227.835938 216.75 L 227.835938 224.078125 L 257.136719 224.078125 L 257.136719 216.75 L 264.457031 216.75 L 264.457031 202.117188 L 271.785156 202.117188 Z M 293.757812 136.226562 L 293.757812 128.910156 L 286.429688 128.910156 L 286.429688 143.546875 L 293.757812 143.546875 Z M 293.757812 106.941406 L 293.757812 99.625 L 279.105469 99.625 L 279.105469 106.941406 Z M 271.785156 165.511719 L 271.785156 158.1875 L 264.457031 158.1875 L 264.457031 172.832031 L 271.785156 172.832031 Z M 286.429688 180.148438 L 293.757812 180.148438 L 293.757812 172.832031 L 286.429688 172.832031 Z M 301.078125 114.269531 L 301.078125 121.585938 L 308.398438 121.585938 L 308.398438 106.941406 L 293.757812 106.941406 L 293.757812 114.269531 Z M 301.078125 187.472656 L 308.398438 187.472656 L 308.398438 180.148438 L 301.078125 180.148438 Z M 257.136719 114.269531 L 257.136719 128.910156 L 271.785156 128.910156 L 271.785156 136.226562 L 279.105469 136.226562 L 279.105469 121.585938 L 264.457031 121.585938 L 264.457031 106.941406 L 271.785156 106.941406 L 271.785156 92.308594 L 279.105469 92.308594 L 279.105469 84.984375 L 286.429688 84.984375 L 286.429688 77.664062 L 293.757812 77.664062 L 293.757812 63.023438 L 301.078125 63.023438 L 301.078125 55.703125 L 308.398438 55.703125 L 308.398438 41.0625 L 301.078125 41.0625 L 301.078125 48.378906 L 293.757812 48.378906 L 293.757812 55.703125 L 286.429688 55.703125 L 286.429688 70.347656 L 279.105469 70.347656 L 279.105469 77.664062 L 271.785156 77.664062 L 271.785156 84.984375 L 264.457031 84.984375 L 264.457031 99.625 L 257.136719 99.625 Z M 117.972656 114.269531 L 117.972656 121.585938 L 125.300781 121.585938 L 125.300781 128.910156 L 132.621094 128.910156 L 132.621094 114.269531 Z M 301.078125 84.984375 L 308.398438 84.984375 L 308.398438 77.664062 L 293.757812 77.664062 L 293.757812 84.984375 Z M 301.078125 143.546875 L 301.078125 158.1875 L 308.398438 158.1875 L 308.398438 136.226562 L 301.078125 136.226562 Z M 235.164062 165.511719 L 235.164062 172.832031 L 242.484375 172.832031 L 242.484375 165.511719 L 249.808594 165.511719 L 249.808594 158.1875 L 235.164062 158.1875 Z M 257.136719 246.035156 L 257.136719 238.71875 L 249.808594 238.71875 L 249.808594 253.355469 L 264.457031 253.355469 L 264.457031 246.035156 Z M 74.027344 55.703125 L 81.351562 55.703125 L 81.351562 70.347656 L 88.679688 70.347656 L 88.679688 77.664062 L 96 77.664062 L 96 92.308594 L 103.320312 92.308594 L 103.320312 99.625 L 96 99.625 L 96 114.269531 L 88.679688 114.269531 L 88.679688 128.910156 L 96 128.910156 L 96 121.585938 L 103.320312 121.585938 L 103.320312 106.941406 L 110.652344 106.941406 L 110.652344 84.984375 L 103.320312 84.984375 L 103.320312 70.347656 L 96 70.347656 L 96 63.023438 L 88.679688 63.023438 L 88.679688 48.378906 L 81.351562 48.378906 L 81.351562 41.0625 L 74.027344 41.0625 L 74.027344 33.746094 L 66.707031 33.746094 L 66.707031 48.378906 L 74.027344 48.378906 Z M 191.214844 231.394531 L 191.214844 238.71875 L 205.863281 238.71875 L 205.863281 231.394531 Z M 198.542969 202.117188 L 191.214844 202.117188 L 191.214844 209.433594 L 183.894531 209.433594 L 183.894531 202.117188 L 176.5625 202.117188 L 176.5625 216.75 L 183.894531 216.75 L 183.894531 224.078125 L 191.214844 224.078125 L 191.214844 216.75 L 205.863281 216.75 L 205.863281 209.433594 L 198.542969 209.433594 Z M 169.242188 231.394531 L 169.242188 238.71875 L 176.5625 238.71875 L 176.5625 224.078125 L 169.242188 224.078125 Z M 169.242188 172.832031 L 169.242188 180.148438 L 176.5625 180.148438 L 176.5625 165.511719 L 169.242188 165.511719 Z M 183.894531 187.472656 L 191.214844 187.472656 L 191.214844 180.148438 L 183.894531 180.148438 Z M 213.1875 172.832031 L 198.542969 172.832031 L 198.542969 180.148438 L 213.1875 180.148438 Z M 301.078125 216.75 L 301.078125 209.433594 L 293.757812 209.433594 L 293.757812 216.75 Z M 293.757812 202.117188 L 286.429688 202.117188 L 286.429688 209.433594 L 293.757812 209.433594 Z M 110.652344 238.71875 L 110.652344 253.355469 L 117.972656 253.355469 L 117.972656 246.035156 L 125.300781 246.035156 L 125.300781 238.71875 Z M 271.785156 231.394531 L 271.785156 238.71875 L 286.429688 238.71875 L 286.429688 231.394531 Z M 161.921875 136.226562 L 161.921875 128.910156 L 147.273438 128.910156 L 147.273438 136.226562 Z M 74.027344 84.984375 L 81.351562 84.984375 L 81.351562 77.664062 L 59.378906 77.664062 L 59.378906 84.984375 Z M 110.652344 158.1875 L 103.320312 158.1875 L 103.320312 150.871094 L 96 150.871094 L 96 165.511719 L 110.652344 165.511719 Z M 235.164062 136.226562 L 235.164062 128.910156 L 227.835938 128.910156 L 227.835938 143.546875 L 235.164062 143.546875 Z M 81.351562 99.625 L 88.679688 99.625 L 88.679688 92.308594 L 66.707031 92.308594 L 66.707031 99.625 Z M 147.273438 143.546875 L 147.273438 136.226562 L 132.621094 136.226562 L 132.621094 143.546875 Z M 117.972656 165.511719 L 132.621094 165.511719 L 132.621094 158.1875 L 125.300781 158.1875 L 125.300781 150.871094 L 110.652344 150.871094 L 110.652344 158.1875 L 117.972656 158.1875 Z M 74.027344 158.1875 L 74.027344 172.832031 L 88.679688 172.832031 L 88.679688 165.511719 L 81.351562 165.511719 L 81.351562 158.1875 Z M 88.679688 209.433594 L 81.351562 209.433594 L 81.351562 216.75 L 74.027344 216.75 L 74.027344 224.078125 L 88.679688 224.078125 L 88.679688 216.75 L 96 216.75 L 96 202.117188 L 88.679688 202.117188 Z M 88.679688 238.71875 L 96 238.71875 L 96 224.078125 L 88.679688 224.078125 Z M 88.679688 238.71875 " fill-opacity="1" fill-rule="nonzero"/><path fill="#31c542" d="M 205.863281 253.355469 L 205.863281 267.996094 L 198.542969 267.996094 L 198.542969 275.320312 L 191.214844 275.320312 L 191.214844 282.640625 L 176.5625 282.640625 L 176.5625 275.320312 L 169.242188 275.320312 L 169.242188 267.996094 L 161.921875 267.996094 L 161.921875 253.355469 L 176.5625 253.355469 L 176.5625 260.679688 L 198.542969 260.679688 L 198.542969 253.355469 Z M 205.863281 253.355469 " fill-opacity="1" fill-rule="nonzero"/><path fill="#ffb800" d="M 271.785156 187.472656 L 271.785156 202.117188 L 264.457031 202.117188 L 264.457031 216.75 L 257.136719 216.75 L 257.136719 187.472656 L 242.484375 187.472656 L 242.484375 180.148438 L 264.457031 180.148438 L 264.457031 187.472656 Z M 242.484375 216.75 L 242.484375 187.472656 L 227.835938 187.472656 L 227.835938 194.792969 L 220.515625 194.792969 L 220.515625 209.433594 L 213.1875 209.433594 L 213.1875 224.078125 L 220.515625 224.078125 L 220.515625 216.75 L 227.835938 216.75 L 227.835938 224.078125 L 257.136719 224.078125 L 257.136719 216.75 Z M 155.859375 202.117188 L 155.859375 194.792969 L 148.539062 194.792969 L 148.539062 187.472656 L 141.210938 187.472656 L 141.210938 216.75 L 126.566406 216.75 L 126.566406 187.472656 L 133.886719 187.472656 L 133.886719 180.148438 L 111.917969 180.148438 L 111.917969 187.472656 L 104.589844 187.472656 L 104.589844 202.117188 L 111.917969 202.117188 L 111.917969 216.75 L 119.238281 216.75 L 119.238281 224.078125 L 148.539062 224.078125 L 148.539062 216.75 L 155.859375 216.75 L 155.859375 224.078125 L 163.1875 224.078125 L 163.1875 209.433594 L 155.859375 209.433594 Z M 220.515625 158.1875 L 220.515625 143.546875 L 205.863281 143.546875 L 205.863281 136.226562 L 169.242188 136.226562 L 169.242188 143.546875 L 154.59375 143.546875 L 154.59375 158.1875 L 176.5625 158.1875 L 176.5625 143.546875 L 198.542969 143.546875 L 198.542969 158.1875 Z M 183.894531 158.1875 L 176.5625 158.1875 L 176.5625 165.511719 L 198.542969 165.511719 L 198.542969 158.1875 Z M 183.894531 158.1875 " fill-opacity="1" fill-rule="nonzero"/><g clip-path="url(#b3c6430b54)"><path fill="#7700ff" d="M 301.078125 187.472656 L 308.398438 187.472656 L 308.398438 180.148438 L 301.078125 180.148438 Z M 308.398438 150.871094 L 308.398438 136.226562 L 301.078125 136.226562 L 301.078125 158.1875 L 308.398438 158.1875 Z M 293.757812 260.679688 L 293.757812 275.320312 L 301.078125 275.320312 L 301.078125 267.996094 L 308.398438 267.996094 L 308.398438 260.679688 Z M 301.078125 216.75 L 301.078125 209.433594 L 293.757812 209.433594 L 293.757812 216.75 Z M 301.078125 114.269531 L 301.078125 121.585938 L 308.398438 121.585938 L 308.398438 106.941406 L 293.757812 106.941406 L 293.757812 114.269531 Z M 301.078125 84.984375 L 308.398438 84.984375 L 308.398438 77.664062 L 293.757812 77.664062 L 293.757812 84.984375 Z M 286.429688 282.640625 L 279.105469 282.640625 L 279.105469 289.957031 L 293.757812 289.957031 L 293.757812 275.320312 L 286.429688 275.320312 Z M 286.429688 202.117188 L 286.429688 209.433594 L 293.757812 209.433594 L 293.757812 202.117188 Z M 286.429688 180.148438 L 293.757812 180.148438 L 293.757812 172.832031 L 286.429688 172.832031 Z M 293.757812 136.226562 L 293.757812 128.910156 L 286.429688 128.910156 L 286.429688 143.546875 L 293.757812 143.546875 Z M 286.429688 99.625 L 279.105469 99.625 L 279.105469 106.941406 L 293.757812 106.941406 L 293.757812 99.625 Z M 271.785156 231.394531 L 271.785156 238.71875 L 286.429688 238.71875 L 286.429688 231.394531 Z M 264.457031 297.28125 L 264.457031 311.917969 L 271.785156 311.917969 L 271.785156 304.597656 L 279.105469 304.597656 L 279.105469 297.28125 Z M 264.457031 165.511719 L 264.457031 172.832031 L 271.785156 172.832031 L 271.785156 158.1875 L 264.457031 158.1875 Z M 264.457031 99.625 L 257.136719 99.625 L 257.136719 128.910156 L 271.785156 128.910156 L 271.785156 136.226562 L 279.105469 136.226562 L 279.105469 121.585938 L 264.457031 121.585938 L 264.457031 106.941406 L 271.785156 106.941406 L 271.785156 92.308594 L 279.105469 92.308594 L 279.105469 84.984375 L 286.429688 84.984375 L 286.429688 77.664062 L 293.757812 77.664062 L 293.757812 63.023438 L 301.078125 63.023438 L 301.078125 55.703125 L 308.398438 55.703125 L 308.398438 41.0625 L 301.078125 41.0625 L 301.078125 48.378906 L 293.757812 48.378906 L 293.757812 55.703125 L 286.429688 55.703125 L 286.429688 70.347656 L 279.105469 70.347656 L 279.105469 77.664062 L 271.785156 77.664062 L 271.785156 84.984375 L 264.457031 84.984375 Z M 264.457031 246.035156 L 257.136719 246.035156 L 257.136719 238.71875 L 249.808594 238.71875 L 249.808594 253.355469 L 264.457031 253.355469 Z M 249.808594 297.28125 L 242.484375 297.28125 L 242.484375 304.597656 L 257.136719 304.597656 L 257.136719 289.957031 L 249.808594 289.957031 Z M 249.808594 282.640625 L 257.136719 282.640625 L 257.136719 275.320312 L 249.808594 275.320312 Z M 235.164062 158.1875 L 235.164062 172.832031 L 242.484375 172.832031 L 242.484375 165.511719 L 249.808594 165.511719 L 249.808594 158.1875 Z M 227.835938 311.917969 L 213.1875 311.917969 L 213.1875 304.597656 L 198.542969 304.597656 L 198.542969 297.28125 L 191.214844 297.28125 L 191.214844 282.640625 L 176.5625 282.640625 L 176.5625 289.957031 L 169.242188 289.957031 L 169.242188 297.28125 L 161.921875 297.28125 L 161.921875 304.597656 L 154.59375 304.597656 L 154.59375 311.917969 L 139.941406 311.917969 L 139.941406 319.242188 L 132.621094 319.242188 L 132.621094 326.558594 L 147.273438 326.558594 L 147.273438 319.242188 L 154.59375 319.242188 L 154.59375 326.558594 L 161.921875 326.558594 L 161.921875 333.882812 L 169.242188 333.882812 L 169.242188 341.203125 L 198.542969 341.203125 L 198.542969 333.882812 L 176.5625 333.882812 L 176.5625 326.558594 L 169.242188 326.558594 L 169.242188 319.242188 L 161.921875 319.242188 L 161.921875 311.917969 L 169.242188 311.917969 L 169.242188 304.597656 L 176.5625 304.597656 L 176.5625 297.28125 L 183.894531 297.28125 L 183.894531 304.597656 L 191.214844 304.597656 L 191.214844 319.242188 L 176.5625 319.242188 L 176.5625 326.558594 L 198.542969 326.558594 L 198.542969 319.242188 L 205.863281 319.242188 L 205.863281 326.558594 L 198.542969 326.558594 L 198.542969 333.882812 L 213.1875 333.882812 L 213.1875 326.558594 L 220.515625 326.558594 L 220.515625 319.242188 L 242.484375 319.242188 L 242.484375 311.917969 Z M 227.835938 136.226562 L 227.835938 143.546875 L 235.164062 143.546875 L 235.164062 128.910156 L 227.835938 128.910156 Z M 242.484375 187.472656 L 242.484375 216.75 L 257.136719 216.75 L 257.136719 187.472656 Z M 126.566406 194.792969 L 126.566406 216.75 L 141.210938 216.75 L 141.210938 187.472656 L 126.566406 187.472656 Z M 198.542969 180.148438 L 213.1875 180.148438 L 213.1875 172.832031 L 198.542969 172.832031 Z M 191.214844 231.394531 L 191.214844 238.71875 L 205.863281 238.71875 L 205.863281 231.394531 Z M 183.894531 187.472656 L 191.214844 187.472656 L 191.214844 180.148438 L 183.894531 180.148438 Z M 183.894531 143.546875 L 176.5625 143.546875 L 176.5625 158.1875 L 198.542969 158.1875 L 198.542969 143.546875 Z M 176.5625 209.433594 L 176.5625 216.75 L 183.894531 216.75 L 183.894531 224.078125 L 191.214844 224.078125 L 191.214844 216.75 L 205.863281 216.75 L 205.863281 209.433594 L 198.542969 209.433594 L 198.542969 202.117188 L 191.214844 202.117188 L 191.214844 209.433594 L 183.894531 209.433594 L 183.894531 202.117188 L 176.5625 202.117188 Z M 169.242188 231.394531 L 169.242188 238.71875 L 176.5625 238.71875 L 176.5625 224.078125 L 169.242188 224.078125 Z M 169.242188 172.832031 L 169.242188 180.148438 L 176.5625 180.148438 L 176.5625 165.511719 L 169.242188 165.511719 Z M 161.921875 136.226562 L 161.921875 128.910156 L 147.273438 128.910156 L 147.273438 136.226562 Z M 147.273438 143.546875 L 147.273438 136.226562 L 132.621094 136.226562 L 132.621094 143.546875 Z M 132.621094 304.597656 L 125.300781 304.597656 L 125.300781 297.28125 L 110.652344 297.28125 L 110.652344 304.597656 L 117.972656 304.597656 L 117.972656 311.917969 L 132.621094 311.917969 Z M 125.300781 238.71875 L 110.652344 238.71875 L 110.652344 253.355469 L 117.972656 253.355469 L 117.972656 246.035156 L 125.300781 246.035156 Z M 117.972656 165.511719 L 132.621094 165.511719 L 132.621094 158.1875 L 125.300781 158.1875 L 125.300781 150.871094 L 110.652344 150.871094 L 110.652344 158.1875 L 117.972656 158.1875 Z M 117.972656 114.269531 L 117.972656 121.585938 L 125.300781 121.585938 L 125.300781 128.910156 L 132.621094 128.910156 L 132.621094 114.269531 Z M 110.652344 275.320312 L 110.652344 289.957031 L 117.972656 289.957031 L 117.972656 282.640625 L 125.300781 282.640625 L 125.300781 275.320312 Z M 110.652344 158.1875 L 103.320312 158.1875 L 103.320312 150.871094 L 96 150.871094 L 96 165.511719 L 110.652344 165.511719 Z M 96 275.320312 L 88.679688 275.320312 L 88.679688 267.996094 L 74.027344 267.996094 L 74.027344 275.320312 L 81.351562 275.320312 L 81.351562 282.640625 L 88.679688 282.640625 L 88.679688 289.957031 L 96 289.957031 L 96 297.28125 L 103.320312 297.28125 L 103.320312 282.640625 L 96 282.640625 Z M 88.679688 238.71875 L 96 238.71875 L 96 224.078125 L 88.679688 224.078125 Z M 88.679688 224.078125 L 88.679688 216.75 L 96 216.75 L 96 202.117188 L 88.679688 202.117188 L 88.679688 209.433594 L 81.351562 209.433594 L 81.351562 216.75 L 74.027344 216.75 L 74.027344 224.078125 Z M 74.027344 158.1875 L 74.027344 172.832031 L 88.679688 172.832031 L 88.679688 165.511719 L 81.351562 165.511719 L 81.351562 158.1875 Z M 81.351562 99.625 L 88.679688 99.625 L 88.679688 92.308594 L 66.707031 92.308594 L 66.707031 99.625 Z M 66.707031 33.746094 L 66.707031 48.378906 L 74.027344 48.378906 L 74.027344 55.703125 L 81.351562 55.703125 L 81.351562 70.347656 L 88.679688 70.347656 L 88.679688 77.664062 L 96 77.664062 L 96 92.308594 L 103.320312 92.308594 L 103.320312 99.625 L 96 99.625 L 96 114.269531 L 88.679688 114.269531 L 88.679688 128.910156 L 96 128.910156 L 96 121.585938 L 103.320312 121.585938 L 103.320312 106.941406 L 110.652344 106.941406 L 110.652344 84.984375 L 103.320312 84.984375 L 103.320312 70.347656 L 96 70.347656 L 96 63.023438 L 88.679688 63.023438 L 88.679688 48.378906 L 81.351562 48.378906 L 81.351562 41.0625 L 74.027344 41.0625 L 74.027344 33.746094 Z M 59.378906 77.664062 L 59.378906 84.984375 L 81.351562 84.984375 L 81.351562 77.664062 Z M 330.378906 70.347656 L 330.378906 41.0625 L 323.050781 41.0625 L 323.050781 19.101562 L 315.730469 19.101562 L 315.730469 11.777344 L 301.078125 11.777344 L 301.078125 19.101562 L 293.757812 19.101562 L 293.757812 26.417969 L 286.429688 26.417969 L 286.429688 33.746094 L 279.105469 33.746094 L 279.105469 41.0625 L 271.785156 41.0625 L 271.785156 48.378906 L 264.457031 48.378906 L 264.457031 63.023438 L 257.136719 63.023438 L 257.136719 77.664062 L 249.808594 77.664062 L 249.808594 92.308594 L 242.484375 92.308594 L 242.484375 99.625 L 139.941406 99.625 L 139.941406 92.308594 L 132.621094 92.308594 L 132.621094 77.664062 L 125.300781 77.664062 L 125.300781 63.023438 L 117.972656 63.023438 L 117.972656 48.378906 L 110.652344 48.378906 L 110.652344 41.0625 L 103.320312 41.0625 L 103.320312 26.417969 L 96 26.417969 L 96 19.101562 L 81.351562 19.101562 L 81.351562 11.777344 L 44.730469 11.777344 L 44.730469 26.417969 L 37.40625 26.417969 L 37.40625 106.941406 L 44.730469 106.941406 L 44.730469 143.546875 L 52.058594 143.546875 L 52.058594 165.511719 L 44.730469 165.511719 L 44.730469 194.792969 L 52.058594 194.792969 L 52.058594 231.394531 L 59.378906 231.394531 L 59.378906 260.679688 L 74.027344 260.679688 L 74.027344 253.355469 L 66.707031 253.355469 L 66.707031 224.078125 L 59.378906 224.078125 L 59.378906 187.472656 L 52.058594 187.472656 L 52.058594 172.832031 L 59.378906 172.832031 L 59.378906 136.226562 L 52.058594 136.226562 L 52.058594 99.625 L 44.730469 99.625 L 44.730469 33.746094 L 52.058594 33.746094 L 52.058594 19.101562 L 74.027344 19.101562 L 74.027344 26.417969 L 88.679688 26.417969 L 88.679688 33.746094 L 96 33.746094 L 96 48.378906 L 103.320312 48.378906 L 103.320312 55.703125 L 110.652344 55.703125 L 110.652344 70.347656 L 117.972656 70.347656 L 117.972656 84.984375 L 125.300781 84.984375 L 125.300781 99.625 L 132.621094 99.625 L 132.621094 114.269531 L 147.273438 114.269531 L 147.273438 106.941406 L 227.835938 106.941406 L 227.835938 121.585938 L 242.484375 121.585938 L 242.484375 106.941406 L 249.808594 106.941406 L 249.808594 99.625 L 257.136719 99.625 L 257.136719 84.984375 L 264.457031 84.984375 L 264.457031 70.347656 L 271.785156 70.347656 L 271.785156 55.703125 L 279.105469 55.703125 L 279.105469 48.378906 L 286.429688 48.378906 L 286.429688 41.0625 L 293.757812 41.0625 L 293.757812 33.746094 L 301.078125 33.746094 L 301.078125 26.417969 L 315.730469 26.417969 L 315.730469 48.378906 L 323.050781 48.378906 L 323.050781 172.832031 L 315.730469 172.832031 L 315.730469 194.792969 L 308.398438 194.792969 L 308.398438 246.035156 L 301.078125 246.035156 L 301.078125 253.355469 L 315.730469 253.355469 L 315.730469 202.117188 L 323.050781 202.117188 L 323.050781 180.148438 L 330.378906 180.148438 L 330.378906 77.664062 L 330.484375 77.664062 L 330.484375 70.347656 Z M 330.378906 70.347656 " fill-opacity="1" fill-rule="nonzero"/></g><g clip-path="url(#b2f39baa9c)"><path fill="#31c542" d="M 359.671875 260.679688 L 359.671875 267.996094 L 345.019531 267.996094 L 345.019531 260.679688 L 271.785156 260.679688 L 271.785156 267.996094 L 257.136719 267.996094 L 257.136719 275.320312 L 242.484375 275.320312 L 242.484375 282.640625 L 279.105469 282.640625 L 279.105469 289.957031 L 293.757812 289.957031 L 293.757812 297.28125 L 308.398438 297.28125 L 308.398438 304.597656 L 323.050781 304.597656 L 323.050781 311.917969 L 330.378906 311.917969 L 330.378906 319.242188 L 315.730469 319.242188 L 315.730469 311.917969 L 301.078125 311.917969 L 301.078125 304.597656 L 286.429688 304.597656 L 286.429688 297.28125 L 271.785156 297.28125 L 271.785156 289.957031 L 235.164062 289.957031 L 235.164062 282.640625 L 227.835938 282.640625 L 227.835938 275.320312 L 235.164062 275.320312 L 235.164062 267.996094 L 249.808594 267.996094 L 249.808594 260.679688 L 264.457031 260.679688 L 264.457031 253.355469 L 352.351562 253.355469 L 352.351562 260.679688 Z M 286.429688 326.558594 L 279.105469 326.558594 L 279.105469 319.242188 L 271.785156 319.242188 L 271.785156 311.917969 L 264.457031 311.917969 L 264.457031 304.597656 L 242.484375 304.597656 L 242.484375 297.28125 L 227.835938 297.28125 L 227.835938 304.597656 L 235.164062 304.597656 L 235.164062 311.917969 L 257.136719 311.917969 L 257.136719 319.242188 L 264.457031 319.242188 L 264.457031 326.558594 L 271.785156 326.558594 L 271.785156 333.882812 L 279.105469 333.882812 L 279.105469 341.203125 L 286.429688 341.203125 L 286.429688 348.519531 L 293.757812 348.519531 L 293.757812 333.882812 L 286.429688 333.882812 Z M 147.273438 275.320312 L 132.621094 275.320312 L 132.621094 267.996094 L 110.652344 267.996094 L 110.652344 260.679688 L 66.707031 260.679688 L 66.707031 267.996094 L 44.730469 267.996094 L 44.730469 275.320312 L 30.085938 275.320312 L 30.085938 282.640625 L 15.4375 282.640625 L 15.4375 297.28125 L 22.757812 297.28125 L 22.757812 289.957031 L 37.40625 289.957031 L 37.40625 282.640625 L 52.058594 282.640625 L 52.058594 275.320312 L 74.027344 275.320312 L 74.027344 267.996094 L 103.320312 267.996094 L 103.320312 275.320312 L 125.300781 275.320312 L 125.300781 282.640625 L 139.941406 282.640625 L 139.941406 289.957031 L 154.59375 289.957031 L 154.59375 282.640625 L 147.273438 282.640625 Z M 125.300781 289.957031 L 103.320312 289.957031 L 103.320312 297.28125 L 81.351562 297.28125 L 81.351562 304.597656 L 66.707031 304.597656 L 66.707031 311.917969 L 59.378906 311.917969 L 59.378906 319.242188 L 44.730469 319.242188 L 44.730469 326.558594 L 37.40625 326.558594 L 37.40625 341.203125 L 44.730469 341.203125 L 44.730469 333.882812 L 52.058594 333.882812 L 52.058594 326.558594 L 66.707031 326.558594 L 66.707031 319.242188 L 74.027344 319.242188 L 74.027344 311.917969 L 88.679688 311.917969 L 88.679688 304.597656 L 110.652344 304.597656 L 110.652344 297.28125 L 132.621094 297.28125 L 132.621094 311.917969 L 117.972656 311.917969 L 117.972656 319.242188 L 110.652344 319.242188 L 110.652344 326.558594 L 103.320312 326.558594 L 103.320312 341.203125 L 96 341.203125 L 96 363.164062 L 103.320312 363.164062 L 103.320312 348.519531 L 110.652344 348.519531 L 110.652344 333.882812 L 117.972656 333.882812 L 117.972656 326.558594 L 125.300781 326.558594 L 125.300781 319.242188 L 139.941406 319.242188 L 139.941406 304.597656 L 147.273438 304.597656 L 147.273438 297.28125 L 139.941406 297.28125 L 139.941406 289.957031 Z M 125.300781 289.957031 " fill-opacity="1" fill-rule="nonzero"/></g></svg>