<svg xmlns="http://www.w3.org/2000/svg" xmlns:xlink="http://www.w3.org/1999/xlink" width="500" zoomAndPan="magnify" viewBox="0 0 375 374.999991" height="500" preserveAspectRatio="xMidYMid meet" version="1.0"><defs><clipPath id="534a296101"><path d="M 41.71875 0.152344 L 333.460938 0.152344 L 333.460938 374.863281 L 41.71875 374.863281 Z M 41.71875 0.152344 " clip-rule="nonzero"/></clipPath><clipPath id="eda6ca849c"><path d="M 94 0.152344 L 281 0.152344 L 281 374.863281 L 94 374.863281 Z M 94 0.152344 " clip-rule="nonzero"/></clipPath><clipPath id="00f299f7cb"><path d="M 41.71875 205 L 94.40625 205 L 94.40625 374.863281 L 41.71875 374.863281 Z M 41.71875 205 " clip-rule="nonzero"/></clipPath><clipPath id="a586a8f97b"><path d="M 280.601562 205 L 333.460938 205 L 333.460938 374.863281 L 280.601562 374.863281 Z M 280.601562 205 " clip-rule="nonzero"/></clipPath></defs><g clip-path="url(#534a296101)"><path fill="#b2b2b2" d="M 187.589844 0.15625 L 152.578125 0.15625 L 152.578125 6.007812 L 146.746094 6.007812 L 146.746094 11.863281 L 140.910156 11.863281 L 140.910156 17.71875 L 135.074219 17.71875 L 135.074219 52.847656 L 129.238281 52.847656 L 129.238281 58.703125 L 123.40625 58.703125 L 123.40625 82.121094 L 117.570312 82.121094 L 117.570312 146.527344 L 123.40625 146.527344 L 123.40625 199.21875 L 105.902344 199.21875 L 105.902344 205.074219 L 88.398438 205.074219 L 88.398438 210.929688 L 82.5625 210.929688 L 82.5625 216.785156 L 76.726562 216.785156 L 76.726562 222.640625 L 70.890625 222.640625 L 70.890625 228.492188 L 65.058594 228.492188 L 65.058594 240.203125 L 59.222656 240.203125 L 59.222656 257.765625 L 53.390625 257.765625 L 53.390625 304.605469 L 47.554688 304.605469 L 47.554688 345.589844 L 41.71875 345.589844 L 41.71875 374.863281 C 138.964844 374.863281 236.210938 374.863281 333.460938 374.863281 L 333.460938 345.589844 L 327.625 345.589844 L 327.625 304.605469 L 321.789062 304.605469 L 321.789062 257.765625 L 315.953125 257.765625 L 315.953125 240.203125 L 310.117188 240.203125 L 310.117188 228.492188 L 304.285156 228.492188 L 304.285156 222.640625 L 298.449219 222.640625 L 298.449219 216.785156 L 292.617188 216.785156 L 292.617188 210.929688 L 286.78125 210.929688 L 286.78125 205.074219 C 280.945312 205.074219 275.109375 205.074219 269.273438 205.074219 L 269.273438 199.21875 L 251.769531 199.21875 L 251.769531 146.527344 L 257.605469 146.527344 L 257.605469 82.121094 L 251.769531 82.121094 L 251.769531 58.703125 L 245.9375 58.703125 L 245.9375 52.847656 L 240.101562 52.847656 L 240.101562 17.71875 L 234.269531 17.71875 L 234.269531 11.863281 L 228.433594 11.863281 L 228.433594 6.007812 L 222.597656 6.007812 L 222.597656 0.15625 L 187.589844 0.15625 " fill-opacity="1" fill-rule="evenodd"/></g><g clip-path="url(#eda6ca849c)"><path fill="#b2b2b2" d="M 123.40625 164.089844 L 129.238281 164.089844 L 129.238281 58.703125 L 123.40625 58.703125 L 123.40625 82.121094 L 117.570312 82.121094 L 117.570312 146.527344 L 123.40625 146.527344 Z M 152.578125 181.65625 Z M 251.769531 164.089844 L 245.9375 164.089844 L 245.9375 58.703125 L 251.769531 58.703125 L 251.769531 82.121094 L 257.605469 82.121094 L 257.605469 146.527344 L 251.769531 146.527344 Z M 222.597656 181.65625 Z M 228.433594 181.65625 L 228.433594 146.527344 L 234.269531 146.527344 L 234.269531 117.25 L 240.101562 117.25 L 240.101562 46.996094 L 234.269531 46.996094 L 234.269531 58.703125 L 228.433594 58.703125 L 228.433594 64.558594 L 205.09375 64.558594 L 205.09375 87.976562 L 210.929688 87.976562 L 210.929688 140.671875 L 216.761719 140.671875 L 216.761719 146.527344 L 210.929688 146.527344 L 210.929688 152.378906 C 195.367188 152.378906 179.808594 152.378906 164.25 152.378906 L 164.25 146.527344 L 158.414062 146.527344 L 158.414062 140.671875 L 164.25 140.671875 L 164.25 87.976562 L 170.082031 87.976562 L 170.082031 64.558594 L 146.746094 64.558594 L 146.746094 58.703125 L 140.910156 58.703125 L 140.910156 46.996094 L 135.074219 46.996094 L 135.074219 117.25 L 140.910156 117.25 L 140.910156 146.527344 L 146.746094 146.527344 L 146.746094 181.65625 L 152.578125 181.65625 L 152.578125 216.785156 L 158.414062 216.785156 L 158.414062 222.640625 L 164.25 222.640625 L 164.25 228.492188 C 179.808594 228.492188 195.367188 228.492188 210.929688 228.492188 L 210.929688 222.640625 L 216.761719 222.640625 L 216.761719 216.785156 L 222.597656 216.785156 L 222.597656 181.65625 Z M 199.257812 310.460938 L 199.257812 304.605469 L 205.09375 304.605469 L 205.09375 298.75 L 210.929688 298.75 L 210.929688 287.042969 L 216.761719 287.042969 L 216.761719 275.332031 L 222.597656 275.332031 L 222.597656 263.621094 L 228.433594 263.621094 L 228.433594 251.910156 L 234.269531 251.910156 L 234.269531 240.203125 L 240.101562 240.203125 L 240.101562 228.492188 L 245.9375 228.492188 L 245.9375 216.785156 L 251.769531 216.785156 L 251.769531 199.21875 L 269.273438 199.21875 L 269.273438 205.074219 L 280.945312 205.074219 L 280.945312 374.863281 C 218.707031 374.863281 156.46875 374.863281 94.234375 374.863281 L 94.234375 205.074219 L 105.902344 205.074219 L 105.902344 199.21875 L 123.40625 199.21875 L 123.40625 216.785156 L 129.238281 216.785156 L 129.238281 228.492188 L 135.074219 228.492188 L 135.074219 240.203125 L 140.910156 240.203125 L 140.910156 251.910156 L 146.746094 251.910156 L 146.746094 263.621094 L 152.578125 263.621094 L 152.578125 275.332031 L 158.414062 275.332031 L 158.414062 287.042969 L 164.25 287.042969 L 164.25 298.75 L 170.082031 298.75 L 170.082031 304.605469 L 175.917969 304.605469 L 175.917969 310.460938 L 181.753906 310.460938 L 181.753906 316.316406 C 185.644531 316.316406 189.53125 316.316406 193.421875 316.316406 L 193.421875 310.460938 Z M 187.589844 0.15625 L 164.25 0.15625 L 164.25 6.007812 L 158.414062 6.007812 L 158.414062 41.140625 C 177.863281 41.140625 197.3125 41.140625 216.761719 41.140625 L 216.761719 6.007812 L 210.929688 6.007812 L 210.929688 0.15625 L 187.589844 0.15625 " fill-opacity="1" fill-rule="evenodd"/></g><path fill="#656666" d="M 205.09375 134.816406 L 210.929688 134.816406 L 210.929688 140.671875 L 216.761719 140.671875 L 216.761719 146.527344 L 210.929688 146.527344 L 210.929688 152.378906 C 195.367188 152.378906 179.808594 152.378906 164.25 152.378906 L 164.25 146.527344 L 158.414062 146.527344 L 158.414062 140.671875 L 164.25 140.671875 L 164.25 134.816406 L 170.082031 134.816406 L 170.082031 123.105469 L 175.917969 123.105469 L 175.917969 128.960938 C 183.699219 128.960938 191.476562 128.960938 199.257812 128.960938 L 199.257812 123.105469 L 205.09375 123.105469 Z M 240.101562 46.996094 L 234.269531 46.996094 L 234.269531 58.703125 L 228.433594 58.703125 L 228.433594 64.558594 L 199.257812 64.558594 L 199.257812 46.996094 L 193.421875 46.996094 L 193.421875 41.140625 C 208.980469 41.140625 224.542969 41.140625 240.101562 41.140625 Z M 199.257812 187.507812 L 170.082031 187.507812 L 170.082031 181.65625 C 172.03125 181.65625 173.972656 181.65625 175.917969 181.65625 L 175.917969 175.800781 L 158.414062 175.800781 L 158.414062 181.65625 L 152.578125 181.65625 L 152.578125 175.800781 L 158.414062 175.800781 L 158.414062 169.945312 L 164.25 169.945312 L 164.25 164.089844 L 210.929688 164.089844 L 210.929688 169.945312 L 216.761719 169.945312 L 216.761719 175.800781 L 222.597656 175.800781 L 222.597656 181.65625 L 216.761719 181.65625 L 216.761719 175.800781 L 199.257812 175.800781 L 199.257812 181.65625 L 205.09375 181.65625 L 205.09375 187.507812 Z M 135.074219 46.996094 L 140.910156 46.996094 L 140.910156 58.703125 L 146.746094 58.703125 L 146.746094 64.558594 L 175.917969 64.558594 L 175.917969 46.996094 L 181.753906 46.996094 L 181.753906 41.140625 C 166.195312 41.140625 150.632812 41.140625 135.074219 41.140625 L 135.074219 46.996094 " fill-opacity="1" fill-rule="evenodd"/><g clip-path="url(#00f299f7cb)"><path fill="#989798" d="M 88.398438 374.863281 L 94.234375 374.863281 L 94.234375 205.074219 L 88.398438 205.074219 L 88.398438 210.929688 L 82.5625 210.929688 L 82.5625 216.785156 L 76.726562 216.785156 L 76.726562 222.640625 L 70.890625 222.640625 L 70.890625 228.492188 L 65.058594 228.492188 L 65.058594 240.203125 L 59.222656 240.203125 L 59.222656 257.765625 L 53.390625 257.765625 L 53.390625 304.605469 L 47.554688 304.605469 L 47.554688 345.589844 L 41.71875 345.589844 L 41.71875 374.863281 L 88.398438 374.863281 " fill-opacity="1" fill-rule="evenodd"/></g><path fill="#7f7f7f" d="M 199.257812 76.265625 L 199.257812 64.558594 L 205.09375 64.558594 L 205.09375 87.976562 L 210.929688 87.976562 L 210.929688 134.816406 L 205.09375 134.816406 L 205.09375 123.105469 L 199.257812 123.105469 Z M 175.917969 76.265625 L 175.917969 64.558594 L 170.082031 64.558594 L 170.082031 87.976562 L 164.25 87.976562 L 164.25 134.816406 L 170.082031 134.816406 L 170.082031 123.105469 L 175.917969 123.105469 L 175.917969 76.265625 " fill-opacity="1" fill-rule="evenodd"/><g clip-path="url(#a586a8f97b)"><path fill="#989798" d="M 286.78125 374.863281 L 280.945312 374.863281 L 280.945312 205.074219 L 286.78125 205.074219 L 286.78125 210.929688 L 292.617188 210.929688 L 292.617188 216.785156 L 298.449219 216.785156 L 298.449219 222.640625 L 304.285156 222.640625 L 304.285156 228.492188 L 310.117188 228.492188 L 310.117188 240.203125 L 315.953125 240.203125 L 315.953125 257.765625 L 321.789062 257.765625 L 321.789062 304.605469 L 327.625 304.605469 L 327.625 345.589844 L 333.460938 345.589844 L 333.460938 374.863281 L 286.78125 374.863281 " fill-opacity="1" fill-rule="evenodd"/></g><path fill="#cbcbcb" d="M 193.421875 128.960938 L 175.917969 128.960938 L 175.917969 46.996094 L 181.753906 46.996094 L 181.753906 41.140625 L 193.421875 41.140625 L 193.421875 46.996094 L 199.257812 46.996094 L 199.257812 128.960938 L 193.421875 128.960938 " fill-opacity="1" fill-rule="evenodd"/><path fill="#989798" d="M 245.9375 164.089844 L 251.769531 164.089844 L 251.769531 216.785156 L 245.9375 216.785156 L 245.9375 228.492188 L 228.433594 228.492188 C 224.542969 228.492188 220.652344 228.492188 216.761719 228.492188 L 210.929688 228.492188 L 210.929688 222.640625 L 216.761719 222.640625 L 216.761719 216.785156 L 222.597656 216.785156 L 222.597656 181.65625 L 228.433594 181.65625 L 228.433594 146.527344 L 234.269531 146.527344 L 234.269531 117.25 L 240.101562 117.25 L 240.101562 52.847656 L 245.9375 52.847656 Z M 129.238281 164.089844 L 123.40625 164.089844 L 123.40625 216.785156 L 129.238281 216.785156 L 129.238281 228.492188 L 146.746094 228.492188 C 150.636719 228.492188 154.527344 228.492188 158.414062 228.492188 L 164.25 228.492188 L 164.25 222.640625 L 158.414062 222.640625 L 158.414062 216.785156 L 152.578125 216.785156 L 152.578125 181.65625 L 146.746094 181.65625 L 146.746094 146.527344 L 140.910156 146.527344 L 140.910156 117.25 L 135.074219 117.25 L 135.074219 52.847656 L 129.238281 52.847656 Z M 152.578125 6.007812 L 146.746094 6.007812 L 146.746094 11.863281 L 140.910156 11.863281 L 140.910156 17.71875 L 135.074219 17.71875 L 135.074219 41.140625 L 158.414062 41.140625 L 158.414062 6.007812 L 164.25 6.007812 L 164.25 0.15625 L 152.578125 0.15625 Z M 222.597656 6.007812 L 228.433594 6.007812 L 228.433594 11.863281 L 234.269531 11.863281 L 234.269531 17.71875 L 240.101562 17.71875 L 240.101562 41.140625 L 216.761719 41.140625 L 216.761719 6.007812 L 210.929688 6.007812 L 210.929688 0.15625 L 222.597656 0.15625 L 222.597656 6.007812 " fill-opacity="1" fill-rule="evenodd"/><path fill="#7f7f7f" d="M 193.421875 316.316406 C 189.53125 316.316406 185.644531 316.316406 181.753906 316.316406 L 181.753906 310.460938 L 175.917969 310.460938 L 175.917969 304.605469 L 170.082031 304.605469 L 170.082031 298.75 L 164.25 298.75 L 164.25 287.042969 L 158.414062 287.042969 L 158.414062 275.332031 L 152.578125 275.332031 L 152.578125 263.621094 L 146.746094 263.621094 L 146.746094 251.910156 L 140.910156 251.910156 L 140.910156 240.203125 L 135.074219 240.203125 L 135.074219 228.492188 C 170.082031 228.492188 205.09375 228.492188 240.101562 228.492188 L 240.101562 240.203125 L 234.269531 240.203125 L 234.269531 251.910156 L 228.433594 251.910156 L 228.433594 263.621094 L 222.597656 263.621094 L 222.597656 275.332031 L 216.761719 275.332031 L 216.761719 287.042969 L 210.929688 287.042969 L 210.929688 298.75 L 205.09375 298.75 L 205.09375 304.605469 L 199.257812 304.605469 L 199.257812 310.460938 L 193.421875 310.460938 L 193.421875 316.316406 " fill-opacity="1" fill-rule="evenodd"/></svg>