<svg xmlns="http://www.w3.org/2000/svg" xmlns:xlink="http://www.w3.org/1999/xlink" width="500" zoomAndPan="magnify" viewBox="0 0 375 374.999991" height="500" preserveAspectRatio="xMidYMid meet" version="1.0"><defs><clipPath id="80371c35ab"><path d="M 15 18 L 358 18 L 358 358.28125 L 15 358.28125 Z M 15 18 " clip-rule="nonzero"/></clipPath></defs><g clip-path="url(#80371c35ab)"><path fill="#7700ff" d="M 348.007812 178.4375 C 361.371094 194.691406 359.640625 210.746094 351.949219 226.492188 C 350.40625 229.640625 348.632812 232.785156 346.765625 236.078125 C 345.980469 238.105469 345.210938 240.152344 344.359375 242.144531 C 335.992188 252.21875 335.035156 266.210938 332.097656 280.355469 C 330.410156 284.457031 324.773438 288.851562 320.683594 293.96875 C 319.105469 295.375 317.765625 296.875 316.351562 298.300781 C 309.261719 305.453125 300.21875 310.863281 288.097656 313.570312 C 285.230469 316.042969 282.296875 318.445312 279.273438 320.804688 C 271.925781 333.128906 262.910156 342.535156 252.710938 349.050781 C 250.160156 350.683594 247.535156 352.132812 244.84375 353.398438 C 237.160156 355.285156 227.417969 357.992188 221.195312 354.472656 C 195.71875 332.480469 171.035156 348.222656 145.15625 358 C 141.417969 358.285156 137.8125 358.183594 134.3125 357.808594 C 123.601562 356.660156 113.941406 352.929688 105.140625 347.03125 C 103.378906 345.851562 101.664062 344.578125 100.164062 343.003906 C 95.554688 334.492188 87.664062 328.660156 80.605469 322.15625 C 79.191406 320.855469 77.835938 319.542969 76.558594 318.1875 C 65.90625 309.921875 68.839844 295.78125 61.699219 285.507812 C 61.011719 283.546875 60.324219 281.597656 59.628906 279.652344 C 56.183594 270.070312 52.246094 260.515625 45.742188 252.558594 C 38.441406 243.628906 27.367188 239.535156 23.539062 227.738281 C 21.742188 222.210938 19.601562 215.496094 20.167969 209.625 C 20.460938 206.65625 21.765625 203.941406 22.480469 201.078125 C 23.226562 198.117188 22.871094 195.308594 22.433594 192.324219 C 21.625 186.785156 19.699219 181.492188 18.058594 176.164062 C 15.878906 169.082031 13.800781 161.691406 17.585938 154.8125 C 19.3125 151.671875 21.625 148.878906 23.34375 145.726562 C 24.546875 143.519531 25.527344 140.96875 27.433594 139.246094 C 29.585938 137.308594 32.304688 135.898438 34.570312 134.066406 C 38.984375 130.492188 43.125 126.574219 46.816406 122.253906 C 53.945312 113.902344 59.0625 104.148438 62.519531 93.753906 C 63.859375 89.722656 64.972656 85.609375 65.914062 81.464844 C 67.457031 75.382812 72.953125 69.011719 78.472656 65.429688 C 81.039062 63.328125 83.667969 61.308594 86.367188 59.367188 C 94.457031 53.539062 103.117188 48.433594 112.261719 44.144531 C 115.746094 42.511719 119.300781 41 122.925781 39.578125 C 148.632812 26.457031 177.441406 16.996094 206.515625 18.859375 C 210.148438 19.09375 213.789062 19.503906 217.515625 20.003906 C 227.542969 18.550781 236.183594 18.820312 243.589844 20.519531 C 246.058594 21.085938 248.386719 21.8125 250.59375 22.675781 C 281.367188 37.734375 314.167969 51.230469 322.078125 89.363281 C 323.269531 92.300781 324.382812 95.277344 325.453125 98.289062 C 328.664062 107.300781 331.492188 116.574219 334.9375 125.265625 C 335.9375 128.390625 336.828125 131.535156 337.601562 134.703125 C 339.917969 144.195312 341.148438 153.898438 340.832031 163.816406 C 342.074219 166.671875 343.8125 169.664062 345.09375 172.824219 C 345.992188 174.703125 346.976562 176.578125 348.007812 178.4375 " fill-opacity="1" fill-rule="nonzero"/></g><path fill="#1a1a1a" d="M 172.503906 30.9375 C 153.808594 33.214844 140.988281 48.085938 124.066406 54.265625 C 120.488281 55.820312 116.976562 57.453125 113.554688 59.214844 C 105.839844 63.179688 98.535156 67.789062 91.699219 72.980469 C 89.421875 74.707031 87.191406 76.5 85.097656 78.445312 C 83.917969 79.53125 83 81.265625 82.121094 82.597656 C 81.167969 84.035156 80.273438 85.507812 79.417969 87 C 77.714844 89.988281 76.191406 93.082031 74.773438 96.21875 C 71.90625 102.546875 69.46875 109.066406 66.78125 115.472656 C 64.046875 121.988281 61.039062 128.414062 57.195312 134.355469 C 52.082031 142.253906 45.722656 149.042969 37.398438 153.59375 C 35.628906 154.566406 33.75 155.460938 32.40625 156.976562 C 30.554688 159.0625 30.097656 161.886719 29.996094 164.582031 C 29.890625 167.355469 29.453125 170.222656 29.882812 172.996094 C 30.171875 174.859375 30.628906 176.699219 31.167969 178.503906 C 32.253906 182.121094 33.699219 185.621094 34.960938 189.179688 C 36.261719 192.859375 37.484375 196.679688 37.703125 200.605469 C 37.929688 204.636719 35.144531 208.167969 35.308594 212.101562 C 35.503906 216.835938 38.378906 220.742188 41.007812 224.445312 C 44.070312 228.753906 47.25 232.96875 50.417969 237.199219 C 55.777344 244.367188 61.265625 251.472656 65.703125 259.257812 C 66.71875 261.042969 67.664062 262.886719 68.464844 264.914062 C 69.359375 266.71875 70.125 268.585938 70.8125 270.480469 C 70.640625 283.199219 76.738281 294.277344 84.792969 304.136719 C 86.136719 305.78125 87.53125 307.394531 88.960938 308.980469 C 98.707031 323.417969 113.421875 334.265625 130.824219 341.785156 C 132.425781 342.285156 134.070312 342.703125 135.742188 343.042969 C 138.289062 343.554688 140.914062 343.84375 143.5 343.539062 C 145.960938 343.246094 147.957031 341.988281 150.296875 341.433594 C 152.484375 340.910156 154.554688 339.652344 156.613281 338.742188 C 158.757812 337.796875 160.925781 336.886719 163.113281 336.035156 C 171.148438 332.910156 179.53125 330.511719 188.144531 329.773438 C 196.515625 329.0625 204.9375 330.042969 212.929688 332.65625 C 220.566406 335.160156 227.695312 339.023438 234.304688 343.558594 C 240.53125 347.078125 246.167969 342.6875 250.507812 336.421875 C 252.707031 333.898438 254.765625 331.089844 256.789062 328.195312 C 260.589844 322.769531 264.269531 317.050781 268.582031 312.125 C 269.445312 311.144531 270.335938 310.191406 271.257812 309.277344 C 280.027344 302.097656 291.597656 297.261719 300.160156 290.945312 C 301.796875 289.671875 303.402344 288.292969 304.949219 286.867188 C 323.898438 276.980469 324.273438 255.070312 333.667969 237.953125 C 334.464844 235.847656 335.058594 233.671875 335.609375 231.46875 C 336.164062 229.265625 336.671875 227.027344 337.144531 224.765625 C 338.449219 221.761719 339.660156 218.757812 340.726562 215.679688 C 341.792969 212.605469 342.710938 209.457031 343.46875 206.21875 C 344.402344 200.847656 342.894531 195.429688 340.410156 189.964844 C 339.167969 187.234375 337.679688 184.496094 336.121094 181.769531 C 334.875 179.496094 333.777344 177.125 332.792969 174.703125 C 331.808594 172.28125 330.929688 169.800781 330.121094 167.296875 C 327.964844 157.628906 327.238281 147.738281 322.554688 138.140625 C 321.101562 135.261719 319.742188 132.40625 318.453125 129.570312 C 316.683594 126.582031 315.207031 123.367188 313.933594 120.019531 C 312.660156 116.667969 311.574219 113.179688 310.585938 109.632812 C 309.257812 65.519531 280.121094 47.773438 242.453125 34.355469 C 240.261719 33.394531 237.980469 32.5625 235.59375 31.878906 C 226.058594 29.140625 214.898438 28.78125 202.003906 31.289062 C 199.757812 31.070312 197.476562 30.917969 195.164062 30.839844 C 190.546875 30.671875 185.820312 30.777344 181.066406 31.085938 C 178.285156 30.710938 175.4375 30.597656 172.503906 30.9375 Z M 196.765625 333.597656 C 196.351562 333.53125 195.9375 333.472656 195.519531 333.425781 C 194.820312 333.339844 194.125 333.277344 193.425781 333.234375 C 190.738281 333.058594 188.035156 333.175781 185.371094 333.566406 C 182.949219 333.929688 179.769531 334.339844 177.621094 335.589844 C 173.644531 337.894531 169.753906 340.441406 165.789062 342.804688 C 157.722656 347.617188 148.972656 351.800781 139.328125 350.9375 C 136.308594 350.617188 133.390625 350.015625 130.558594 349.164062 C 127.164062 348.144531 123.894531 346.78125 120.722656 345.121094 C 119.140625 344.292969 117.585938 343.394531 116.054688 342.429688 C 112.046875 339.914062 108.917969 336.957031 105.964844 333.253906 C 105.257812 332.363281 104.5625 331.457031 103.863281 330.558594 C 103.109375 329.59375 102.636719 329.183594 101.574219 328.613281 C 99.3125 327.414062 97.101562 326.113281 94.988281 324.667969 C 93.265625 323.476562 91.601562 322.191406 90.050781 320.78125 C 86.4375 317.507812 83.703125 313.679688 81.730469 309.238281 C 81.300781 308.277344 80.417969 307.542969 79.71875 306.742188 C 78.945312 305.851562 78.183594 304.949219 77.449219 304.023438 C 75.996094 302.203125 74.625 300.316406 73.386719 298.339844 C 69.6875 292.429688 67.40625 285.71875 67.636719 278.683594 C 67.414062 276.558594 67.066406 274.632812 66.617188 272.792969 C 66.164062 270.949219 65.660156 269.117188 65.070312 267.304688 C 64.570312 265.558594 64 263.8125 63.320312 262.070312 C 62.644531 260.335938 61.863281 258.601562 60.941406 256.878906 C 52.773438 243.160156 35.347656 234.957031 29.8125 218.675781 C 28.421875 214.582031 28.539062 210.164062 29.980469 206.140625 C 30.324219 205.1875 30.269531 203.933594 30.320312 202.925781 C 30.375 201.835938 30.382812 200.742188 30.355469 199.652344 C 30.292969 197.492188 30.070312 195.335938 29.730469 193.203125 C 29.066406 188.960938 27.96875 184.804688 26.847656 180.664062 C 25.46875 175.597656 23.433594 170.648438 23.328125 165.304688 C 23.265625 161.976562 24.023438 158.28125 26.164062 155.636719 C 28.65625 152.558594 32.355469 151.191406 34.570312 147.792969 C 37.175781 143.769531 40.925781 140.984375 44.707031 138.171875 C 49.652344 134.484375 54.574219 130.582031 58.277344 125.59375 C 61.976562 120.617188 63.828125 114.726562 65.558594 108.839844 C 68.84375 97.683594 71.046875 85.667969 78.757812 76.527344 C 80.617188 74.316406 82.742188 72.335938 85.054688 70.613281 C 87.402344 68.742188 89.804688 66.929688 92.261719 65.195312 C 99.628906 59.976562 107.484375 55.382812 115.757812 51.503906 C 119.066406 49.949219 122.441406 48.492188 125.890625 46.976562 C 146.613281 34.46875 170.878906 24.515625 195.695312 24.761719 C 199.242188 24.796875 202.792969 25.042969 206.355469 25.515625 C 216.867188 29.078125 228.640625 27.070312 239.625 27.453125 C 242.367188 27.550781 245.070312 27.796875 247.710938 28.265625 C 281.222656 35.757812 301.347656 66.101562 315.683594 95.789062 C 317.027344 98.558594 318.277344 101.371094 319.425781 104.230469 C 322.875 112.789062 325.414062 121.785156 326.972656 130.953125 C 327.871094 134.023438 328.753906 137.113281 329.648438 140.210938 C 332.332031 149.492188 335.148438 158.808594 338.851562 167.789062 C 340.863281 171.183594 342.484375 174.582031 343.746094 177.957031 C 347.53125 188.082031 348.105469 197.980469 346.449219 207.707031 C 345.894531 210.949219 345.09375 214.175781 344.082031 217.382812 C 342.644531 221.546875 341.308594 225.746094 340 229.933594 C 339.351562 232.03125 338.707031 234.117188 338.0625 236.207031 C 326.105469 252.949219 332.097656 280.355469 311 291.320312 C 309.574219 292.734375 308.070312 294.089844 306.480469 295.378906 C 301.171875 299.683594 294.898438 303.265625 287.371094 305.9375 C 285.867188 306.472656 284.3125 306.96875 282.707031 307.429688 C 281.726562 308.191406 280.765625 308.992188 279.820312 309.816406 C 278.871094 310.640625 277.9375 311.503906 277.007812 312.378906 C 271.4375 317.652344 266.109375 323.734375 260.722656 329.617188 C 258.328125 332.234375 255.921875 334.8125 253.476562 337.257812 C 250.28125 342.226562 245.871094 346.617188 240.183594 348.550781 C 233.042969 350.976562 225.394531 348.984375 219.070312 345.296875 C 217.324219 344.277344 215.648438 343.128906 214.058594 341.875 C 213.308594 341.277344 212.867188 340.636719 212.273438 339.914062 C 211.574219 339.0625 210.496094 338.546875 209.546875 338.015625 C 205.597656 335.800781 201.246094 334.292969 196.765625 333.597656 " fill-opacity="1" fill-rule="nonzero"/><path fill="#1a1a1a" d="M 238.90625 137.445312 C 238.796875 137.675781 238.683594 137.90625 238.582031 138.144531 C 236.933594 141.785156 236.351562 146.089844 237.507812 149.960938 C 238.550781 153.445312 240.171875 156.640625 240.921875 160.273438 C 241.984375 165.378906 242.464844 172.871094 238.179688 176.773438 C 234.996094 179.671875 230.480469 178.507812 227.0625 176.703125 C 225.011719 175.859375 223.199219 174.796875 221.621094 173.558594 C 220.042969 172.3125 218.6875 170.886719 217.566406 169.253906 C 213.949219 164 213.207031 158.332031 213.09375 152.089844 C 212.984375 146.363281 213.378906 140.160156 216.402344 135.121094 C 217.789062 132.804688 219.621094 130.78125 221.109375 128.53125 C 222.269531 126.777344 223.269531 124.789062 223.519531 122.667969 C 223.753906 120.710938 224.453125 119.042969 224.824219 117.074219 C 225.558594 113.214844 224.917969 109.078125 222.929688 105.679688 C 221.15625 102.65625 218.46875 100.289062 216.339844 97.507812 C 214.207031 94.726562 212.589844 91.160156 213.5 87.773438 C 214.871094 82.648438 220.160156 80.371094 225.035156 80.519531 C 229.34375 80.652344 233.40625 82.328125 237.078125 84.476562 C 240.628906 86.554688 242.808594 90.679688 245.078125 94.085938 C 249.695312 101.011719 254.328125 109.246094 253.285156 117.890625 C 253.085938 119.527344 252.679688 121.164062 252.035156 122.800781 C 251.492188 124.179688 250.101562 125.265625 248.90625 125.992188 C 247.4375 126.882812 246.242188 128.027344 245.023438 129.257812 C 242.621094 131.683594 240.425781 134.371094 238.90625 137.445312 " fill-opacity="1" fill-rule="nonzero"/><path fill="#1a1a1a" d="M 165.992188 125.46875 C 166.253906 126.949219 166.394531 128.546875 166.199219 129.746094 C 165.453125 134.367188 159.210938 136.320312 156.171875 139.0625 C 153.847656 141.160156 151.859375 143.710938 150.859375 146.675781 C 149.066406 151.957031 150.613281 157.761719 152.5625 162.988281 C 153.511719 165.539062 154.574219 168.144531 154.472656 170.863281 C 154.117188 180.472656 140.945312 186.5 133.839844 179.597656 C 132.113281 177.921875 130.503906 176.109375 129.152344 174.113281 C 125.300781 168.429688 124.570312 161.953125 127.070312 155.570312 C 128.261719 152.53125 129.835938 149.363281 131.503906 146.570312 C 133.339844 143.496094 135.824219 140.625 136.507812 137.007812 C 137.210938 133.28125 135.78125 129.40625 133.503906 126.371094 C 132.019531 124.394531 129.726562 123.222656 127.910156 121.53125 C 126.015625 119.757812 124.28125 117.746094 123.285156 115.320312 C 120.996094 109.738281 123.261719 102.957031 127.769531 98.949219 C 132.28125 94.941406 138.589844 93.429688 144.617188 93.679688 C 146.808594 93.773438 149.195312 94.179688 150.652344 95.820312 C 152.082031 97.433594 152.226562 99.804688 152.089844 101.960938 C 151.949219 104.113281 151.621094 106.347656 152.351562 108.382812 C 153.058594 110.355469 154.683594 111.859375 156.402344 113.058594 C 158.117188 114.261719 159.988281 115.253906 161.558594 116.648438 C 163.445312 118.332031 164.789062 120.589844 165.453125 123.019531 C 165.644531 123.722656 165.84375 124.574219 165.992188 125.46875 " fill-opacity="1" fill-rule="nonzero"/><path fill="#1a1a1a" d="M 296.542969 181.082031 C 296.296875 180.476562 296.039062 179.871094 295.761719 179.277344 C 294.945312 177.519531 293.410156 175.339844 293.371094 173.347656 C 293.332031 171.597656 295.042969 170.613281 296.441406 170.050781 C 297.609375 169.582031 298.898438 168.972656 299.304688 167.78125 C 299.582031 166.980469 299.371094 166.074219 298.949219 165.34375 C 296.53125 161.195312 291.0625 160.445312 286.695312 161.027344 C 282.40625 161.597656 277.859375 163.652344 275.609375 167.53125 C 274.710938 169.074219 273.542969 171.390625 275.515625 172.648438 C 276.394531 173.210938 277.503906 173.261719 278.539062 173.132812 C 279.566406 173.003906 280.578125 172.703125 281.617188 172.625 C 282.628906 172.542969 283.601562 172.710938 284.179688 173.640625 C 284.589844 174.296875 284.726562 175.078125 284.941406 175.8125 C 285.554688 177.921875 286.824219 179.734375 287.933594 181.597656 C 289.101562 183.566406 289.808594 185.664062 290.53125 187.824219 C 293.757812 197.488281 294.847656 208.773438 284.96875 214.769531 C 275.949219 218.195312 268.226562 207.722656 259.613281 216.640625 C 253.296875 225.386719 258.71875 236.027344 262.714844 246.457031 C 264.660156 250.417969 263.496094 252.441406 262 254.246094 C 260.507812 256.054688 258.84375 257.714844 256.976562 259.210938 C 254.292969 261.441406 251.0625 261.503906 249.367188 265.378906 C 248.453125 267.472656 248.203125 269.9375 247.058594 271.890625 C 245.898438 273.867188 244.398438 275.570312 242.699219 276.902344 C 239.3125 279.558594 235.773438 280.171875 231.78125 279.425781 C 223.234375 277.824219 214.292969 275.761719 205.691406 277.203125 C 202.039062 277.820312 198.53125 279.148438 195.308594 281.214844 C 192.035156 283.308594 189.28125 287.710938 185.300781 287.367188 C 183.550781 287.214844 181.855469 286.558594 180.121094 286.269531 C 176.695312 285.695312 173.261719 286.558594 169.835938 286.96875 C 164.582031 287.59375 161.46875 285.601562 156.859375 283.101562 C 152.078125 280.503906 146.992188 278.828125 141.941406 277.253906 C 139.539062 276.503906 136.988281 275.878906 133.367188 276.5625 C 125.335938 281.75 113.609375 279.855469 106.085938 272.128906 C 95.652344 256.332031 110.980469 244.160156 112.273438 230.257812 C 111.488281 219.582031 101.308594 214.546875 93.78125 208.839844 C 92.140625 207.597656 90.714844 206.207031 89.179688 204.851562 C 87.96875 203.777344 86.785156 202.992188 85.800781 201.621094 C 83.777344 198.792969 82.6875 195.277344 82.863281 191.800781 C 82.957031 189.796875 83.621094 187.289062 84.875 185.6875 C 85.480469 184.90625 86.367188 184.285156 87.351562 184.222656 C 88.851562 184.125 89.828125 185.183594 90.902344 186.015625 C 91.921875 186.8125 93.707031 186.300781 94.609375 185.523438 C 97.21875 183.261719 95.171875 179.535156 93.527344 177.386719 C 92.195312 175.640625 90.601562 174.078125 88.8125 172.804688 C 87.050781 171.539062 85.054688 170.542969 82.921875 170.085938 C 81.050781 169.6875 78.449219 169.542969 76.691406 170.367188 C 75.375 170.988281 74.292969 172.125 73.808594 173.503906 C 73.097656 175.492188 73.671875 177.871094 75.207031 179.320312 C 75.875 179.949219 76.691406 180.40625 77.414062 180.976562 C 81.179688 183.964844 78.292969 189.84375 79.050781 193.875 C 79.199219 194.660156 79.183594 195.367188 79.183594 196.074219 C 79.167969 196.773438 79.179688 197.472656 79.230469 198.175781 C 79.597656 203.757812 81.925781 209.25 85.917969 213.207031 C 88.992188 216.265625 92.890625 217.449219 96.5625 219.523438 C 99.535156 221.203125 103.105469 224.367188 102.847656 228.195312 C 101.761719 244.839844 89.140625 262.332031 101.882812 277.957031 C 109.125 285.402344 117.492188 289.277344 126.8125 286.96875 C 128.75 286.492188 130.082031 286.957031 131.984375 286.953125 C 134.566406 286.953125 137.011719 286.121094 139.664062 286.363281 C 144.929688 286.84375 150.027344 288.839844 155.136719 290.378906 C 163.050781 292.769531 170.804688 293.292969 178.84375 294.179688 C 182.199219 294.554688 184.898438 297.644531 188.296875 297.707031 C 190.550781 297.753906 191.988281 297.015625 193.039062 295.855469 C 194.945312 293.753906 195.59375 290.261719 197.609375 287.464844 C 215.648438 280.613281 237.605469 295.558594 252.0625 279.074219 C 255.640625 276.433594 257.542969 273.339844 260.464844 269.703125 C 264.1875 265.066406 269.355469 264.171875 271.441406 257.4375 C 272.871094 252.816406 268.296875 249.441406 266.191406 246.011719 C 263.882812 242.253906 263.878906 236.554688 265.375 232.507812 C 269.28125 221.933594 279.300781 223.507812 287.25 221.921875 C 295.332031 220.304688 301.449219 215.265625 302.804688 205.171875 C 302.511719 201.179688 301.675781 197.25 300.5625 193.414062 C 299.878906 191.050781 299.066406 188.742188 298.355469 186.394531 C 297.8125 184.601562 297.238281 182.824219 296.542969 181.082031 " fill-opacity="1" fill-rule="nonzero"/></svg>