<svg xmlns="http://www.w3.org/2000/svg" xmlns:xlink="http://www.w3.org/1999/xlink" width="500" zoomAndPan="magnify" viewBox="0 0 375 374.999991" height="500" preserveAspectRatio="xMidYMid meet" version="1.0"><defs><clipPath id="29730ac364"><path d="M 77.007812 72 L 95 72 L 95 320 L 77.007812 320 Z M 77.007812 72 " clip-rule="nonzero"/></clipPath><clipPath id="7fbc29560e"><path d="M 130 90 L 298.257812 90 L 298.257812 363.9375 L 130 363.9375 Z M 130 90 " clip-rule="nonzero"/></clipPath><clipPath id="e96a4799b2"><path d="M 112 10.710938 L 263 10.710938 L 263 47 L 112 47 Z M 112 10.710938 " clip-rule="nonzero"/></clipPath><clipPath id="8f7dc2c8b6"><path d="M 121.246094 116.09375 L 139 116.09375 L 139 363.9375 L 121.246094 363.9375 Z M 121.246094 116.09375 " clip-rule="nonzero"/></clipPath></defs><path fill="#cea4ff" d="M 121.273438 355.109375 L 121.265625 346.265625 L 112.4375 346.273438 L 112.429688 337.4375 L 103.574219 337.449219 L 103.566406 328.609375 L 94.730469 328.621094 L 94.71875 319.773438 L 85.882812 319.78125 L 85.875 81.363281 L 94.730469 81.351562 L 94.71875 63.703125 L 103.574219 63.691406 L 103.566406 54.875 L 112.4375 54.863281 L 112.445312 63.703125 L 121.273438 63.691406 L 121.28125 90.191406 L 130.121094 90.179688 L 130.128906 107.851562 L 121.273438 107.859375 L 121.28125 116.675781 L 130.121094 116.671875 L 130.128906 355.109375 L 121.273438 355.109375 " fill-opacity="1" fill-rule="nonzero"/><path fill="#cea4ff" d="M 121.273438 90.191406 L 130.121094 90.191406 L 130.121094 107.851562 L 121.273438 107.851562 L 121.273438 116.675781 L 130.121094 116.675781 L 130.121094 355.097656 L 121.273438 355.097656 L 121.273438 346.265625 L 112.4375 346.265625 L 112.4375 337.4375 L 103.574219 337.4375 L 103.574219 328.609375 L 94.730469 328.609375 L 94.730469 319.773438 L 85.882812 319.773438 L 85.882812 81.363281 L 94.730469 81.363281 L 94.730469 63.703125 L 103.574219 63.703125 L 103.574219 54.875 L 112.4375 54.875 L 112.4375 63.703125 L 121.273438 63.703125 L 121.273438 90.191406 " fill-opacity="1" fill-rule="nonzero"/><path fill="#cea4ff" d="M 174.367188 134.351562 L 174.355469 125.515625 L 165.519531 125.523438 L 165.507812 116.675781 L 192.066406 116.671875 L 192.074219 125.515625 L 183.21875 125.523438 L 183.230469 134.351562 L 174.367188 134.351562 " fill-opacity="1" fill-rule="nonzero"/><path fill="#cea4ff" d="M 174.367188 125.515625 L 165.519531 125.515625 L 165.519531 116.675781 L 192.066406 116.675781 L 192.066406 125.515625 L 183.21875 125.515625 L 183.21875 134.34375 L 174.367188 134.34375 L 174.367188 125.515625 " fill-opacity="1" fill-rule="nonzero"/><path fill="#cea4ff" d="M 200.929688 125.523438 L 200.917969 116.675781 L 218.609375 116.671875 L 218.617188 125.523438 L 200.929688 125.523438 " fill-opacity="1" fill-rule="nonzero"/><path fill="#cea4ff" d="M 200.929688 125.515625 L 200.929688 116.675781 L 218.609375 116.675781 L 218.609375 125.515625 L 200.929688 125.515625 " fill-opacity="1" fill-rule="nonzero"/><path fill="#cea4ff" d="M 138.972656 355.109375 L 138.964844 116.675781 L 156.675781 116.671875 L 156.683594 125.515625 L 147.820312 125.527344 L 147.828125 169.667969 L 156.675781 169.660156 L 156.683594 178.492188 L 165.519531 178.484375 L 165.527344 187.320312 L 200.929688 187.3125 L 200.917969 178.492188 L 271.707031 178.484375 L 271.703125 169.667969 L 280.554688 169.660156 L 280.546875 134.34375 L 271.707031 134.351562 L 271.703125 125.515625 L 262.855469 125.527344 L 262.84375 116.675781 L 289.40625 116.671875 L 289.417969 355.109375 L 138.972656 355.109375 " fill-opacity="1" fill-rule="nonzero"/><path fill="#cea4ff" d="M 289.40625 116.675781 L 289.40625 355.097656 L 138.972656 355.097656 L 138.972656 116.675781 L 156.675781 116.675781 L 156.675781 125.515625 L 147.820312 125.515625 L 147.820312 169.667969 L 156.675781 169.667969 L 156.675781 178.492188 L 165.519531 178.492188 L 165.519531 187.320312 L 200.929688 187.320312 L 200.929688 178.492188 L 271.707031 178.492188 L 271.707031 169.667969 L 280.554688 169.667969 L 280.554688 134.34375 L 271.707031 134.34375 L 271.707031 125.515625 L 262.855469 125.515625 L 262.855469 116.675781 L 289.40625 116.675781 " fill-opacity="1" fill-rule="nonzero"/><g clip-path="url(#29730ac364)"><path fill="#7700ff" d="M 77.03125 319.78125 L 77.019531 72.53125 L 94.730469 72.519531 L 94.738281 81.363281 L 85.882812 81.371094 L 85.894531 319.78125 L 77.03125 319.78125 " fill-opacity="1" fill-rule="nonzero"/><path fill="#7700ff" d="M 94.730469 72.53125 L 94.730469 81.363281 L 85.882812 81.363281 L 85.882812 319.773438 L 77.03125 319.773438 L 77.03125 72.53125 L 94.730469 72.53125 " fill-opacity="1" fill-rule="nonzero"/></g><path fill="#7700ff" d="M 271.707031 169.671875 L 271.703125 152.003906 L 262.855469 152.011719 L 262.84375 143.171875 L 271.707031 143.160156 L 271.703125 134.34375 L 280.554688 134.332031 L 280.566406 169.671875 L 271.707031 169.671875 " fill-opacity="1" fill-rule="nonzero"/><path fill="#7700ff" d="M 280.554688 134.34375 L 280.554688 169.667969 L 271.707031 169.667969 L 271.707031 152.003906 L 262.855469 152.003906 L 262.855469 143.171875 L 271.707031 143.171875 L 271.707031 134.34375 L 280.554688 134.34375 " fill-opacity="1" fill-rule="nonzero"/><path fill="#9334ff" d="M 262.855469 63.707031 L 262.84375 46.039062 L 271.707031 46.03125 L 271.71875 63.707031 L 262.855469 63.707031 " fill-opacity="1" fill-rule="nonzero"/><path fill="#9334ff" d="M 271.707031 63.703125 L 262.855469 63.703125 L 262.855469 46.039062 L 271.707031 46.039062 L 271.707031 63.703125 " fill-opacity="1" fill-rule="nonzero"/><path fill="#9334ff" d="M 271.707031 81.371094 L 271.703125 63.703125 L 280.554688 63.691406 L 280.566406 81.371094 L 271.707031 81.371094 " fill-opacity="1" fill-rule="nonzero"/><path fill="#9334ff" d="M 280.554688 81.363281 L 271.707031 81.363281 L 271.707031 63.703125 L 280.554688 63.703125 L 280.554688 81.363281 " fill-opacity="1" fill-rule="nonzero"/><path fill="#9334ff" d="M 280.554688 99.027344 L 280.546875 81.363281 L 289.40625 81.351562 L 289.417969 99.027344 L 280.554688 99.027344 " fill-opacity="1" fill-rule="nonzero"/><path fill="#9334ff" d="M 289.40625 99.015625 L 280.554688 99.015625 L 280.554688 81.363281 L 289.40625 81.363281 L 289.40625 99.015625 " fill-opacity="1" fill-rule="nonzero"/><path fill="#7700ff" d="M 245.175781 337.449219 L 245.164062 328.609375 L 236.308594 328.621094 L 236.300781 319.773438 L 227.464844 319.78125 L 227.457031 310.949219 L 218.609375 310.957031 L 218.601562 293.285156 L 227.464844 293.277344 L 227.457031 284.457031 L 236.308594 284.453125 L 236.300781 275.625 L 262.855469 275.613281 L 262.863281 284.457031 L 271.707031 284.453125 L 271.71875 293.285156 L 280.554688 293.277344 L 280.566406 328.609375 L 271.707031 328.621094 L 271.71875 337.449219 L 245.175781 337.449219 " fill-opacity="1" fill-rule="nonzero"/><path fill="#7700ff" d="M 280.554688 293.285156 L 280.554688 328.609375 L 271.707031 328.609375 L 271.707031 337.4375 L 245.175781 337.4375 L 245.175781 328.609375 L 236.308594 328.609375 L 236.308594 319.773438 L 227.464844 319.773438 L 227.464844 310.949219 L 218.609375 310.949219 L 218.609375 293.285156 L 227.464844 293.285156 L 227.464844 284.457031 L 236.308594 284.457031 L 236.308594 275.625 L 262.855469 275.625 L 262.855469 284.457031 L 271.707031 284.457031 L 271.707031 293.285156 L 280.554688 293.285156 " fill-opacity="1" fill-rule="nonzero"/><path fill="#9334ff" d="M 174.367188 310.957031 L 174.355469 284.457031 L 183.21875 284.453125 L 183.230469 310.957031 L 174.367188 310.957031 " fill-opacity="1" fill-rule="nonzero"/><path fill="#9334ff" d="M 174.367188 284.457031 L 183.21875 284.457031 L 183.21875 310.949219 L 174.367188 310.949219 L 174.367188 284.457031 " fill-opacity="1" fill-rule="nonzero"/><path fill="#9334ff" d="M 165.519531 284.46875 L 165.507812 231.472656 L 156.675781 231.480469 L 156.667969 204.984375 L 174.367188 204.972656 L 174.375 213.816406 L 165.519531 213.828125 L 165.527344 222.644531 L 174.367188 222.632812 L 174.375 231.472656 L 245.175781 231.460938 L 245.164062 222.644531 L 254.007812 222.632812 L 254.003906 213.816406 L 245.175781 213.828125 L 245.164062 204.984375 L 262.855469 204.972656 L 262.863281 231.472656 L 254.007812 231.480469 L 254.019531 275.625 L 245.175781 275.632812 L 245.164062 240.308594 L 174.367188 240.316406 L 174.375 284.46875 L 165.519531 284.46875 " fill-opacity="1" fill-rule="nonzero"/><path fill="#9334ff" d="M 262.855469 204.984375 L 262.855469 231.472656 L 254.007812 231.472656 L 254.007812 275.625 L 245.175781 275.625 L 245.175781 240.308594 L 174.367188 240.308594 L 174.367188 284.457031 L 165.519531 284.457031 L 165.519531 231.472656 L 156.675781 231.472656 L 156.675781 204.984375 L 174.367188 204.984375 L 174.367188 213.816406 L 165.519531 213.816406 L 165.519531 222.644531 L 174.367188 222.644531 L 174.367188 231.472656 L 245.175781 231.472656 L 245.175781 222.644531 L 254.007812 222.644531 L 254.007812 213.816406 L 245.175781 213.816406 L 245.175781 204.984375 L 262.855469 204.984375 " fill-opacity="1" fill-rule="nonzero"/><path fill="#9334ff" d="M 183.21875 319.78125 L 183.210938 310.949219 L 227.464844 310.941406 L 227.476562 319.78125 L 183.21875 319.78125 " fill-opacity="1" fill-rule="nonzero"/><path fill="#9334ff" d="M 183.21875 319.773438 L 183.21875 310.949219 L 227.464844 310.949219 L 227.464844 319.773438 L 183.21875 319.773438 " fill-opacity="1" fill-rule="nonzero"/><path fill="#923af6" d="M 218.613281 293.292969 L 218.605469 284.457031 L 227.46875 284.453125 L 227.476562 293.292969 L 218.613281 293.292969 " fill-opacity="1" fill-rule="nonzero"/><path fill="#923af6" d="M 227.46875 284.457031 L 227.46875 293.285156 L 218.613281 293.285156 L 218.613281 284.457031 L 227.46875 284.457031 " fill-opacity="1" fill-rule="nonzero"/><path fill="#923af6" d="M 218.613281 284.46875 L 218.605469 275.625 L 227.46875 275.613281 L 227.476562 284.46875 L 218.613281 284.46875 " fill-opacity="1" fill-rule="nonzero"/><path fill="#923af6" d="M 227.46875 275.625 L 227.46875 284.457031 L 218.613281 284.457031 L 218.613281 275.625 L 227.46875 275.625 " fill-opacity="1" fill-rule="nonzero"/><path fill="#923af6" d="M 218.613281 275.632812 L 218.605469 266.796875 L 227.46875 266.789062 L 227.476562 275.632812 L 218.613281 275.632812 " fill-opacity="1" fill-rule="nonzero"/><path fill="#923af6" d="M 227.46875 266.796875 L 227.46875 275.625 L 218.613281 275.625 L 218.613281 266.796875 L 227.46875 266.796875 " fill-opacity="1" fill-rule="nonzero"/><path fill="#923af6" d="M 218.613281 266.804688 L 218.605469 257.96875 L 227.46875 257.960938 L 227.476562 266.804688 L 218.613281 266.804688 " fill-opacity="1" fill-rule="nonzero"/><path fill="#923af6" d="M 227.46875 257.96875 L 227.46875 266.796875 L 218.613281 266.796875 L 218.613281 257.96875 L 227.46875 257.96875 " fill-opacity="1" fill-rule="nonzero"/><path fill="#923af6" d="M 218.613281 257.980469 L 218.605469 249.132812 L 227.46875 249.125 L 227.476562 257.980469 L 218.613281 257.980469 " fill-opacity="1" fill-rule="nonzero"/><path fill="#923af6" d="M 227.46875 249.132812 L 227.46875 257.96875 L 218.613281 257.96875 L 218.613281 249.132812 L 227.46875 249.132812 " fill-opacity="1" fill-rule="nonzero"/><path fill="#7700ff" d="M 209.773438 143.171875 L 218.609375 143.160156 L 218.601562 134.34375 L 209.773438 134.351562 Z M 209.773438 169.667969 L 218.609375 169.660156 L 218.601562 152.003906 L 209.773438 152.011719 Z M 227.476562 169.667969 L 236.308594 169.660156 L 236.300781 125.515625 L 227.476562 125.523438 Z M 200.929688 178.5 L 200.917969 125.515625 L 218.609375 125.503906 L 218.601562 116.675781 L 262.855469 116.671875 L 262.863281 125.515625 L 271.707031 125.503906 L 271.71875 134.34375 L 262.855469 134.351562 L 262.863281 143.171875 L 254.007812 143.175781 L 254.003906 125.515625 L 245.175781 125.523438 L 245.179688 169.667969 L 254.007812 169.660156 L 254.003906 152.003906 L 262.855469 151.992188 L 262.863281 169.667969 L 271.707031 169.660156 L 271.71875 178.5 L 200.929688 178.5 " fill-opacity="1" fill-rule="nonzero"/><path fill="#7700ff" d="M 236.308594 169.667969 L 227.464844 169.667969 L 227.464844 125.515625 L 236.308594 125.515625 Z M 218.609375 143.171875 L 209.765625 143.171875 L 209.765625 134.34375 L 218.609375 134.34375 Z M 218.609375 169.667969 L 209.765625 169.667969 L 209.765625 152.003906 L 218.609375 152.003906 Z M 262.855469 143.171875 L 262.855469 134.34375 L 271.707031 134.34375 L 271.707031 125.515625 L 262.855469 125.515625 L 262.855469 116.675781 L 218.609375 116.675781 L 218.609375 125.515625 L 200.929688 125.515625 L 200.929688 178.492188 L 271.707031 178.492188 L 271.707031 169.667969 L 262.855469 169.667969 L 262.855469 152.003906 L 254.007812 152.003906 L 254.007812 169.667969 L 245.175781 169.667969 L 245.175781 125.515625 L 254.007812 125.515625 L 254.007812 143.171875 L 262.855469 143.171875 " fill-opacity="1" fill-rule="nonzero"/><path fill="#923af6" d="M 209.769531 310.957031 L 209.761719 302.125 L 218.613281 302.113281 L 218.625 310.957031 L 209.769531 310.957031 " fill-opacity="1" fill-rule="nonzero"/><path fill="#923af6" d="M 218.613281 302.125 L 218.613281 310.949219 L 209.769531 310.949219 L 209.769531 302.125 L 218.613281 302.125 " fill-opacity="1" fill-rule="nonzero"/><path fill="#923af6" d="M 209.769531 302.132812 L 209.761719 293.285156 L 218.613281 293.277344 L 218.625 302.132812 L 209.769531 302.132812 " fill-opacity="1" fill-rule="nonzero"/><path fill="#923af6" d="M 218.613281 293.285156 L 218.613281 302.125 L 209.769531 302.125 L 209.769531 293.285156 L 218.613281 293.285156 " fill-opacity="1" fill-rule="nonzero"/><path fill="#923af6" d="M 209.769531 293.292969 L 209.761719 284.457031 L 218.613281 284.453125 L 218.625 293.292969 L 209.769531 293.292969 " fill-opacity="1" fill-rule="nonzero"/><path fill="#923af6" d="M 218.613281 284.457031 L 218.613281 293.285156 L 209.769531 293.285156 L 209.769531 284.457031 L 218.613281 284.457031 " fill-opacity="1" fill-rule="nonzero"/><path fill="#923af6" d="M 209.769531 284.46875 L 209.761719 275.625 L 218.613281 275.613281 L 218.625 284.46875 L 209.769531 284.46875 " fill-opacity="1" fill-rule="nonzero"/><path fill="#923af6" d="M 218.613281 275.625 L 218.613281 284.457031 L 209.769531 284.457031 L 209.769531 275.625 L 218.613281 275.625 " fill-opacity="1" fill-rule="nonzero"/><path fill="#923af6" d="M 209.769531 266.804688 L 209.761719 257.96875 L 218.613281 257.960938 L 218.625 266.804688 L 209.769531 266.804688 " fill-opacity="1" fill-rule="nonzero"/><path fill="#923af6" d="M 218.613281 257.96875 L 218.613281 266.796875 L 209.769531 266.796875 L 209.769531 257.96875 L 218.613281 257.96875 " fill-opacity="1" fill-rule="nonzero"/><path fill="#923af6" d="M 209.769531 257.980469 L 209.761719 249.132812 L 218.613281 249.125 L 218.625 257.980469 L 209.769531 257.980469 " fill-opacity="1" fill-rule="nonzero"/><path fill="#923af6" d="M 218.613281 249.132812 L 218.613281 257.96875 L 209.769531 257.96875 L 209.769531 249.132812 L 218.613281 249.132812 " fill-opacity="1" fill-rule="nonzero"/><path fill="#7700ff" d="M 200.929688 346.273438 L 200.917969 337.4375 L 209.765625 337.429688 L 209.753906 328.609375 L 227.464844 328.601562 L 227.476562 337.4375 L 236.308594 337.429688 L 236.316406 346.273438 L 200.929688 346.273438 " fill-opacity="1" fill-rule="nonzero"/><path fill="#7700ff" d="M 236.308594 337.4375 L 236.308594 346.265625 L 200.929688 346.265625 L 200.929688 337.4375 L 209.765625 337.4375 L 209.765625 328.609375 L 227.464844 328.609375 L 227.464844 337.4375 L 236.308594 337.4375 " fill-opacity="1" fill-rule="nonzero"/><path fill="#923af6" d="M 200.921875 310.957031 L 200.914062 302.125 L 209.769531 302.113281 L 209.777344 310.957031 L 200.921875 310.957031 " fill-opacity="1" fill-rule="nonzero"/><path fill="#923af6" d="M 209.769531 302.125 L 209.769531 310.949219 L 200.921875 310.949219 L 200.921875 302.125 L 209.769531 302.125 " fill-opacity="1" fill-rule="nonzero"/><path fill="#923af6" d="M 200.921875 302.132812 L 200.914062 293.285156 L 209.769531 293.277344 L 209.777344 302.132812 L 200.921875 302.132812 " fill-opacity="1" fill-rule="nonzero"/><path fill="#923af6" d="M 209.769531 293.285156 L 209.769531 302.125 L 200.921875 302.125 L 200.921875 293.285156 L 209.769531 293.285156 " fill-opacity="1" fill-rule="nonzero"/><path fill="#923af6" d="M 200.921875 293.292969 L 200.914062 284.457031 L 209.769531 284.453125 L 209.777344 293.292969 L 200.921875 293.292969 " fill-opacity="1" fill-rule="nonzero"/><path fill="#923af6" d="M 209.769531 284.457031 L 209.769531 293.285156 L 200.921875 293.285156 L 200.921875 284.457031 L 209.769531 284.457031 " fill-opacity="1" fill-rule="nonzero"/><path fill="#923af6" d="M 200.921875 284.46875 L 200.914062 275.625 L 209.769531 275.613281 L 209.777344 284.46875 L 200.921875 284.46875 " fill-opacity="1" fill-rule="nonzero"/><path fill="#923af6" d="M 209.769531 275.625 L 209.769531 284.457031 L 200.921875 284.457031 L 200.921875 275.625 L 209.769531 275.625 " fill-opacity="1" fill-rule="nonzero"/><path fill="#923af6" d="M 200.921875 275.632812 L 200.914062 266.796875 L 209.769531 266.789062 L 209.777344 275.632812 L 200.921875 275.632812 " fill-opacity="1" fill-rule="nonzero"/><path fill="#923af6" d="M 209.769531 266.796875 L 209.769531 275.625 L 200.921875 275.625 L 200.921875 266.796875 L 209.769531 266.796875 " fill-opacity="1" fill-rule="nonzero"/><path fill="#923af6" d="M 200.921875 266.804688 L 200.914062 257.96875 L 209.769531 257.960938 L 209.777344 266.804688 L 200.921875 266.804688 " fill-opacity="1" fill-rule="nonzero"/><path fill="#923af6" d="M 209.769531 257.96875 L 209.769531 266.796875 L 200.921875 266.796875 L 200.921875 257.96875 L 209.769531 257.96875 " fill-opacity="1" fill-rule="nonzero"/><path fill="#923af6" d="M 200.921875 257.980469 L 200.914062 249.132812 L 209.769531 249.125 L 209.777344 257.980469 L 200.921875 257.980469 " fill-opacity="1" fill-rule="nonzero"/><path fill="#923af6" d="M 209.769531 249.132812 L 209.769531 257.96875 L 200.921875 257.96875 L 200.921875 249.132812 L 209.769531 249.132812 " fill-opacity="1" fill-rule="nonzero"/><path fill="#923af6" d="M 192.070312 310.957031 L 192.0625 302.125 L 200.921875 302.113281 L 200.933594 310.957031 L 192.070312 310.957031 " fill-opacity="1" fill-rule="nonzero"/><path fill="#923af6" d="M 200.921875 302.125 L 200.921875 310.949219 L 192.070312 310.949219 L 192.070312 302.125 L 200.921875 302.125 " fill-opacity="1" fill-rule="nonzero"/><path fill="#923af6" d="M 192.070312 302.132812 L 192.0625 293.285156 L 200.921875 293.277344 L 200.933594 302.132812 L 192.070312 302.132812 " fill-opacity="1" fill-rule="nonzero"/><path fill="#923af6" d="M 200.921875 293.285156 L 200.921875 302.125 L 192.070312 302.125 L 192.070312 293.285156 L 200.921875 293.285156 " fill-opacity="1" fill-rule="nonzero"/><path fill="#923af6" d="M 192.070312 293.292969 L 192.0625 284.457031 L 200.921875 284.453125 L 200.933594 293.292969 L 192.070312 293.292969 " fill-opacity="1" fill-rule="nonzero"/><path fill="#923af6" d="M 200.921875 284.457031 L 200.921875 293.285156 L 192.070312 293.285156 L 192.070312 284.457031 L 200.921875 284.457031 " fill-opacity="1" fill-rule="nonzero"/><path fill="#923af6" d="M 192.070312 284.46875 L 192.0625 275.625 L 200.921875 275.613281 L 200.933594 284.46875 L 192.070312 284.46875 " fill-opacity="1" fill-rule="nonzero"/><path fill="#923af6" d="M 200.921875 275.625 L 200.921875 284.457031 L 192.070312 284.457031 L 192.070312 275.625 L 200.921875 275.625 " fill-opacity="1" fill-rule="nonzero"/><path fill="#923af6" d="M 192.070312 266.804688 L 192.0625 257.96875 L 200.921875 257.960938 L 200.933594 266.804688 L 192.070312 266.804688 " fill-opacity="1" fill-rule="nonzero"/><path fill="#923af6" d="M 200.921875 257.96875 L 200.921875 266.796875 L 192.070312 266.796875 L 192.070312 257.96875 L 200.921875 257.96875 " fill-opacity="1" fill-rule="nonzero"/><path fill="#923af6" d="M 192.070312 257.980469 L 192.0625 249.132812 L 200.921875 249.125 L 200.933594 257.980469 L 192.070312 257.980469 " fill-opacity="1" fill-rule="nonzero"/><path fill="#923af6" d="M 200.921875 249.132812 L 200.921875 257.96875 L 192.070312 257.96875 L 192.070312 249.132812 L 200.921875 249.132812 " fill-opacity="1" fill-rule="nonzero"/><path fill="#923af6" d="M 192.070312 249.144531 L 192.0625 240.308594 L 200.921875 240.296875 L 200.933594 249.144531 L 192.070312 249.144531 " fill-opacity="1" fill-rule="nonzero"/><path fill="#923af6" d="M 200.921875 240.308594 L 200.921875 249.132812 L 192.070312 249.132812 L 192.070312 240.308594 L 200.921875 240.308594 " fill-opacity="1" fill-rule="nonzero"/><path fill="#7700ff" d="M 192.066406 125.523438 L 192.054688 116.675781 L 200.929688 116.671875 L 200.9375 125.523438 L 192.066406 125.523438 " fill-opacity="1" fill-rule="nonzero"/><path fill="#7700ff" d="M 200.929688 116.675781 L 200.929688 125.515625 L 192.066406 125.515625 L 192.066406 116.675781 L 200.929688 116.675781 " fill-opacity="1" fill-rule="nonzero"/><path fill="#923af6" d="M 183.222656 284.46875 L 183.214844 275.625 L 192.070312 275.613281 L 192.078125 284.46875 L 183.222656 284.46875 " fill-opacity="1" fill-rule="nonzero"/><path fill="#923af6" d="M 192.070312 275.625 L 192.070312 284.457031 L 183.222656 284.457031 L 183.222656 275.625 L 192.070312 275.625 " fill-opacity="1" fill-rule="nonzero"/><path fill="#923af6" d="M 183.222656 275.632812 L 183.214844 266.796875 L 192.070312 266.789062 L 192.078125 275.632812 L 183.222656 275.632812 " fill-opacity="1" fill-rule="nonzero"/><path fill="#923af6" d="M 192.070312 266.796875 L 192.070312 275.625 L 183.222656 275.625 L 183.222656 266.796875 L 192.070312 266.796875 " fill-opacity="1" fill-rule="nonzero"/><path fill="#923af6" d="M 183.222656 266.804688 L 183.214844 257.96875 L 192.070312 257.960938 L 192.078125 266.804688 L 183.222656 266.804688 " fill-opacity="1" fill-rule="nonzero"/><path fill="#923af6" d="M 192.070312 257.96875 L 192.070312 266.796875 L 183.222656 266.796875 L 183.222656 257.96875 L 192.070312 257.96875 " fill-opacity="1" fill-rule="nonzero"/><path fill="#923af6" d="M 183.222656 257.980469 L 183.214844 249.132812 L 192.070312 249.125 L 192.078125 257.980469 L 183.222656 257.980469 " fill-opacity="1" fill-rule="nonzero"/><path fill="#923af6" d="M 192.070312 249.132812 L 192.070312 257.96875 L 183.222656 257.96875 L 183.222656 249.132812 L 192.070312 249.132812 " fill-opacity="1" fill-rule="nonzero"/><path fill="#7700ff" d="M 183.21875 134.351562 L 183.210938 125.515625 L 192.066406 125.503906 L 192.074219 134.351562 L 183.21875 134.351562 " fill-opacity="1" fill-rule="nonzero"/><path fill="#7700ff" d="M 192.066406 125.515625 L 192.066406 134.34375 L 183.21875 134.34375 L 183.21875 125.515625 L 192.066406 125.515625 " fill-opacity="1" fill-rule="nonzero"/><path fill="#7700ff" d="M 174.367188 346.273438 L 174.355469 328.609375 L 183.21875 328.601562 L 183.230469 337.4375 L 192.066406 337.429688 L 192.074219 346.273438 L 174.367188 346.273438 " fill-opacity="1" fill-rule="nonzero"/><path fill="#7700ff" d="M 192.066406 337.4375 L 192.066406 346.265625 L 174.367188 346.265625 L 174.367188 328.609375 L 183.21875 328.609375 L 183.21875 337.4375 L 192.066406 337.4375 " fill-opacity="1" fill-rule="nonzero"/><path fill="#9334ff" d="M 174.367188 204.992188 L 174.355469 196.15625 L 245.175781 196.148438 L 245.179688 204.992188 L 174.367188 204.992188 " fill-opacity="1" fill-rule="nonzero"/><path fill="#9334ff" d="M 245.175781 196.15625 L 245.175781 204.984375 L 174.367188 204.984375 L 174.367188 196.15625 L 245.175781 196.15625 " fill-opacity="1" fill-rule="nonzero"/><path fill="#7700ff" d="M 174.367188 143.175781 L 174.355469 134.34375 L 183.21875 134.332031 L 183.230469 143.175781 L 174.367188 143.175781 " fill-opacity="1" fill-rule="nonzero"/><path fill="#7700ff" d="M 183.21875 134.34375 L 183.21875 143.171875 L 174.367188 143.171875 L 174.367188 134.34375 L 183.21875 134.34375 " fill-opacity="1" fill-rule="nonzero"/><path fill="#7700ff" d="M 165.519531 187.328125 L 165.507812 143.171875 L 174.367188 143.160156 L 174.375 152.003906 L 183.21875 151.992188 L 183.210938 143.171875 L 192.066406 143.160156 L 192.074219 169.667969 L 200.929688 169.660156 L 200.9375 187.328125 L 165.519531 187.328125 " fill-opacity="1" fill-rule="nonzero"/><path fill="#7700ff" d="M 200.929688 169.667969 L 200.929688 187.320312 L 165.519531 187.320312 L 165.519531 143.171875 L 174.367188 143.171875 L 174.367188 152.003906 L 183.21875 152.003906 L 183.21875 143.171875 L 192.066406 143.171875 L 192.066406 169.667969 L 200.929688 169.667969 " fill-opacity="1" fill-rule="nonzero"/><path fill="#7700ff" d="M 165.519531 134.351562 L 165.507812 125.515625 L 174.367188 125.503906 L 174.375 134.351562 L 165.519531 134.351562 " fill-opacity="1" fill-rule="nonzero"/><path fill="#7700ff" d="M 174.367188 125.515625 L 174.367188 134.34375 L 165.519531 134.34375 L 165.519531 125.515625 L 174.367188 125.515625 " fill-opacity="1" fill-rule="nonzero"/><path fill="#7700ff" d="M 156.675781 346.273438 L 156.667969 328.609375 L 165.519531 328.601562 L 165.527344 346.273438 L 156.675781 346.273438 " fill-opacity="1" fill-rule="nonzero"/><path fill="#7700ff" d="M 165.519531 328.609375 L 165.519531 346.265625 L 156.675781 346.265625 L 156.675781 328.609375 L 165.519531 328.609375 " fill-opacity="1" fill-rule="nonzero"/><path fill="#7700ff" d="M 156.675781 178.5 L 156.667969 169.667969 L 165.519531 169.660156 L 165.527344 178.5 L 156.675781 178.5 " fill-opacity="1" fill-rule="nonzero"/><path fill="#7700ff" d="M 165.519531 169.667969 L 165.519531 178.492188 L 156.675781 178.492188 L 156.675781 169.667969 L 165.519531 169.667969 " fill-opacity="1" fill-rule="nonzero"/><path fill="#7700ff" d="M 156.675781 125.523438 L 156.667969 116.675781 L 165.519531 116.671875 L 165.527344 125.523438 L 156.675781 125.523438 " fill-opacity="1" fill-rule="nonzero"/><path fill="#7700ff" d="M 165.519531 116.675781 L 165.519531 125.515625 L 156.675781 125.515625 L 156.675781 116.675781 L 165.519531 116.675781 " fill-opacity="1" fill-rule="nonzero"/><path fill="#7700ff" d="M 147.820312 169.671875 L 147.808594 125.515625 L 156.675781 125.503906 L 156.683594 169.671875 L 147.820312 169.671875 " fill-opacity="1" fill-rule="nonzero"/><path fill="#7700ff" d="M 156.675781 125.515625 L 156.675781 169.667969 L 147.820312 169.667969 L 147.820312 125.515625 L 156.675781 125.515625 " fill-opacity="1" fill-rule="nonzero"/><g clip-path="url(#7fbc29560e)"><path fill="#9334ff" d="M 138.972656 363.9375 L 138.964844 355.097656 L 289.40625 355.09375 L 289.402344 116.675781 L 130.121094 116.6875 L 130.109375 90.191406 L 138.972656 90.179688 L 138.980469 107.851562 L 289.40625 107.84375 L 289.402344 99.015625 L 298.265625 99.007812 L 298.273438 363.9375 L 138.972656 363.9375 " fill-opacity="1" fill-rule="nonzero"/><path fill="#9334ff" d="M 298.265625 99.015625 L 298.265625 363.925781 L 138.972656 363.925781 L 138.972656 355.097656 L 289.40625 355.097656 L 289.40625 116.675781 L 130.121094 116.675781 L 130.121094 90.191406 L 138.972656 90.191406 L 138.972656 107.851562 L 289.40625 107.851562 L 289.40625 99.015625 L 298.265625 99.015625 " fill-opacity="1" fill-rule="nonzero"/></g><path fill="#7700ff" d="M 94.730469 90.199219 L 94.71875 81.363281 L 103.574219 81.351562 L 103.582031 90.199219 L 94.730469 90.199219 " fill-opacity="1" fill-rule="nonzero"/><path fill="#7700ff" d="M 103.574219 81.363281 L 103.574219 90.191406 L 94.730469 90.191406 L 94.730469 81.363281 L 103.574219 81.363281 " fill-opacity="1" fill-rule="nonzero"/><path fill="#7700ff" d="M 112.4375 107.859375 L 112.429688 99.015625 L 121.273438 99.007812 L 121.28125 107.859375 L 112.4375 107.859375 " fill-opacity="1" fill-rule="nonzero"/><path fill="#7700ff" d="M 121.273438 99.015625 L 121.273438 107.851562 L 112.4375 107.851562 L 112.4375 99.015625 L 121.273438 99.015625 " fill-opacity="1" fill-rule="nonzero"/><path fill="#7700ff" d="M 103.574219 99.027344 L 103.566406 90.191406 L 112.4375 90.179688 L 112.445312 99.027344 L 103.574219 99.027344 " fill-opacity="1" fill-rule="nonzero"/><path fill="#7700ff" d="M 112.4375 90.191406 L 112.4375 99.015625 L 103.574219 99.015625 L 103.574219 90.191406 L 112.4375 90.191406 " fill-opacity="1" fill-rule="nonzero"/><path fill="#7700ff" d="M 121.273438 116.6875 L 121.265625 107.851562 L 130.121094 107.84375 L 130.128906 116.6875 L 121.273438 116.6875 " fill-opacity="1" fill-rule="nonzero"/><path fill="#7700ff" d="M 130.121094 107.851562 L 130.121094 116.675781 L 121.273438 116.675781 L 121.273438 107.851562 L 130.121094 107.851562 " fill-opacity="1" fill-rule="nonzero"/><path fill="#9334ff" d="M 121.273438 90.199219 L 121.265625 63.703125 L 130.121094 63.691406 L 130.128906 90.199219 L 121.273438 90.199219 " fill-opacity="1" fill-rule="nonzero"/><path fill="#9334ff" d="M 130.121094 63.703125 L 130.121094 90.191406 L 121.273438 90.191406 L 121.273438 63.703125 L 130.121094 63.703125 " fill-opacity="1" fill-rule="nonzero"/><path fill="#7700ff" d="M 112.4375 328.621094 L 112.429688 319.773438 L 103.574219 319.78125 L 103.566406 310.949219 L 112.4375 310.941406 L 112.429688 302.125 L 121.273438 302.113281 L 121.28125 328.621094 L 112.4375 328.621094 " fill-opacity="1" fill-rule="nonzero"/><path fill="#7700ff" d="M 121.273438 302.125 L 121.273438 328.609375 L 112.4375 328.609375 L 112.4375 319.773438 L 103.574219 319.773438 L 103.574219 310.949219 L 112.4375 310.949219 L 112.4375 302.125 L 121.273438 302.125 " fill-opacity="1" fill-rule="nonzero"/><path fill="#7700ff" d="M 112.433594 275.632812 L 112.425781 266.796875 L 121.277344 266.789062 L 121.285156 275.632812 L 112.433594 275.632812 " fill-opacity="1" fill-rule="nonzero"/><path fill="#7700ff" d="M 121.277344 266.796875 L 121.277344 275.625 L 112.433594 275.625 L 112.433594 266.796875 L 121.277344 266.796875 " fill-opacity="1" fill-rule="nonzero"/><path fill="#7700ff" d="M 112.433594 249.144531 L 112.425781 240.308594 L 121.277344 240.296875 L 121.285156 249.144531 L 112.433594 249.144531 " fill-opacity="1" fill-rule="nonzero"/><path fill="#7700ff" d="M 121.277344 240.308594 L 121.277344 249.132812 L 112.433594 249.132812 L 112.433594 240.308594 L 121.277344 240.308594 " fill-opacity="1" fill-rule="nonzero"/><path fill="#7700ff" d="M 112.433594 222.65625 L 112.425781 213.816406 L 121.277344 213.8125 L 121.285156 222.65625 L 112.433594 222.65625 " fill-opacity="1" fill-rule="nonzero"/><path fill="#7700ff" d="M 121.277344 213.816406 L 121.277344 222.644531 L 112.433594 222.644531 L 112.433594 213.816406 L 121.277344 213.816406 " fill-opacity="1" fill-rule="nonzero"/><path fill="#7700ff" d="M 112.4375 160.839844 L 112.429688 152.003906 L 103.574219 152.011719 L 103.566406 143.171875 L 112.4375 143.160156 L 112.429688 125.515625 L 121.273438 125.503906 L 121.28125 160.839844 L 112.4375 160.839844 " fill-opacity="1" fill-rule="nonzero"/><path fill="#7700ff" d="M 121.273438 125.515625 L 121.273438 160.832031 L 112.4375 160.832031 L 112.4375 152.003906 L 103.574219 152.003906 L 103.574219 143.171875 L 112.4375 143.171875 L 112.4375 125.515625 L 121.273438 125.515625 " fill-opacity="1" fill-rule="nonzero"/><path fill="#9334ff" d="M 112.4375 63.707031 L 112.429688 54.875 L 121.273438 54.863281 L 121.28125 63.707031 L 112.4375 63.707031 " fill-opacity="1" fill-rule="nonzero"/><path fill="#9334ff" d="M 121.273438 54.875 L 121.273438 63.703125 L 112.4375 63.703125 L 112.4375 54.875 L 121.273438 54.875 " fill-opacity="1" fill-rule="nonzero"/><g clip-path="url(#e96a4799b2)"><path fill="#9334ff" d="M 121.28125 37.210938 L 254.007812 37.203125 L 254.003906 19.550781 L 121.28125 19.558594 Z M 112.4375 46.046875 L 112.429688 10.722656 L 262.855469 10.710938 L 262.863281 46.046875 L 112.4375 46.046875 " fill-opacity="1" fill-rule="nonzero"/><path fill="#9334ff" d="M 254.007812 37.210938 L 121.273438 37.210938 L 121.273438 19.550781 L 254.007812 19.550781 Z M 112.4375 10.722656 L 112.4375 46.039062 L 262.855469 46.039062 L 262.855469 10.722656 L 112.4375 10.722656 " fill-opacity="1" fill-rule="nonzero"/></g><path fill="#7700ff" d="M 103.578125 266.804688 L 103.570312 257.96875 L 112.433594 257.960938 L 112.441406 266.804688 L 103.578125 266.804688 " fill-opacity="1" fill-rule="nonzero"/><path fill="#7700ff" d="M 112.433594 257.96875 L 112.433594 266.796875 L 103.578125 266.796875 L 103.578125 257.96875 L 112.433594 257.96875 " fill-opacity="1" fill-rule="nonzero"/><path fill="#7700ff" d="M 103.578125 240.316406 L 103.570312 231.472656 L 112.433594 231.460938 L 112.441406 240.316406 L 103.578125 240.316406 " fill-opacity="1" fill-rule="nonzero"/><path fill="#7700ff" d="M 112.433594 231.472656 L 112.433594 240.308594 L 103.578125 240.308594 L 103.578125 231.472656 L 112.433594 231.472656 " fill-opacity="1" fill-rule="nonzero"/><path fill="#7700ff" d="M 103.578125 213.828125 L 103.570312 204.984375 L 112.433594 204.972656 L 112.441406 213.828125 L 103.578125 213.828125 " fill-opacity="1" fill-rule="nonzero"/><path fill="#7700ff" d="M 112.433594 204.984375 L 112.433594 213.816406 L 103.578125 213.816406 L 103.578125 204.984375 L 112.433594 204.984375 " fill-opacity="1" fill-rule="nonzero"/><path fill="#feffff" d="M 103.574219 143.175781 L 103.566406 125.515625 L 112.4375 125.503906 L 112.445312 143.175781 L 103.574219 143.175781 " fill-opacity="1" fill-rule="nonzero"/><path fill="#feffff" d="M 103.574219 125.515625 L 112.4375 125.515625 L 112.4375 143.171875 L 103.574219 143.171875 L 103.574219 125.515625 " fill-opacity="1" fill-rule="nonzero"/><path fill="#feffff" d="M 121.273438 37.21875 L 121.265625 19.550781 L 254.007812 19.539062 L 254.019531 37.21875 L 121.273438 37.21875 " fill-opacity="1" fill-rule="nonzero"/><path fill="#feffff" d="M 121.273438 37.210938 L 121.273438 19.550781 L 254.007812 19.550781 L 254.007812 37.210938 L 121.273438 37.210938 " fill-opacity="1" fill-rule="nonzero"/><path fill="#feffff" d="M 156.675781 169.671875 L 156.667969 125.515625 L 165.519531 125.503906 L 165.527344 134.34375 L 174.367188 134.332031 L 174.375 143.171875 L 165.519531 143.175781 L 165.527344 169.671875 L 156.675781 169.671875 " fill-opacity="1" fill-rule="nonzero"/><path fill="#feffff" d="M 165.519531 125.515625 L 165.519531 134.34375 L 174.367188 134.34375 L 174.367188 143.171875 L 165.519531 143.171875 L 165.519531 169.667969 L 156.675781 169.667969 L 156.675781 125.515625 L 165.519531 125.515625 " fill-opacity="1" fill-rule="nonzero"/><path fill="#feffff" d="M 174.367188 152.011719 L 174.355469 143.171875 L 183.21875 143.160156 L 183.230469 152.011719 L 174.367188 152.011719 " fill-opacity="1" fill-rule="nonzero"/><path fill="#feffff" d="M 174.367188 152.003906 L 174.367188 143.171875 L 183.21875 143.171875 L 183.21875 152.003906 L 174.367188 152.003906 " fill-opacity="1" fill-rule="nonzero"/><path fill="#feffff" d="M 209.765625 143.175781 L 209.753906 134.34375 L 218.609375 134.332031 L 218.617188 143.175781 L 209.765625 143.175781 " fill-opacity="1" fill-rule="nonzero"/><path fill="#feffff" d="M 218.609375 143.171875 L 209.765625 143.171875 L 209.765625 134.34375 L 218.609375 134.34375 L 218.609375 143.171875 " fill-opacity="1" fill-rule="nonzero"/><path fill="#feffff" d="M 209.765625 169.671875 L 209.753906 152.003906 L 218.609375 151.992188 L 218.617188 169.671875 L 209.765625 169.671875 " fill-opacity="1" fill-rule="nonzero"/><path fill="#feffff" d="M 209.765625 152.003906 L 218.609375 152.003906 L 218.609375 169.667969 L 209.765625 169.667969 L 209.765625 152.003906 " fill-opacity="1" fill-rule="nonzero"/><path fill="#feffff" d="M 192.066406 169.671875 L 192.054688 143.171875 L 183.21875 143.175781 L 183.210938 134.34375 L 192.066406 134.332031 L 192.054688 125.515625 L 200.929688 125.503906 L 200.9375 169.671875 L 192.066406 169.671875 " fill-opacity="1" fill-rule="nonzero"/><path fill="#feffff" d="M 192.066406 143.171875 L 183.21875 143.171875 L 183.21875 134.34375 L 192.066406 134.34375 L 192.066406 125.515625 L 200.929688 125.515625 L 200.929688 169.667969 L 192.066406 169.667969 L 192.066406 143.171875 " fill-opacity="1" fill-rule="nonzero"/><path fill="#feffff" d="M 262.855469 169.671875 L 262.84375 152.003906 L 271.707031 151.992188 L 271.71875 169.671875 L 262.855469 169.671875 " fill-opacity="1" fill-rule="nonzero"/><path fill="#feffff" d="M 262.855469 152.003906 L 271.707031 152.003906 L 271.707031 169.667969 L 262.855469 169.667969 L 262.855469 152.003906 " fill-opacity="1" fill-rule="nonzero"/><path fill="#feffff" d="M 262.855469 143.175781 L 262.84375 134.34375 L 271.707031 134.332031 L 271.71875 143.175781 L 262.855469 143.175781 " fill-opacity="1" fill-rule="nonzero"/><path fill="#feffff" d="M 262.855469 134.34375 L 271.707031 134.34375 L 271.707031 143.171875 L 262.855469 143.171875 L 262.855469 134.34375 " fill-opacity="1" fill-rule="nonzero"/><path fill="#feffff" d="M 138.972656 107.859375 L 138.964844 90.191406 L 130.121094 90.199219 L 130.109375 63.703125 L 121.273438 63.707031 L 121.265625 54.875 L 112.4375 54.882812 L 112.429688 46.039062 L 262.855469 46.03125 L 262.863281 63.703125 L 271.707031 63.691406 L 271.71875 81.363281 L 280.554688 81.351562 L 280.566406 99.015625 L 289.40625 99.007812 L 289.417969 107.859375 L 138.972656 107.859375 " fill-opacity="1" fill-rule="nonzero"/><path fill="#feffff" d="M 289.40625 99.015625 L 289.40625 107.851562 L 138.972656 107.851562 L 138.972656 90.191406 L 130.121094 90.191406 L 130.121094 63.703125 L 121.273438 63.703125 L 121.273438 54.875 L 112.4375 54.875 L 112.4375 46.039062 L 262.855469 46.039062 L 262.855469 63.703125 L 271.707031 63.703125 L 271.707031 81.363281 L 280.554688 81.363281 L 280.554688 99.015625 L 289.40625 99.015625 " fill-opacity="1" fill-rule="nonzero"/><path fill="#feffff" d="M 227.464844 169.671875 L 227.457031 125.515625 L 236.308594 125.503906 L 236.316406 169.671875 L 227.464844 169.671875 " fill-opacity="1" fill-rule="nonzero"/><path fill="#feffff" d="M 236.308594 169.667969 L 227.464844 169.667969 L 227.464844 125.515625 L 236.308594 125.515625 L 236.308594 169.667969 " fill-opacity="1" fill-rule="nonzero"/><path fill="#feffff" d="M 245.175781 169.671875 L 245.164062 125.515625 L 254.007812 125.503906 L 254.019531 143.171875 L 262.855469 143.160156 L 262.863281 152.003906 L 254.007812 152.011719 L 254.019531 169.671875 L 245.175781 169.671875 " fill-opacity="1" fill-rule="nonzero"/><path fill="#feffff" d="M 254.007812 143.171875 L 262.855469 143.171875 L 262.855469 152.003906 L 254.007812 152.003906 L 254.007812 169.667969 L 245.175781 169.667969 L 245.175781 125.515625 L 254.007812 125.515625 L 254.007812 143.171875 " fill-opacity="1" fill-rule="nonzero"/><path fill="#feffff" d="M 165.519531 222.65625 L 165.507812 213.816406 L 174.367188 213.8125 L 174.355469 204.984375 L 245.175781 204.972656 L 245.179688 213.816406 L 183.21875 213.828125 L 183.230469 222.65625 L 165.519531 222.65625 " fill-opacity="1" fill-rule="nonzero"/><path fill="#feffff" d="M 245.175781 204.984375 L 245.175781 213.816406 L 183.21875 213.816406 L 183.21875 222.644531 L 165.519531 222.644531 L 165.519531 213.816406 L 174.367188 213.816406 L 174.367188 204.984375 L 245.175781 204.984375 " fill-opacity="1" fill-rule="nonzero"/><path fill="#feffff" d="M 227.464844 284.46875 L 227.457031 249.132812 L 236.308594 249.125 L 236.316406 284.46875 L 227.464844 284.46875 " fill-opacity="1" fill-rule="nonzero"/><path fill="#feffff" d="M 227.464844 249.132812 L 236.308594 249.132812 L 236.308594 284.457031 L 227.464844 284.457031 L 227.464844 249.132812 " fill-opacity="1" fill-rule="nonzero"/><path fill="#9334ff" d="M 85.882812 72.535156 L 85.875 63.703125 L 94.730469 63.691406 L 94.738281 72.535156 L 85.882812 72.535156 " fill-opacity="1" fill-rule="nonzero"/><path fill="#9334ff" d="M 85.882812 63.703125 L 94.730469 63.703125 L 94.730469 72.53125 L 85.882812 72.53125 L 85.882812 63.703125 " fill-opacity="1" fill-rule="nonzero"/><path fill="#9334ff" d="M 94.730469 63.707031 L 94.71875 54.875 L 103.574219 54.863281 L 103.582031 63.707031 L 94.730469 63.707031 " fill-opacity="1" fill-rule="nonzero"/><path fill="#9334ff" d="M 94.730469 54.875 L 103.574219 54.875 L 103.574219 63.703125 L 94.730469 63.703125 L 94.730469 54.875 " fill-opacity="1" fill-rule="nonzero"/><path fill="#9334ff" d="M 103.574219 54.882812 L 103.566406 46.039062 L 112.4375 46.03125 L 112.445312 54.882812 L 103.574219 54.882812 " fill-opacity="1" fill-rule="nonzero"/><path fill="#9334ff" d="M 112.4375 46.039062 L 112.4375 54.875 L 103.574219 54.875 L 103.574219 46.039062 L 112.4375 46.039062 " fill-opacity="1" fill-rule="nonzero"/><path fill="#7700ff" d="M 94.730469 310.957031 L 94.71875 284.457031 L 103.574219 284.453125 L 103.582031 293.285156 L 112.4375 293.277344 L 112.445312 302.125 L 103.574219 302.132812 L 103.582031 310.957031 L 94.730469 310.957031 " fill-opacity="1" fill-rule="nonzero"/><path fill="#7700ff" d="M 112.4375 293.285156 L 112.4375 302.125 L 103.574219 302.125 L 103.574219 310.949219 L 94.730469 310.949219 L 94.730469 284.457031 L 103.574219 284.457031 L 103.574219 293.285156 L 112.4375 293.285156 " fill-opacity="1" fill-rule="nonzero"/><path fill="#7700ff" d="M 94.734375 257.980469 L 94.726562 249.132812 L 103.578125 249.125 L 103.585938 257.980469 L 94.734375 257.980469 " fill-opacity="1" fill-rule="nonzero"/><path fill="#7700ff" d="M 103.578125 249.132812 L 103.578125 257.96875 L 94.734375 257.96875 L 94.734375 249.132812 L 103.578125 249.132812 " fill-opacity="1" fill-rule="nonzero"/><path fill="#7700ff" d="M 94.734375 231.480469 L 94.726562 222.644531 L 103.578125 222.632812 L 103.585938 231.480469 L 94.734375 231.480469 " fill-opacity="1" fill-rule="nonzero"/><path fill="#7700ff" d="M 103.578125 222.644531 L 103.578125 231.472656 L 94.734375 231.472656 L 94.734375 222.644531 L 103.578125 222.644531 " fill-opacity="1" fill-rule="nonzero"/><path fill="#7700ff" d="M 94.734375 204.992188 L 94.726562 196.15625 L 103.578125 196.148438 L 103.585938 204.992188 L 94.734375 204.992188 " fill-opacity="1" fill-rule="nonzero"/><path fill="#7700ff" d="M 103.578125 196.15625 L 103.578125 204.984375 L 94.734375 204.984375 L 94.734375 196.15625 L 103.578125 196.15625 " fill-opacity="1" fill-rule="nonzero"/><path fill="#7700ff" d="M 94.730469 143.175781 L 94.71875 116.675781 L 112.4375 116.671875 L 112.445312 125.515625 L 103.574219 125.523438 L 103.582031 143.175781 L 94.730469 143.175781 " fill-opacity="1" fill-rule="nonzero"/><path fill="#7700ff" d="M 112.4375 116.675781 L 112.4375 125.515625 L 103.574219 125.515625 L 103.574219 143.171875 L 94.730469 143.171875 L 94.730469 116.675781 L 112.4375 116.675781 " fill-opacity="1" fill-rule="nonzero"/><path fill="#7700ff" d="M 85.882812 328.621094 L 85.875 319.773438 L 94.730469 319.769531 L 94.738281 328.621094 L 85.882812 328.621094 " fill-opacity="1" fill-rule="nonzero"/><path fill="#7700ff" d="M 94.730469 319.773438 L 94.730469 328.609375 L 85.882812 328.609375 L 85.882812 319.773438 L 94.730469 319.773438 " fill-opacity="1" fill-rule="nonzero"/><path fill="#7700ff" d="M 103.574219 346.273438 L 103.566406 337.4375 L 112.4375 337.429688 L 112.445312 346.273438 L 103.574219 346.273438 " fill-opacity="1" fill-rule="nonzero"/><path fill="#7700ff" d="M 112.4375 337.4375 L 112.4375 346.265625 L 103.574219 346.265625 L 103.574219 337.4375 L 112.4375 337.4375 " fill-opacity="1" fill-rule="nonzero"/><path fill="#7700ff" d="M 94.730469 337.449219 L 94.71875 328.609375 L 103.574219 328.601562 L 103.582031 337.449219 L 94.730469 337.449219 " fill-opacity="1" fill-rule="nonzero"/><path fill="#7700ff" d="M 103.574219 328.609375 L 103.574219 337.4375 L 94.730469 337.4375 L 94.730469 328.609375 L 103.574219 328.609375 " fill-opacity="1" fill-rule="nonzero"/><path fill="#7700ff" d="M 112.4375 355.109375 L 112.429688 346.265625 L 121.273438 346.257812 L 121.28125 355.109375 L 112.4375 355.109375 " fill-opacity="1" fill-rule="nonzero"/><path fill="#7700ff" d="M 121.273438 346.265625 L 121.273438 355.097656 L 112.4375 355.097656 L 112.4375 346.265625 L 121.273438 346.265625 " fill-opacity="1" fill-rule="nonzero"/><g clip-path="url(#8f7dc2c8b6)"><path fill="#7700ff" d="M 121.273438 363.9375 L 121.265625 355.097656 L 130.121094 355.09375 L 130.109375 116.675781 L 138.972656 116.671875 L 138.984375 363.9375 L 121.273438 363.9375 " fill-opacity="1" fill-rule="nonzero"/><path fill="#7700ff" d="M 138.972656 116.675781 L 138.972656 363.925781 L 121.273438 363.925781 L 121.273438 355.097656 L 130.121094 355.097656 L 130.121094 116.675781 L 138.972656 116.675781 " fill-opacity="1" fill-rule="nonzero"/></g></svg>