<svg xmlns="http://www.w3.org/2000/svg" xmlns:xlink="http://www.w3.org/1999/xlink" width="80" zoomAndPan="magnify" viewBox="0 0 60 60" height="80" preserveAspectRatio="xMidYMid meet" version="1.0"><defs><clipPath id="3db5748c0e"><path d="M 4.25 4.25 L 56 4.25 L 56 56 L 4.25 56 Z M 4.25 4.25 " clip-rule="nonzero"/></clipPath><clipPath id="12a2080b25"><path d="M 4.25 4.25 L 56 4.25 L 56 56 L 4.25 56 Z M 4.25 4.25 " clip-rule="nonzero"/></clipPath></defs><g clip-path="url(#3db5748c0e)"><path fill="#000000" d="M 56 25.625 L 56 34.625 L 54.875 34.625 L 54.875 38 L 53.75 38 L 53.75 41.375 L 52.625 41.375 L 52.625 43.625 L 51.5 43.625 L 51.5 45.875 L 50.375 45.875 L 50.375 47 L 49.25 47 L 49.25 48.125 L 48.125 48.125 L 48.125 49.25 L 47 49.25 L 47 50.375 L 45.875 50.375 L 45.875 51.5 L 43.625 51.5 L 43.625 52.625 L 41.375 52.625 L 41.375 53.75 L 38 53.75 L 38 54.875 L 34.625 54.875 L 34.625 56 L 25.625 56 L 25.625 54.875 L 22.25 54.875 L 22.25 53.75 L 18.875 53.75 L 18.875 52.625 L 16.625 52.625 L 16.625 51.5 L 14.375 51.5 L 14.375 50.375 L 13.25 50.375 L 13.25 49.25 L 12.125 49.25 L 12.125 48.125 L 11 48.125 L 11 47 L 9.875 47 L 9.875 45.875 L 8.75 45.875 L 8.75 43.625 L 7.625 43.625 L 7.625 41.375 L 6.5 41.375 L 6.5 38 L 5.375 38 L 5.375 34.625 L 4.25 34.625 L 4.25 25.625 L 5.375 25.625 L 5.375 22.25 L 6.5 22.25 L 6.5 18.875 L 7.625 18.875 L 7.625 16.625 L 8.75 16.625 L 8.75 14.375 L 9.875 14.375 L 9.875 13.25 L 11 13.25 L 11 12.125 L 12.125 12.125 L 12.125 11 L 13.25 11 L 13.25 9.875 L 14.375 9.875 L 14.375 8.75 L 16.625 8.75 L 16.625 7.625 L 18.875 7.625 L 18.875 6.5 L 22.25 6.5 L 22.25 5.375 L 25.625 5.375 L 25.625 4.25 L 34.625 4.25 L 34.625 5.375 L 38 5.375 L 38 6.5 L 41.375 6.5 L 41.375 7.625 L 43.625 7.625 L 43.625 8.75 L 45.875 8.75 L 45.875 9.875 L 47 9.875 L 47 11 L 48.125 11 L 48.125 12.125 L 49.25 12.125 L 49.25 13.25 L 50.375 13.25 L 50.375 14.375 L 51.5 14.375 L 51.5 16.625 L 52.625 16.625 L 52.625 18.875 L 53.75 18.875 L 53.75 22.25 L 54.875 22.25 L 54.875 25.625 Z M 56 25.625 " fill-opacity="1" fill-rule="nonzero"/></g><path fill="#1818b7" d="M 54.875 25.625 L 54.875 34.625 L 53.75 34.625 L 53.75 38 L 52.625 38 L 52.625 41.375 L 51.5 41.375 L 51.5 43.625 L 50.375 43.625 L 50.375 45.875 L 49.25 45.875 L 49.25 47 L 48.125 47 L 48.125 48.125 L 47 48.125 L 47 49.25 L 45.875 49.25 L 45.875 50.375 L 43.625 50.375 L 43.625 51.5 L 41.375 51.5 L 41.375 52.625 L 38 52.625 L 38 53.75 L 34.625 53.75 L 34.625 54.875 L 25.625 54.875 L 25.625 53.75 L 22.25 53.75 L 22.25 52.625 L 18.875 52.625 L 18.875 51.5 L 16.625 51.5 L 16.625 50.375 L 14.375 50.375 L 14.375 49.25 L 13.25 49.25 L 13.25 48.125 L 12.125 48.125 L 12.125 47 L 11 47 L 11 45.875 L 9.875 45.875 L 9.875 43.625 L 8.75 43.625 L 8.75 41.375 L 7.625 41.375 L 7.625 38 L 6.5 38 L 6.5 34.625 L 5.375 34.625 L 5.375 25.625 L 6.5 25.625 L 6.5 22.25 L 7.625 22.25 L 7.625 18.875 L 8.75 18.875 L 8.75 16.625 L 9.875 16.625 L 9.875 14.375 L 11 14.375 L 11 13.25 L 12.125 13.25 L 12.125 12.125 L 13.25 12.125 L 13.25 11 L 14.375 11 L 14.375 9.875 L 16.625 9.875 L 16.625 8.75 L 18.875 8.75 L 18.875 7.625 L 22.25 7.625 L 22.25 6.5 L 25.625 6.5 L 25.625 5.375 L 34.625 5.375 L 34.625 6.5 L 38 6.5 L 38 7.625 L 41.375 7.625 L 41.375 8.75 L 43.625 8.75 L 43.625 9.875 L 45.875 9.875 L 45.875 11 L 47 11 L 47 12.125 L 48.125 12.125 L 48.125 13.25 L 49.25 13.25 L 49.25 14.375 L 50.375 14.375 L 50.375 16.625 L 51.5 16.625 L 51.5 18.875 L 52.625 18.875 L 52.625 22.25 L 53.75 22.25 L 53.75 25.625 Z M 54.875 25.625 " fill-opacity="1" fill-rule="nonzero"/><path fill="#7700ff" d="M 16.625 38 L 16.625 40.25 L 15.5 40.25 L 15.5 41.375 L 14.375 41.375 L 14.375 40.25 L 12.125 40.25 L 12.125 41.375 L 11 41.375 L 11 45.875 L 9.875 45.875 L 9.875 43.625 L 8.75 43.625 L 8.75 41.375 L 7.625 41.375 L 7.625 38 L 6.5 38 L 6.5 34.625 L 7.625 34.625 L 7.625 33.5 L 8.75 33.5 L 8.75 32.375 L 11 32.375 L 11 33.5 L 12.125 33.5 L 12.125 34.625 L 13.25 34.625 L 13.25 35.75 L 14.375 35.75 L 14.375 36.875 L 15.5 36.875 L 15.5 38 Z M 14.375 16.625 L 14.375 14.375 L 13.25 14.375 L 13.25 12.125 L 12.125 12.125 L 12.125 13.25 L 11 13.25 L 11 14.375 L 9.875 14.375 L 9.875 16.625 L 8.75 16.625 L 8.75 18.875 L 7.625 18.875 L 7.625 22.25 L 6.5 22.25 L 6.5 24.5 L 9.875 24.5 L 9.875 23.375 L 11 23.375 L 11 22.25 L 12.125 22.25 L 12.125 21.125 L 13.25 21.125 L 13.25 20 L 14.375 20 L 14.375 18.875 L 15.5 18.875 L 15.5 16.625 Z M 47 43.625 L 47 44.75 L 44.75 44.75 L 44.75 43.625 L 43.625 43.625 L 43.625 42.5 L 42.5 42.5 L 42.5 41.375 L 40.25 41.375 L 40.25 42.5 L 39.125 42.5 L 39.125 43.625 L 38 43.625 L 38 44.75 L 36.875 44.75 L 36.875 45.875 L 35.75 45.875 L 35.75 47 L 36.875 47 L 36.875 48.125 L 38 48.125 L 38 50.375 L 36.875 50.375 L 36.875 51.5 L 34.625 51.5 L 34.625 52.625 L 32.375 52.625 L 32.375 53.75 L 30.125 53.75 L 30.125 54.875 L 34.625 54.875 L 34.625 53.75 L 38 53.75 L 38 52.625 L 41.375 52.625 L 41.375 51.5 L 43.625 51.5 L 43.625 50.375 L 45.875 50.375 L 45.875 49.25 L 47 49.25 L 47 48.125 L 48.125 48.125 L 48.125 47 L 49.25 47 L 49.25 45.875 L 50.375 45.875 L 50.375 43.625 Z M 53.75 25.625 L 53.75 22.25 L 52.625 22.25 L 52.625 18.875 L 51.5 18.875 L 51.5 16.625 L 50.375 16.625 L 50.375 14.375 L 49.25 14.375 L 49.25 13.25 L 48.125 13.25 L 48.125 12.125 L 47 12.125 L 47 13.25 L 39.125 13.25 L 39.125 12.125 L 38 12.125 L 38 11 L 36.875 11 L 36.875 9.875 L 33.5 9.875 L 33.5 11 L 32.375 11 L 32.375 12.125 L 31.25 12.125 L 31.25 15.5 L 32.375 15.5 L 32.375 14.375 L 33.5 14.375 L 33.5 13.25 L 35.75 13.25 L 35.75 14.375 L 36.875 14.375 L 36.875 15.5 L 35.75 15.5 L 35.75 16.625 L 34.625 16.625 L 34.625 17.75 L 33.5 17.75 L 33.5 18.875 L 32.375 18.875 L 32.375 20 L 30.125 20 L 30.125 18.875 L 27.875 18.875 L 27.875 20 L 25.625 20 L 25.625 21.125 L 23.375 21.125 L 23.375 23.375 L 27.875 23.375 L 27.875 22.25 L 32.375 22.25 L 32.375 23.375 L 33.5 23.375 L 33.5 24.5 L 34.625 24.5 L 34.625 25.625 L 35.75 25.625 L 35.75 26.75 L 36.875 26.75 L 36.875 27.875 L 38 27.875 L 38 29 L 39.125 29 L 39.125 30.125 L 40.25 30.125 L 40.25 31.25 L 43.625 31.25 L 43.625 32.375 L 44.75 32.375 L 44.75 33.5 L 45.875 33.5 L 45.875 39.125 L 47 39.125 L 47 38 L 48.125 38 L 48.125 34.625 L 49.25 34.625 L 49.25 33.5 L 51.5 33.5 L 51.5 34.625 L 52.625 34.625 L 52.625 38 L 53.75 38 L 53.75 34.625 L 54.875 34.625 L 54.875 25.625 Z M 35.75 35.75 L 35.75 34.625 L 34.625 34.625 L 34.625 33.5 L 33.5 33.5 L 33.5 32.375 L 32.375 32.375 L 32.375 31.25 L 31.25 31.25 L 31.25 30.125 L 30.125 30.125 L 30.125 29 L 29 29 L 29 27.875 L 21.125 27.875 L 21.125 29 L 20 29 L 20 34.625 L 22.25 34.625 L 22.25 33.5 L 24.5 33.5 L 24.5 34.625 L 25.625 34.625 L 25.625 35.75 L 26.75 35.75 L 26.75 36.875 L 27.875 36.875 L 27.875 39.125 L 26.75 39.125 L 26.75 40.25 L 25.625 40.25 L 25.625 41.375 L 24.5 41.375 L 24.5 49.25 L 25.625 49.25 L 25.625 50.375 L 30.125 50.375 L 30.125 49.25 L 31.25 49.25 L 31.25 45.875 L 32.375 45.875 L 32.375 43.625 L 33.5 43.625 L 33.5 40.25 L 34.625 40.25 L 34.625 39.125 L 36.875 39.125 L 36.875 35.75 Z M 35.75 35.75 " fill-opacity="1" fill-rule="nonzero"/><path fill="#1818b7" d="M 12.125 31.25 L 12.125 32.375 L 11 32.375 L 11 31.25 Z M 12.125 32.375 L 12.125 33.5 L 13.25 33.5 L 13.25 32.375 Z M 13.25 33.5 L 13.25 34.625 L 14.375 34.625 L 14.375 33.5 Z M 14.375 34.625 L 14.375 35.75 L 15.5 35.75 L 15.5 34.625 Z M 15.5 35.75 L 15.5 36.875 L 16.625 36.875 L 16.625 35.75 Z M 16.625 36.875 L 16.625 38 L 17.75 38 L 17.75 36.875 Z M 17.75 40.25 L 16.625 40.25 L 16.625 41.375 L 17.75 41.375 Z M 16.625 41.375 L 15.5 41.375 L 15.5 42.5 L 16.625 42.5 Z M 15.5 43.625 L 15.5 42.5 L 14.375 42.5 L 14.375 43.625 Z M 14.375 42.5 L 14.375 41.375 L 12.125 41.375 L 12.125 48.125 L 13.25 48.125 L 13.25 42.5 Z M 18.875 38 L 17.75 38 L 17.75 40.25 L 18.875 40.25 Z M 29 26.75 L 29 27.875 L 30.125 27.875 L 30.125 26.75 Z M 30.125 27.875 L 30.125 29 L 31.25 29 L 31.25 27.875 Z M 31.25 29 L 31.25 30.125 L 32.375 30.125 L 32.375 29 Z M 32.375 30.125 L 32.375 31.25 L 33.5 31.25 L 33.5 30.125 Z M 33.5 31.25 L 33.5 32.375 L 34.625 32.375 L 34.625 31.25 Z M 34.625 32.375 L 34.625 33.5 L 35.75 33.5 L 35.75 32.375 Z M 35.75 33.5 L 35.75 34.625 L 36.875 34.625 L 36.875 33.5 Z M 36.875 34.625 L 36.875 35.75 L 38 35.75 L 38 34.625 Z M 36.875 40.25 L 38 40.25 L 38 39.125 L 36.875 39.125 Z M 31.25 50.375 L 32.375 50.375 L 32.375 49.25 L 31.25 49.25 Z M 30.125 51.5 L 31.25 51.5 L 31.25 50.375 L 30.125 50.375 Z M 25.625 52.625 L 30.125 52.625 L 30.125 51.5 L 25.625 51.5 Z M 33.5 45.875 L 34.625 45.875 L 34.625 43.625 L 33.5 43.625 Z M 32.375 49.25 L 33.5 49.25 L 33.5 45.875 L 32.375 45.875 Z M 34.625 41.375 L 34.625 43.625 L 35.75 43.625 L 35.75 41.375 L 36.875 41.375 L 36.875 40.25 L 34.625 40.25 Z M 38 39.125 L 39.125 39.125 L 39.125 35.75 L 38 35.75 Z M 24.5 50.375 L 24.5 51.5 L 25.625 51.5 L 25.625 50.375 Z M 42.5 40.25 L 42.5 41.375 L 43.625 41.375 L 43.625 40.25 Z M 43.625 41.375 L 43.625 42.5 L 44.75 42.5 L 44.75 41.375 Z M 47 42.5 L 51.5 42.5 L 51.5 41.375 L 47 41.375 Z M 44.75 43.625 L 47 43.625 L 47 42.5 L 44.75 42.5 Z M 51.5 38 L 51.5 39.125 L 52.625 39.125 L 52.625 38 Z M 49.25 38 L 48.125 38 L 48.125 39.125 L 49.25 39.125 Z M 47 40.25 L 48.125 40.25 L 48.125 39.125 L 47 39.125 Z M 45.875 40.25 L 45.875 39.125 L 44.75 39.125 L 44.75 40.25 Z M 50.375 35.75 L 51.5 35.75 L 51.5 34.625 L 49.25 34.625 L 49.25 38 L 50.375 38 Z M 27.875 24.5 L 32.375 24.5 L 32.375 23.375 L 27.875 23.375 Z M 47 12.125 L 47 11 L 39.125 11 L 39.125 12.125 Z M 38 9.875 L 38 11 L 39.125 11 L 39.125 9.875 Z M 33.5 15.5 L 32.375 15.5 L 32.375 16.625 L 33.5 16.625 Z M 32.375 16.625 L 31.25 16.625 L 31.25 17.75 L 32.375 17.75 Z M 11 24.5 L 9.875 24.5 L 9.875 25.625 L 11 25.625 Z M 12.125 23.375 L 11 23.375 L 11 24.5 L 12.125 24.5 Z M 13.25 22.25 L 12.125 22.25 L 12.125 23.375 L 13.25 23.375 Z M 14.375 21.125 L 13.25 21.125 L 13.25 22.25 L 14.375 22.25 Z M 15.5 20 L 14.375 20 L 14.375 21.125 L 15.5 21.125 Z M 14.375 11 L 13.25 11 L 13.25 12.125 L 14.375 12.125 Z M 17.75 18.875 L 17.75 16.625 L 16.625 16.625 L 16.625 18.875 Z M 16.625 16.625 L 16.625 14.375 L 15.5 14.375 L 15.5 16.625 Z M 15.5 14.375 L 15.5 12.125 L 14.375 12.125 L 14.375 14.375 Z M 36.875 8.75 L 36.875 9.875 L 38 9.875 L 38 8.75 Z M 35.75 14.375 L 33.5 14.375 L 33.5 15.5 L 35.75 15.5 Z M 5.375 34.625 L 6.5 34.625 L 6.5 25.625 L 5.375 25.625 Z M 13.25 48.125 L 13.25 49.25 L 14.375 49.25 L 14.375 48.125 Z M 14.375 49.25 L 14.375 50.375 L 16.625 50.375 L 16.625 49.25 Z M 16.625 50.375 L 16.625 51.5 L 18.875 51.5 L 18.875 50.375 Z M 18.875 51.5 L 18.875 52.625 L 22.25 52.625 L 22.25 51.5 Z M 22.25 53.75 L 25.625 53.75 L 25.625 52.625 L 22.25 52.625 Z M 27.875 54.875 L 27.875 53.75 L 25.625 53.75 L 25.625 54.875 Z M 16.625 9.875 L 14.375 9.875 L 14.375 11 L 16.625 11 Z M 18.875 8.75 L 16.625 8.75 L 16.625 9.875 L 18.875 9.875 Z M 22.25 7.625 L 18.875 7.625 L 18.875 8.75 L 22.25 8.75 Z M 25.625 6.5 L 22.25 6.5 L 22.25 7.625 L 25.625 7.625 Z M 34.625 5.375 L 25.625 5.375 L 25.625 6.5 L 34.625 6.5 Z M 34.625 5.375 " fill-opacity="1" fill-rule="nonzero"/><path fill="#7700ff" d="M 48.125 14.375 L 48.125 13.25 L 49.25 13.25 L 49.25 14.375 Z M 47 13.25 L 45.875 13.25 L 45.875 14.375 L 47 14.375 Z M 48.125 12.125 L 47 12.125 L 47 13.25 L 48.125 13.25 Z M 44.75 13.25 L 43.625 13.25 L 43.625 14.375 L 44.75 14.375 Z M 42.5 13.25 L 41.375 13.25 L 41.375 14.375 L 42.5 14.375 Z M 40.25 14.375 L 40.25 13.25 L 39.125 13.25 L 39.125 14.375 Z M 36.875 13.25 L 36.875 14.375 L 38 14.375 L 38 13.25 Z M 50.375 15.5 L 50.375 14.375 L 49.25 14.375 L 49.25 15.5 Z M 48.125 14.375 L 47 14.375 L 47 15.5 L 48.125 15.5 Z M 45.875 15.5 L 45.875 14.375 L 44.75 14.375 L 44.75 15.5 Z M 43.625 15.5 L 43.625 14.375 L 42.5 14.375 L 42.5 15.5 Z M 41.375 15.5 L 41.375 14.375 L 40.25 14.375 L 40.25 15.5 Z M 39.125 14.375 L 38 14.375 L 38 15.5 L 39.125 15.5 Z M 48.125 16.625 L 49.25 16.625 L 49.25 15.5 L 48.125 15.5 Z M 47 16.625 L 47 15.5 L 45.875 15.5 L 45.875 16.625 Z M 44.75 16.625 L 44.75 15.5 L 43.625 15.5 L 43.625 16.625 Z M 42.5 16.625 L 42.5 15.5 L 41.375 15.5 L 41.375 16.625 Z M 40.25 15.5 L 39.125 15.5 L 39.125 16.625 L 40.25 16.625 Z M 38 15.5 L 36.875 15.5 L 36.875 16.625 L 38 16.625 Z M 50.375 17.75 L 50.375 16.625 L 49.25 16.625 L 49.25 17.75 Z M 47 17.75 L 48.125 17.75 L 48.125 16.625 L 47 16.625 Z M 45.875 17.75 L 45.875 16.625 L 44.75 16.625 L 44.75 17.75 Z M 43.625 17.75 L 43.625 16.625 L 42.5 16.625 L 42.5 17.75 Z M 41.375 16.625 L 40.25 16.625 L 40.25 17.75 L 41.375 17.75 Z M 39.125 16.625 L 38 16.625 L 38 17.75 L 39.125 17.75 Z M 49.25 18.875 L 49.25 17.75 L 48.125 17.75 L 48.125 18.875 Z M 45.875 18.875 L 47 18.875 L 47 17.75 L 45.875 17.75 Z M 44.75 18.875 L 44.75 17.75 L 43.625 17.75 L 43.625 18.875 Z M 42.5 17.75 L 41.375 17.75 L 41.375 18.875 L 42.5 18.875 Z M 40.25 17.75 L 39.125 17.75 L 39.125 18.875 L 40.25 18.875 Z M 38 17.75 L 36.875 17.75 L 36.875 18.875 L 38 18.875 Z M 50.375 20 L 50.375 18.875 L 49.25 18.875 L 49.25 20 Z M 48.125 20 L 48.125 18.875 L 47 18.875 L 47 20 Z M 44.75 20 L 45.875 20 L 45.875 18.875 L 44.75 18.875 Z M 43.625 18.875 L 42.5 18.875 L 42.5 20 L 43.625 20 Z M 41.375 18.875 L 40.25 18.875 L 40.25 20 L 41.375 20 Z M 39.125 18.875 L 38 18.875 L 38 20 L 39.125 20 Z M 49.25 21.125 L 49.25 20 L 48.125 20 L 48.125 21.125 Z M 47 21.125 L 47 20 L 45.875 20 L 45.875 21.125 Z M 43.625 21.125 L 44.75 21.125 L 44.75 20 L 43.625 20 Z M 42.5 20 L 41.375 20 L 41.375 21.125 L 42.5 21.125 Z M 40.25 20 L 39.125 20 L 39.125 21.125 L 40.25 21.125 Z M 38 20 L 36.875 20 L 36.875 21.125 L 38 21.125 Z M 49.25 22.25 L 50.375 22.25 L 50.375 21.125 L 49.25 21.125 Z M 48.125 22.25 L 48.125 21.125 L 47 21.125 L 47 22.25 Z M 45.875 22.25 L 45.875 21.125 L 44.75 21.125 L 44.75 22.25 Z M 42.5 21.125 L 42.5 22.25 L 43.625 22.25 L 43.625 21.125 Z M 40.25 21.125 L 40.25 22.25 L 41.375 22.25 L 41.375 21.125 Z M 38 21.125 L 38 22.25 L 39.125 22.25 L 39.125 21.125 Z M 48.125 23.375 L 49.25 23.375 L 49.25 22.25 L 48.125 22.25 Z M 47 23.375 L 47 22.25 L 45.875 22.25 L 45.875 23.375 Z M 43.625 22.25 L 43.625 23.375 L 44.75 23.375 L 44.75 22.25 Z M 41.375 22.25 L 41.375 23.375 L 42.5 23.375 L 42.5 22.25 Z M 39.125 22.25 L 39.125 23.375 L 40.25 23.375 L 40.25 22.25 Z M 36.875 22.25 L 36.875 23.375 L 38 23.375 L 38 22.25 Z M 50.375 24.5 L 50.375 23.375 L 49.25 23.375 L 49.25 24.5 Z M 47 24.5 L 48.125 24.5 L 48.125 23.375 L 47 23.375 Z M 44.75 23.375 L 44.75 24.5 L 45.875 24.5 L 45.875 23.375 Z M 42.5 23.375 L 42.5 24.5 L 43.625 24.5 L 43.625 23.375 Z M 40.25 23.375 L 40.25 24.5 L 41.375 24.5 L 41.375 23.375 Z M 38 23.375 L 38 24.5 L 39.125 24.5 L 39.125 23.375 Z M 49.25 25.625 L 49.25 24.5 L 48.125 24.5 L 48.125 25.625 Z M 45.875 24.5 L 45.875 25.625 L 47 25.625 L 47 24.5 Z M 43.625 24.5 L 43.625 25.625 L 44.75 25.625 L 44.75 24.5 Z M 41.375 24.5 L 41.375 25.625 L 42.5 25.625 L 42.5 24.5 Z M 39.125 24.5 L 39.125 25.625 L 40.25 25.625 L 40.25 24.5 Z M 36.875 24.5 L 36.875 25.625 L 38 25.625 L 38 24.5 Z M 49.25 26.75 L 50.375 26.75 L 50.375 25.625 L 49.25 25.625 Z M 47 25.625 L 47 26.75 L 48.125 26.75 L 48.125 25.625 Z M 44.75 25.625 L 44.75 26.75 L 45.875 26.75 L 45.875 25.625 Z M 42.5 25.625 L 42.5 26.75 L 43.625 26.75 L 43.625 25.625 Z M 40.25 25.625 L 40.25 26.75 L 41.375 26.75 L 41.375 25.625 Z M 38 25.625 L 38 26.75 L 39.125 26.75 L 39.125 25.625 Z M 48.125 27.875 L 49.25 27.875 L 49.25 26.75 L 48.125 26.75 Z M 45.875 26.75 L 45.875 27.875 L 47 27.875 L 47 26.75 Z M 43.625 26.75 L 43.625 27.875 L 44.75 27.875 L 44.75 26.75 Z M 41.375 26.75 L 41.375 27.875 L 42.5 27.875 L 42.5 26.75 Z M 39.125 26.75 L 39.125 27.875 L 40.25 27.875 L 40.25 26.75 Z M 36.875 26.75 L 36.875 27.875 L 38 27.875 L 38 26.75 Z M 36.875 16.625 L 35.75 16.625 L 35.75 17.75 L 36.875 17.75 Z M 35.75 17.75 L 34.625 17.75 L 34.625 18.875 L 35.75 18.875 Z M 36.875 18.875 L 35.75 18.875 L 35.75 20 L 36.875 20 Z M 35.75 20 L 34.625 20 L 34.625 21.125 L 35.75 21.125 Z M 35.75 21.125 L 35.75 22.25 L 36.875 22.25 L 36.875 21.125 Z M 34.625 22.25 L 34.625 23.375 L 35.75 23.375 L 35.75 22.25 Z M 35.75 23.375 L 35.75 24.5 L 36.875 24.5 L 36.875 23.375 Z M 34.625 24.5 L 34.625 25.625 L 35.75 25.625 L 35.75 24.5 Z M 35.75 25.625 L 35.75 26.75 L 36.875 26.75 L 36.875 25.625 Z M 34.625 18.875 L 33.5 18.875 L 33.5 20 L 34.625 20 Z M 33.5 20 L 32.375 20 L 32.375 21.125 L 33.5 21.125 Z M 33.5 21.125 L 33.5 22.25 L 34.625 22.25 L 34.625 21.125 Z M 32.375 22.25 L 32.375 23.375 L 33.5 23.375 L 33.5 22.25 Z M 33.5 23.375 L 33.5 24.5 L 34.625 24.5 L 34.625 23.375 Z M 30.125 20 L 30.125 21.125 L 31.25 21.125 L 31.25 20 Z M 31.25 21.125 L 31.25 22.25 L 32.375 22.25 L 32.375 21.125 Z M 30.125 18.875 L 29 18.875 L 29 20 L 30.125 20 Z M 27.875 20 L 27.875 21.125 L 29 21.125 L 29 20 Z M 29 22.25 L 30.125 22.25 L 30.125 21.125 L 29 21.125 Z M 26.75 20 L 25.625 20 L 25.625 21.125 L 26.75 21.125 Z M 26.75 22.25 L 27.875 22.25 L 27.875 21.125 L 26.75 21.125 Z M 25.625 23.375 L 26.75 23.375 L 26.75 22.25 L 25.625 22.25 Z M 24.5 21.125 L 24.5 22.25 L 25.625 22.25 L 25.625 21.125 Z M 23.375 23.375 L 24.5 23.375 L 24.5 22.25 L 23.375 22.25 Z M 26.75 27.875 L 25.625 27.875 L 25.625 29 L 26.75 29 Z M 29 27.875 L 27.875 27.875 L 27.875 29 L 29 29 Z M 24.5 27.875 L 23.375 27.875 L 23.375 29 L 24.5 29 Z M 22.25 27.875 L 21.125 27.875 L 21.125 29 L 22.25 29 Z M 25.625 30.125 L 25.625 29 L 24.5 29 L 24.5 30.125 Z M 27.875 30.125 L 27.875 29 L 26.75 29 L 26.75 30.125 Z M 30.125 30.125 L 30.125 29 L 29 29 L 29 30.125 Z M 23.375 30.125 L 23.375 29 L 22.25 29 L 22.25 30.125 Z M 20 29 L 20 30.125 L 21.125 30.125 L 21.125 29 Z M 26.75 31.25 L 26.75 30.125 L 25.625 30.125 L 25.625 31.25 Z M 29 31.25 L 29 30.125 L 27.875 30.125 L 27.875 31.25 Z M 23.375 30.125 L 23.375 31.25 L 24.5 31.25 L 24.5 30.125 Z M 22.25 30.125 L 21.125 30.125 L 21.125 31.25 L 22.25 31.25 Z M 24.5 31.25 L 24.5 32.375 L 25.625 32.375 L 25.625 31.25 Z M 26.75 31.25 L 26.75 32.375 L 27.875 32.375 L 27.875 31.25 Z M 30.125 32.375 L 30.125 31.25 L 29 31.25 L 29 32.375 Z M 22.25 31.25 L 22.25 32.375 L 23.375 32.375 L 23.375 31.25 Z M 20 31.25 L 20 32.375 L 21.125 32.375 L 21.125 31.25 Z M 25.625 32.375 L 25.625 33.5 L 26.75 33.5 L 26.75 32.375 Z M 27.875 32.375 L 27.875 33.5 L 29 33.5 L 29 32.375 Z M 23.375 32.375 L 23.375 33.5 L 24.5 33.5 L 24.5 32.375 Z M 21.125 33.5 L 22.25 33.5 L 22.25 32.375 L 21.125 32.375 Z M 24.5 33.5 L 24.5 34.625 L 25.625 34.625 L 25.625 33.5 Z M 26.75 33.5 L 26.75 34.625 L 27.875 34.625 L 27.875 33.5 Z M 29 33.5 L 29 34.625 L 30.125 34.625 L 30.125 33.5 Z M 31.25 31.25 L 31.25 30.125 L 30.125 30.125 L 30.125 31.25 Z M 32.375 32.375 L 32.375 31.25 L 31.25 31.25 L 31.25 32.375 Z M 31.25 33.5 L 31.25 32.375 L 30.125 32.375 L 30.125 33.5 Z M 33.5 33.5 L 33.5 32.375 L 32.375 32.375 L 32.375 33.5 Z M 32.375 34.625 L 32.375 33.5 L 31.25 33.5 L 31.25 34.625 Z M 34.625 34.625 L 34.625 33.5 L 33.5 33.5 L 33.5 34.625 Z M 25.625 34.625 L 25.625 35.75 L 26.75 35.75 L 26.75 34.625 Z M 27.875 34.625 L 27.875 35.75 L 29 35.75 L 29 34.625 Z M 30.125 34.625 L 30.125 35.75 L 31.25 35.75 L 31.25 34.625 Z M 33.5 35.75 L 33.5 34.625 L 32.375 34.625 L 32.375 35.75 Z M 35.75 35.75 L 35.75 34.625 L 34.625 34.625 L 34.625 35.75 Z M 26.75 35.75 L 26.75 36.875 L 27.875 36.875 L 27.875 35.75 Z M 29 35.75 L 29 36.875 L 30.125 36.875 L 30.125 35.75 Z M 32.375 35.75 L 31.25 35.75 L 31.25 36.875 L 32.375 36.875 Z M 34.625 36.875 L 34.625 35.75 L 33.5 35.75 L 33.5 36.875 Z M 36.875 36.875 L 36.875 35.75 L 35.75 35.75 L 35.75 36.875 Z M 27.875 36.875 L 27.875 38 L 29 38 L 29 36.875 Z M 31.25 36.875 L 30.125 36.875 L 30.125 38 L 31.25 38 Z M 32.375 38 L 33.5 38 L 33.5 36.875 L 32.375 36.875 Z M 34.625 38 L 35.75 38 L 35.75 36.875 L 34.625 36.875 Z M 30.125 38 L 29 38 L 29 39.125 L 30.125 39.125 Z M 31.25 39.125 L 32.375 39.125 L 32.375 38 L 31.25 38 Z M 33.5 39.125 L 34.625 39.125 L 34.625 38 L 33.5 38 Z M 36.875 39.125 L 36.875 38 L 35.75 38 L 35.75 39.125 Z M 26.75 41.375 L 25.625 41.375 L 25.625 42.5 L 26.75 42.5 Z M 29 41.375 L 27.875 41.375 L 27.875 42.5 L 29 42.5 Z M 30.125 42.5 L 31.25 42.5 L 31.25 41.375 L 30.125 41.375 Z M 33.5 42.5 L 33.5 41.375 L 32.375 41.375 L 32.375 42.5 Z M 24.5 42.5 L 24.5 43.625 L 25.625 43.625 L 25.625 42.5 Z M 27.875 42.5 L 26.75 42.5 L 26.75 43.625 L 27.875 43.625 Z M 29 43.625 L 30.125 43.625 L 30.125 42.5 L 29 42.5 Z M 31.25 43.625 L 32.375 43.625 L 32.375 42.5 L 31.25 42.5 Z M 26.75 43.625 L 25.625 43.625 L 25.625 44.75 L 26.75 44.75 Z M 27.875 44.75 L 29 44.75 L 29 43.625 L 27.875 43.625 Z M 30.125 44.75 L 31.25 44.75 L 31.25 43.625 L 30.125 43.625 Z M 24.5 44.75 L 24.5 45.875 L 25.625 45.875 L 25.625 44.75 Z M 27.875 44.75 L 26.75 44.75 L 26.75 45.875 L 27.875 45.875 Z M 29 45.875 L 30.125 45.875 L 30.125 44.75 L 29 44.75 Z M 32.375 44.75 L 31.25 44.75 L 31.25 45.875 L 32.375 45.875 Z M 26.75 45.875 L 25.625 45.875 L 25.625 47 L 26.75 47 Z M 27.875 47 L 29 47 L 29 45.875 L 27.875 45.875 Z M 30.125 47 L 31.25 47 L 31.25 45.875 L 30.125 45.875 Z M 24.5 47 L 24.5 48.125 L 25.625 48.125 L 25.625 47 Z M 26.75 47 L 26.75 48.125 L 27.875 48.125 L 27.875 47 Z M 29 48.125 L 30.125 48.125 L 30.125 47 L 29 47 Z M 25.625 48.125 L 25.625 49.25 L 26.75 49.25 L 26.75 48.125 Z M 27.875 48.125 L 27.875 49.25 L 29 49.25 L 29 48.125 Z M 31.25 49.25 L 31.25 48.125 L 30.125 48.125 L 30.125 49.25 Z M 26.75 50.375 L 27.875 50.375 L 27.875 49.25 L 26.75 49.25 Z M 29 50.375 L 30.125 50.375 L 30.125 49.25 L 29 49.25 Z M 27.875 40.25 L 26.75 40.25 L 26.75 41.375 L 27.875 41.375 Z M 30.125 40.25 L 29 40.25 L 29 41.375 L 30.125 41.375 Z M 31.25 41.375 L 32.375 41.375 L 32.375 40.25 L 31.25 40.25 Z M 29 39.125 L 27.875 39.125 L 27.875 40.25 L 29 40.25 Z M 31.25 39.125 L 30.125 39.125 L 30.125 40.25 L 31.25 40.25 Z M 32.375 40.25 L 33.5 40.25 L 33.5 39.125 L 32.375 39.125 Z M 20 34.625 L 21.125 34.625 L 21.125 33.5 L 20 33.5 Z M 11 34.625 L 11 33.5 L 9.875 33.5 L 9.875 34.625 Z M 9.875 32.375 L 8.75 32.375 L 8.75 33.5 L 9.875 33.5 Z M 8.75 33.5 L 7.625 33.5 L 7.625 34.625 L 8.75 34.625 Z M 11 36.875 L 11 35.75 L 9.875 35.75 L 9.875 36.875 Z M 9.875 34.625 L 8.75 34.625 L 8.75 35.75 L 9.875 35.75 Z M 8.75 35.75 L 7.625 35.75 L 7.625 36.875 L 8.75 36.875 Z M 6.5 34.625 L 6.5 35.75 L 7.625 35.75 L 7.625 34.625 Z M 6.5 36.875 L 6.5 38 L 7.625 38 L 7.625 36.875 Z M 9.875 39.125 L 11 39.125 L 11 38 L 9.875 38 Z M 8.75 36.875 L 8.75 38 L 9.875 38 L 9.875 36.875 Z M 7.625 38 L 7.625 39.125 L 8.75 39.125 L 8.75 38 Z M 9.875 41.375 L 11 41.375 L 11 40.25 L 9.875 40.25 Z M 12.125 35.75 L 12.125 34.625 L 11 34.625 L 11 35.75 Z M 11 36.875 L 11 38 L 12.125 38 L 12.125 36.875 Z M 13.25 36.875 L 13.25 35.75 L 12.125 35.75 L 12.125 36.875 Z M 12.125 38 L 12.125 39.125 L 13.25 39.125 L 13.25 38 Z M 14.375 38 L 14.375 36.875 L 13.25 36.875 L 13.25 38 Z M 13.25 39.125 L 13.25 40.25 L 14.375 40.25 L 14.375 39.125 Z M 15.5 39.125 L 15.5 38 L 14.375 38 L 14.375 39.125 Z M 14.375 41.375 L 15.5 41.375 L 15.5 40.25 L 14.375 40.25 Z M 15.5 40.25 L 16.625 40.25 L 16.625 39.125 L 15.5 39.125 Z M 11 40.25 L 12.125 40.25 L 12.125 39.125 L 11 39.125 Z M 9.875 39.125 L 8.75 39.125 L 8.75 40.25 L 9.875 40.25 Z M 7.625 40.25 L 7.625 41.375 L 8.75 41.375 L 8.75 40.25 Z M 11 43.625 L 11 42.5 L 9.875 42.5 L 9.875 43.625 Z M 8.75 42.5 L 9.875 42.5 L 9.875 41.375 L 8.75 41.375 Z M 11 45.875 L 11 44.75 L 9.875 44.75 L 9.875 45.875 Z M 8.75 44.75 L 9.875 44.75 L 9.875 43.625 L 8.75 43.625 Z M 49.25 29 L 50.375 29 L 50.375 27.875 L 49.25 27.875 Z M 47 27.875 L 47 29 L 48.125 29 L 48.125 27.875 Z M 44.75 27.875 L 44.75 29 L 45.875 29 L 45.875 27.875 Z M 42.5 27.875 L 42.5 29 L 43.625 29 L 43.625 27.875 Z M 40.25 27.875 L 40.25 29 L 41.375 29 L 41.375 27.875 Z M 38 27.875 L 38 29 L 39.125 29 L 39.125 27.875 Z M 48.125 29 L 48.125 30.125 L 49.25 30.125 L 49.25 29 Z M 45.875 29 L 45.875 30.125 L 47 30.125 L 47 29 Z M 43.625 29 L 43.625 30.125 L 44.75 30.125 L 44.75 29 Z M 41.375 29 L 41.375 30.125 L 42.5 30.125 L 42.5 29 Z M 39.125 29 L 39.125 30.125 L 40.25 30.125 L 40.25 29 Z M 49.25 30.125 L 49.25 31.25 L 50.375 31.25 L 50.375 30.125 Z M 47 31.25 L 48.125 31.25 L 48.125 30.125 L 47 30.125 Z M 44.75 30.125 L 44.75 31.25 L 45.875 31.25 L 45.875 30.125 Z M 42.5 30.125 L 42.5 31.25 L 43.625 31.25 L 43.625 30.125 Z M 40.25 31.25 L 41.375 31.25 L 41.375 30.125 L 40.25 30.125 Z M 48.125 32.375 L 49.25 32.375 L 49.25 31.25 L 48.125 31.25 Z M 51.5 18.875 L 51.5 17.75 L 50.375 17.75 L 50.375 18.875 Z M 50.375 21.125 L 51.5 21.125 L 51.5 20 L 50.375 20 Z M 51.5 23.375 L 51.5 22.25 L 50.375 22.25 L 50.375 23.375 Z M 50.375 25.625 L 51.5 25.625 L 51.5 24.5 L 50.375 24.5 Z M 50.375 27.875 L 51.5 27.875 L 51.5 26.75 L 50.375 26.75 Z M 50.375 30.125 L 51.5 30.125 L 51.5 29 L 50.375 29 Z M 50.375 31.25 L 50.375 32.375 L 51.5 32.375 L 51.5 31.25 Z M 45.875 31.25 L 45.875 32.375 L 47 32.375 L 47 31.25 Z M 43.625 31.25 L 43.625 32.375 L 44.75 32.375 L 44.75 31.25 Z M 49.25 33.5 L 50.375 33.5 L 50.375 32.375 L 49.25 32.375 Z M 52.625 20 L 52.625 18.875 L 51.5 18.875 L 51.5 20 Z M 52.625 22.25 L 52.625 21.125 L 51.5 21.125 L 51.5 22.25 Z M 51.5 24.5 L 52.625 24.5 L 52.625 23.375 L 51.5 23.375 Z M 51.5 25.625 L 51.5 26.75 L 52.625 26.75 L 52.625 25.625 Z M 51.5 29 L 52.625 29 L 52.625 27.875 L 51.5 27.875 Z M 51.5 31.25 L 52.625 31.25 L 52.625 30.125 L 51.5 30.125 Z M 53.75 23.375 L 53.75 22.25 L 52.625 22.25 L 52.625 23.375 Z M 53.75 25.625 L 53.75 24.5 L 52.625 24.5 L 52.625 25.625 Z M 52.625 26.75 L 52.625 27.875 L 53.75 27.875 L 53.75 26.75 Z M 52.625 30.125 L 53.75 30.125 L 53.75 29 L 52.625 29 Z M 52.625 32.375 L 53.75 32.375 L 53.75 31.25 L 52.625 31.25 Z M 52.625 34.625 L 53.75 34.625 L 53.75 33.5 L 52.625 33.5 Z M 52.625 36.875 L 53.75 36.875 L 53.75 35.75 L 52.625 35.75 Z M 51.5 32.375 L 51.5 33.5 L 52.625 33.5 L 52.625 32.375 Z M 54.875 26.75 L 54.875 25.625 L 53.75 25.625 L 53.75 26.75 Z M 54.875 29 L 54.875 27.875 L 53.75 27.875 L 53.75 29 Z M 54.875 31.25 L 54.875 30.125 L 53.75 30.125 L 53.75 31.25 Z M 54.875 33.5 L 54.875 32.375 L 53.75 32.375 L 53.75 33.5 Z M 47 33.5 L 48.125 33.5 L 48.125 32.375 L 47 32.375 Z M 44.75 32.375 L 44.75 33.5 L 45.875 33.5 L 45.875 32.375 Z M 48.125 34.625 L 49.25 34.625 L 49.25 33.5 L 48.125 33.5 Z M 45.875 33.5 L 45.875 34.625 L 47 34.625 L 47 33.5 Z M 47 35.75 L 48.125 35.75 L 48.125 34.625 L 47 34.625 Z M 45.875 36.875 L 47 36.875 L 47 35.75 L 45.875 35.75 Z M 45.875 39.125 L 47 39.125 L 47 38 L 45.875 38 Z M 48.125 38 L 48.125 36.875 L 47 36.875 L 47 38 Z M 48.125 43.625 L 47 43.625 L 47 44.75 L 48.125 44.75 Z M 43.625 44.75 L 43.625 43.625 L 42.5 43.625 L 42.5 44.75 Z M 41.375 43.625 L 40.25 43.625 L 40.25 44.75 L 41.375 44.75 Z M 39.125 43.625 L 38 43.625 L 38 44.75 L 39.125 44.75 Z M 42.5 45.875 L 42.5 44.75 L 41.375 44.75 L 41.375 45.875 Z M 40.25 44.75 L 39.125 44.75 L 39.125 45.875 L 40.25 45.875 Z M 38 44.75 L 36.875 44.75 L 36.875 45.875 L 38 45.875 Z M 48.125 45.875 L 49.25 45.875 L 49.25 44.75 L 48.125 44.75 Z M 47 44.75 L 45.875 44.75 L 45.875 45.875 L 47 45.875 Z M 44.75 45.875 L 44.75 44.75 L 43.625 44.75 L 43.625 45.875 Z M 40.25 45.875 L 40.25 47 L 41.375 47 L 41.375 45.875 Z M 38 45.875 L 38 47 L 39.125 47 L 39.125 45.875 Z M 35.75 45.875 L 35.75 47 L 36.875 47 L 36.875 45.875 Z M 47 47 L 48.125 47 L 48.125 45.875 L 47 45.875 Z M 45.875 47 L 45.875 45.875 L 44.75 45.875 L 44.75 47 Z M 43.625 47 L 43.625 45.875 L 42.5 45.875 L 42.5 47 Z M 41.375 48.125 L 42.5 48.125 L 42.5 47 L 41.375 47 Z M 39.125 47 L 39.125 48.125 L 40.25 48.125 L 40.25 47 Z M 36.875 47 L 36.875 48.125 L 38 48.125 L 38 47 Z M 45.875 48.125 L 47 48.125 L 47 47 L 45.875 47 Z M 43.625 48.125 L 44.75 48.125 L 44.75 47 L 43.625 47 Z M 40.25 49.25 L 39.125 49.25 L 39.125 50.375 L 40.25 50.375 Z M 43.625 50.375 L 44.75 50.375 L 44.75 49.25 L 43.625 49.25 Z M 41.375 49.25 L 41.375 50.375 L 42.5 50.375 L 42.5 49.25 Z M 42.5 49.25 L 43.625 49.25 L 43.625 48.125 L 42.5 48.125 Z M 40.25 48.125 L 40.25 49.25 L 41.375 49.25 L 41.375 48.125 Z M 38 48.125 L 38 49.25 L 39.125 49.25 L 39.125 48.125 Z M 44.75 49.25 L 45.875 49.25 L 45.875 48.125 L 44.75 48.125 Z M 36.875 52.625 L 38 52.625 L 38 51.5 L 36.875 51.5 Z M 34.625 51.5 L 34.625 52.625 L 35.75 52.625 L 35.75 51.5 Z M 39.125 52.625 L 40.25 52.625 L 40.25 51.5 L 39.125 51.5 Z M 40.25 51.5 L 41.375 51.5 L 41.375 50.375 L 40.25 50.375 Z M 38 50.375 L 38 51.5 L 39.125 51.5 L 39.125 50.375 Z M 35.75 53.75 L 36.875 53.75 L 36.875 52.625 L 35.75 52.625 Z M 33.5 53.75 L 34.625 53.75 L 34.625 52.625 L 33.5 52.625 Z M 32.375 54.875 L 33.5 54.875 L 33.5 53.75 L 32.375 53.75 Z M 30.125 54.875 L 31.25 54.875 L 31.25 53.75 L 30.125 53.75 Z M 42.5 51.5 L 43.625 51.5 L 43.625 50.375 L 42.5 50.375 Z M 42.5 43.625 L 42.5 42.5 L 41.375 42.5 L 41.375 43.625 Z M 41.375 41.375 L 40.25 41.375 L 40.25 42.5 L 41.375 42.5 Z M 40.25 42.5 L 39.125 42.5 L 39.125 43.625 L 40.25 43.625 Z M 49.25 44.75 L 50.375 44.75 L 50.375 43.625 L 49.25 43.625 Z M 39.125 13.25 L 39.125 12.125 L 38 12.125 L 38 13.25 Z M 35.75 12.125 L 35.75 13.25 L 36.875 13.25 L 36.875 12.125 Z M 33.5 13.25 L 34.625 13.25 L 34.625 12.125 L 33.5 12.125 Z M 31.25 12.125 L 31.25 13.25 L 32.375 13.25 L 32.375 12.125 Z M 13.25 12.125 L 12.125 12.125 L 12.125 13.25 L 13.25 13.25 Z M 12.125 13.25 L 11 13.25 L 11 14.375 L 12.125 14.375 Z M 13.25 15.5 L 13.25 14.375 L 12.125 14.375 L 12.125 15.5 Z M 12.125 15.5 L 11 15.5 L 11 16.625 L 12.125 16.625 Z M 13.25 16.625 L 12.125 16.625 L 12.125 17.75 L 13.25 17.75 Z M 15.5 17.75 L 15.5 16.625 L 14.375 16.625 L 14.375 17.75 Z M 12.125 17.75 L 11 17.75 L 11 18.875 L 12.125 18.875 Z M 12.125 20 L 13.25 20 L 13.25 18.875 L 12.125 18.875 Z M 14.375 16.625 L 14.375 15.5 L 13.25 15.5 L 13.25 16.625 Z M 13.25 18.875 L 14.375 18.875 L 14.375 17.75 L 13.25 17.75 Z M 11 21.125 L 12.125 21.125 L 12.125 20 L 11 20 Z M 9.875 14.375 L 9.875 15.5 L 11 15.5 L 11 14.375 Z M 11 16.625 L 9.875 16.625 L 9.875 17.75 L 11 17.75 Z M 9.875 17.75 L 8.75 17.75 L 8.75 18.875 L 9.875 18.875 Z M 11 18.875 L 9.875 18.875 L 9.875 20 L 11 20 Z M 9.875 20 L 8.75 20 L 8.75 21.125 L 9.875 21.125 Z M 9.875 22.25 L 11 22.25 L 11 21.125 L 9.875 21.125 Z M 8.75 23.375 L 9.875 23.375 L 9.875 22.25 L 8.75 22.25 Z M 7.625 18.875 L 7.625 20 L 8.75 20 L 8.75 18.875 Z M 8.75 21.125 L 7.625 21.125 L 7.625 22.25 L 8.75 22.25 Z M 7.625 22.25 L 6.5 22.25 L 6.5 23.375 L 7.625 23.375 Z M 7.625 24.5 L 8.75 24.5 L 8.75 23.375 L 7.625 23.375 Z M 31.25 15.5 L 32.375 15.5 L 32.375 14.375 L 31.25 14.375 Z M 32.375 14.375 L 33.5 14.375 L 33.5 13.25 L 32.375 13.25 Z M 33.5 11 L 32.375 11 L 32.375 12.125 L 33.5 12.125 Z M 34.625 11 L 34.625 12.125 L 35.75 12.125 L 35.75 11 Z M 34.625 9.875 L 33.5 9.875 L 33.5 11 L 34.625 11 Z M 36.875 9.875 L 35.75 9.875 L 35.75 11 L 36.875 11 Z M 38 12.125 L 38 11 L 36.875 11 L 36.875 12.125 Z M 38 12.125 " fill-opacity="1" fill-rule="nonzero"/><g clip-path="url(#12a2080b25)"><path fill="#000000" d="M 34.625 4.25 L 34.625 5.375 L 25.625 5.375 L 25.625 4.25 Z M 22.25 5.375 L 22.25 6.5 L 25.625 6.5 L 25.625 5.375 Z M 18.875 6.5 L 18.875 7.625 L 22.25 7.625 L 22.25 6.5 Z M 16.625 7.625 L 16.625 8.75 L 18.875 8.75 L 18.875 7.625 Z M 14.375 8.75 L 14.375 9.875 L 16.625 9.875 L 16.625 8.75 Z M 13.25 9.875 L 13.25 11 L 14.375 11 L 14.375 9.875 Z M 12.125 11 L 12.125 12.125 L 13.25 12.125 L 13.25 11 Z M 4.25 25.625 L 4.25 34.625 L 5.375 34.625 L 5.375 25.625 Z M 5.375 22.25 L 5.375 25.625 L 6.5 25.625 L 6.5 22.25 Z M 6.5 18.875 L 6.5 22.25 L 7.625 22.25 L 7.625 18.875 Z M 7.625 16.625 L 7.625 18.875 L 8.75 18.875 L 8.75 16.625 Z M 8.75 14.375 L 8.75 16.625 L 9.875 16.625 L 9.875 14.375 Z M 9.875 13.25 L 9.875 14.375 L 11 14.375 L 11 13.25 Z M 11 12.125 L 11 13.25 L 12.125 13.25 L 12.125 12.125 Z M 34.625 5.375 L 34.625 6.5 L 38 6.5 L 38 5.375 Z M 38 6.5 L 38 7.625 L 41.375 7.625 L 41.375 6.5 Z M 41.375 7.625 L 41.375 8.75 L 43.625 8.75 L 43.625 7.625 Z M 43.625 8.75 L 43.625 9.875 L 45.875 9.875 L 45.875 8.75 Z M 45.875 9.875 L 45.875 11 L 47 11 L 47 9.875 Z M 47 11 L 47 12.125 L 48.125 12.125 L 48.125 11 Z M 54.875 25.625 L 54.875 34.625 L 56 34.625 L 56 25.625 Z M 53.75 22.25 L 53.75 25.625 L 54.875 25.625 L 54.875 22.25 Z M 52.625 18.875 L 52.625 22.25 L 53.75 22.25 L 53.75 18.875 Z M 51.5 16.625 L 51.5 18.875 L 52.625 18.875 L 52.625 16.625 Z M 50.375 14.375 L 50.375 16.625 L 51.5 16.625 L 51.5 14.375 Z M 49.25 13.25 L 49.25 14.375 L 50.375 14.375 L 50.375 13.25 Z M 48.125 12.125 L 48.125 13.25 L 49.25 13.25 L 49.25 12.125 Z M 25.625 54.875 L 25.625 56 L 34.625 56 L 34.625 54.875 Z M 22.25 53.75 L 22.25 54.875 L 25.625 54.875 L 25.625 53.75 Z M 18.875 52.625 L 18.875 53.75 L 22.25 53.75 L 22.25 52.625 Z M 16.625 51.5 L 16.625 52.625 L 18.875 52.625 L 18.875 51.5 Z M 14.375 50.375 L 14.375 51.5 L 16.625 51.5 L 16.625 50.375 Z M 13.25 49.25 L 13.25 50.375 L 14.375 50.375 L 14.375 49.25 Z M 12.125 48.125 L 12.125 49.25 L 13.25 49.25 L 13.25 48.125 Z M 5.375 34.625 L 5.375 38 L 6.5 38 L 6.5 34.625 Z M 6.5 38 L 6.5 41.375 L 7.625 41.375 L 7.625 38 Z M 7.625 41.375 L 7.625 43.625 L 8.75 43.625 L 8.75 41.375 Z M 8.75 43.625 L 8.75 45.875 L 9.875 45.875 L 9.875 43.625 Z M 9.875 45.875 L 9.875 47 L 11 47 L 11 45.875 Z M 11 47 L 11 48.125 L 12.125 48.125 L 12.125 47 Z M 34.625 53.75 L 34.625 54.875 L 38 54.875 L 38 53.75 Z M 38 52.625 L 38 53.75 L 41.375 53.75 L 41.375 52.625 Z M 41.375 51.5 L 41.375 52.625 L 43.625 52.625 L 43.625 51.5 Z M 43.625 50.375 L 43.625 51.5 L 45.875 51.5 L 45.875 50.375 Z M 45.875 49.25 L 45.875 50.375 L 47 50.375 L 47 49.25 Z M 47 48.125 L 47 49.25 L 48.125 49.25 L 48.125 48.125 Z M 53.75 34.625 L 53.75 38 L 54.875 38 L 54.875 34.625 Z M 52.625 38 L 52.625 41.375 L 53.75 41.375 L 53.75 38 Z M 51.5 41.375 L 51.5 43.625 L 52.625 43.625 L 52.625 41.375 Z M 50.375 43.625 L 50.375 45.875 L 51.5 45.875 L 51.5 43.625 Z M 49.25 45.875 L 49.25 47 L 50.375 47 L 50.375 45.875 Z M 48.125 47 L 48.125 48.125 L 49.25 48.125 L 49.25 47 Z M 48.125 47 " fill-opacity="1" fill-rule="nonzero"/></g><path fill="#000000" d="M 7.625 33.5 L 7.625 34.625 L 6.5 34.625 L 6.5 33.5 Z M 7.625 32.375 L 7.625 33.5 L 8.75 33.5 L 8.75 32.375 Z M 8.75 31.25 L 8.75 32.375 L 11 32.375 L 11 31.25 Z M 11 32.375 L 11 33.5 L 12.125 33.5 L 12.125 32.375 Z M 12.125 33.5 L 12.125 34.625 L 13.25 34.625 L 13.25 33.5 Z M 13.25 34.625 L 13.25 35.75 L 14.375 35.75 L 14.375 34.625 Z M 14.375 35.75 L 14.375 36.875 L 15.5 36.875 L 15.5 35.75 Z M 15.5 36.875 L 15.5 38 L 16.625 38 L 16.625 36.875 Z M 16.625 38 L 16.625 40.25 L 17.75 40.25 L 17.75 38 Z M 15.5 40.25 L 15.5 41.375 L 16.625 41.375 L 16.625 40.25 Z M 14.375 41.375 L 14.375 42.5 L 15.5 42.5 L 15.5 41.375 Z M 12.125 40.25 L 12.125 41.375 L 14.375 41.375 L 14.375 40.25 Z M 11 41.375 L 11 47 L 12.125 47 L 12.125 41.375 Z M 6.5 24.5 L 6.5 25.625 L 9.875 25.625 L 9.875 24.5 Z M 9.875 23.375 L 9.875 24.5 L 11 24.5 L 11 23.375 Z M 11 22.25 L 11 23.375 L 12.125 23.375 L 12.125 22.25 Z M 12.125 21.125 L 12.125 22.25 L 13.25 22.25 L 13.25 21.125 Z M 13.25 20 L 13.25 21.125 L 14.375 21.125 L 14.375 20 Z M 14.375 18.875 L 14.375 20 L 15.5 20 L 15.5 18.875 Z M 15.5 16.625 L 15.5 18.875 L 16.625 18.875 L 16.625 16.625 Z M 14.375 14.375 L 14.375 16.625 L 15.5 16.625 L 15.5 14.375 Z M 13.25 12.125 L 13.25 14.375 L 14.375 14.375 L 14.375 12.125 Z M 47 42.5 L 47 43.625 L 51.5 43.625 L 51.5 42.5 Z M 44.75 43.625 L 44.75 44.75 L 47 44.75 L 47 43.625 Z M 43.625 42.5 L 43.625 43.625 L 44.75 43.625 L 44.75 42.5 Z M 42.5 41.375 L 42.5 42.5 L 43.625 42.5 L 43.625 41.375 Z M 39.125 41.375 L 39.125 42.5 L 40.25 42.5 L 40.25 41.375 Z M 38 42.5 L 38 43.625 L 39.125 43.625 L 39.125 42.5 Z M 36.875 43.625 L 36.875 44.75 L 38 44.75 L 38 43.625 Z M 35.75 44.75 L 35.75 45.875 L 36.875 45.875 L 36.875 44.75 Z M 34.625 45.875 L 34.625 47 L 35.75 47 L 35.75 45.875 Z M 35.75 47 L 35.75 48.125 L 36.875 48.125 L 36.875 47 Z M 36.875 48.125 L 36.875 50.375 L 38 50.375 L 38 48.125 Z M 40.25 40.25 L 40.25 41.375 L 42.5 41.375 L 42.5 40.25 Z M 34.625 50.375 L 34.625 51.5 L 36.875 51.5 L 36.875 50.375 Z M 32.375 51.5 L 32.375 52.625 L 34.625 52.625 L 34.625 51.5 Z M 30.125 52.625 L 30.125 53.75 L 32.375 53.75 L 32.375 52.625 Z M 27.875 53.75 L 27.875 54.875 L 30.125 54.875 L 30.125 53.75 Z M 39.125 12.125 L 39.125 13.25 L 47 13.25 L 47 12.125 Z M 38 11 L 38 12.125 L 39.125 12.125 L 39.125 11 Z M 36.875 9.875 L 36.875 11 L 38 11 L 38 9.875 Z M 33.5 8.75 L 33.5 9.875 L 36.875 9.875 L 36.875 8.75 Z M 32.375 9.875 L 32.375 11 L 33.5 11 L 33.5 9.875 Z M 31.25 11 L 31.25 12.125 L 32.375 12.125 L 32.375 11 Z M 30.125 12.125 L 30.125 15.5 L 31.25 15.5 L 31.25 12.125 Z M 31.25 15.5 L 31.25 16.625 L 32.375 16.625 L 32.375 15.5 Z M 32.375 14.375 L 32.375 15.5 L 33.5 15.5 L 33.5 14.375 Z M 35.75 14.375 L 35.75 15.5 L 36.875 15.5 L 36.875 14.375 Z M 34.625 15.5 L 34.625 16.625 L 35.75 16.625 L 35.75 15.5 Z M 33.5 16.625 L 33.5 17.75 L 34.625 17.75 L 34.625 16.625 Z M 32.375 17.75 L 32.375 18.875 L 33.5 18.875 L 33.5 17.75 Z M 32.375 23.375 L 32.375 24.5 L 33.5 24.5 L 33.5 23.375 Z M 33.5 24.5 L 33.5 25.625 L 34.625 25.625 L 34.625 24.5 Z M 34.625 25.625 L 34.625 26.75 L 35.75 26.75 L 35.75 25.625 Z M 35.75 26.75 L 35.75 27.875 L 36.875 27.875 L 36.875 26.75 Z M 36.875 27.875 L 36.875 29 L 38 29 L 38 27.875 Z M 38 29 L 38 30.125 L 39.125 30.125 L 39.125 29 Z M 21.125 26.75 L 21.125 27.875 L 29 27.875 L 29 26.75 Z M 29 27.875 L 29 29 L 30.125 29 L 30.125 27.875 Z M 30.125 29 L 30.125 30.125 L 31.25 30.125 L 31.25 29 Z M 31.25 30.125 L 31.25 31.25 L 32.375 31.25 L 32.375 30.125 Z M 32.375 31.25 L 32.375 32.375 L 33.5 32.375 L 33.5 31.25 Z M 33.5 32.375 L 33.5 33.5 L 34.625 33.5 L 34.625 32.375 Z M 34.625 33.5 L 34.625 34.625 L 35.75 34.625 L 35.75 33.5 Z M 35.75 34.625 L 35.75 35.75 L 36.875 35.75 L 36.875 34.625 Z M 30.125 49.25 L 30.125 50.375 L 31.25 50.375 L 31.25 49.25 Z M 24.5 40.25 L 24.5 41.375 L 25.625 41.375 L 25.625 40.25 Z M 25.625 39.125 L 25.625 40.25 L 26.75 40.25 L 26.75 39.125 Z M 25.625 35.75 L 25.625 36.875 L 26.75 36.875 L 26.75 35.75 Z M 24.5 34.625 L 24.5 35.75 L 25.625 35.75 L 25.625 34.625 Z M 22.25 33.5 L 22.25 34.625 L 24.5 34.625 L 24.5 33.5 Z M 20 34.625 L 20 35.75 L 22.25 35.75 L 22.25 34.625 Z M 26.75 36.875 L 26.75 39.125 L 27.875 39.125 L 27.875 36.875 Z M 24.5 49.25 L 24.5 50.375 L 25.625 50.375 L 25.625 49.25 Z M 34.625 39.125 L 34.625 40.25 L 36.875 40.25 L 36.875 39.125 Z M 36.875 35.75 L 36.875 39.125 L 38 39.125 L 38 35.75 Z M 33.5 40.25 L 33.5 43.625 L 34.625 43.625 L 34.625 40.25 Z M 31.25 45.875 L 31.25 49.25 L 32.375 49.25 L 32.375 45.875 Z M 23.375 41.375 L 23.375 49.25 L 24.5 49.25 L 24.5 41.375 Z M 25.625 50.375 L 25.625 51.5 L 30.125 51.5 L 30.125 50.375 Z M 32.375 43.625 L 32.375 45.875 L 33.5 45.875 L 33.5 43.625 Z M 39.125 30.125 L 39.125 31.25 L 40.25 31.25 L 40.25 30.125 Z M 43.625 32.375 L 43.625 33.5 L 44.75 33.5 L 44.75 32.375 Z M 45.875 39.125 L 45.875 40.25 L 47 40.25 L 47 39.125 Z M 47 38 L 47 39.125 L 48.125 39.125 L 48.125 38 Z M 49.25 33.5 L 49.25 34.625 L 51.5 34.625 L 51.5 33.5 Z M 48.125 34.625 L 48.125 38 L 49.25 38 L 49.25 34.625 Z M 51.5 34.625 L 51.5 38 L 52.625 38 L 52.625 34.625 Z M 44.75 33.5 L 44.75 39.125 L 45.875 39.125 L 45.875 33.5 Z M 40.25 31.25 L 40.25 32.375 L 43.625 32.375 L 43.625 31.25 Z M 30.125 18.875 L 30.125 20 L 32.375 20 L 32.375 18.875 Z M 27.875 17.75 L 27.875 18.875 L 30.125 18.875 L 30.125 17.75 Z M 25.625 18.875 L 25.625 20 L 27.875 20 L 27.875 18.875 Z M 23.375 20 L 23.375 21.125 L 25.625 21.125 L 25.625 20 Z M 23.375 23.375 L 23.375 24.5 L 27.875 24.5 L 27.875 23.375 Z M 33.5 13.25 L 33.5 14.375 L 35.75 14.375 L 35.75 13.25 Z M 22.25 21.125 L 22.25 23.375 L 23.375 23.375 L 23.375 21.125 Z M 27.875 22.25 L 27.875 23.375 L 32.375 23.375 L 32.375 22.25 Z M 20 27.875 L 20 29 L 21.125 29 L 21.125 27.875 Z M 18.875 29 L 18.875 34.625 L 20 34.625 L 20 29 Z M 18.875 29 " fill-opacity="1" fill-rule="nonzero"/></svg>