<svg xmlns="http://www.w3.org/2000/svg" xmlns:xlink="http://www.w3.org/1999/xlink" width="80" zoomAndPan="magnify" viewBox="0 0 60 60" height="80" preserveAspectRatio="xMidYMid meet" version="1.0"><defs><clipPath id="ac0e7171b6"><path d="M 5.234375 3.707031 L 54.734375 3.707031 L 54.734375 56.207031 L 5.234375 56.207031 Z M 5.234375 3.707031 " clip-rule="nonzero"/></clipPath></defs><g clip-path="url(#ac0e7171b6)"><path fill="#000000" d="M 54.71875 5.25 L 54.71875 16.058594 L 53.171875 16.058594 L 53.171875 17.601562 L 42.351562 17.601562 L 42.351562 19.144531 L 51.625 19.144531 L 51.625 20.691406 L 50.082031 20.691406 L 50.082031 22.234375 L 42.351562 22.234375 L 42.351562 26.867188 L 40.804688 26.867188 L 40.804688 29.957031 L 45.441406 29.957031 L 45.441406 36.132812 L 42.351562 36.132812 L 42.351562 33.042969 L 40.804688 33.042969 L 40.804688 37.675781 L 39.261719 37.675781 L 39.261719 40.765625 L 37.714844 40.765625 L 37.714844 42.308594 L 36.167969 42.308594 L 36.167969 43.851562 L 34.621094 43.851562 L 34.621094 45.394531 L 33.078125 45.394531 L 33.078125 51.574219 L 31.53125 51.574219 L 31.53125 54.660156 L 33.078125 54.660156 L 33.078125 56.207031 L 26.894531 56.207031 L 26.894531 50.027344 L 22.257812 50.027344 L 22.257812 51.574219 L 20.710938 51.574219 L 20.710938 54.660156 L 22.257812 54.660156 L 22.257812 56.207031 L 16.074219 56.207031 L 16.074219 46.941406 L 14.527344 46.941406 L 14.527344 45.394531 L 12.980469 45.394531 L 12.980469 43.851562 L 11.433594 43.851562 L 11.433594 42.308594 L 9.890625 42.308594 L 9.890625 40.765625 L 8.34375 40.765625 L 8.34375 39.21875 L 6.796875 39.21875 L 6.796875 37.675781 L 5.253906 37.675781 L 5.253906 26.867188 L 6.796875 26.867188 L 6.796875 25.324219 L 8.34375 25.324219 L 8.34375 26.867188 L 9.890625 26.867188 L 9.890625 28.410156 L 11.433594 28.410156 L 11.433594 29.957031 L 12.980469 29.957031 L 12.980469 31.5 L 14.527344 31.5 L 14.527344 33.042969 L 19.164062 33.042969 L 19.164062 31.5 L 20.710938 31.5 L 20.710938 29.957031 L 22.257812 29.957031 L 22.257812 28.410156 L 23.800781 28.410156 L 23.800781 26.867188 L 25.347656 26.867188 L 25.347656 25.324219 L 26.894531 25.324219 L 26.894531 23.777344 L 28.4375 23.777344 L 28.4375 8.335938 L 29.984375 8.335938 L 29.984375 6.792969 L 31.53125 6.792969 L 31.53125 5.25 L 33.078125 5.25 L 33.078125 3.707031 L 53.171875 3.707031 L 53.171875 5.25 Z M 54.71875 5.25 " fill-opacity="1" fill-rule="nonzero"/></g><path fill="#ffffff" d="M 36.167969 8.335938 L 39.261719 8.335938 L 39.261719 11.425781 L 36.167969 11.425781 Z M 19.164062 34.585938 L 19.164062 36.132812 L 20.710938 36.132812 L 20.710938 34.585938 Z M 16.074219 34.585938 L 16.074219 36.132812 L 17.617188 36.132812 L 17.617188 34.585938 Z M 12.980469 34.585938 L 12.980469 36.132812 L 14.527344 36.132812 L 14.527344 34.585938 Z M 12.980469 34.585938 L 12.980469 33.042969 L 11.433594 33.042969 L 11.433594 34.585938 Z M 11.433594 33.042969 L 11.433594 31.5 L 9.890625 31.5 L 9.890625 33.042969 Z M 9.890625 29.957031 L 8.34375 29.957031 L 8.34375 31.5 L 9.890625 31.5 Z M 6.796875 28.410156 L 6.796875 29.957031 L 8.34375 29.957031 L 8.34375 28.410156 Z M 9.890625 34.585938 L 9.890625 36.132812 L 11.433594 36.132812 L 11.433594 34.585938 Z M 8.34375 33.042969 L 8.34375 34.585938 L 9.890625 34.585938 L 9.890625 33.042969 Z M 6.796875 31.5 L 6.796875 33.042969 L 8.34375 33.042969 L 8.34375 31.5 Z M 22.257812 33.042969 L 20.710938 33.042969 L 20.710938 34.585938 L 22.257812 34.585938 Z M 23.800781 31.5 L 22.257812 31.5 L 22.257812 33.042969 L 23.800781 33.042969 Z M 25.347656 29.957031 L 23.800781 29.957031 L 23.800781 31.5 L 25.347656 31.5 Z M 26.894531 28.410156 L 25.347656 28.410156 L 25.347656 29.957031 L 26.894531 29.957031 Z M 28.4375 26.867188 L 26.894531 26.867188 L 26.894531 28.410156 L 28.4375 28.410156 Z M 29.984375 25.324219 L 28.4375 25.324219 L 28.4375 26.867188 L 29.984375 26.867188 Z M 29.984375 25.324219 L 31.53125 25.324219 L 31.53125 23.777344 L 29.984375 23.777344 Z M 29.984375 22.234375 L 31.53125 22.234375 L 31.53125 20.691406 L 29.984375 20.691406 Z M 29.984375 19.144531 L 31.53125 19.144531 L 31.53125 17.601562 L 29.984375 17.601562 Z M 29.984375 14.515625 L 29.984375 16.058594 L 31.53125 16.058594 L 31.53125 14.515625 Z M 29.984375 11.425781 L 29.984375 12.96875 L 31.53125 12.96875 L 31.53125 11.425781 Z M 29.984375 8.335938 L 29.984375 9.882812 L 31.53125 9.882812 L 31.53125 8.335938 Z M 31.53125 11.425781 L 33.078125 11.425781 L 33.078125 9.882812 L 31.53125 9.882812 Z M 31.53125 14.515625 L 33.078125 14.515625 L 33.078125 12.96875 L 31.53125 12.96875 Z M 31.53125 17.601562 L 33.078125 17.601562 L 33.078125 16.058594 L 31.53125 16.058594 Z M 33.078125 20.691406 L 33.078125 19.144531 L 31.53125 19.144531 L 31.53125 20.691406 Z M 33.078125 23.777344 L 33.078125 22.234375 L 31.53125 22.234375 L 31.53125 23.777344 Z M 33.078125 26.867188 L 33.078125 25.324219 L 31.53125 25.324219 L 31.53125 26.867188 Z M 29.984375 28.410156 L 31.53125 28.410156 L 31.53125 26.867188 L 29.984375 26.867188 Z M 28.4375 29.957031 L 29.984375 29.957031 L 29.984375 28.410156 L 28.4375 28.410156 Z M 26.894531 31.5 L 28.4375 31.5 L 28.4375 29.957031 L 26.894531 29.957031 Z M 25.347656 33.042969 L 26.894531 33.042969 L 26.894531 31.5 L 25.347656 31.5 Z M 23.800781 34.585938 L 25.347656 34.585938 L 25.347656 33.042969 L 23.800781 33.042969 Z M 22.257812 36.132812 L 23.800781 36.132812 L 23.800781 34.585938 L 22.257812 34.585938 Z M 20.710938 37.675781 L 22.257812 37.675781 L 22.257812 36.132812 L 20.710938 36.132812 Z M 17.617188 37.675781 L 19.164062 37.675781 L 19.164062 36.132812 L 17.617188 36.132812 Z M 14.527344 37.675781 L 16.074219 37.675781 L 16.074219 36.132812 L 14.527344 36.132812 Z M 11.433594 37.675781 L 12.980469 37.675781 L 12.980469 36.132812 L 11.433594 36.132812 Z M 33.078125 6.792969 L 31.53125 6.792969 L 31.53125 8.335938 L 33.078125 8.335938 Z M 34.621094 5.25 L 33.078125 5.25 L 33.078125 6.792969 L 34.621094 6.792969 Z M 37.714844 5.25 L 36.167969 5.25 L 36.167969 6.792969 L 37.714844 6.792969 Z M 39.261719 5.25 L 39.261719 6.792969 L 40.804688 6.792969 L 40.804688 5.25 Z M 33.078125 9.882812 L 34.621094 9.882812 L 34.621094 8.335938 L 33.078125 8.335938 Z M 34.621094 6.792969 L 34.621094 8.335938 L 36.167969 8.335938 L 36.167969 6.792969 Z M 34.621094 12.96875 L 34.621094 11.425781 L 33.078125 11.425781 L 33.078125 12.96875 Z M 34.621094 16.058594 L 34.621094 14.515625 L 33.078125 14.515625 L 33.078125 16.058594 Z M 34.621094 16.058594 " fill-opacity="1" fill-rule="nonzero"/></svg>