<svg xmlns="http://www.w3.org/2000/svg" xmlns:xlink="http://www.w3.org/1999/xlink" width="80" zoomAndPan="magnify" viewBox="0 0 60 60" height="80" preserveAspectRatio="xMidYMid meet" version="1.0"><defs><clipPath id="6f57d1e557"><path d="M 12.355469 2.507812 L 47.605469 2.507812 L 47.605469 57.257812 L 12.355469 57.257812 Z M 12.355469 2.507812 " clip-rule="nonzero"/></clipPath><clipPath id="d7e77d3fc4"><path d="M 19 4 L 47.605469 4 L 47.605469 57.257812 L 19 57.257812 Z M 19 4 " clip-rule="nonzero"/></clipPath><clipPath id="ebf4d91623"><path d="M 12.355469 2.507812 L 47 2.507812 L 47 45 L 12.355469 45 Z M 12.355469 2.507812 " clip-rule="nonzero"/></clipPath></defs><g clip-path="url(#6f57d1e557)"><path fill="#000000" d="M 47.605469 18.035156 L 47.605469 23.753906 L 46.785156 23.753906 L 46.785156 27.839844 L 45.964844 27.839844 L 45.964844 29.472656 L 45.144531 29.472656 L 45.144531 31.105469 L 44.324219 31.105469 L 44.324219 32.742188 L 43.503906 32.742188 L 43.503906 33.558594 L 42.6875 33.558594 L 42.6875 34.375 L 41.867188 34.375 L 41.867188 35.191406 L 41.046875 35.191406 L 41.046875 36.007812 L 40.226562 36.007812 L 40.226562 36.828125 L 39.40625 36.828125 L 39.40625 37.644531 L 38.585938 37.644531 L 38.585938 38.460938 L 36.945312 38.460938 L 36.945312 39.277344 L 36.128906 39.277344 L 36.128906 44.179688 L 36.945312 44.179688 L 36.945312 44.996094 L 37.765625 44.996094 L 37.765625 45.816406 L 38.585938 45.816406 L 38.585938 47.449219 L 39.40625 47.449219 L 39.40625 48.265625 L 40.226562 48.265625 L 40.226562 49.082031 L 39.40625 49.082031 L 39.40625 49.898438 L 38.585938 49.898438 L 38.585938 51.535156 L 39.40625 51.535156 L 39.40625 52.351562 L 40.226562 52.351562 L 40.226562 53.167969 L 39.40625 53.167969 L 39.40625 53.984375 L 38.585938 53.984375 L 38.585938 55.621094 L 37.765625 55.621094 L 37.765625 56.4375 L 36.945312 56.4375 L 36.945312 57.253906 L 23.011719 57.253906 L 23.011719 56.4375 L 22.191406 56.4375 L 22.191406 55.621094 L 21.371094 55.621094 L 21.371094 53.984375 L 20.550781 53.984375 L 20.550781 53.167969 L 19.730469 53.167969 L 19.730469 52.351562 L 20.550781 52.351562 L 20.550781 51.535156 L 21.371094 51.535156 L 21.371094 49.898438 L 20.550781 49.898438 L 20.550781 49.082031 L 19.730469 49.082031 L 19.730469 48.265625 L 20.550781 48.265625 L 20.550781 47.449219 L 21.371094 47.449219 L 21.371094 45.816406 L 22.191406 45.816406 L 22.191406 44.996094 L 23.011719 44.996094 L 23.011719 44.179688 L 23.832031 44.179688 L 23.832031 39.277344 L 23.011719 39.277344 L 23.011719 38.460938 L 21.371094 38.460938 L 21.371094 37.644531 L 20.550781 37.644531 L 20.550781 36.828125 L 19.730469 36.828125 L 19.730469 36.007812 L 18.914062 36.007812 L 18.914062 35.191406 L 18.09375 35.191406 L 18.09375 34.375 L 17.273438 34.375 L 17.273438 33.558594 L 16.453125 33.558594 L 16.453125 32.742188 L 15.632812 32.742188 L 15.632812 31.105469 L 14.8125 31.105469 L 14.8125 29.472656 L 13.992188 29.472656 L 13.992188 27.839844 L 13.175781 27.839844 L 13.175781 23.753906 L 12.355469 23.753906 L 12.355469 18.035156 L 13.175781 18.035156 L 13.175781 13.949219 L 13.992188 13.949219 L 13.992188 12.3125 L 14.8125 12.3125 L 14.8125 10.679688 L 15.632812 10.679688 L 15.632812 9.046875 L 16.453125 9.046875 L 16.453125 8.230469 L 17.273438 8.230469 L 17.273438 7.410156 L 18.09375 7.410156 L 18.09375 6.59375 L 18.914062 6.59375 L 18.914062 5.777344 L 20.550781 5.777344 L 20.550781 4.960938 L 21.371094 4.960938 L 21.371094 4.144531 L 23.832031 4.144531 L 23.832031 3.328125 L 26.289062 3.328125 L 26.289062 2.507812 L 33.667969 2.507812 L 33.667969 3.328125 L 36.128906 3.328125 L 36.128906 4.144531 L 38.585938 4.144531 L 38.585938 4.960938 L 39.40625 4.960938 L 39.40625 5.777344 L 41.046875 5.777344 L 41.046875 6.59375 L 41.867188 6.59375 L 41.867188 7.410156 L 42.6875 7.410156 L 42.6875 8.230469 L 43.503906 8.230469 L 43.503906 9.046875 L 44.324219 9.046875 L 44.324219 10.679688 L 45.144531 10.679688 L 45.144531 12.3125 L 45.964844 12.3125 L 45.964844 13.949219 L 46.785156 13.949219 L 46.785156 18.035156 Z M 47.605469 18.035156 " fill-opacity="1" fill-rule="nonzero"/></g><path fill="#cccccc" d="M 37.765625 45.816406 L 37.765625 47.449219 L 22.191406 47.449219 L 22.191406 45.816406 L 23.011719 45.816406 L 23.011719 44.996094 L 36.945312 44.996094 L 36.945312 45.816406 Z M 20.550781 48.265625 L 20.550781 49.082031 L 39.40625 49.082031 L 39.40625 48.265625 Z M 22.191406 49.898438 L 22.191406 51.535156 L 37.765625 51.535156 L 37.765625 49.898438 Z M 20.550781 52.351562 L 20.550781 53.167969 L 39.40625 53.167969 L 39.40625 52.351562 Z M 22.191406 53.984375 L 22.191406 55.621094 L 23.011719 55.621094 L 23.011719 56.4375 L 36.945312 56.4375 L 36.945312 55.621094 L 37.765625 55.621094 L 37.765625 53.984375 Z M 22.191406 53.984375 " fill-opacity="1" fill-rule="nonzero"/><path fill="#7700ff" d="M 46.785156 18.035156 L 46.785156 23.753906 L 45.964844 23.753906 L 45.964844 27.839844 L 45.144531 27.839844 L 45.144531 29.472656 L 44.324219 29.472656 L 44.324219 31.105469 L 43.503906 31.105469 L 43.503906 32.742188 L 42.6875 32.742188 L 42.6875 33.558594 L 41.867188 33.558594 L 41.867188 34.375 L 41.046875 34.375 L 41.046875 35.191406 L 40.226562 35.191406 L 40.226562 36.007812 L 39.40625 36.007812 L 39.40625 36.828125 L 38.585938 36.828125 L 38.585938 37.644531 L 36.945312 37.644531 L 36.945312 38.460938 L 36.128906 38.460938 L 36.128906 39.277344 L 35.308594 39.277344 L 35.308594 44.179688 L 24.652344 44.179688 L 24.652344 39.277344 L 23.832031 39.277344 L 23.832031 38.460938 L 23.011719 38.460938 L 23.011719 37.644531 L 21.371094 37.644531 L 21.371094 36.828125 L 20.550781 36.828125 L 20.550781 36.007812 L 19.730469 36.007812 L 19.730469 35.191406 L 18.914062 35.191406 L 18.914062 34.375 L 18.09375 34.375 L 18.09375 33.558594 L 17.273438 33.558594 L 17.273438 32.742188 L 16.453125 32.742188 L 16.453125 31.105469 L 15.632812 31.105469 L 15.632812 29.472656 L 14.8125 29.472656 L 14.8125 27.839844 L 13.992188 27.839844 L 13.992188 23.753906 L 13.175781 23.753906 L 13.175781 18.035156 L 13.992188 18.035156 L 13.992188 13.949219 L 14.8125 13.949219 L 14.8125 12.3125 L 15.632812 12.3125 L 15.632812 10.679688 L 16.453125 10.679688 L 16.453125 9.046875 L 17.273438 9.046875 L 17.273438 8.230469 L 18.09375 8.230469 L 18.09375 7.410156 L 18.914062 7.410156 L 18.914062 6.59375 L 20.550781 6.59375 L 20.550781 5.777344 L 21.371094 5.777344 L 21.371094 4.960938 L 23.832031 4.960938 L 23.832031 4.144531 L 26.289062 4.144531 L 26.289062 3.328125 L 33.667969 3.328125 L 33.667969 4.144531 L 36.128906 4.144531 L 36.128906 4.960938 L 38.585938 4.960938 L 38.585938 5.777344 L 39.40625 5.777344 L 39.40625 6.59375 L 41.046875 6.59375 L 41.046875 7.410156 L 41.867188 7.410156 L 41.867188 8.230469 L 42.6875 8.230469 L 42.6875 9.046875 L 43.503906 9.046875 L 43.503906 10.679688 L 44.324219 10.679688 L 44.324219 12.3125 L 45.144531 12.3125 L 45.144531 13.949219 L 45.964844 13.949219 L 45.964844 18.035156 Z M 46.785156 18.035156 " fill-opacity="1" fill-rule="nonzero"/><g clip-path="url(#d7e77d3fc4)"><path fill="#000000" d="M 20.550781 49.898438 L 21.371094 49.898438 L 21.371094 51.535156 L 20.550781 51.535156 L 20.550781 52.351562 L 39.40625 52.351562 L 39.40625 51.535156 L 38.585938 51.535156 L 38.585938 49.898438 L 39.40625 49.898438 L 39.40625 49.082031 L 20.550781 49.082031 Z M 37.765625 51.535156 L 22.191406 51.535156 L 22.191406 49.898438 L 37.765625 49.898438 Z M 38.585938 4.960938 L 38.585938 5.777344 L 39.40625 5.777344 L 39.40625 4.960938 Z M 39.40625 5.777344 L 39.40625 6.59375 L 41.046875 6.59375 L 41.046875 5.777344 Z M 41.046875 6.59375 L 41.046875 7.410156 L 41.867188 7.410156 L 41.867188 6.59375 Z M 41.867188 7.410156 L 41.867188 8.230469 L 42.6875 8.230469 L 42.6875 7.410156 Z M 42.6875 8.230469 L 42.6875 9.046875 L 43.503906 9.046875 L 43.503906 8.230469 Z M 43.503906 9.046875 L 43.503906 10.679688 L 44.324219 10.679688 L 44.324219 9.046875 Z M 44.324219 10.679688 L 44.324219 12.3125 L 45.144531 12.3125 L 45.144531 10.679688 Z M 45.144531 12.3125 L 45.144531 13.949219 L 45.964844 13.949219 L 45.964844 12.3125 Z M 45.964844 13.949219 L 45.964844 18.035156 L 46.785156 18.035156 L 46.785156 13.949219 Z M 46.785156 18.035156 L 46.785156 23.753906 L 47.605469 23.753906 L 47.605469 18.035156 Z M 41.046875 35.191406 L 41.867188 35.191406 L 41.867188 34.375 L 41.046875 34.375 Z M 41.867188 34.375 L 42.6875 34.375 L 42.6875 33.558594 L 41.867188 33.558594 Z M 42.6875 33.558594 L 43.503906 33.558594 L 43.503906 32.742188 L 42.6875 32.742188 Z M 43.503906 32.742188 L 44.324219 32.742188 L 44.324219 31.105469 L 43.503906 31.105469 Z M 44.324219 31.105469 L 45.144531 31.105469 L 45.144531 29.472656 L 44.324219 29.472656 Z M 45.144531 29.472656 L 45.964844 29.472656 L 45.964844 27.839844 L 45.144531 27.839844 Z M 45.964844 27.839844 L 46.785156 27.839844 L 46.785156 23.753906 L 45.964844 23.753906 Z M 40.226562 36.007812 L 41.046875 36.007812 L 41.046875 35.191406 L 40.226562 35.191406 Z M 39.40625 36.828125 L 40.226562 36.828125 L 40.226562 36.007812 L 39.40625 36.007812 Z M 38.585938 37.644531 L 39.40625 37.644531 L 39.40625 36.828125 L 38.585938 36.828125 Z M 36.945312 38.460938 L 38.585938 38.460938 L 38.585938 37.644531 L 36.945312 37.644531 Z M 36.128906 39.277344 L 36.945312 39.277344 L 36.945312 38.460938 L 36.128906 38.460938 Z M 35.308594 44.179688 L 23.011719 44.179688 L 23.011719 44.996094 L 36.945312 44.996094 L 36.945312 44.179688 L 36.128906 44.179688 L 36.128906 39.277344 L 35.308594 39.277344 Z M 23.011719 44.996094 L 22.191406 44.996094 L 22.191406 45.816406 L 23.011719 45.816406 Z M 37.765625 45.816406 L 37.765625 44.996094 L 36.945312 44.996094 L 36.945312 45.816406 Z M 22.191406 47.449219 L 22.191406 45.816406 L 21.371094 45.816406 L 21.371094 47.449219 L 20.550781 47.449219 L 20.550781 48.265625 L 39.40625 48.265625 L 39.40625 47.449219 L 38.585938 47.449219 L 38.585938 45.816406 L 37.765625 45.816406 L 37.765625 47.449219 Z M 40.226562 49.082031 L 40.226562 48.265625 L 39.40625 48.265625 L 39.40625 49.082031 Z M 19.730469 48.265625 L 19.730469 49.082031 L 20.550781 49.082031 L 20.550781 48.265625 Z M 20.550781 53.984375 L 21.371094 53.984375 L 21.371094 55.621094 L 22.191406 55.621094 L 22.191406 53.984375 L 37.765625 53.984375 L 37.765625 55.621094 L 38.585938 55.621094 L 38.585938 53.984375 L 39.40625 53.984375 L 39.40625 53.167969 L 20.550781 53.167969 Z M 40.226562 53.167969 L 40.226562 52.351562 L 39.40625 52.351562 L 39.40625 53.167969 Z M 19.730469 52.351562 L 19.730469 53.167969 L 20.550781 53.167969 L 20.550781 52.351562 Z M 23.011719 57.253906 L 36.945312 57.253906 L 36.945312 56.4375 L 23.011719 56.4375 Z M 22.191406 55.621094 L 22.191406 56.4375 L 23.011719 56.4375 L 23.011719 55.621094 Z M 36.945312 56.4375 L 37.765625 56.4375 L 37.765625 55.621094 L 36.945312 55.621094 Z M 36.945312 56.4375 " fill-opacity="1" fill-rule="nonzero"/></g><g clip-path="url(#ebf4d91623)"><path fill="#000000" d="M 33.667969 3.328125 L 26.289062 3.328125 L 26.289062 2.507812 L 33.667969 2.507812 Z M 23.832031 4.144531 L 26.289062 4.144531 L 26.289062 3.328125 L 23.832031 3.328125 Z M 21.371094 4.960938 L 23.832031 4.960938 L 23.832031 4.144531 L 21.371094 4.144531 Z M 20.550781 5.777344 L 21.371094 5.777344 L 21.371094 4.960938 L 20.550781 4.960938 Z M 18.914062 6.59375 L 20.550781 6.59375 L 20.550781 5.777344 L 18.914062 5.777344 Z M 18.09375 7.410156 L 18.914062 7.410156 L 18.914062 6.59375 L 18.09375 6.59375 Z M 17.273438 8.230469 L 18.09375 8.230469 L 18.09375 7.410156 L 17.273438 7.410156 Z M 16.453125 9.046875 L 17.273438 9.046875 L 17.273438 8.230469 L 16.453125 8.230469 Z M 15.632812 10.679688 L 16.453125 10.679688 L 16.453125 9.046875 L 15.632812 9.046875 Z M 14.8125 12.3125 L 15.632812 12.3125 L 15.632812 10.679688 L 14.8125 10.679688 Z M 13.992188 13.949219 L 14.8125 13.949219 L 14.8125 12.3125 L 13.992188 12.3125 Z M 13.175781 18.035156 L 13.992188 18.035156 L 13.992188 13.949219 L 13.175781 13.949219 Z M 12.355469 23.753906 L 13.175781 23.753906 L 13.175781 18.035156 L 12.355469 18.035156 Z M 18.914062 35.191406 L 18.914062 34.375 L 18.09375 34.375 L 18.09375 35.191406 Z M 18.09375 34.375 L 18.09375 33.558594 L 17.273438 33.558594 L 17.273438 34.375 Z M 17.273438 33.558594 L 17.273438 32.742188 L 16.453125 32.742188 L 16.453125 33.558594 Z M 16.453125 32.742188 L 16.453125 31.105469 L 15.632812 31.105469 L 15.632812 32.742188 Z M 15.632812 31.105469 L 15.632812 29.472656 L 14.8125 29.472656 L 14.8125 31.105469 Z M 14.8125 29.472656 L 14.8125 27.839844 L 13.992188 27.839844 L 13.992188 29.472656 Z M 13.992188 27.839844 L 13.992188 23.753906 L 13.175781 23.753906 L 13.175781 27.839844 Z M 19.730469 36.007812 L 19.730469 35.191406 L 18.914062 35.191406 L 18.914062 36.007812 Z M 20.550781 36.828125 L 20.550781 36.007812 L 19.730469 36.007812 L 19.730469 36.828125 Z M 21.371094 37.644531 L 21.371094 36.828125 L 20.550781 36.828125 L 20.550781 37.644531 Z M 23.011719 38.460938 L 23.011719 37.644531 L 21.371094 37.644531 L 21.371094 38.460938 Z M 23.832031 39.277344 L 23.832031 38.460938 L 23.011719 38.460938 L 23.011719 39.277344 Z M 24.652344 44.179688 L 24.652344 39.277344 L 23.832031 39.277344 L 23.832031 44.179688 Z M 36.128906 4.144531 L 36.128906 3.328125 L 33.667969 3.328125 L 33.667969 4.144531 Z M 38.585938 4.960938 L 38.585938 4.144531 L 36.128906 4.144531 L 36.128906 4.960938 Z M 35.308594 44.179688 L 35.308594 43.363281 L 34.488281 43.363281 L 34.488281 44.179688 Z M 35.308594 42.546875 L 35.308594 41.730469 L 34.488281 41.730469 L 34.488281 42.546875 Z M 35.308594 40.914062 L 35.308594 40.09375 L 34.488281 40.09375 L 34.488281 40.914062 Z M 34.488281 39.277344 L 35.308594 39.277344 L 35.308594 38.460938 L 34.488281 38.460938 Z M 33.667969 43.363281 L 34.488281 43.363281 L 34.488281 42.546875 L 33.667969 42.546875 Z M 33.667969 41.730469 L 34.488281 41.730469 L 34.488281 40.914062 L 33.667969 40.914062 Z M 33.667969 40.09375 L 34.488281 40.09375 L 34.488281 39.277344 L 33.667969 39.277344 Z M 34.488281 37.644531 L 33.667969 37.644531 L 33.667969 38.460938 L 34.488281 38.460938 Z M 35.308594 38.460938 L 36.128906 38.460938 L 36.128906 37.644531 L 35.308594 37.644531 Z M 34.488281 37.644531 L 35.308594 37.644531 L 35.308594 36.828125 L 34.488281 36.828125 Z M 36.128906 37.644531 L 36.945312 37.644531 L 36.945312 36.828125 L 36.128906 36.828125 Z M 37.765625 37.644531 L 38.585938 37.644531 L 38.585938 36.828125 L 37.765625 36.828125 Z M 34.488281 36.007812 L 33.667969 36.007812 L 33.667969 36.828125 L 34.488281 36.828125 Z M 32.847656 44.179688 L 33.667969 44.179688 L 33.667969 43.363281 L 32.847656 43.363281 Z M 32.847656 41.730469 L 32.847656 42.546875 L 33.667969 42.546875 L 33.667969 41.730469 Z M 32.847656 40.09375 L 32.847656 40.914062 L 33.667969 40.914062 L 33.667969 40.09375 Z M 32.847656 38.460938 L 32.847656 39.277344 L 33.667969 39.277344 L 33.667969 38.460938 Z M 32.847656 36.828125 L 32.847656 37.644531 L 33.667969 37.644531 L 33.667969 36.828125 Z M 35.308594 36.828125 L 36.128906 36.828125 L 36.128906 36.007812 L 35.308594 36.007812 Z M 37.765625 34.375 L 36.945312 34.375 L 36.945312 35.191406 L 37.765625 35.191406 Z M 38.585938 33.558594 L 37.765625 33.558594 L 37.765625 34.375 L 38.585938 34.375 Z M 36.128906 35.191406 L 36.128906 36.007812 L 36.945312 36.007812 L 36.945312 35.191406 Z M 39.40625 32.742188 L 38.585938 32.742188 L 38.585938 33.558594 L 39.40625 33.558594 Z M 41.046875 31.105469 L 40.226562 31.105469 L 40.226562 31.925781 L 41.046875 31.925781 Z M 41.046875 31.105469 L 41.867188 31.105469 L 41.867188 30.289062 L 41.046875 30.289062 Z M 40.226562 31.925781 L 39.40625 31.925781 L 39.40625 32.742188 L 40.226562 32.742188 Z M 41.867188 30.289062 L 42.6875 30.289062 L 42.6875 29.472656 L 41.867188 29.472656 Z M 43.503906 28.65625 L 44.324219 28.65625 L 44.324219 27.839844 L 43.503906 27.839844 Z M 44.324219 27.839844 L 45.144531 27.839844 L 45.144531 27.023438 L 44.324219 27.023438 Z M 42.6875 29.472656 L 43.503906 29.472656 L 43.503906 28.65625 L 42.6875 28.65625 Z M 45.964844 27.023438 L 45.964844 26.203125 L 45.144531 26.203125 L 45.144531 27.023438 Z M 36.945312 36.007812 L 36.945312 36.828125 L 37.765625 36.828125 L 37.765625 36.007812 Z M 37.765625 36.007812 L 38.585938 36.007812 L 38.585938 35.191406 L 37.765625 35.191406 Z M 38.585938 35.191406 L 39.40625 35.191406 L 39.40625 34.375 L 38.585938 34.375 Z M 39.40625 34.375 L 40.226562 34.375 L 40.226562 33.558594 L 39.40625 33.558594 Z M 40.226562 33.558594 L 41.046875 33.558594 L 41.046875 32.742188 L 40.226562 32.742188 Z M 41.046875 32.742188 L 41.867188 32.742188 L 41.867188 31.925781 L 41.046875 31.925781 Z M 41.867188 31.925781 L 42.6875 31.925781 L 42.6875 31.105469 L 41.867188 31.105469 Z M 42.6875 31.105469 L 43.503906 31.105469 L 43.503906 30.289062 L 42.6875 30.289062 Z M 43.503906 30.289062 L 44.324219 30.289062 L 44.324219 29.472656 L 43.503906 29.472656 Z M 38.585938 36.828125 L 39.40625 36.828125 L 39.40625 36.007812 L 38.585938 36.007812 Z M 39.40625 36.007812 L 40.226562 36.007812 L 40.226562 35.191406 L 39.40625 35.191406 Z M 40.226562 35.191406 L 41.046875 35.191406 L 41.046875 34.375 L 40.226562 34.375 Z M 41.046875 34.375 L 41.867188 34.375 L 41.867188 33.558594 L 41.046875 33.558594 Z M 41.867188 33.558594 L 42.6875 33.558594 L 42.6875 32.742188 L 41.867188 32.742188 Z M 43.503906 32.742188 L 43.503906 31.925781 L 42.6875 31.925781 L 42.6875 32.742188 Z M 35.308594 35.191406 L 34.488281 35.191406 L 34.488281 36.007812 L 35.308594 36.007812 Z M 36.128906 34.375 L 35.308594 34.375 L 35.308594 35.191406 L 36.128906 35.191406 Z M 36.945312 33.558594 L 36.128906 33.558594 L 36.128906 34.375 L 36.945312 34.375 Z M 37.765625 32.742188 L 36.945312 32.742188 L 36.945312 33.558594 L 37.765625 33.558594 Z M 38.585938 31.925781 L 37.765625 31.925781 L 37.765625 32.742188 L 38.585938 32.742188 Z M 39.40625 31.105469 L 38.585938 31.105469 L 38.585938 31.925781 L 39.40625 31.925781 Z M 40.226562 30.289062 L 39.40625 30.289062 L 39.40625 31.105469 L 40.226562 31.105469 Z M 41.046875 29.472656 L 40.226562 29.472656 L 40.226562 30.289062 L 41.046875 30.289062 Z M 41.867188 28.65625 L 41.046875 28.65625 L 41.046875 29.472656 L 41.867188 29.472656 Z M 42.6875 27.839844 L 41.867188 27.839844 L 41.867188 28.65625 L 42.6875 28.65625 Z M 42.6875 25.386719 L 42.6875 26.203125 L 43.503906 26.203125 L 43.503906 25.386719 Z M 42.6875 23.753906 L 42.6875 24.570312 L 43.503906 24.570312 L 43.503906 23.753906 Z M 44.324219 22.9375 L 43.503906 22.9375 L 43.503906 23.753906 L 44.324219 23.753906 Z M 44.324219 21.300781 L 43.503906 21.300781 L 43.503906 22.121094 L 44.324219 22.121094 Z M 43.503906 27.023438 L 42.6875 27.023438 L 42.6875 27.839844 L 43.503906 27.839844 Z M 44.324219 26.203125 L 43.503906 26.203125 L 43.503906 27.023438 L 44.324219 27.023438 Z M 44.324219 26.203125 L 45.144531 26.203125 L 45.144531 25.386719 L 44.324219 25.386719 Z M 44.324219 24.570312 L 43.503906 24.570312 L 43.503906 25.386719 L 44.324219 25.386719 Z M 45.964844 25.386719 L 45.964844 24.570312 L 45.144531 24.570312 L 45.144531 25.386719 Z M 44.324219 24.570312 L 45.144531 24.570312 L 45.144531 23.753906 L 44.324219 23.753906 Z M 45.144531 23.753906 L 45.964844 23.753906 L 45.964844 22.9375 L 45.144531 22.9375 Z M 44.324219 22.9375 L 45.144531 22.9375 L 45.144531 22.121094 L 44.324219 22.121094 Z M 46.785156 22.9375 L 46.785156 22.121094 L 45.964844 22.121094 L 45.964844 22.9375 Z M 45.144531 22.121094 L 45.964844 22.121094 L 45.964844 21.300781 L 45.144531 21.300781 Z M 44.324219 19.667969 L 43.503906 19.667969 L 43.503906 20.484375 L 44.324219 20.484375 Z M 44.324219 21.300781 L 45.144531 21.300781 L 45.144531 20.484375 L 44.324219 20.484375 Z M 46.785156 21.300781 L 46.785156 20.484375 L 45.964844 20.484375 L 45.964844 21.300781 Z M 45.144531 19.667969 L 45.144531 20.484375 L 45.964844 20.484375 L 45.964844 19.667969 Z M 44.324219 18.035156 L 43.503906 18.035156 L 43.503906 18.851562 L 44.324219 18.851562 Z M 44.324219 18.851562 L 44.324219 19.667969 L 45.144531 19.667969 L 45.144531 18.851562 Z M 46.785156 19.667969 L 46.785156 18.851562 L 45.964844 18.851562 L 45.964844 19.667969 Z M 45.964844 18.851562 L 45.964844 18.035156 L 45.144531 18.035156 L 45.144531 18.851562 Z M 44.324219 16.398438 L 43.503906 16.398438 L 43.503906 17.214844 L 44.324219 17.214844 Z M 44.324219 18.035156 L 45.144531 18.035156 L 45.144531 17.214844 L 44.324219 17.214844 Z M 45.964844 17.214844 L 45.964844 16.398438 L 45.144531 16.398438 L 45.144531 17.214844 Z M 44.324219 14.765625 L 43.503906 14.765625 L 43.503906 15.582031 L 44.324219 15.582031 Z M 44.324219 16.398438 L 45.144531 16.398438 L 45.144531 15.582031 L 44.324219 15.582031 Z M 45.964844 15.582031 L 45.964844 14.765625 L 45.144531 14.765625 L 45.144531 15.582031 Z M 43.503906 13.949219 L 44.324219 13.949219 L 44.324219 13.132812 L 43.503906 13.132812 Z M 45.144531 14.765625 L 45.144531 13.949219 L 44.324219 13.949219 L 44.324219 14.765625 Z M 45.144531 29.472656 L 45.144531 28.65625 L 44.324219 28.65625 L 44.324219 29.472656 Z M 45.144531 13.132812 L 45.144531 12.3125 L 44.324219 12.3125 L 44.324219 13.132812 Z M 42.6875 13.949219 L 42.6875 14.765625 L 43.503906 14.765625 L 43.503906 13.949219 Z M 41.867188 13.132812 L 41.867188 13.949219 L 42.6875 13.949219 L 42.6875 13.132812 Z M 41.046875 12.3125 L 41.046875 13.132812 L 41.867188 13.132812 L 41.867188 12.3125 Z M 40.226562 11.496094 L 40.226562 12.3125 L 41.046875 12.3125 L 41.046875 11.496094 Z M 39.40625 10.679688 L 39.40625 11.496094 L 40.226562 11.496094 L 40.226562 10.679688 Z M 38.585938 9.863281 L 38.585938 10.679688 L 39.40625 10.679688 L 39.40625 9.863281 Z M 37.765625 9.046875 L 37.765625 9.863281 L 38.585938 9.863281 L 38.585938 9.046875 Z M 36.945312 8.230469 L 36.945312 9.046875 L 37.765625 9.046875 L 37.765625 8.230469 Z M 36.128906 7.410156 L 36.128906 8.230469 L 36.945312 8.230469 L 36.945312 7.410156 Z M 36.128906 5.777344 L 36.128906 6.59375 L 36.945312 6.59375 L 36.945312 5.777344 Z M 37.765625 6.59375 L 36.945312 6.59375 L 36.945312 7.410156 L 37.765625 7.410156 Z M 38.585938 5.777344 L 37.765625 5.777344 L 37.765625 6.59375 L 38.585938 6.59375 Z M 37.765625 7.410156 L 37.765625 8.230469 L 38.585938 8.230469 L 38.585938 7.410156 Z M 39.40625 7.410156 L 39.40625 6.59375 L 38.585938 6.59375 L 38.585938 7.410156 Z M 38.585938 8.230469 L 38.585938 9.046875 L 39.40625 9.046875 L 39.40625 8.230469 Z M 40.226562 8.230469 L 40.226562 7.410156 L 39.40625 7.410156 L 39.40625 8.230469 Z M 41.046875 6.59375 L 40.226562 6.59375 L 40.226562 7.410156 L 41.046875 7.410156 Z M 39.40625 9.046875 L 39.40625 9.863281 L 40.226562 9.863281 L 40.226562 9.046875 Z M 41.046875 9.046875 L 41.046875 8.230469 L 40.226562 8.230469 L 40.226562 9.046875 Z M 41.867188 8.230469 L 41.867188 7.410156 L 41.046875 7.410156 L 41.046875 8.230469 Z M 40.226562 9.863281 L 40.226562 10.679688 L 41.046875 10.679688 L 41.046875 9.863281 Z M 41.867188 9.863281 L 41.867188 9.046875 L 41.046875 9.046875 L 41.046875 9.863281 Z M 42.6875 9.046875 L 42.6875 8.230469 L 41.867188 8.230469 L 41.867188 9.046875 Z M 41.046875 10.679688 L 41.046875 11.496094 L 41.867188 11.496094 L 41.867188 10.679688 Z M 41.867188 10.679688 L 42.6875 10.679688 L 42.6875 9.863281 L 41.867188 9.863281 Z M 43.503906 9.863281 L 43.503906 9.046875 L 42.6875 9.046875 L 42.6875 9.863281 Z M 41.867188 11.496094 L 41.867188 12.3125 L 42.6875 12.3125 L 42.6875 11.496094 Z M 43.503906 11.496094 L 43.503906 10.679688 L 42.6875 10.679688 L 42.6875 11.496094 Z M 42.6875 12.3125 L 42.6875 13.132812 L 43.503906 13.132812 L 43.503906 12.3125 Z M 44.324219 12.3125 L 44.324219 11.496094 L 43.503906 11.496094 L 43.503906 12.3125 Z M 42.6875 22.121094 L 42.6875 22.9375 L 43.503906 22.9375 L 43.503906 22.121094 Z M 42.6875 20.484375 L 42.6875 21.300781 L 43.503906 21.300781 L 43.503906 20.484375 Z M 42.6875 18.851562 L 42.6875 19.667969 L 43.503906 19.667969 L 43.503906 18.851562 Z M 42.6875 17.214844 L 42.6875 18.035156 L 43.503906 18.035156 L 43.503906 17.214844 Z M 42.6875 15.582031 L 42.6875 16.398438 L 43.503906 16.398438 L 43.503906 15.582031 Z M 42.6875 15.582031 " fill-opacity="1" fill-rule="nonzero"/></g><path fill="#ffffff" d="M 24.652344 44.179688 L 24.652344 39.277344 L 25.46875 39.277344 L 25.46875 44.179688 Z M 24.652344 39.277344 L 24.652344 38.460938 L 23.832031 38.460938 L 23.832031 39.277344 Z M 23.832031 38.460938 L 23.832031 37.644531 L 23.011719 37.644531 L 23.011719 38.460938 Z M 23.011719 37.644531 L 23.011719 36.828125 L 21.371094 36.828125 L 21.371094 37.644531 Z M 21.371094 36.828125 L 21.371094 36.007812 L 20.550781 36.007812 L 20.550781 36.828125 Z M 20.550781 36.007812 L 20.550781 35.191406 L 19.730469 35.191406 L 19.730469 36.007812 Z M 19.730469 35.191406 L 19.730469 34.375 L 18.914062 34.375 L 18.914062 35.191406 Z M 18.914062 34.375 L 18.914062 33.558594 L 18.09375 33.558594 L 18.09375 34.375 Z M 18.09375 33.558594 L 18.09375 32.742188 L 17.273438 32.742188 L 17.273438 33.558594 Z M 17.273438 32.742188 L 17.273438 31.105469 L 16.453125 31.105469 L 16.453125 32.742188 Z M 16.453125 31.105469 L 16.453125 29.472656 L 15.632812 29.472656 L 15.632812 31.105469 Z M 15.632812 29.472656 L 15.632812 27.839844 L 14.8125 27.839844 L 14.8125 29.472656 Z M 14.8125 27.839844 L 14.8125 23.753906 L 13.992188 23.753906 L 13.992188 27.839844 Z M 13.992188 18.035156 L 14.8125 18.035156 L 14.8125 13.949219 L 13.992188 13.949219 Z M 13.175781 23.753906 L 13.992188 23.753906 L 13.992188 18.035156 L 13.175781 18.035156 Z M 14.8125 13.949219 L 15.632812 13.949219 L 15.632812 12.3125 L 14.8125 12.3125 Z M 15.632812 12.3125 L 16.453125 12.3125 L 16.453125 10.679688 L 15.632812 10.679688 Z M 16.453125 10.679688 L 17.273438 10.679688 L 17.273438 9.046875 L 16.453125 9.046875 Z M 17.273438 9.046875 L 18.09375 9.046875 L 18.09375 8.230469 L 17.273438 8.230469 Z M 18.09375 8.230469 L 18.914062 8.230469 L 18.914062 7.410156 L 18.09375 7.410156 Z M 18.914062 7.410156 L 20.550781 7.410156 L 20.550781 6.59375 L 18.914062 6.59375 Z M 20.550781 6.59375 L 21.371094 6.59375 L 21.371094 5.777344 L 20.550781 5.777344 Z M 21.371094 5.777344 L 23.832031 5.777344 L 23.832031 4.960938 L 21.371094 4.960938 Z M 23.832031 4.960938 L 26.289062 4.960938 L 26.289062 4.144531 L 23.832031 4.144531 Z M 26.289062 3.328125 L 26.289062 4.144531 L 33.667969 4.144531 L 33.667969 3.328125 Z M 33.667969 4.144531 L 33.667969 4.960938 L 36.128906 4.960938 L 36.128906 4.144531 Z M 36.128906 5.777344 L 38.585938 5.777344 L 38.585938 4.960938 L 36.128906 4.960938 Z M 23.011719 45.816406 L 33.667969 45.816406 L 33.667969 44.996094 L 23.011719 44.996094 Z M 22.191406 47.449219 L 23.011719 47.449219 L 23.011719 45.816406 L 22.191406 45.816406 Z M 20.550781 49.082031 L 24.652344 49.082031 L 24.652344 48.265625 L 20.550781 48.265625 Z M 24.652344 52.351562 L 20.550781 52.351562 L 20.550781 53.167969 L 24.652344 53.167969 Z M 22.191406 53.984375 L 22.191406 55.621094 L 23.011719 55.621094 L 23.011719 53.984375 Z M 23.011719 56.4375 L 26.289062 56.4375 L 26.289062 55.621094 L 23.011719 55.621094 Z M 27.109375 56.4375 L 27.929688 56.4375 L 27.929688 55.621094 L 27.109375 55.621094 Z M 28.75 56.4375 L 29.570312 56.4375 L 29.570312 55.621094 L 28.75 55.621094 Z M 29.570312 44.179688 L 29.570312 30.289062 L 28.75 30.289062 L 28.75 44.179688 Z M 27.929688 25.386719 L 27.929688 30.289062 L 28.75 30.289062 L 28.75 25.386719 Z M 27.109375 23.753906 L 27.109375 25.386719 L 27.929688 25.386719 L 27.929688 23.753906 Z M 27.929688 22.9375 L 27.929688 19.667969 L 27.109375 19.667969 L 27.109375 22.9375 Z M 27.109375 19.667969 L 27.109375 17.214844 L 26.289062 17.214844 L 26.289062 19.667969 Z M 26.289062 17.214844 L 26.289062 16.398438 L 25.46875 16.398438 L 25.46875 17.214844 Z M 25.46875 16.398438 L 25.46875 15.582031 L 24.652344 15.582031 L 24.652344 16.398438 Z M 23.832031 14.765625 L 23.832031 15.582031 L 24.652344 15.582031 L 24.652344 14.765625 Z M 20.550781 16.398438 L 18.914062 16.398438 L 18.914062 17.214844 L 20.550781 17.214844 Z M 18.09375 17.214844 L 18.09375 21.300781 L 18.914062 21.300781 L 18.914062 17.214844 Z M 18.914062 21.300781 L 18.914062 22.121094 L 20.550781 22.121094 L 20.550781 21.300781 Z M 26.289062 22.9375 L 26.289062 22.121094 L 20.550781 22.121094 L 20.550781 22.9375 Z M 21.371094 15.582031 L 20.550781 15.582031 L 20.550781 16.398438 L 21.371094 16.398438 Z M 36.945312 15.582031 L 36.128906 15.582031 L 36.128906 16.398438 L 36.945312 16.398438 Z M 36.128906 16.398438 L 35.308594 16.398438 L 35.308594 17.214844 L 36.128906 17.214844 Z M 35.308594 17.214844 L 34.488281 17.214844 L 34.488281 19.667969 L 35.308594 19.667969 Z M 34.488281 19.667969 L 33.667969 19.667969 L 33.667969 22.9375 L 34.488281 22.9375 Z M 33.667969 25.386719 L 34.488281 25.386719 L 34.488281 23.753906 L 33.667969 23.753906 Z M 32.847656 30.289062 L 33.667969 30.289062 L 33.667969 25.386719 L 32.847656 25.386719 Z M 32.027344 44.179688 L 32.847656 44.179688 L 32.847656 30.289062 L 32.027344 30.289062 Z M 39.40625 23.753906 L 41.046875 23.753906 L 41.046875 22.9375 L 39.40625 22.9375 Z M 41.046875 22.9375 L 41.867188 22.9375 L 41.867188 22.121094 L 41.046875 22.121094 Z M 41.867188 22.121094 L 42.6875 22.121094 L 42.6875 21.300781 L 41.867188 21.300781 Z M 41.867188 16.398438 L 41.867188 17.214844 L 42.6875 17.214844 L 42.6875 16.398438 Z M 41.046875 15.582031 L 41.046875 16.398438 L 41.867188 16.398438 L 41.867188 15.582031 Z M 39.40625 14.765625 L 39.40625 15.582031 L 41.046875 15.582031 L 41.046875 14.765625 Z M 23.011719 49.898438 L 22.191406 49.898438 L 22.191406 51.535156 L 23.011719 51.535156 L 23.011719 50.71875 L 23.832031 50.71875 L 23.832031 49.898438 Z M 24.652344 49.898438 L 24.652344 50.71875 L 25.46875 50.71875 L 25.46875 49.898438 Z M 26.289062 49.898438 L 26.289062 50.71875 L 27.109375 50.71875 L 27.109375 49.898438 Z M 27.929688 49.898438 L 27.929688 50.71875 L 28.75 50.71875 L 28.75 49.898438 Z M 29.570312 49.898438 L 29.570312 50.71875 L 30.390625 50.71875 L 30.390625 49.898438 Z M 31.207031 49.898438 L 31.207031 50.71875 L 32.027344 50.71875 L 32.027344 49.898438 Z M 32.847656 49.898438 L 32.847656 50.71875 L 33.667969 50.71875 L 33.667969 49.898438 Z M 34.488281 49.898438 L 34.488281 50.71875 L 35.308594 50.71875 L 35.308594 49.898438 Z M 36.128906 49.898438 L 36.128906 50.71875 L 36.945312 50.71875 L 36.945312 49.898438 Z M 23.832031 51.535156 L 24.652344 51.535156 L 24.652344 50.71875 L 23.832031 50.71875 Z M 25.46875 51.535156 L 26.289062 51.535156 L 26.289062 50.71875 L 25.46875 50.71875 Z M 27.109375 51.535156 L 27.929688 51.535156 L 27.929688 50.71875 L 27.109375 50.71875 Z M 28.75 51.535156 L 29.570312 51.535156 L 29.570312 50.71875 L 28.75 50.71875 Z M 30.390625 51.535156 L 31.207031 51.535156 L 31.207031 50.71875 L 30.390625 50.71875 Z M 32.027344 51.535156 L 32.847656 51.535156 L 32.847656 50.71875 L 32.027344 50.71875 Z M 33.667969 51.535156 L 34.488281 51.535156 L 34.488281 50.71875 L 33.667969 50.71875 Z M 35.308594 51.535156 L 36.128906 51.535156 L 36.128906 50.71875 L 35.308594 50.71875 Z M 36.945312 51.535156 L 37.765625 51.535156 L 37.765625 50.71875 L 36.945312 50.71875 Z M 36.945312 51.535156 " fill-opacity="1" fill-rule="nonzero"/><path fill="#000000" d="M 27.929688 44.179688 L 27.929688 30.289062 L 28.75 30.289062 L 28.75 44.179688 Z M 27.929688 30.289062 L 27.929688 25.386719 L 27.109375 25.386719 L 27.109375 30.289062 Z M 26.289062 19.667969 L 26.289062 17.214844 L 25.46875 17.214844 L 25.46875 19.667969 Z M 25.46875 17.214844 L 25.46875 16.398438 L 24.652344 16.398438 L 24.652344 17.214844 Z M 24.652344 16.398438 L 24.652344 15.582031 L 23.832031 15.582031 L 23.832031 16.398438 Z M 23.832031 14.765625 L 20.550781 14.765625 L 20.550781 15.582031 L 23.832031 15.582031 Z M 20.550781 15.582031 L 18.914062 15.582031 L 18.914062 16.398438 L 20.550781 16.398438 Z M 18.914062 16.398438 L 18.09375 16.398438 L 18.09375 17.214844 L 18.914062 17.214844 Z M 17.273438 17.214844 L 17.273438 21.300781 L 18.09375 21.300781 L 18.09375 17.214844 Z M 18.09375 21.300781 L 18.09375 22.121094 L 18.914062 22.121094 L 18.914062 21.300781 Z M 18.914062 22.121094 L 18.914062 22.9375 L 20.550781 22.9375 L 20.550781 22.121094 Z M 31.207031 44.179688 L 32.027344 44.179688 L 32.027344 30.289062 L 31.207031 30.289062 Z M 32.027344 30.289062 L 32.847656 30.289062 L 32.847656 25.386719 L 32.027344 25.386719 Z M 33.667969 19.667969 L 32.847656 19.667969 L 32.847656 22.9375 L 27.109375 22.9375 L 27.109375 19.667969 L 26.289062 19.667969 L 26.289062 22.9375 L 20.550781 22.9375 L 20.550781 23.753906 L 26.289062 23.753906 L 26.289062 25.386719 L 27.109375 25.386719 L 27.109375 23.753906 L 32.847656 23.753906 L 32.847656 25.386719 L 33.667969 25.386719 L 33.667969 23.753906 L 39.40625 23.753906 L 39.40625 22.9375 L 33.667969 22.9375 Z M 34.488281 17.214844 L 33.667969 17.214844 L 33.667969 19.667969 L 34.488281 19.667969 Z M 35.308594 16.398438 L 34.488281 16.398438 L 34.488281 17.214844 L 35.308594 17.214844 Z M 36.128906 15.582031 L 35.308594 15.582031 L 35.308594 16.398438 L 36.128906 16.398438 Z M 39.40625 14.765625 L 36.128906 14.765625 L 36.128906 15.582031 L 39.40625 15.582031 Z M 41.046875 16.398438 L 41.046875 15.582031 L 39.40625 15.582031 L 39.40625 16.398438 Z M 41.867188 17.214844 L 41.867188 16.398438 L 41.046875 16.398438 L 41.046875 17.214844 Z M 41.867188 17.214844 L 41.867188 21.300781 L 42.6875 21.300781 L 42.6875 17.214844 Z M 41.046875 22.121094 L 41.867188 22.121094 L 41.867188 21.300781 L 41.046875 21.300781 Z M 39.40625 22.9375 L 41.046875 22.9375 L 41.046875 22.121094 L 39.40625 22.121094 Z M 39.40625 22.9375 " fill-opacity="1" fill-rule="nonzero"/></svg>