<svg xmlns="http://www.w3.org/2000/svg" xmlns:xlink="http://www.w3.org/1999/xlink" width="80" zoomAndPan="magnify" viewBox="0 0 60 60" height="80" preserveAspectRatio="xMidYMid meet" version="1.0"><defs><clipPath id="51c5b1f1ba"><path d="M 9.621094 4.113281 L 50.121094 4.113281 L 50.121094 55.863281 L 9.621094 55.863281 Z M 9.621094 4.113281 " clip-rule="nonzero"/></clipPath><clipPath id="fb3393a446"><path d="M 10 4.113281 L 50 4.113281 L 50 55 L 10 55 Z M 10 4.113281 " clip-rule="nonzero"/></clipPath><clipPath id="302b38bc8a"><path d="M 9.621094 5 L 50 5 L 50 55 L 9.621094 55 Z M 9.621094 5 " clip-rule="nonzero"/></clipPath><clipPath id="404f515b3d"><path d="M 12 5 L 50.121094 5 L 50.121094 55.863281 L 12 55.863281 Z M 12 5 " clip-rule="nonzero"/></clipPath></defs><g clip-path="url(#51c5b1f1ba)"><path fill="#807e7e" d="M 50.121094 33.839844 L 50.121094 43.75 L 49.023438 43.75 L 49.023438 44.851562 L 46.835938 44.851562 L 46.835938 45.953125 L 45.742188 45.953125 L 45.742188 47.054688 L 43.550781 47.054688 L 43.550781 48.15625 L 42.457031 48.15625 L 42.457031 49.257812 L 40.269531 49.257812 L 40.269531 50.355469 L 39.171875 50.355469 L 39.171875 51.457031 L 36.984375 51.457031 L 36.984375 52.558594 L 35.890625 52.558594 L 35.890625 53.660156 L 33.699219 53.660156 L 33.699219 54.761719 L 32.605469 54.761719 L 32.605469 55.863281 L 28.226562 55.863281 L 28.226562 54.761719 L 27.132812 54.761719 L 27.132812 53.660156 L 24.945312 53.660156 L 24.945312 52.558594 L 23.847656 52.558594 L 23.847656 51.457031 L 21.660156 51.457031 L 21.660156 50.355469 L 20.566406 50.355469 L 20.566406 49.257812 L 18.375 49.257812 L 18.375 48.15625 L 17.28125 48.15625 L 17.28125 47.054688 L 15.09375 47.054688 L 15.09375 45.953125 L 13.996094 45.953125 L 13.996094 44.851562 L 11.808594 44.851562 L 11.808594 43.75 L 10.714844 43.75 L 10.714844 42.648438 L 9.621094 42.648438 L 9.621094 34.941406 L 10.714844 34.941406 L 10.714844 33.839844 L 11.808594 33.839844 L 11.808594 32.738281 L 12.902344 32.738281 L 12.902344 31.640625 L 13.996094 31.640625 L 13.996094 30.539062 L 12.902344 30.539062 L 12.902344 29.4375 L 11.808594 29.4375 L 11.808594 9.617188 L 12.902344 9.617188 L 12.902344 8.515625 L 13.996094 8.515625 L 13.996094 7.414062 L 16.1875 7.414062 L 16.1875 6.316406 L 17.28125 6.316406 L 17.28125 5.214844 L 19.472656 5.214844 L 19.472656 4.113281 L 21.660156 4.113281 L 21.660156 5.214844 L 23.847656 5.214844 L 23.847656 6.316406 L 26.039062 6.316406 L 26.039062 7.414062 L 28.226562 7.414062 L 28.226562 6.316406 L 30.417969 6.316406 L 30.417969 5.214844 L 32.605469 5.214844 L 32.605469 6.316406 L 33.699219 6.316406 L 33.699219 7.414062 L 35.890625 7.414062 L 35.890625 8.515625 L 36.984375 8.515625 L 36.984375 9.617188 L 39.171875 9.617188 L 39.171875 10.71875 L 40.269531 10.71875 L 40.269531 11.820312 L 41.363281 11.820312 L 41.363281 12.921875 L 42.457031 12.921875 L 42.457031 14.023438 L 43.550781 14.023438 L 43.550781 26.132812 L 42.457031 26.132812 L 42.457031 27.234375 L 41.363281 27.234375 L 41.363281 28.335938 L 42.457031 28.335938 L 42.457031 29.4375 L 43.550781 29.4375 L 43.550781 30.539062 L 45.742188 30.539062 L 45.742188 31.640625 L 46.835938 31.640625 L 46.835938 32.738281 L 49.023438 32.738281 L 49.023438 33.839844 Z M 50.121094 33.839844 " fill-opacity="1" fill-rule="nonzero"/></g><g clip-path="url(#fb3393a446)"><path fill="#cccccc" d="M 13.996094 30.539062 L 16.1875 30.539062 L 16.1875 31.640625 L 17.28125 31.640625 L 17.28125 32.738281 L 19.472656 32.738281 L 19.472656 33.839844 L 20.566406 33.839844 L 20.566406 34.941406 L 22.753906 34.941406 L 22.753906 36.042969 L 23.847656 36.042969 L 23.847656 37.144531 L 26.039062 37.144531 L 26.039062 38.246094 L 29.320312 38.246094 L 29.320312 18.425781 L 27.132812 18.425781 L 27.132812 17.324219 L 26.039062 17.324219 L 26.039062 16.222656 L 23.847656 16.222656 L 23.847656 15.125 L 22.753906 15.125 L 22.753906 14.023438 L 20.566406 14.023438 L 20.566406 12.921875 L 19.472656 12.921875 L 19.472656 11.820312 L 17.28125 11.820312 L 17.28125 10.71875 L 16.1875 10.71875 L 16.1875 9.617188 L 13.996094 9.617188 L 13.996094 8.515625 L 12.902344 8.515625 L 12.902344 29.4375 L 13.996094 29.4375 Z M 15.09375 14.023438 L 15.09375 12.921875 L 17.28125 12.921875 L 17.28125 14.023438 L 18.375 14.023438 L 18.375 15.125 L 20.566406 15.125 L 20.566406 16.222656 L 21.660156 16.222656 L 21.660156 17.324219 L 23.847656 17.324219 L 23.847656 18.425781 L 24.945312 18.425781 L 24.945312 19.527344 L 27.132812 19.527344 L 27.132812 20.628906 L 28.226562 20.628906 L 28.226562 33.839844 L 27.132812 33.839844 L 27.132812 34.941406 L 24.945312 34.941406 L 24.945312 33.839844 L 23.847656 33.839844 L 23.847656 32.738281 L 21.660156 32.738281 L 21.660156 31.640625 L 20.566406 31.640625 L 20.566406 30.539062 L 18.375 30.539062 L 18.375 29.4375 L 17.28125 29.4375 L 17.28125 28.335938 L 15.09375 28.335938 L 15.09375 27.234375 L 13.996094 27.234375 L 13.996094 14.023438 Z M 28.226562 45.953125 L 27.132812 45.953125 L 27.132812 44.851562 L 24.945312 44.851562 L 24.945312 43.75 L 23.847656 43.75 L 23.847656 42.648438 L 21.660156 42.648438 L 21.660156 41.546875 L 20.566406 41.546875 L 20.566406 40.449219 L 18.375 40.449219 L 18.375 39.347656 L 17.28125 39.347656 L 17.28125 38.246094 L 15.09375 38.246094 L 15.09375 37.144531 L 13.996094 37.144531 L 13.996094 36.042969 L 11.808594 36.042969 L 11.808594 33.839844 L 10.714844 33.839844 L 10.714844 42.648438 L 11.808594 42.648438 L 11.808594 43.75 L 13.996094 43.75 L 13.996094 44.851562 L 15.09375 44.851562 L 15.09375 45.953125 L 17.28125 45.953125 L 17.28125 47.054688 L 18.375 47.054688 L 18.375 48.15625 L 20.566406 48.15625 L 20.566406 49.257812 L 21.660156 49.257812 L 21.660156 50.355469 L 23.847656 50.355469 L 23.847656 51.457031 L 24.945312 51.457031 L 24.945312 52.558594 L 27.132812 52.558594 L 27.132812 53.660156 L 28.226562 53.660156 L 28.226562 54.761719 L 30.417969 54.761719 L 30.417969 47.054688 L 28.226562 47.054688 Z M 47.929688 36.042969 L 47.929688 37.144531 L 45.742188 37.144531 L 45.742188 38.246094 L 43.550781 38.246094 L 43.550781 39.347656 L 42.457031 39.347656 L 42.457031 40.449219 L 40.269531 40.449219 L 40.269531 41.546875 L 39.171875 41.546875 L 39.171875 42.648438 L 36.984375 42.648438 L 36.984375 43.75 L 35.890625 43.75 L 35.890625 44.851562 L 33.699219 44.851562 L 33.699219 45.953125 L 32.605469 45.953125 L 32.605469 47.054688 L 31.511719 47.054688 L 31.511719 54.761719 L 32.605469 54.761719 L 32.605469 53.660156 L 33.699219 53.660156 L 33.699219 52.558594 L 35.890625 52.558594 L 35.890625 51.457031 L 36.984375 51.457031 L 36.984375 50.355469 L 39.171875 50.355469 L 39.171875 49.257812 L 40.269531 49.257812 L 40.269531 48.15625 L 42.457031 48.15625 L 42.457031 47.054688 L 43.550781 47.054688 L 43.550781 45.953125 L 45.742188 45.953125 L 45.742188 44.851562 L 46.835938 44.851562 L 46.835938 43.75 L 49.023438 43.75 L 49.023438 36.042969 Z M 16.1875 7.414062 L 13.996094 7.414062 L 13.996094 8.515625 L 16.1875 8.515625 Z M 17.28125 6.316406 L 16.1875 6.316406 L 16.1875 7.414062 L 17.28125 7.414062 Z M 19.472656 5.214844 L 17.28125 5.214844 L 17.28125 6.316406 L 19.472656 6.316406 Z M 21.660156 4.113281 L 19.472656 4.113281 L 19.472656 5.214844 L 21.660156 5.214844 Z M 12.902344 32.738281 L 11.808594 32.738281 L 11.808594 33.839844 L 12.902344 33.839844 Z M 13.996094 31.640625 L 12.902344 31.640625 L 12.902344 32.738281 L 13.996094 32.738281 Z M 40.269531 16.222656 L 38.078125 16.222656 L 38.078125 17.324219 L 40.269531 17.324219 Z M 42.457031 15.125 L 40.269531 15.125 L 40.269531 16.222656 L 42.457031 16.222656 Z M 42.457031 15.125 " fill-opacity="1" fill-rule="nonzero"/></g><g clip-path="url(#302b38bc8a)"><path fill="#807e7e" d="M 33.699219 36.042969 L 33.699219 34.941406 L 35.890625 34.941406 L 35.890625 33.839844 L 36.984375 33.839844 L 36.984375 31.640625 L 38.078125 31.640625 L 38.078125 29.4375 L 36.984375 29.4375 L 36.984375 15.125 L 35.890625 15.125 L 35.890625 16.222656 L 34.796875 16.222656 L 34.796875 15.125 L 35.890625 15.125 L 35.890625 14.023438 L 34.796875 14.023438 L 34.796875 12.921875 L 32.605469 12.921875 L 32.605469 11.820312 L 31.511719 11.820312 L 31.511719 10.71875 L 29.320312 10.71875 L 29.320312 9.617188 L 28.226562 9.617188 L 28.226562 8.515625 L 26.039062 8.515625 L 26.039062 7.414062 L 23.847656 7.414062 L 23.847656 6.316406 L 21.660156 6.316406 L 21.660156 5.214844 L 19.472656 5.214844 L 19.472656 6.316406 L 17.28125 6.316406 L 17.28125 7.414062 L 16.1875 7.414062 L 16.1875 8.515625 L 13.996094 8.515625 L 13.996094 9.617188 L 16.1875 9.617188 L 16.1875 10.71875 L 17.28125 10.71875 L 17.28125 11.820312 L 19.472656 11.820312 L 19.472656 12.921875 L 20.566406 12.921875 L 20.566406 14.023438 L 22.753906 14.023438 L 22.753906 15.125 L 23.847656 15.125 L 23.847656 16.222656 L 26.039062 16.222656 L 26.039062 17.324219 L 27.132812 17.324219 L 27.132812 18.425781 L 29.320312 18.425781 L 29.320312 37.417969 L 30.417969 37.417969 L 30.417969 37.144531 L 31.511719 37.144531 L 31.511719 36.042969 Z M 32.605469 16.222656 L 33.699219 16.222656 L 33.699219 17.324219 L 32.605469 17.324219 Z M 30.417969 18.425781 L 30.417969 17.324219 L 31.511719 17.324219 L 31.511719 18.425781 Z M 47.929688 36.042969 L 47.929688 34.941406 L 49.023438 34.941406 L 49.023438 33.839844 L 46.835938 33.839844 L 46.835938 32.738281 L 45.742188 32.738281 L 45.742188 31.640625 L 43.550781 31.640625 L 43.550781 30.539062 L 42.457031 30.539062 L 42.457031 29.4375 L 39.171875 29.4375 L 39.171875 31.640625 L 38.078125 31.640625 L 38.078125 33.839844 L 36.984375 33.839844 L 36.984375 34.941406 L 35.890625 34.941406 L 35.890625 36.042969 L 33.699219 36.042969 L 33.699219 37.144531 L 31.511719 37.144531 L 31.511719 38.246094 L 29.320312 38.246094 L 29.320312 39.347656 L 26.039062 39.347656 L 26.039062 38.246094 L 23.847656 38.246094 L 23.847656 37.144531 L 22.753906 37.144531 L 22.753906 36.042969 L 20.566406 36.042969 L 20.566406 34.941406 L 19.472656 34.941406 L 19.472656 33.839844 L 17.28125 33.839844 L 17.28125 32.738281 L 16.1875 32.738281 L 16.1875 31.640625 L 13.996094 31.640625 L 13.996094 32.738281 L 12.902344 32.738281 L 12.902344 33.839844 L 11.808594 33.839844 L 11.808594 36.042969 L 13.996094 36.042969 L 13.996094 37.144531 L 15.09375 37.144531 L 15.09375 38.246094 L 17.28125 38.246094 L 17.28125 39.347656 L 18.375 39.347656 L 18.375 40.449219 L 20.566406 40.449219 L 20.566406 41.546875 L 21.660156 41.546875 L 21.660156 42.648438 L 23.847656 42.648438 L 23.847656 43.75 L 24.945312 43.75 L 24.945312 44.851562 L 27.132812 44.851562 L 27.132812 45.953125 L 28.226562 45.953125 L 28.226562 47.054688 L 30.417969 47.054688 L 30.417969 54.761719 L 32.605469 54.761719 L 32.605469 53.660156 L 31.511719 53.660156 L 31.511719 52.558594 L 32.605469 52.558594 L 32.605469 51.457031 L 31.511719 51.457031 L 31.511719 50.355469 L 32.605469 50.355469 L 32.605469 49.257812 L 31.511719 49.257812 L 31.511719 48.15625 L 32.605469 48.15625 L 32.605469 47.054688 L 31.511719 47.054688 L 31.511719 45.953125 L 32.605469 45.953125 L 32.605469 44.851562 L 33.699219 44.851562 L 33.699219 43.75 L 35.890625 43.75 L 35.890625 42.648438 L 36.984375 42.648438 L 36.984375 41.546875 L 39.171875 41.546875 L 39.171875 40.449219 L 40.269531 40.449219 L 40.269531 39.347656 L 42.457031 39.347656 L 42.457031 38.246094 L 43.550781 38.246094 L 43.550781 37.144531 L 45.742188 37.144531 L 45.742188 36.042969 Z M 27.132812 54.761719 L 28.226562 54.761719 L 28.226562 53.660156 L 27.132812 53.660156 Z M 24.945312 52.558594 L 24.945312 53.660156 L 27.132812 53.660156 L 27.132812 52.558594 Z M 23.847656 51.457031 L 23.847656 52.558594 L 24.945312 52.558594 L 24.945312 51.457031 Z M 21.660156 50.355469 L 21.660156 51.457031 L 23.847656 51.457031 L 23.847656 50.355469 Z M 20.566406 49.257812 L 20.566406 50.355469 L 21.660156 50.355469 L 21.660156 49.257812 Z M 18.375 48.15625 L 18.375 49.257812 L 20.566406 49.257812 L 20.566406 48.15625 Z M 17.28125 47.054688 L 17.28125 48.15625 L 18.375 48.15625 L 18.375 47.054688 Z M 15.09375 45.953125 L 15.09375 47.054688 L 17.28125 47.054688 L 17.28125 45.953125 Z M 13.996094 44.851562 L 13.996094 45.953125 L 15.09375 45.953125 L 15.09375 44.851562 Z M 11.808594 43.75 L 11.808594 44.851562 L 13.996094 44.851562 L 13.996094 43.75 Z M 10.714844 42.648438 L 10.714844 43.75 L 11.808594 43.75 L 11.808594 42.648438 Z M 9.621094 34.941406 L 9.621094 42.648438 L 10.714844 42.648438 L 10.714844 34.941406 Z M 29.320312 9.617188 L 31.511719 9.617188 L 31.511719 10.71875 L 32.605469 10.71875 L 32.605469 11.820312 L 34.796875 11.820312 L 34.796875 12.921875 L 35.890625 12.921875 L 35.890625 14.023438 L 36.984375 14.023438 L 36.984375 15.125 L 38.078125 15.125 L 38.078125 16.222656 L 40.269531 16.222656 L 40.269531 15.125 L 42.457031 15.125 L 42.457031 14.023438 L 41.363281 14.023438 L 41.363281 12.921875 L 40.269531 12.921875 L 40.269531 11.820312 L 39.171875 11.820312 L 39.171875 10.71875 L 36.984375 10.71875 L 36.984375 9.617188 L 35.890625 9.617188 L 35.890625 8.515625 L 33.699219 8.515625 L 33.699219 7.414062 L 32.605469 7.414062 L 32.605469 6.316406 L 30.417969 6.316406 L 30.417969 7.414062 L 28.226562 7.414062 L 28.226562 8.515625 L 29.320312 8.515625 Z M 38.078125 17.324219 L 38.078125 29.4375 L 39.171875 29.4375 L 39.171875 28.335938 L 40.269531 28.335938 L 40.269531 27.234375 L 41.363281 27.234375 L 41.363281 26.132812 L 42.457031 26.132812 L 42.457031 16.222656 L 40.269531 16.222656 L 40.269531 17.324219 Z M 27.132812 20.628906 L 27.132812 19.527344 L 24.945312 19.527344 L 24.945312 20.628906 Z M 24.945312 19.527344 L 24.945312 18.425781 L 23.847656 18.425781 L 23.847656 19.527344 Z M 23.847656 18.425781 L 23.847656 17.324219 L 21.660156 17.324219 L 21.660156 18.425781 Z M 21.660156 17.324219 L 21.660156 16.222656 L 20.566406 16.222656 L 20.566406 17.324219 Z M 20.566406 16.222656 L 20.566406 15.125 L 18.375 15.125 L 18.375 16.222656 Z M 18.375 15.125 L 18.375 14.023438 L 17.28125 14.023438 L 17.28125 15.125 Z M 17.28125 12.921875 L 15.09375 12.921875 L 15.09375 14.023438 L 17.28125 14.023438 Z M 15.09375 14.023438 L 13.996094 14.023438 L 13.996094 27.234375 L 15.09375 27.234375 Z M 12.902344 9.617188 L 11.808594 9.617188 L 11.808594 29.4375 L 12.902344 29.4375 Z M 49.023438 37.144531 L 47.929688 37.144531 L 47.929688 38.246094 L 49.023438 38.246094 Z M 49.023438 40.449219 L 49.023438 39.347656 L 47.929688 39.347656 L 47.929688 40.449219 Z M 49.023438 42.648438 L 49.023438 41.546875 L 47.929688 41.546875 L 47.929688 42.648438 Z M 47.929688 39.347656 L 47.929688 38.246094 L 46.835938 38.246094 L 46.835938 39.347656 Z M 46.835938 41.546875 L 47.929688 41.546875 L 47.929688 40.449219 L 46.835938 40.449219 Z M 46.835938 43.75 L 47.929688 43.75 L 47.929688 42.648438 L 46.835938 42.648438 Z M 46.835938 38.246094 L 46.835938 37.144531 L 45.742188 37.144531 L 45.742188 38.246094 Z M 46.835938 40.449219 L 46.835938 39.347656 L 45.742188 39.347656 L 45.742188 40.449219 Z M 45.742188 42.648438 L 46.835938 42.648438 L 46.835938 41.546875 L 45.742188 41.546875 Z M 45.742188 38.246094 L 44.648438 38.246094 L 44.648438 39.347656 L 45.742188 39.347656 Z M 45.742188 40.449219 L 44.648438 40.449219 L 44.648438 41.546875 L 45.742188 41.546875 Z M 44.648438 43.75 L 45.742188 43.75 L 45.742188 42.648438 L 44.648438 42.648438 Z M 44.648438 39.347656 L 43.550781 39.347656 L 43.550781 40.449219 L 44.648438 40.449219 Z M 44.648438 41.546875 L 43.550781 41.546875 L 43.550781 42.648438 L 44.648438 42.648438 Z M 43.550781 40.449219 L 42.457031 40.449219 L 42.457031 41.546875 L 43.550781 41.546875 Z M 42.457031 42.648438 L 42.457031 43.75 L 43.550781 43.75 L 43.550781 42.648438 Z M 43.550781 43.75 L 43.550781 44.851562 L 44.648438 44.851562 L 44.648438 43.75 Z M 42.457031 45.953125 L 43.550781 45.953125 L 43.550781 44.851562 L 42.457031 44.851562 Z M 42.457031 42.648438 L 42.457031 41.546875 L 41.363281 41.546875 L 41.363281 42.648438 Z M 41.363281 41.546875 L 41.363281 40.449219 L 40.269531 40.449219 L 40.269531 41.546875 Z M 41.363281 43.75 L 41.363281 42.648438 L 40.269531 42.648438 L 40.269531 43.75 Z M 41.363281 44.851562 L 42.457031 44.851562 L 42.457031 43.75 L 41.363281 43.75 Z M 40.269531 45.953125 L 41.363281 45.953125 L 41.363281 44.851562 L 40.269531 44.851562 Z M 41.363281 47.054688 L 42.457031 47.054688 L 42.457031 45.953125 L 41.363281 45.953125 Z M 40.269531 48.15625 L 41.363281 48.15625 L 41.363281 47.054688 L 40.269531 47.054688 Z M 39.171875 42.648438 L 38.078125 42.648438 L 38.078125 43.75 L 39.171875 43.75 Z M 39.171875 44.851562 L 40.269531 44.851562 L 40.269531 43.75 L 39.171875 43.75 Z M 38.078125 45.953125 L 39.171875 45.953125 L 39.171875 44.851562 L 38.078125 44.851562 Z M 39.171875 47.054688 L 40.269531 47.054688 L 40.269531 45.953125 L 39.171875 45.953125 Z M 38.078125 48.15625 L 39.171875 48.15625 L 39.171875 47.054688 L 38.078125 47.054688 Z M 40.269531 42.648438 L 40.269531 41.546875 L 39.171875 41.546875 L 39.171875 42.648438 Z M 36.984375 44.851562 L 35.890625 44.851562 L 35.890625 45.953125 L 36.984375 45.953125 Z M 36.984375 47.054688 L 38.078125 47.054688 L 38.078125 45.953125 L 36.984375 45.953125 Z M 35.890625 47.054688 L 35.890625 48.15625 L 36.984375 48.15625 L 36.984375 47.054688 Z M 36.984375 48.15625 L 36.984375 49.257812 L 38.078125 49.257812 L 38.078125 48.15625 Z M 35.890625 50.355469 L 36.984375 50.355469 L 36.984375 49.257812 L 35.890625 49.257812 Z M 38.078125 43.75 L 36.984375 43.75 L 36.984375 44.851562 L 38.078125 44.851562 Z M 34.796875 47.054688 L 33.699219 47.054688 L 33.699219 48.15625 L 34.796875 48.15625 Z M 34.796875 49.257812 L 35.890625 49.257812 L 35.890625 48.15625 L 34.796875 48.15625 Z M 33.699219 50.355469 L 34.796875 50.355469 L 34.796875 49.257812 L 33.699219 49.257812 Z M 34.796875 51.457031 L 35.890625 51.457031 L 35.890625 50.355469 L 34.796875 50.355469 Z M 33.699219 52.558594 L 34.796875 52.558594 L 34.796875 51.457031 L 33.699219 51.457031 Z M 35.890625 47.054688 L 35.890625 45.953125 L 34.796875 45.953125 L 34.796875 47.054688 Z M 34.796875 45.953125 L 34.796875 44.851562 L 33.699219 44.851562 L 33.699219 45.953125 Z M 33.699219 45.953125 L 32.605469 45.953125 L 32.605469 47.054688 L 33.699219 47.054688 Z M 33.699219 48.15625 L 32.605469 48.15625 L 32.605469 49.257812 L 33.699219 49.257812 Z M 33.699219 50.355469 L 32.605469 50.355469 L 32.605469 51.457031 L 33.699219 51.457031 Z M 45.742188 44.851562 L 46.835938 44.851562 L 46.835938 43.75 L 45.742188 43.75 Z M 44.648438 45.953125 L 45.742188 45.953125 L 45.742188 44.851562 L 44.648438 44.851562 Z M 39.171875 49.257812 L 40.269531 49.257812 L 40.269531 48.15625 L 39.171875 48.15625 Z M 38.078125 50.355469 L 39.171875 50.355469 L 39.171875 49.257812 L 38.078125 49.257812 Z M 32.605469 53.660156 L 33.699219 53.660156 L 33.699219 52.558594 L 32.605469 52.558594 Z M 32.605469 53.660156 " fill-opacity="1" fill-rule="nonzero"/></g><path fill="#ffffff" d="M 24.945312 20.628906 L 27.132812 20.628906 L 27.132812 33.839844 L 24.945312 33.839844 L 24.945312 32.738281 L 23.847656 32.738281 L 23.847656 31.640625 L 21.660156 31.640625 L 21.660156 30.539062 L 20.566406 30.539062 L 20.566406 29.4375 L 18.375 29.4375 L 18.375 28.335938 L 17.28125 28.335938 L 17.28125 27.234375 L 15.09375 27.234375 L 15.09375 14.023438 L 17.28125 14.023438 L 17.28125 15.125 L 18.375 15.125 L 18.375 16.222656 L 20.566406 16.222656 L 20.566406 17.324219 L 21.660156 17.324219 L 21.660156 18.425781 L 23.847656 18.425781 L 23.847656 19.527344 L 24.945312 19.527344 Z M 16.1875 9.617188 L 12.902344 9.617188 L 12.902344 12.921875 L 13.996094 12.921875 L 13.996094 10.71875 L 16.1875 10.71875 Z M 10.714844 34.941406 L 10.714844 42.648438 L 11.808594 42.648438 L 11.808594 34.941406 Z M 11.808594 43.75 L 12.902344 43.75 L 12.902344 42.648438 L 11.808594 42.648438 Z M 29.320312 47.054688 L 29.320312 54.761719 L 30.417969 54.761719 L 30.417969 47.054688 Z M 29.320312 47.054688 " fill-opacity="1" fill-rule="nonzero"/><path fill="#7700ff" d="M 19.472656 21.730469 L 19.472656 22.832031 L 18.375 22.832031 L 18.375 26.132812 L 17.28125 26.132812 L 17.28125 18.425781 L 18.375 18.425781 L 18.375 21.730469 Z M 20.566406 22.832031 L 19.472656 22.832031 L 19.472656 23.933594 L 20.566406 23.933594 L 20.566406 28.335938 L 21.660156 28.335938 L 21.660156 20.628906 L 20.566406 20.628906 Z M 22.753906 30.539062 L 23.847656 30.539062 L 23.847656 25.03125 L 22.753906 25.03125 Z M 22.753906 22.832031 L 22.753906 23.933594 L 23.847656 23.933594 L 23.847656 22.832031 Z M 22.753906 22.832031 " fill-opacity="1" fill-rule="nonzero"/><g clip-path="url(#404f515b3d)"><path fill="#000000" d="M 28.226562 33.839844 L 27.132812 33.839844 L 27.132812 20.628906 L 28.226562 20.628906 Z M 27.132812 34.941406 L 27.132812 33.839844 L 24.945312 33.839844 L 24.945312 34.941406 Z M 24.945312 33.839844 L 24.945312 32.738281 L 23.847656 32.738281 L 23.847656 33.839844 Z M 23.847656 32.738281 L 23.847656 31.640625 L 21.660156 31.640625 L 21.660156 32.738281 Z M 21.660156 31.640625 L 21.660156 30.539062 L 20.566406 30.539062 L 20.566406 31.640625 Z M 20.566406 30.539062 L 20.566406 29.4375 L 18.375 29.4375 L 18.375 30.539062 Z M 18.375 29.4375 L 18.375 28.335938 L 17.28125 28.335938 L 17.28125 29.4375 Z M 17.28125 27.234375 L 15.09375 27.234375 L 15.09375 28.335938 L 17.28125 28.335938 Z M 28.226562 8.515625 L 28.226562 9.617188 L 29.320312 9.617188 L 29.320312 8.515625 Z M 29.320312 9.617188 L 29.320312 10.71875 L 31.511719 10.71875 L 31.511719 9.617188 Z M 31.511719 10.71875 L 31.511719 11.820312 L 32.605469 11.820312 L 32.605469 10.71875 Z M 32.605469 11.820312 L 32.605469 12.921875 L 34.796875 12.921875 L 34.796875 11.820312 Z M 34.796875 12.921875 L 34.796875 14.023438 L 35.890625 14.023438 L 35.890625 12.921875 Z M 35.890625 14.023438 L 35.890625 15.125 L 36.984375 15.125 L 36.984375 14.023438 Z M 36.984375 15.125 L 36.984375 29.4375 L 38.078125 29.4375 L 38.078125 15.125 Z M 21.660156 5.214844 L 21.660156 6.316406 L 23.847656 6.316406 L 23.847656 5.214844 Z M 23.847656 6.316406 L 23.847656 7.414062 L 26.039062 7.414062 L 26.039062 6.316406 Z M 26.039062 7.414062 L 26.039062 8.515625 L 28.226562 8.515625 L 28.226562 7.414062 Z M 30.417969 6.316406 L 28.226562 6.316406 L 28.226562 7.414062 L 30.417969 7.414062 Z M 32.605469 5.214844 L 30.417969 5.214844 L 30.417969 6.316406 L 32.605469 6.316406 Z M 33.699219 7.414062 L 33.699219 6.316406 L 32.605469 6.316406 L 32.605469 7.414062 Z M 35.890625 8.515625 L 35.890625 7.414062 L 33.699219 7.414062 L 33.699219 8.515625 Z M 36.984375 9.617188 L 36.984375 8.515625 L 35.890625 8.515625 L 35.890625 9.617188 Z M 39.171875 10.71875 L 39.171875 9.617188 L 36.984375 9.617188 L 36.984375 10.71875 Z M 41.363281 12.921875 L 41.363281 11.820312 L 40.269531 11.820312 L 40.269531 12.921875 Z M 42.457031 14.023438 L 42.457031 12.921875 L 41.363281 12.921875 L 41.363281 14.023438 Z M 40.269531 11.820312 L 40.269531 10.71875 L 39.171875 10.71875 L 39.171875 11.820312 Z M 43.550781 26.132812 L 43.550781 14.023438 L 42.457031 14.023438 L 42.457031 26.132812 Z M 41.363281 27.234375 L 42.457031 27.234375 L 42.457031 26.132812 L 41.363281 26.132812 Z M 49.023438 33.839844 L 49.023438 34.941406 L 47.929688 34.941406 L 47.929688 36.042969 L 49.023438 36.042969 L 49.023438 43.75 L 50.121094 43.75 L 50.121094 33.839844 Z M 46.835938 44.851562 L 49.023438 44.851562 L 49.023438 43.75 L 46.835938 43.75 Z M 45.742188 45.953125 L 46.835938 45.953125 L 46.835938 44.851562 L 45.742188 44.851562 Z M 43.550781 47.054688 L 45.742188 47.054688 L 45.742188 45.953125 L 43.550781 45.953125 Z M 42.457031 48.15625 L 43.550781 48.15625 L 43.550781 47.054688 L 42.457031 47.054688 Z M 40.269531 49.257812 L 42.457031 49.257812 L 42.457031 48.15625 L 40.269531 48.15625 Z M 39.171875 50.355469 L 40.269531 50.355469 L 40.269531 49.257812 L 39.171875 49.257812 Z M 36.984375 51.457031 L 39.171875 51.457031 L 39.171875 50.355469 L 36.984375 50.355469 Z M 35.890625 52.558594 L 36.984375 52.558594 L 36.984375 51.457031 L 35.890625 51.457031 Z M 33.699219 53.660156 L 35.890625 53.660156 L 35.890625 52.558594 L 33.699219 52.558594 Z M 32.605469 54.761719 L 33.699219 54.761719 L 33.699219 53.660156 L 32.605469 53.660156 Z M 28.226562 55.863281 L 32.605469 55.863281 L 32.605469 54.761719 L 28.226562 54.761719 Z M 12.902344 29.4375 L 12.902344 30.539062 L 13.996094 30.539062 L 13.996094 29.4375 Z M 13.996094 30.539062 L 13.996094 31.640625 L 16.1875 31.640625 L 16.1875 30.539062 Z M 16.1875 31.640625 L 16.1875 32.738281 L 17.28125 32.738281 L 17.28125 31.640625 Z M 17.28125 32.738281 L 17.28125 33.839844 L 19.472656 33.839844 L 19.472656 32.738281 Z M 19.472656 33.839844 L 19.472656 34.941406 L 20.566406 34.941406 L 20.566406 33.839844 Z M 20.566406 34.941406 L 20.566406 36.042969 L 22.753906 36.042969 L 22.753906 34.941406 Z M 22.753906 36.042969 L 22.753906 37.144531 L 23.847656 37.144531 L 23.847656 36.042969 Z M 23.847656 37.144531 L 23.847656 38.246094 L 26.039062 38.246094 L 26.039062 37.144531 Z M 26.039062 39.347656 L 29.320312 39.347656 L 29.320312 38.246094 L 26.039062 38.246094 Z M 29.320312 38.246094 L 31.511719 38.246094 L 31.511719 37.144531 L 29.320312 37.144531 Z M 31.511719 37.144531 L 33.699219 37.144531 L 33.699219 36.042969 L 31.511719 36.042969 Z M 33.699219 36.042969 L 35.890625 36.042969 L 35.890625 34.941406 L 33.699219 34.941406 Z M 35.890625 34.941406 L 36.984375 34.941406 L 36.984375 33.839844 L 35.890625 33.839844 Z M 36.984375 33.839844 L 38.078125 33.839844 L 38.078125 31.640625 L 36.984375 31.640625 Z M 38.078125 31.640625 L 39.171875 31.640625 L 39.171875 29.4375 L 38.078125 29.4375 Z M 46.835938 32.738281 L 46.835938 33.839844 L 49.023438 33.839844 L 49.023438 32.738281 Z M 45.742188 31.640625 L 45.742188 32.738281 L 46.835938 32.738281 L 46.835938 31.640625 Z M 43.550781 30.539062 L 43.550781 31.640625 L 45.742188 31.640625 L 45.742188 30.539062 Z M 42.457031 29.4375 L 42.457031 30.539062 L 43.550781 30.539062 L 43.550781 29.4375 Z M 41.363281 28.335938 L 41.363281 27.234375 L 40.269531 27.234375 L 40.269531 28.335938 L 39.171875 28.335938 L 39.171875 29.4375 L 42.457031 29.4375 L 42.457031 28.335938 Z M 45.742188 37.144531 L 47.929688 37.144531 L 47.929688 36.042969 L 45.742188 36.042969 Z M 43.550781 38.246094 L 45.742188 38.246094 L 45.742188 37.144531 L 43.550781 37.144531 Z M 42.457031 39.347656 L 43.550781 39.347656 L 43.550781 38.246094 L 42.457031 38.246094 Z M 40.269531 40.449219 L 42.457031 40.449219 L 42.457031 39.347656 L 40.269531 39.347656 Z M 39.171875 41.546875 L 40.269531 41.546875 L 40.269531 40.449219 L 39.171875 40.449219 Z M 36.984375 42.648438 L 39.171875 42.648438 L 39.171875 41.546875 L 36.984375 41.546875 Z M 35.890625 43.75 L 36.984375 43.75 L 36.984375 42.648438 L 35.890625 42.648438 Z M 33.699219 44.851562 L 35.890625 44.851562 L 35.890625 43.75 L 33.699219 43.75 Z M 32.605469 45.953125 L 33.699219 45.953125 L 33.699219 44.851562 L 32.605469 44.851562 Z M 31.511719 47.054688 L 32.605469 47.054688 L 32.605469 45.953125 L 31.511719 45.953125 Z M 28.226562 50.355469 L 28.226562 49.257812 L 26.039062 49.257812 L 26.039062 50.355469 Z M 24.945312 48.15625 L 24.945312 49.257812 L 26.039062 49.257812 L 26.039062 48.15625 Z M 22.753906 47.054688 L 22.753906 48.15625 L 24.945312 48.15625 L 24.945312 47.054688 Z M 22.753906 47.054688 " fill-opacity="1" fill-rule="nonzero"/></g><path fill="#cccccc" d="M 35.890625 15.125 L 35.890625 16.222656 L 33.699219 16.222656 L 33.699219 15.125 Z M 31.511719 16.222656 L 31.511719 17.324219 L 33.699219 17.324219 L 33.699219 16.222656 Z M 29.320312 17.324219 L 29.320312 18.425781 L 31.511719 18.425781 L 31.511719 17.324219 Z M 29.320312 17.324219 " fill-opacity="1" fill-rule="nonzero"/></svg>