<svg xmlns="http://www.w3.org/2000/svg" xmlns:xlink="http://www.w3.org/1999/xlink" width="80" zoomAndPan="magnify" viewBox="0 0 60 60" height="80" preserveAspectRatio="xMidYMid meet" version="1.0"><defs><clipPath id="46b461f5f4"><path d="M 7.660156 6.460938 L 52.660156 6.460938 L 52.660156 53.710938 L 7.660156 53.710938 Z M 7.660156 6.460938 " clip-rule="nonzero"/></clipPath><clipPath id="6e174fcf06"><path d="M 7.660156 6.460938 L 45 6.460938 L 45 51 L 7.660156 51 Z M 7.660156 6.460938 " clip-rule="nonzero"/></clipPath><clipPath id="2ed99eb5bb"><path d="M 35 29 L 52.660156 29 L 52.660156 53.710938 L 35 53.710938 Z M 35 29 " clip-rule="nonzero"/></clipPath></defs><g clip-path="url(#46b461f5f4)"><path fill="#cccccc" d="M 51.4375 30.691406 L 51.4375 29.480469 L 50.21875 29.480469 L 50.21875 28.269531 L 47.789062 28.269531 L 47.789062 27.054688 L 46.574219 27.054688 L 46.574219 25.84375 L 45.355469 25.84375 L 45.355469 21 L 44.140625 21 L 44.140625 19.785156 L 42.925781 19.785156 L 42.925781 17.363281 L 41.710938 17.363281 L 41.710938 16.152344 L 40.492188 16.152344 L 40.492188 13.730469 L 39.277344 13.730469 L 39.277344 12.519531 L 38.0625 12.519531 L 38.0625 11.304688 L 36.847656 11.304688 L 36.847656 10.09375 L 35.628906 10.09375 L 35.628906 8.882812 L 33.199219 8.882812 L 33.199219 7.671875 L 30.765625 7.671875 L 30.765625 6.460938 L 23.472656 6.460938 L 23.472656 7.671875 L 21.039062 7.671875 L 21.039062 8.882812 L 18.605469 8.882812 L 18.605469 10.09375 L 17.390625 10.09375 L 17.390625 11.304688 L 16.175781 11.304688 L 16.175781 12.519531 L 14.960938 12.519531 L 14.960938 13.730469 L 13.742188 13.730469 L 13.742188 16.152344 L 12.527344 16.152344 L 12.527344 17.363281 L 11.3125 17.363281 L 11.3125 19.785156 L 10.097656 19.785156 L 10.097656 21 L 8.878906 21 L 8.878906 25.84375 L 7.664062 25.84375 L 7.664062 33.113281 L 8.878906 33.113281 L 8.878906 37.960938 L 10.097656 37.960938 L 10.097656 39.171875 L 11.3125 39.171875 L 11.3125 41.59375 L 12.527344 41.59375 L 12.527344 42.804688 L 13.742188 42.804688 L 13.742188 45.230469 L 14.960938 45.230469 L 14.960938 46.441406 L 16.175781 46.441406 L 16.175781 47.652344 L 17.390625 47.652344 L 17.390625 48.863281 L 18.605469 48.863281 L 18.605469 50.074219 L 21.039062 50.074219 L 21.039062 51.285156 L 23.472656 51.285156 L 23.472656 52.5 L 30.765625 52.5 L 30.765625 51.285156 L 34.414062 51.285156 L 34.414062 52.5 L 35.628906 52.5 L 35.628906 53.710938 L 40.492188 53.710938 L 40.492188 52.5 L 41.710938 52.5 L 41.710938 51.285156 L 42.925781 51.285156 L 42.925781 50.074219 L 44.140625 50.074219 L 44.140625 48.863281 L 45.355469 48.863281 L 45.355469 47.652344 L 46.574219 47.652344 L 46.574219 33.113281 L 47.789062 33.113281 L 47.789062 34.324219 L 50.21875 34.324219 L 50.21875 35.535156 L 51.4375 35.535156 L 51.4375 34.324219 L 52.652344 34.324219 L 52.652344 30.691406 Z M 28.335938 31.902344 L 28.335938 33.113281 L 25.902344 33.113281 L 25.902344 31.902344 L 24.6875 31.902344 L 24.6875 27.054688 L 25.902344 27.054688 L 25.902344 25.84375 L 28.335938 25.84375 L 28.335938 27.054688 L 29.550781 27.054688 L 29.550781 31.902344 Z M 28.335938 31.902344 " fill-opacity="1" fill-rule="nonzero"/></g><path fill="#cccccc" d="M 44.140625 25.84375 L 44.140625 21 L 42.925781 21 L 42.925781 19.785156 L 41.710938 19.785156 L 41.710938 17.363281 L 40.492188 17.363281 L 40.492188 16.152344 L 39.277344 16.152344 L 39.277344 13.730469 L 38.0625 13.730469 L 38.0625 12.519531 L 36.847656 12.519531 L 36.847656 11.304688 L 35.628906 11.304688 L 35.628906 10.09375 L 33.199219 10.09375 L 33.199219 8.882812 L 30.765625 8.882812 L 30.765625 7.671875 L 23.472656 7.671875 L 23.472656 8.882812 L 21.039062 8.882812 L 21.039062 10.09375 L 18.605469 10.09375 L 18.605469 11.304688 L 17.390625 11.304688 L 17.390625 12.519531 L 16.175781 12.519531 L 16.175781 13.730469 L 14.960938 13.730469 L 14.960938 16.152344 L 13.742188 16.152344 L 13.742188 17.363281 L 12.527344 17.363281 L 12.527344 19.785156 L 11.3125 19.785156 L 11.3125 21 L 10.097656 21 L 10.097656 25.84375 L 8.878906 25.84375 L 8.878906 33.113281 L 10.097656 33.113281 L 10.097656 37.960938 L 11.3125 37.960938 L 11.3125 39.171875 L 12.527344 39.171875 L 12.527344 41.59375 L 13.742188 41.59375 L 13.742188 42.804688 L 14.960938 42.804688 L 14.960938 45.230469 L 16.175781 45.230469 L 16.175781 46.441406 L 17.390625 46.441406 L 17.390625 47.652344 L 18.605469 47.652344 L 18.605469 48.863281 L 21.039062 48.863281 L 21.039062 50.074219 L 23.472656 50.074219 L 23.472656 51.285156 L 30.765625 51.285156 L 30.765625 50.074219 L 33.199219 50.074219 L 33.199219 48.863281 L 35.628906 48.863281 L 35.628906 47.652344 L 36.847656 47.652344 L 36.847656 46.441406 L 38.0625 46.441406 L 38.0625 45.230469 L 39.277344 45.230469 L 39.277344 42.804688 L 40.492188 42.804688 L 40.492188 41.59375 L 41.710938 41.59375 L 41.710938 39.171875 L 42.925781 39.171875 L 42.925781 37.960938 L 44.140625 37.960938 L 44.140625 33.113281 L 45.355469 33.113281 L 45.355469 25.84375 Z M 30.765625 31.902344 L 29.550781 31.902344 L 29.550781 33.113281 L 28.335938 33.113281 L 28.335938 34.324219 L 25.902344 34.324219 L 25.902344 33.113281 L 24.6875 33.113281 L 24.6875 31.902344 L 23.472656 31.902344 L 23.472656 27.054688 L 24.6875 27.054688 L 24.6875 25.84375 L 25.902344 25.84375 L 25.902344 24.632812 L 28.335938 24.632812 L 28.335938 25.84375 L 29.550781 25.84375 L 29.550781 27.054688 L 30.765625 27.054688 Z M 30.765625 31.902344 " fill-opacity="1" fill-rule="nonzero"/><path fill="#000000" d="M 36.847656 10.09375 L 36.847656 11.304688 L 35.628906 11.304688 L 35.628906 10.09375 Z M 36.847656 11.304688 L 36.847656 12.519531 L 38.0625 12.519531 L 38.0625 11.304688 Z M 38.0625 12.519531 L 38.0625 13.730469 L 39.277344 13.730469 L 39.277344 12.519531 Z M 39.277344 13.730469 L 39.277344 16.152344 L 40.492188 16.152344 L 40.492188 13.730469 Z M 40.492188 16.152344 L 40.492188 17.363281 L 41.710938 17.363281 L 41.710938 16.152344 Z M 41.710938 17.363281 L 41.710938 19.785156 L 42.925781 19.785156 L 42.925781 17.363281 Z M 42.925781 19.785156 L 42.925781 21 L 44.140625 21 L 44.140625 19.785156 Z M 44.140625 21 L 44.140625 25.84375 L 45.355469 25.84375 L 45.355469 21 Z M 45.355469 25.84375 L 45.355469 33.113281 L 46.574219 33.113281 L 46.574219 25.84375 Z M 23.472656 51.285156 L 23.472656 52.5 L 30.765625 52.5 L 30.765625 51.285156 Z M 21.039062 50.074219 L 21.039062 51.285156 L 23.472656 51.285156 L 23.472656 50.074219 Z M 18.605469 48.863281 L 18.605469 50.074219 L 21.039062 50.074219 L 21.039062 48.863281 Z M 30.765625 50.074219 L 30.765625 51.285156 L 33.199219 51.285156 L 33.199219 50.074219 Z M 33.199219 48.863281 L 33.199219 50.074219 L 35.628906 50.074219 L 35.628906 48.863281 Z M 35.628906 47.652344 L 35.628906 48.863281 L 36.847656 48.863281 L 36.847656 47.652344 Z M 36.847656 46.441406 L 36.847656 47.652344 L 38.0625 47.652344 L 38.0625 46.441406 Z M 38.0625 45.230469 L 38.0625 46.441406 L 39.277344 46.441406 L 39.277344 45.230469 Z M 39.277344 42.804688 L 39.277344 45.230469 L 40.492188 45.230469 L 40.492188 42.804688 Z M 40.492188 41.59375 L 40.492188 42.804688 L 41.710938 42.804688 L 41.710938 41.59375 Z M 41.710938 39.171875 L 41.710938 41.59375 L 42.925781 41.59375 L 42.925781 39.171875 Z M 42.925781 37.960938 L 42.925781 39.171875 L 44.140625 39.171875 L 44.140625 37.960938 Z M 44.140625 33.113281 L 44.140625 37.960938 L 45.355469 37.960938 L 45.355469 33.113281 Z M 25.902344 24.632812 L 25.902344 25.84375 L 28.335938 25.84375 L 28.335938 24.632812 Z M 24.6875 25.84375 L 24.6875 27.054688 L 25.902344 27.054688 L 25.902344 25.84375 Z M 28.335938 25.84375 L 28.335938 27.054688 L 29.550781 27.054688 L 29.550781 25.84375 Z M 23.472656 27.054688 L 23.472656 31.902344 L 24.6875 31.902344 L 24.6875 27.054688 Z M 29.550781 27.054688 L 29.550781 31.902344 L 30.765625 31.902344 L 30.765625 27.054688 Z M 25.902344 33.113281 L 25.902344 34.324219 L 28.335938 34.324219 L 28.335938 33.113281 Z M 24.6875 31.902344 L 24.6875 33.113281 L 25.902344 33.113281 L 25.902344 31.902344 Z M 28.335938 31.902344 L 28.335938 33.113281 L 29.550781 33.113281 L 29.550781 31.902344 Z M 28.335938 31.902344 " fill-opacity="1" fill-rule="nonzero"/><g clip-path="url(#6e174fcf06)"><path fill="#cccccc" d="M 30.765625 7.671875 L 23.472656 7.671875 L 23.472656 6.460938 L 30.765625 6.460938 Z M 23.472656 7.671875 L 21.039062 7.671875 L 21.039062 8.882812 L 23.472656 8.882812 Z M 18.605469 10.09375 L 21.039062 10.09375 L 21.039062 8.882812 L 18.605469 8.882812 Z M 17.390625 11.304688 L 18.605469 11.304688 L 18.605469 10.09375 L 17.390625 10.09375 Z M 16.175781 12.519531 L 17.390625 12.519531 L 17.390625 11.304688 L 16.175781 11.304688 Z M 14.960938 13.730469 L 16.175781 13.730469 L 16.175781 12.519531 L 14.960938 12.519531 Z M 13.742188 16.152344 L 14.960938 16.152344 L 14.960938 13.730469 L 13.742188 13.730469 Z M 12.527344 17.363281 L 13.742188 17.363281 L 13.742188 16.152344 L 12.527344 16.152344 Z M 11.3125 19.785156 L 12.527344 19.785156 L 12.527344 17.363281 L 11.3125 17.363281 Z M 10.097656 21 L 11.3125 21 L 11.3125 19.785156 L 10.097656 19.785156 Z M 8.878906 25.84375 L 10.097656 25.84375 L 10.097656 21 L 8.878906 21 Z M 7.664062 33.113281 L 8.878906 33.113281 L 8.878906 25.84375 L 7.664062 25.84375 Z M 33.199219 8.882812 L 33.199219 7.671875 L 30.765625 7.671875 L 30.765625 8.882812 Z M 35.628906 10.09375 L 35.628906 8.882812 L 33.199219 8.882812 L 33.199219 10.09375 Z M 18.605469 48.863281 L 18.605469 47.652344 L 17.390625 47.652344 L 17.390625 48.863281 Z M 17.390625 47.652344 L 17.390625 46.441406 L 16.175781 46.441406 L 16.175781 47.652344 Z M 16.175781 46.441406 L 16.175781 45.230469 L 14.960938 45.230469 L 14.960938 46.441406 Z M 14.960938 45.230469 L 14.960938 42.804688 L 13.742188 42.804688 L 13.742188 45.230469 Z M 13.742188 42.804688 L 13.742188 41.59375 L 12.527344 41.59375 L 12.527344 42.804688 Z M 12.527344 41.59375 L 12.527344 39.171875 L 11.3125 39.171875 L 11.3125 41.59375 Z M 11.3125 39.171875 L 11.3125 37.960938 L 10.097656 37.960938 L 10.097656 39.171875 Z M 10.097656 37.960938 L 10.097656 33.113281 L 8.878906 33.113281 L 8.878906 37.960938 Z M 22.253906 27.054688 L 22.253906 31.902344 L 23.472656 31.902344 L 23.472656 27.054688 Z M 24.6875 25.84375 L 23.472656 25.84375 L 23.472656 27.054688 L 24.6875 27.054688 Z M 25.902344 24.632812 L 24.6875 24.632812 L 24.6875 25.84375 L 25.902344 25.84375 Z M 28.335938 23.421875 L 25.902344 23.421875 L 25.902344 24.632812 L 28.335938 24.632812 Z M 30.765625 27.054688 L 30.765625 25.84375 L 29.550781 25.84375 L 29.550781 27.054688 Z M 29.550781 25.84375 L 29.550781 24.632812 L 28.335938 24.632812 L 28.335938 25.84375 Z M 23.472656 31.902344 L 23.472656 33.113281 L 24.6875 33.113281 L 24.6875 31.902344 Z M 25.902344 33.113281 L 24.6875 33.113281 L 24.6875 34.324219 L 23.472656 34.324219 L 23.472656 47.652344 L 24.6875 47.652344 L 24.6875 48.863281 L 25.902344 48.863281 L 25.902344 50.074219 L 27.117188 50.074219 L 27.117188 48.863281 L 28.335938 48.863281 L 28.335938 47.652344 L 27.117188 47.652344 L 27.117188 46.441406 L 28.335938 46.441406 L 28.335938 45.230469 L 27.117188 45.230469 L 27.117188 44.019531 L 28.335938 44.019531 L 28.335938 42.804688 L 27.117188 42.804688 L 27.117188 41.59375 L 28.335938 41.59375 L 28.335938 40.382812 L 27.117188 40.382812 L 27.117188 39.171875 L 28.335938 39.171875 L 28.335938 37.960938 L 27.117188 37.960938 L 27.117188 35.535156 L 28.335938 35.535156 L 28.335938 34.324219 L 25.902344 34.324219 Z M 42.925781 24.632812 L 42.925781 25.84375 L 44.140625 25.84375 L 44.140625 24.632812 Z M 41.710938 27.054688 L 42.925781 27.054688 L 42.925781 25.84375 L 41.710938 25.84375 Z M 40.492188 36.75 L 39.277344 36.75 L 39.277344 37.960938 L 38.0625 37.960938 L 38.0625 36.75 L 36.847656 36.75 L 36.847656 35.535156 L 35.628906 35.535156 L 35.628906 34.324219 L 34.414062 34.324219 L 34.414062 33.113281 L 33.199219 33.113281 L 33.199219 31.902344 L 31.980469 31.902344 L 31.980469 30.691406 L 33.199219 30.691406 L 33.199219 29.480469 L 31.980469 29.480469 L 31.980469 27.054688 L 30.765625 27.054688 L 30.765625 31.902344 L 29.550781 31.902344 L 29.550781 33.113281 L 28.335938 33.113281 L 28.335938 34.324219 L 29.550781 34.324219 L 29.550781 35.535156 L 30.765625 35.535156 L 30.765625 36.75 L 31.980469 36.75 L 31.980469 37.960938 L 33.199219 37.960938 L 33.199219 39.171875 L 34.414062 39.171875 L 34.414062 40.382812 L 35.628906 40.382812 L 35.628906 42.804688 L 36.847656 42.804688 L 36.847656 41.59375 L 38.0625 41.59375 L 38.0625 40.382812 L 39.277344 40.382812 L 39.277344 39.171875 L 41.710938 39.171875 L 41.710938 27.054688 L 40.492188 27.054688 Z M 34.414062 44.019531 L 35.628906 44.019531 L 35.628906 42.804688 L 34.414062 42.804688 Z M 33.199219 45.230469 L 34.414062 45.230469 L 34.414062 44.019531 L 33.199219 44.019531 Z M 31.980469 50.074219 L 33.199219 50.074219 L 33.199219 45.230469 L 31.980469 45.230469 Z M 34.414062 31.902344 L 34.414062 30.691406 L 33.199219 30.691406 L 33.199219 31.902344 Z M 35.628906 33.113281 L 35.628906 31.902344 L 34.414062 31.902344 L 34.414062 33.113281 Z M 36.847656 34.324219 L 36.847656 33.113281 L 35.628906 33.113281 L 35.628906 34.324219 Z M 38.0625 35.535156 L 38.0625 34.324219 L 36.847656 34.324219 L 36.847656 35.535156 Z M 39.277344 36.75 L 39.277344 35.535156 L 38.0625 35.535156 L 38.0625 36.75 Z M 39.277344 36.75 " fill-opacity="1" fill-rule="nonzero"/></g><path fill="#7700ff" d="M 51.4375 30.691406 L 51.4375 34.324219 L 50.21875 34.324219 L 50.21875 33.113281 L 47.789062 33.113281 L 47.789062 31.902344 L 45.355469 31.902344 L 45.355469 47.652344 L 44.140625 47.652344 L 44.140625 48.863281 L 42.925781 48.863281 L 42.925781 50.074219 L 41.710938 50.074219 L 41.710938 51.285156 L 40.492188 51.285156 L 40.492188 52.5 L 35.628906 52.5 L 35.628906 51.285156 L 34.414062 51.285156 L 34.414062 45.230469 L 35.628906 45.230469 L 35.628906 44.019531 L 36.847656 44.019531 L 36.847656 42.804688 L 38.0625 42.804688 L 38.0625 41.59375 L 39.277344 41.59375 L 39.277344 40.382812 L 41.710938 40.382812 L 41.710938 39.171875 L 42.925781 39.171875 L 42.925781 27.054688 L 45.355469 27.054688 L 45.355469 28.269531 L 47.789062 28.269531 L 47.789062 29.480469 L 50.21875 29.480469 L 50.21875 30.691406 Z M 25.902344 10.09375 L 27.117188 10.09375 L 27.117188 8.882812 L 25.902344 8.882812 Z M 25.902344 12.519531 L 27.117188 12.519531 L 27.117188 11.304688 L 25.902344 11.304688 Z M 25.902344 14.941406 L 27.117188 14.941406 L 27.117188 13.730469 L 25.902344 13.730469 Z M 25.902344 17.363281 L 27.117188 17.363281 L 27.117188 16.152344 L 25.902344 16.152344 Z M 25.902344 19.785156 L 27.117188 19.785156 L 27.117188 18.574219 L 25.902344 18.574219 Z M 25.902344 22.210938 L 27.117188 22.210938 L 27.117188 21 L 25.902344 21 Z M 27.117188 8.882812 L 28.335938 8.882812 L 28.335938 7.671875 L 27.117188 7.671875 Z M 28.335938 11.304688 L 28.335938 10.09375 L 27.117188 10.09375 L 27.117188 11.304688 Z M 28.335938 13.730469 L 28.335938 12.519531 L 27.117188 12.519531 L 27.117188 13.730469 Z M 28.335938 16.152344 L 28.335938 14.941406 L 27.117188 14.941406 L 27.117188 16.152344 Z M 28.335938 18.574219 L 28.335938 17.363281 L 27.117188 17.363281 L 27.117188 18.574219 Z M 28.335938 21 L 28.335938 19.785156 L 27.117188 19.785156 L 27.117188 21 Z M 28.335938 23.421875 L 28.335938 22.210938 L 27.117188 22.210938 L 27.117188 23.421875 Z M 28.335938 23.421875 " fill-opacity="1" fill-rule="nonzero"/><g clip-path="url(#2ed99eb5bb)"><path fill="#000000" d="M 35.628906 52.5 L 40.492188 52.5 L 40.492188 53.710938 L 35.628906 53.710938 Z M 44.140625 48.863281 L 45.355469 48.863281 L 45.355469 47.652344 L 44.140625 47.652344 Z M 42.925781 50.074219 L 44.140625 50.074219 L 44.140625 48.863281 L 42.925781 48.863281 Z M 41.710938 51.285156 L 42.925781 51.285156 L 42.925781 50.074219 L 41.710938 50.074219 Z M 40.492188 52.5 L 41.710938 52.5 L 41.710938 51.285156 L 40.492188 51.285156 Z M 45.355469 47.652344 L 46.574219 47.652344 L 46.574219 33.113281 L 45.355469 33.113281 Z M 50.21875 29.480469 L 50.21875 30.691406 L 51.4375 30.691406 L 51.4375 29.480469 Z M 51.4375 30.691406 L 51.4375 34.324219 L 52.652344 34.324219 L 52.652344 30.691406 Z M 47.789062 33.113281 L 47.789062 34.324219 L 50.21875 34.324219 L 50.21875 33.113281 Z M 50.21875 35.535156 L 51.4375 35.535156 L 51.4375 34.324219 L 50.21875 34.324219 Z M 46.574219 31.902344 L 46.574219 33.113281 L 47.789062 33.113281 L 47.789062 31.902344 Z M 46.574219 31.902344 " fill-opacity="1" fill-rule="nonzero"/></g><path fill="#000000" d="M 45.355469 25.84375 L 45.355469 27.054688 L 42.925781 27.054688 L 42.925781 25.84375 Z M 41.710938 27.054688 L 41.710938 39.171875 L 42.925781 39.171875 L 42.925781 27.054688 Z M 39.277344 39.171875 L 39.277344 40.382812 L 41.710938 40.382812 L 41.710938 39.171875 Z M 38.0625 40.382812 L 38.0625 41.59375 L 39.277344 41.59375 L 39.277344 40.382812 Z M 36.847656 41.59375 L 36.847656 42.804688 L 38.0625 42.804688 L 38.0625 41.59375 Z M 35.628906 42.804688 L 35.628906 44.019531 L 36.847656 44.019531 L 36.847656 42.804688 Z M 34.414062 44.019531 L 34.414062 45.230469 L 35.628906 45.230469 L 35.628906 44.019531 Z M 33.199219 45.230469 L 33.199219 51.285156 L 34.414062 51.285156 L 34.414062 45.230469 Z M 34.414062 51.285156 L 34.414062 52.5 L 35.628906 52.5 L 35.628906 51.285156 Z M 45.355469 27.054688 L 45.355469 28.269531 L 47.789062 28.269531 L 47.789062 27.054688 Z M 47.789062 28.269531 L 47.789062 29.480469 L 50.21875 29.480469 L 50.21875 28.269531 Z M 44.140625 46.441406 L 44.140625 47.652344 L 45.355469 47.652344 L 45.355469 46.441406 Z M 42.925781 47.652344 L 42.925781 48.863281 L 44.140625 48.863281 L 44.140625 47.652344 Z M 41.710938 48.863281 L 41.710938 50.074219 L 42.925781 50.074219 L 42.925781 48.863281 Z M 40.492188 50.074219 L 40.492188 51.285156 L 41.710938 51.285156 L 41.710938 50.074219 Z M 50.21875 33.113281 L 50.21875 34.324219 L 51.4375 34.324219 L 51.4375 33.113281 Z M 47.789062 31.902344 L 47.789062 33.113281 L 49.003906 33.113281 L 49.003906 31.902344 Z M 45.355469 31.902344 L 45.355469 33.113281 L 46.574219 33.113281 L 46.574219 31.902344 Z M 39.277344 51.285156 L 39.277344 52.5 L 40.492188 52.5 L 40.492188 51.285156 Z M 36.847656 51.285156 L 36.847656 52.5 L 38.0625 52.5 L 38.0625 51.285156 Z M 38.0625 50.074219 L 38.0625 51.285156 L 39.277344 51.285156 L 39.277344 50.074219 Z M 39.277344 48.863281 L 39.277344 50.074219 L 40.492188 50.074219 L 40.492188 48.863281 Z M 40.492188 47.652344 L 40.492188 48.863281 L 41.710938 48.863281 L 41.710938 47.652344 Z M 41.710938 46.441406 L 41.710938 47.652344 L 42.925781 47.652344 L 42.925781 46.441406 Z M 42.925781 45.230469 L 42.925781 46.441406 L 44.140625 46.441406 L 44.140625 45.230469 Z M 44.140625 44.019531 L 44.140625 45.230469 L 45.355469 45.230469 L 45.355469 44.019531 Z M 35.628906 50.074219 L 35.628906 51.285156 L 36.847656 51.285156 L 36.847656 50.074219 Z M 36.847656 48.863281 L 36.847656 50.074219 L 38.0625 50.074219 L 38.0625 48.863281 Z M 38.0625 47.652344 L 38.0625 48.863281 L 39.277344 48.863281 L 39.277344 47.652344 Z M 39.277344 46.441406 L 39.277344 47.652344 L 40.492188 47.652344 L 40.492188 46.441406 Z M 34.414062 48.9375 L 34.414062 50.148438 L 35.628906 50.148438 L 35.628906 48.9375 Z M 35.628906 47.726562 L 35.628906 48.9375 L 36.847656 48.9375 L 36.847656 47.726562 Z M 44.140625 41.59375 L 44.140625 42.804688 L 45.355469 42.804688 L 45.355469 41.59375 Z M 44.140625 39.171875 L 44.140625 40.382812 L 45.355469 40.382812 L 45.355469 39.171875 Z M 44.140625 36.75 L 44.140625 37.960938 L 45.355469 37.960938 L 45.355469 36.75 Z M 44.140625 34.324219 L 44.140625 35.535156 L 45.355469 35.535156 L 45.355469 34.324219 Z M 44.140625 34.324219 " fill-opacity="1" fill-rule="nonzero"/><path fill="#7700ff" d="M 10.097656 25.84375 L 10.097656 33.113281 L 8.878906 33.113281 L 8.878906 25.84375 Z M 11.3125 21 L 10.097656 21 L 10.097656 25.84375 L 11.3125 25.84375 Z M 12.527344 19.785156 L 11.3125 19.785156 L 11.3125 21 L 12.527344 21 Z M 14.960938 16.152344 L 13.742188 16.152344 L 13.742188 17.363281 L 14.960938 17.363281 Z M 10.097656 33.113281 L 10.097656 37.960938 L 11.3125 37.960938 L 11.3125 33.113281 Z M 11.3125 37.960938 L 11.3125 39.171875 L 12.527344 39.171875 L 12.527344 37.960938 Z M 12.527344 39.171875 L 12.527344 41.59375 L 13.742188 41.59375 L 13.742188 39.171875 Z M 13.742188 41.59375 L 13.742188 42.804688 L 14.960938 42.804688 L 14.960938 41.59375 Z M 14.960938 42.804688 L 14.960938 45.230469 L 16.175781 45.230469 L 16.175781 42.804688 Z M 16.175781 45.230469 L 16.175781 46.441406 L 17.390625 46.441406 L 17.390625 45.230469 Z M 17.390625 46.441406 L 17.390625 47.652344 L 18.605469 47.652344 L 18.605469 46.441406 Z M 18.605469 47.652344 L 18.605469 48.863281 L 21.039062 48.863281 L 21.039062 47.652344 Z M 21.039062 48.863281 L 21.039062 50.074219 L 23.472656 50.074219 L 23.472656 48.863281 Z M 23.472656 51.285156 L 28.335938 51.285156 L 28.335938 50.074219 L 23.472656 50.074219 Z M 25.902344 23.421875 L 25.902344 22.210938 L 24.6875 22.210938 L 24.6875 23.421875 Z M 23.472656 24.632812 L 24.6875 24.632812 L 24.6875 23.421875 L 23.472656 23.421875 Z M 22.253906 25.84375 L 23.472656 25.84375 L 23.472656 24.632812 L 22.253906 24.632812 Z M 23.472656 22.210938 L 24.6875 22.210938 L 24.6875 21 L 23.472656 21 Z M 22.253906 23.421875 L 23.472656 23.421875 L 23.472656 22.210938 L 22.253906 22.210938 Z M 21.039062 23.421875 L 21.039062 24.632812 L 22.253906 24.632812 L 22.253906 23.421875 Z M 22.253906 21 L 23.472656 21 L 23.472656 19.785156 L 22.253906 19.785156 Z M 21.039062 21 L 21.039062 22.210938 L 22.253906 22.210938 L 22.253906 21 Z M 19.824219 22.210938 L 19.824219 23.421875 L 21.039062 23.421875 L 21.039062 22.210938 Z M 21.039062 19.785156 L 22.253906 19.785156 L 22.253906 18.574219 L 21.039062 18.574219 Z M 19.824219 19.785156 L 19.824219 21 L 21.039062 21 L 21.039062 19.785156 Z M 18.605469 21 L 18.605469 22.210938 L 19.824219 22.210938 L 19.824219 21 Z M 19.824219 17.363281 L 19.824219 18.574219 L 21.039062 18.574219 L 21.039062 17.363281 Z M 18.605469 18.574219 L 18.605469 19.785156 L 19.824219 19.785156 L 19.824219 18.574219 Z M 17.390625 19.785156 L 17.390625 21 L 18.605469 21 L 18.605469 19.785156 Z M 19.824219 16.152344 L 18.605469 16.152344 L 18.605469 17.363281 L 19.824219 17.363281 Z M 17.390625 17.363281 L 17.390625 18.574219 L 18.605469 18.574219 L 18.605469 17.363281 Z M 16.175781 18.574219 L 16.175781 19.785156 L 17.390625 19.785156 L 17.390625 18.574219 Z M 18.605469 14.941406 L 17.390625 14.941406 L 17.390625 16.152344 L 18.605469 16.152344 Z M 17.390625 16.152344 L 16.175781 16.152344 L 16.175781 17.363281 L 17.390625 17.363281 Z M 14.960938 17.363281 L 14.960938 18.574219 L 16.175781 18.574219 L 16.175781 17.363281 Z M 17.390625 13.730469 L 16.175781 13.730469 L 16.175781 14.941406 L 17.390625 14.941406 Z M 16.175781 14.941406 L 14.960938 14.941406 L 14.960938 16.152344 L 16.175781 16.152344 Z M 23.472656 19.785156 L 24.6875 19.785156 L 24.6875 18.574219 L 23.472656 18.574219 Z M 22.253906 16.152344 L 23.472656 16.152344 L 23.472656 14.941406 L 22.253906 14.941406 Z M 21.039062 17.363281 L 22.253906 17.363281 L 22.253906 16.152344 L 21.039062 16.152344 Z M 22.253906 18.574219 L 23.472656 18.574219 L 23.472656 17.363281 L 22.253906 17.363281 Z M 21.039062 14.941406 L 19.824219 14.941406 L 19.824219 16.152344 L 21.039062 16.152344 Z M 22.253906 13.730469 L 21.039062 13.730469 L 21.039062 14.941406 L 22.253906 14.941406 Z M 22.253906 13.730469 L 23.472656 13.730469 L 23.472656 12.519531 L 22.253906 12.519531 Z M 19.824219 13.730469 L 18.605469 13.730469 L 18.605469 14.941406 L 19.824219 14.941406 Z M 21.039062 12.519531 L 19.824219 12.519531 L 19.824219 13.730469 L 21.039062 13.730469 Z M 22.253906 11.304688 L 21.039062 11.304688 L 21.039062 12.519531 L 22.253906 12.519531 Z M 23.472656 11.304688 L 23.472656 10.09375 L 22.253906 10.09375 L 22.253906 11.304688 Z M 18.605469 12.519531 L 17.390625 12.519531 L 17.390625 13.730469 L 18.605469 13.730469 Z M 19.824219 11.304688 L 18.605469 11.304688 L 18.605469 12.519531 L 19.824219 12.519531 Z M 21.039062 10.09375 L 19.824219 10.09375 L 19.824219 11.304688 L 21.039062 11.304688 Z M 22.253906 8.882812 L 21.039062 8.882812 L 21.039062 10.09375 L 22.253906 10.09375 Z M 24.6875 8.882812 L 23.472656 8.882812 L 23.472656 10.09375 L 24.6875 10.09375 Z M 25.902344 7.671875 L 24.6875 7.671875 L 24.6875 8.882812 L 25.902344 8.882812 Z M 23.472656 12.519531 L 24.6875 12.519531 L 24.6875 11.304688 L 23.472656 11.304688 Z M 23.472656 14.941406 L 24.6875 14.941406 L 24.6875 13.730469 L 23.472656 13.730469 Z M 23.472656 17.363281 L 24.6875 17.363281 L 24.6875 16.152344 L 23.472656 16.152344 Z M 25.902344 11.304688 L 25.902344 10.09375 L 24.6875 10.09375 L 24.6875 11.304688 Z M 25.902344 13.730469 L 25.902344 12.519531 L 24.6875 12.519531 L 24.6875 13.730469 Z M 25.902344 16.152344 L 25.902344 14.941406 L 24.6875 14.941406 L 24.6875 16.152344 Z M 25.902344 18.574219 L 25.902344 17.363281 L 24.6875 17.363281 L 24.6875 18.574219 Z M 25.902344 21 L 25.902344 19.785156 L 24.6875 19.785156 L 24.6875 21 Z M 13.742188 17.363281 L 12.527344 17.363281 L 12.527344 19.785156 L 13.742188 19.785156 Z M 13.742188 17.363281 " fill-opacity="1" fill-rule="nonzero"/></svg>