<svg xmlns="http://www.w3.org/2000/svg" xmlns:xlink="http://www.w3.org/1999/xlink" width="80" zoomAndPan="magnify" viewBox="0 0 60 60" height="80" preserveAspectRatio="xMidYMid meet" version="1.0"><defs><filter x="0%" y="0%" width="100%" height="100%" id="49ea63bc63"><feColorMatrix values="0 0 0 0 1 0 0 0 0 1 0 0 0 0 1 0 0 0 1 0" color-interpolation-filters="sRGB"/></filter><clipPath id="8b916304a8"><path d="M 9.359375 2.777344 L 50.609375 2.777344 L 50.609375 57.527344 L 9.359375 57.527344 Z M 9.359375 2.777344 " clip-rule="nonzero"/></clipPath><clipPath id="d079804931"><path d="M 9.359375 4 L 49 4 L 49 56 L 9.359375 56 Z M 9.359375 4 " clip-rule="nonzero"/></clipPath><mask id="c5db263c9e"><g filter="url(#49ea63bc63)"><rect x="-6" width="72" fill="#000000" y="-6" height="72" fill-opacity="0.3"/></g></mask><clipPath id="ed84c630ad"><path d="M 0.0390625 0.0390625 L 34 0.0390625 L 34 26.679688 L 0.0390625 26.679688 Z M 0.0390625 0.0390625 " clip-rule="nonzero"/></clipPath><clipPath id="803c1d6c55"><rect x="0" width="35" y="0" height="27"/></clipPath><clipPath id="3f8ea4a882"><path d="M 9.359375 2.777344 L 50.609375 2.777344 L 50.609375 57.527344 L 9.359375 57.527344 Z M 9.359375 2.777344 " clip-rule="nonzero"/></clipPath></defs><g clip-path="url(#8b916304a8)"><path fill="#000000" d="M 50.609375 29.207031 L 50.609375 40.527344 L 48.734375 40.527344 L 48.734375 48.074219 L 46.859375 48.074219 L 46.859375 53.734375 L 44.984375 53.734375 L 44.984375 55.621094 L 41.234375 55.621094 L 41.234375 57.507812 L 24.359375 57.507812 L 24.359375 55.621094 L 20.609375 55.621094 L 20.609375 53.734375 L 18.734375 53.734375 L 18.734375 49.960938 L 16.859375 49.960938 L 16.859375 44.300781 L 14.984375 44.300781 L 14.984375 38.640625 L 13.109375 38.640625 L 13.109375 36.753906 L 11.234375 36.753906 L 11.234375 34.867188 L 9.359375 34.867188 L 9.359375 27.320312 L 16.859375 27.320312 L 16.859375 29.207031 L 18.734375 29.207031 L 18.734375 31.09375 L 20.609375 31.09375 L 20.609375 4.683594 L 22.484375 4.683594 L 22.484375 2.796875 L 28.109375 2.796875 L 28.109375 4.683594 L 29.984375 4.683594 L 29.984375 17.886719 L 31.859375 17.886719 L 31.859375 16 L 35.609375 16 L 35.609375 17.886719 L 41.234375 17.886719 L 41.234375 19.773438 L 44.984375 19.773438 L 44.984375 21.660156 L 46.859375 21.660156 L 46.859375 23.546875 L 48.734375 23.546875 L 48.734375 29.207031 Z M 50.609375 29.207031 " fill-opacity="1" fill-rule="nonzero"/></g><g clip-path="url(#d079804931)"><path fill="#7700ff" d="M 16.859375 29.207031 L 20.609375 32.980469 L 22.484375 31.09375 L 20.609375 4.683594 L 29.984375 4.683594 L 29.984375 17.886719 L 35.609375 17.886719 L 41.234375 19.773438 L 44.984375 21.660156 L 46.859375 23.546875 L 48.734375 29.207031 L 48.734375 40.527344 L 46.859375 48.074219 L 44.984375 53.734375 L 41.234375 55.621094 L 24.359375 55.621094 L 20.609375 53.734375 L 18.734375 49.960938 L 14.984375 38.640625 L 11.234375 34.867188 L 9.359375 27.320312 Z M 16.859375 29.207031 " fill-opacity="1" fill-rule="nonzero"/></g><g mask="url(#c5db263c9e)"><g transform="matrix(1, 0, 0, 1, 11, 29)"><g clip-path="url(#803c1d6c55)"><g clip-path="url(#ed84c630ad)"><path fill="#000000" d="M 2.109375 0.207031 L 2.109375 5.867188 L 0.234375 5.867188 L 0.234375 0.207031 Z M 2.109375 5.867188 L 2.109375 7.753906 L 3.984375 7.753906 L 3.984375 5.867188 Z M 5.859375 9.640625 L 5.859375 7.753906 L 3.984375 7.753906 L 3.984375 9.640625 Z M 7.734375 13.414062 L 5.859375 13.414062 L 5.859375 15.300781 L 7.734375 15.300781 Z M 9.609375 19.074219 L 7.734375 19.074219 L 7.734375 20.960938 L 9.609375 20.960938 Z M 9.609375 22.847656 L 9.609375 24.734375 L 13.359375 24.734375 L 13.359375 22.847656 Z M 30.234375 22.847656 L 30.234375 24.734375 L 33.984375 24.734375 L 33.984375 22.847656 Z M 13.359375 26.621094 L 30.234375 26.621094 L 30.234375 24.734375 L 13.359375 24.734375 Z M 13.359375 26.621094 " fill-opacity="1" fill-rule="nonzero"/></g></g></g></g><g clip-path="url(#3f8ea4a882)"><path fill="#000000" d="M 24.359375 4.683594 L 22.484375 4.683594 L 22.484375 2.796875 L 28.109375 2.796875 L 28.109375 4.683594 Z M 28.109375 8.457031 L 28.109375 27.320312 L 29.984375 27.320312 L 29.984375 19.773438 L 31.859375 19.773438 L 31.859375 17.886719 L 29.984375 17.886719 L 29.984375 4.683594 L 28.109375 4.683594 Z M 35.609375 17.886719 L 35.609375 16 L 31.859375 16 L 31.859375 17.886719 Z M 35.609375 21.660156 L 35.609375 29.207031 L 37.484375 29.207031 L 37.484375 19.773438 L 41.234375 19.773438 L 41.234375 17.886719 L 35.609375 17.886719 Z M 41.234375 23.546875 L 41.234375 31.09375 L 43.109375 31.09375 L 43.109375 21.660156 L 44.984375 21.660156 L 44.984375 19.773438 L 41.234375 19.773438 Z M 46.859375 23.546875 L 46.859375 21.660156 L 44.984375 21.660156 L 44.984375 23.546875 Z M 46.859375 27.320312 L 46.859375 29.207031 L 48.734375 29.207031 L 48.734375 23.546875 L 46.859375 23.546875 Z M 18.734375 31.09375 L 18.734375 29.207031 L 16.859375 29.207031 L 16.859375 31.09375 Z M 48.734375 29.207031 L 48.734375 40.527344 L 50.609375 40.527344 L 50.609375 29.207031 Z M 11.234375 31.09375 L 11.234375 29.207031 L 16.859375 29.207031 L 16.859375 27.320312 L 9.359375 27.320312 L 9.359375 34.867188 L 11.234375 34.867188 Z M 20.609375 32.980469 L 20.609375 36.753906 L 22.484375 36.753906 L 22.484375 4.683594 L 20.609375 4.683594 L 20.609375 31.09375 L 18.734375 31.09375 L 18.734375 32.980469 Z M 11.234375 34.867188 L 11.234375 36.753906 L 13.109375 36.753906 L 13.109375 34.867188 Z M 13.109375 36.753906 L 13.109375 38.640625 L 14.984375 38.640625 L 14.984375 36.753906 Z M 16.859375 40.527344 L 16.859375 38.640625 L 14.984375 38.640625 L 14.984375 44.300781 L 16.859375 44.300781 Z M 46.859375 46.1875 L 46.859375 48.074219 L 48.734375 48.074219 L 48.734375 40.527344 L 46.859375 40.527344 Z M 18.734375 46.1875 L 18.734375 44.300781 L 16.859375 44.300781 L 16.859375 49.960938 L 18.734375 49.960938 Z M 44.984375 49.960938 L 44.984375 53.734375 L 46.859375 53.734375 L 46.859375 48.074219 L 44.984375 48.074219 Z M 20.609375 49.960938 L 18.734375 49.960938 L 18.734375 53.734375 L 20.609375 53.734375 Z M 22.484375 53.734375 L 20.609375 53.734375 L 20.609375 55.621094 L 24.359375 55.621094 L 24.359375 53.734375 Z M 41.234375 53.734375 L 41.234375 55.621094 L 44.984375 55.621094 L 44.984375 53.734375 Z M 37.484375 55.621094 L 24.359375 55.621094 L 24.359375 57.507812 L 41.234375 57.507812 L 41.234375 55.621094 Z M 37.484375 55.621094 " fill-opacity="1" fill-rule="nonzero"/></g><path fill="#ffffff" d="M 18.734375 31.09375 L 18.734375 32.980469 L 16.859375 32.980469 L 16.859375 31.09375 Z M 18.734375 34.867188 L 20.609375 34.867188 L 20.609375 32.980469 L 18.734375 32.980469 Z M 14.984375 29.207031 L 14.984375 31.09375 L 16.859375 31.09375 L 16.859375 29.207031 Z M 26.234375 27.320312 L 28.109375 27.320312 L 28.109375 4.683594 L 26.234375 4.683594 Z M 33.734375 29.207031 L 35.609375 29.207031 L 35.609375 17.886719 L 33.734375 17.886719 Z M 39.359375 31.09375 L 41.234375 31.09375 L 41.234375 19.773438 L 39.359375 19.773438 Z M 44.984375 23.546875 L 44.984375 29.207031 L 46.859375 29.207031 L 46.859375 23.546875 Z M 46.859375 29.207031 L 46.859375 40.527344 L 48.734375 40.527344 L 48.734375 29.207031 Z M 44.984375 48.074219 L 46.859375 48.074219 L 46.859375 40.527344 L 44.984375 40.527344 Z M 43.109375 51.847656 L 44.984375 51.847656 L 44.984375 48.074219 L 43.109375 48.074219 Z M 43.109375 51.847656 " fill-opacity="1" fill-rule="nonzero"/></svg>