<svg xmlns="http://www.w3.org/2000/svg" xmlns:xlink="http://www.w3.org/1999/xlink" width="80" zoomAndPan="magnify" viewBox="0 0 60 60" height="80" preserveAspectRatio="xMidYMid meet" version="1.0"><defs><filter x="0%" y="0%" width="100%" height="100%" id="a4dd218b95"><feColorMatrix values="0 0 0 0 1 0 0 0 0 1 0 0 0 0 1 0 0 0 1 0" color-interpolation-filters="sRGB"/></filter><clipPath id="f82669b532"><path d="M 8 10 L 55.269531 10 L 55.269531 56.761719 L 8 56.761719 Z M 8 10 " clip-rule="nonzero"/></clipPath><mask id="fd7b1162ef"><g filter="url(#a4dd218b95)"><rect x="-6" width="72" fill="#000000" y="-6" height="72" fill-opacity="0.3"/></g></mask><clipPath id="8ebb140e0d"><path d="M 0.160156 0.320312 L 47.269531 0.320312 L 47.269531 46.761719 L 0.160156 46.761719 Z M 0.160156 0.320312 " clip-rule="nonzero"/></clipPath><clipPath id="f3224bdc0b"><rect x="0" width="48" y="0" height="47"/></clipPath><mask id="bc2e6bf391"><g filter="url(#a4dd218b95)"><rect x="-6" width="72" fill="#000000" y="-6" height="72" fill-opacity="0.3"/></g></mask><clipPath id="739487d8a6"><path d="M 0.480469 0 L 29.28125 0 L 29.28125 41.519531 L 0.480469 41.519531 Z M 0.480469 0 " clip-rule="nonzero"/></clipPath><clipPath id="037f13d827"><rect x="0" width="30" y="0" height="42"/></clipPath><clipPath id="2a0ce8f487"><path d="M 5.019531 8.761719 L 52 8.761719 L 52 56 L 5.019531 56 Z M 5.019531 8.761719 " clip-rule="nonzero"/></clipPath><mask id="716f8a5f43"><g filter="url(#a4dd218b95)"><rect x="-6" width="72" fill="#000000" y="-6" height="72" fill-opacity="0.3"/></g></mask><clipPath id="d17064be21"><path d="M 0.601562 0.320312 L 29.398438 0.320312 L 29.398438 41.839844 L 0.601562 41.839844 Z M 0.601562 0.320312 " clip-rule="nonzero"/></clipPath><clipPath id="d561fd10bc"><rect x="0" width="30" y="0" height="42"/></clipPath></defs><g clip-path="url(#f82669b532)"><g mask="url(#fd7b1162ef)"><g transform="matrix(1, 0, 0, 1, 8, 10)"><g clip-path="url(#f3224bdc0b)"><g clip-path="url(#8ebb140e0d)"><path fill="#000000" d="M 45.597656 16.972656 L 45.597656 13.664062 L 43.921875 13.664062 L 43.921875 10.355469 L 42.246094 10.355469 L 42.246094 8.699219 L 40.570312 8.699219 L 40.570312 7.046875 L 38.894531 7.046875 L 38.894531 5.390625 L 37.222656 5.390625 L 37.222656 3.738281 L 35.546875 3.738281 L 35.546875 2.082031 L 30.519531 2.082031 L 30.519531 0.429688 L 17.121094 0.429688 L 17.121094 2.082031 L 12.097656 2.082031 L 12.097656 3.738281 L 10.421875 3.738281 L 10.421875 5.390625 L 8.746094 5.390625 L 8.746094 7.046875 L 7.070312 7.046875 L 7.070312 8.699219 L 5.394531 8.699219 L 5.394531 10.355469 L 3.722656 10.355469 L 3.722656 13.664062 L 2.046875 13.664062 L 2.046875 16.972656 L 0.371094 16.972656 L 0.371094 30.207031 L 2.046875 30.207031 L 2.046875 33.515625 L 3.722656 33.515625 L 3.722656 36.824219 L 5.394531 36.824219 L 5.394531 38.476562 L 7.070312 38.476562 L 7.070312 40.132812 L 8.746094 40.132812 L 8.746094 41.785156 L 10.421875 41.785156 L 10.421875 43.441406 L 12.097656 43.441406 L 12.097656 45.09375 L 17.121094 45.09375 L 17.121094 46.75 L 30.519531 46.75 L 30.519531 45.09375 L 35.546875 45.09375 L 35.546875 43.441406 L 37.222656 43.441406 L 37.222656 41.785156 L 38.894531 41.785156 L 38.894531 40.132812 L 40.570312 40.132812 L 40.570312 38.476562 L 42.246094 38.476562 L 42.246094 36.824219 L 43.921875 36.824219 L 43.921875 33.515625 L 45.597656 33.515625 L 45.597656 30.207031 L 47.269531 30.207031 L 47.269531 16.972656 Z M 45.597656 16.972656 " fill-opacity="1" fill-rule="nonzero"/></g></g></g></g></g><path fill="#7700ff" d="M 6.695312 38.550781 L 6.695312 25.316406 L 10.046875 18.699219 L 16.746094 12.082031 L 21.769531 10.429688 L 35.171875 10.429688 L 40.195312 12.082031 L 46.894531 18.699219 L 50.246094 25.316406 L 50.246094 38.550781 L 46.894531 45.167969 L 40.195312 51.785156 L 35.171875 53.441406 L 21.769531 53.441406 L 16.746094 51.785156 L 10.046875 45.167969 Z M 6.695312 38.550781 " fill-opacity="1" fill-rule="nonzero"/><g mask="url(#bc2e6bf391)"><g transform="matrix(1, 0, 0, 1, 6, 12)"><g clip-path="url(#037f13d827)"><g clip-path="url(#739487d8a6)"><path fill="#000000" d="M 15.769531 1.738281 L 10.746094 1.738281 L 10.746094 0.0820312 L 15.769531 0.0820312 Z M 10.746094 1.738281 L 9.070312 1.738281 L 9.070312 3.390625 L 10.746094 3.390625 Z M 9.070312 3.390625 L 7.394531 3.390625 L 7.394531 5.046875 L 9.070312 5.046875 Z M 7.394531 5.046875 L 5.722656 5.046875 L 5.722656 6.699219 L 7.394531 6.699219 Z M 5.722656 8.355469 L 5.722656 6.699219 L 4.046875 6.699219 L 4.046875 10.007812 L 5.722656 10.007812 Z M 4.046875 11.664062 L 4.046875 10.007812 L 2.371094 10.007812 L 2.371094 13.316406 L 4.046875 13.316406 Z M 2.371094 23.242188 L 2.371094 13.316406 L 0.695312 13.316406 L 0.695312 26.550781 L 2.371094 26.550781 Z M 4.046875 26.550781 L 2.371094 26.550781 L 2.371094 29.859375 L 4.046875 29.859375 Z M 5.722656 29.859375 L 4.046875 29.859375 L 4.046875 33.167969 L 5.722656 33.167969 Z M 5.722656 33.167969 L 5.722656 34.824219 L 7.394531 34.824219 L 7.394531 33.167969 Z M 7.394531 34.824219 L 7.394531 36.476562 L 9.070312 36.476562 L 9.070312 34.824219 Z M 9.070312 36.476562 L 9.070312 38.132812 L 10.746094 38.132812 L 10.746094 36.476562 Z M 10.746094 38.132812 L 10.746094 39.785156 L 15.769531 39.785156 L 15.769531 38.132812 Z M 15.769531 39.785156 L 15.769531 41.441406 L 29.171875 41.441406 L 29.171875 39.785156 Z M 15.769531 39.785156 " fill-opacity="1" fill-rule="nonzero"/></g></g></g></g><g clip-path="url(#2a0ce8f487)"><path fill="#000000" d="M 23.445312 10.429688 L 21.769531 10.429688 L 21.769531 8.773438 L 35.171875 8.773438 L 35.171875 10.429688 Z M 20.097656 12.082031 L 21.769531 12.082031 L 21.769531 10.429688 L 16.746094 10.429688 L 16.746094 12.082031 Z M 36.847656 12.082031 L 40.195312 12.082031 L 40.195312 10.429688 L 35.171875 10.429688 L 35.171875 12.082031 Z M 16.746094 12.082031 L 15.070312 12.082031 L 15.070312 13.738281 L 16.746094 13.738281 Z M 41.871094 13.738281 L 41.871094 12.082031 L 40.195312 12.082031 L 40.195312 13.738281 Z M 15.070312 13.738281 L 13.394531 13.738281 L 13.394531 15.390625 L 15.070312 15.390625 Z M 43.546875 15.390625 L 43.546875 13.738281 L 41.871094 13.738281 L 41.871094 15.390625 Z M 13.394531 15.390625 L 11.722656 15.390625 L 11.722656 17.046875 L 13.394531 17.046875 Z M 45.222656 17.046875 L 45.222656 15.390625 L 43.546875 15.390625 L 43.546875 17.046875 Z M 11.722656 17.046875 L 10.046875 17.046875 L 10.046875 18.699219 L 11.722656 18.699219 Z M 46.894531 18.699219 L 46.894531 17.046875 L 45.222656 17.046875 L 45.222656 18.699219 Z M 10.046875 20.355469 L 10.046875 18.699219 L 8.371094 18.699219 L 8.371094 22.007812 L 10.046875 22.007812 Z M 46.894531 22.007812 L 48.570312 22.007812 L 48.570312 18.699219 L 46.894531 18.699219 Z M 8.371094 23.664062 L 8.371094 22.007812 L 6.695312 22.007812 L 6.695312 25.316406 L 8.371094 25.316406 Z M 48.570312 25.316406 L 50.246094 25.316406 L 50.246094 22.007812 L 48.570312 22.007812 Z M 50.246094 25.316406 L 50.246094 38.550781 L 51.921875 38.550781 L 51.921875 25.316406 Z M 6.695312 35.242188 L 6.695312 25.316406 L 5.019531 25.316406 L 5.019531 38.550781 L 6.695312 38.550781 Z M 8.371094 38.550781 L 6.695312 38.550781 L 6.695312 41.859375 L 8.371094 41.859375 Z M 48.570312 40.207031 L 48.570312 41.859375 L 50.246094 41.859375 L 50.246094 38.550781 L 48.570312 38.550781 Z M 10.046875 41.859375 L 8.371094 41.859375 L 8.371094 45.167969 L 10.046875 45.167969 Z M 46.894531 43.515625 L 46.894531 45.167969 L 48.570312 45.167969 L 48.570312 41.859375 L 46.894531 41.859375 Z M 10.046875 45.167969 L 10.046875 46.824219 L 11.722656 46.824219 L 11.722656 45.167969 Z M 45.222656 46.824219 L 46.894531 46.824219 L 46.894531 45.167969 L 45.222656 45.167969 Z M 11.722656 46.824219 L 11.722656 48.476562 L 13.394531 48.476562 L 13.394531 46.824219 Z M 43.546875 48.476562 L 45.222656 48.476562 L 45.222656 46.824219 L 43.546875 46.824219 Z M 13.394531 48.476562 L 13.394531 50.132812 L 15.070312 50.132812 L 15.070312 48.476562 Z M 41.871094 50.132812 L 43.546875 50.132812 L 43.546875 48.476562 L 41.871094 48.476562 Z M 15.070312 50.132812 L 15.070312 51.785156 L 16.746094 51.785156 L 16.746094 50.132812 Z M 40.195312 51.785156 L 41.871094 51.785156 L 41.871094 50.132812 L 40.195312 50.132812 Z M 20.097656 51.785156 L 16.746094 51.785156 L 16.746094 53.441406 L 21.769531 53.441406 L 21.769531 51.785156 Z M 36.847656 51.785156 L 35.171875 51.785156 L 35.171875 53.441406 L 40.195312 53.441406 L 40.195312 51.785156 Z M 31.820312 53.441406 L 21.769531 53.441406 L 21.769531 55.09375 L 35.171875 55.09375 L 35.171875 53.441406 Z M 31.820312 53.441406 " fill-opacity="1" fill-rule="nonzero"/></g><path fill="#ffffff" d="M 33.496094 30.28125 L 33.496094 33.589844 L 35.171875 33.589844 L 35.171875 35.242188 L 36.847656 35.242188 L 36.847656 36.898438 L 38.519531 36.898438 L 38.519531 38.550781 L 40.195312 38.550781 L 40.195312 40.207031 L 41.871094 40.207031 L 41.871094 41.859375 L 40.195312 41.859375 L 40.195312 43.515625 L 38.519531 43.515625 L 38.519531 45.167969 L 36.847656 45.167969 L 36.847656 43.515625 L 35.171875 43.515625 L 35.171875 41.859375 L 33.496094 41.859375 L 33.496094 40.207031 L 31.820312 40.207031 L 31.820312 38.550781 L 30.144531 38.550781 L 30.144531 36.898438 L 26.796875 36.898438 L 26.796875 38.550781 L 25.121094 38.550781 L 25.121094 40.207031 L 23.445312 40.207031 L 23.445312 41.859375 L 21.769531 41.859375 L 21.769531 43.515625 L 20.097656 43.515625 L 20.097656 45.167969 L 18.421875 45.167969 L 18.421875 43.515625 L 16.746094 43.515625 L 16.746094 41.859375 L 15.070312 41.859375 L 15.070312 40.207031 L 16.746094 40.207031 L 16.746094 38.550781 L 18.421875 38.550781 L 18.421875 36.898438 L 20.097656 36.898438 L 20.097656 35.242188 L 21.769531 35.242188 L 21.769531 33.589844 L 23.445312 33.589844 L 23.445312 30.28125 L 21.769531 30.28125 L 21.769531 28.625 L 20.097656 28.625 L 20.097656 26.972656 L 18.421875 26.972656 L 18.421875 25.316406 L 16.746094 25.316406 L 16.746094 23.664062 L 15.070312 23.664062 L 15.070312 22.007812 L 16.746094 22.007812 L 16.746094 20.355469 L 18.421875 20.355469 L 18.421875 18.699219 L 20.097656 18.699219 L 20.097656 20.355469 L 21.769531 20.355469 L 21.769531 22.007812 L 23.445312 22.007812 L 23.445312 23.664062 L 25.121094 23.664062 L 25.121094 25.316406 L 26.796875 25.316406 L 26.796875 26.972656 L 30.144531 26.972656 L 30.144531 25.316406 L 31.820312 25.316406 L 31.820312 23.664062 L 33.496094 23.664062 L 33.496094 22.007812 L 35.171875 22.007812 L 35.171875 20.355469 L 36.847656 20.355469 L 36.847656 18.699219 L 38.519531 18.699219 L 38.519531 20.355469 L 40.195312 20.355469 L 40.195312 22.007812 L 41.871094 22.007812 L 41.871094 23.664062 L 40.195312 23.664062 L 40.195312 25.316406 L 38.519531 25.316406 L 38.519531 26.972656 L 36.847656 26.972656 L 36.847656 28.625 L 35.171875 28.625 L 35.171875 30.28125 Z M 33.496094 30.28125 " fill-opacity="1" fill-rule="nonzero"/><g mask="url(#716f8a5f43)"><g transform="matrix(1, 0, 0, 1, 21, 10)"><g clip-path="url(#d561fd10bc)"><g clip-path="url(#d17064be21)"><path fill="#ffffff" d="M 14.171875 40.132812 L 19.195312 40.132812 L 19.195312 41.785156 L 14.171875 41.785156 Z M 19.195312 40.132812 L 20.871094 40.132812 L 20.871094 38.476562 L 19.195312 38.476562 Z M 20.871094 38.476562 L 22.546875 38.476562 L 22.546875 36.824219 L 20.871094 36.824219 Z M 22.546875 36.824219 L 24.222656 36.824219 L 24.222656 35.167969 L 22.546875 35.167969 Z M 24.222656 33.515625 L 24.222656 35.167969 L 25.894531 35.167969 L 25.894531 31.859375 L 24.222656 31.859375 Z M 25.894531 30.207031 L 25.894531 31.859375 L 27.570312 31.859375 L 27.570312 28.550781 L 25.894531 28.550781 Z M 27.570312 15.316406 L 27.570312 28.550781 L 29.246094 28.550781 L 29.246094 15.316406 Z M 27.570312 12.007812 L 25.894531 12.007812 L 25.894531 15.316406 L 27.570312 15.316406 Z M 25.894531 8.699219 L 24.222656 8.699219 L 24.222656 12.007812 L 25.894531 12.007812 Z M 22.546875 7.046875 L 22.546875 8.699219 L 24.222656 8.699219 L 24.222656 7.046875 Z M 20.871094 5.390625 L 20.871094 7.046875 L 22.546875 7.046875 L 22.546875 5.390625 Z M 19.195312 3.738281 L 19.195312 5.390625 L 20.871094 5.390625 L 20.871094 3.738281 Z M 14.171875 2.082031 L 14.171875 3.738281 L 19.195312 3.738281 L 19.195312 2.082031 Z M 0.769531 0.429688 L 0.769531 2.082031 L 14.171875 2.082031 L 14.171875 0.429688 Z M 0.769531 0.429688 " fill-opacity="1" fill-rule="nonzero"/></g></g></g></g></svg>