<svg xmlns="http://www.w3.org/2000/svg" xmlns:xlink="http://www.w3.org/1999/xlink" width="80" zoomAndPan="magnify" viewBox="0 0 60 60" height="80" preserveAspectRatio="xMidYMid meet" version="1.0"><defs><filter x="0%" y="0%" width="100%" height="100%" id="e375575263"><feColorMatrix values="0 0 0 0 1 0 0 0 0 1 0 0 0 0 1 0 0 0 1 0" color-interpolation-filters="sRGB"/></filter><clipPath id="e5ccf5bf73"><path d="M 2.484375 3 L 56 3 L 56 57.234375 L 2.484375 57.234375 Z M 2.484375 3 " clip-rule="nonzero"/></clipPath><mask id="be1b12f11b"><g filter="url(#e375575263)"><rect x="-6" width="72" fill="#000000" y="-6" height="72" fill-opacity="0.3"/></g></mask><clipPath id="29781aa84f"><path d="M 0.484375 0.601562 L 53.921875 0.601562 L 53.921875 54.234375 L 0.484375 54.234375 Z M 0.484375 0.601562 " clip-rule="nonzero"/></clipPath><clipPath id="1efd589852"><rect x="0" width="54" y="0" height="55"/></clipPath><clipPath id="74239b8c42"><path d="M 3 2.484375 L 57.234375 2.484375 L 57.234375 56 L 3 56 Z M 3 2.484375 " clip-rule="nonzero"/></clipPath><clipPath id="1cb6634b52"><path d="M 3 2.484375 L 57.234375 2.484375 L 57.234375 56 L 3 56 Z M 3 2.484375 " clip-rule="nonzero"/></clipPath><mask id="bf9b1e62b3"><g filter="url(#e375575263)"><rect x="-6" width="72" fill="#000000" y="-6" height="72" fill-opacity="0.3"/></g></mask><clipPath id="3bbe075d4a"><path d="M 0.480469 0.601562 L 48.71875 0.601562 L 48.71875 50.28125 L 0.480469 50.28125 Z M 0.480469 0.601562 " clip-rule="nonzero"/></clipPath><clipPath id="5cd85eab37"><rect x="0" width="49" y="0" height="51"/></clipPath><mask id="559e706489"><g filter="url(#e375575263)"><rect x="-6" width="72" fill="#000000" y="-6" height="72" fill-opacity="0.6"/></g></mask><clipPath id="4065943ef5"><path d="M 0.28125 0.078125 L 9 0.078125 L 9 8.71875 L 0.28125 8.71875 Z M 0.28125 0.078125 " clip-rule="nonzero"/></clipPath><clipPath id="de99c9ebeb"><rect x="0" width="10" y="0" height="9"/></clipPath></defs><g clip-path="url(#e5ccf5bf73)"><g mask="url(#be1b12f11b)"><g transform="matrix(1, 0, 0, 1, 2, 3)"><g clip-path="url(#1efd589852)"><g clip-path="url(#29781aa84f)"><path fill="#000000" d="M 52.425781 24.753906 L 52.425781 23.347656 L 51.023438 23.347656 L 51.023438 21.945312 L 44.003906 21.945312 L 44.003906 19.136719 L 42.597656 19.136719 L 42.597656 17.734375 L 44.003906 17.734375 L 44.003906 16.328125 L 45.40625 16.328125 L 45.40625 14.925781 L 46.8125 14.925781 L 46.8125 10.714844 L 45.40625 10.714844 L 45.40625 9.3125 L 44.003906 9.3125 L 44.003906 7.90625 L 39.792969 7.90625 L 39.792969 9.3125 L 38.386719 9.3125 L 38.386719 10.714844 L 36.984375 10.714844 L 36.984375 12.117188 L 35.578125 12.117188 L 35.578125 10.714844 L 32.773438 10.714844 L 32.773438 3.695312 L 31.367188 3.695312 L 31.367188 2.292969 L 29.964844 2.292969 L 29.964844 0.886719 L 24.347656 0.886719 L 24.347656 2.292969 L 22.945312 2.292969 L 22.945312 3.695312 L 21.542969 3.695312 L 21.542969 10.714844 L 18.734375 10.714844 L 18.734375 12.117188 L 17.328125 12.117188 L 17.328125 10.714844 L 15.925781 10.714844 L 15.925781 9.3125 L 14.523438 9.3125 L 14.523438 7.90625 L 10.3125 7.90625 L 10.3125 9.3125 L 8.90625 9.3125 L 8.90625 10.714844 L 7.503906 10.714844 L 7.503906 14.925781 L 8.90625 14.925781 L 8.90625 16.328125 L 10.3125 16.328125 L 10.3125 17.734375 L 11.714844 17.734375 L 11.714844 19.136719 L 10.3125 19.136719 L 10.3125 21.945312 L 3.292969 21.945312 L 3.292969 23.347656 L 1.886719 23.347656 L 1.886719 24.753906 L 0.484375 24.753906 L 0.484375 30.367188 L 1.886719 30.367188 L 1.886719 31.773438 L 3.292969 31.773438 L 3.292969 33.175781 L 10.3125 33.175781 L 10.3125 35.984375 L 11.714844 35.984375 L 11.714844 37.386719 L 10.3125 37.386719 L 10.3125 38.792969 L 8.90625 38.792969 L 8.90625 40.195312 L 7.503906 40.195312 L 7.503906 44.40625 L 8.90625 44.40625 L 8.90625 45.8125 L 10.3125 45.8125 L 10.3125 47.214844 L 14.523438 47.214844 L 14.523438 45.8125 L 15.925781 45.8125 L 15.925781 44.40625 L 17.328125 44.40625 L 17.328125 43.003906 L 18.734375 43.003906 L 18.734375 44.40625 L 21.542969 44.40625 L 21.542969 51.425781 L 22.945312 51.425781 L 22.945312 52.828125 L 24.347656 52.828125 L 24.347656 54.234375 L 29.964844 54.234375 L 29.964844 52.828125 L 31.367188 52.828125 L 31.367188 51.425781 L 32.773438 51.425781 L 32.773438 44.40625 L 35.578125 44.40625 L 35.578125 43.003906 L 36.984375 43.003906 L 36.984375 44.40625 L 38.386719 44.40625 L 38.386719 45.8125 L 39.792969 45.8125 L 39.792969 47.214844 L 41.195312 47.214844 L 41.195312 48.617188 L 45.40625 48.617188 L 45.40625 47.214844 L 46.8125 47.214844 L 46.8125 45.8125 L 48.214844 45.8125 L 48.214844 41.597656 L 46.8125 41.597656 L 46.8125 40.195312 L 45.40625 40.195312 L 45.40625 38.792969 L 44.003906 38.792969 L 44.003906 37.386719 L 42.597656 37.386719 L 42.597656 35.984375 L 44.003906 35.984375 L 44.003906 33.175781 L 51.023438 33.175781 L 51.023438 31.773438 L 52.425781 31.773438 L 52.425781 30.367188 L 53.828125 30.367188 L 53.828125 24.753906 Z M 52.425781 24.753906 " fill-opacity="1" fill-rule="nonzero"/></g></g></g></g></g><g clip-path="url(#74239b8c42)"><path fill="#000000" d="M 55.828125 26.347656 L 55.828125 24.945312 L 54.425781 24.945312 L 54.425781 23.542969 L 47.40625 23.542969 L 47.40625 20.734375 L 46.003906 20.734375 L 46.003906 19.328125 L 47.40625 19.328125 L 47.40625 17.925781 L 48.8125 17.925781 L 48.8125 16.523438 L 50.214844 16.523438 L 50.214844 12.3125 L 48.8125 12.3125 L 48.8125 10.90625 L 47.40625 10.90625 L 47.40625 9.503906 L 43.195312 9.503906 L 43.195312 10.90625 L 41.792969 10.90625 L 41.792969 12.3125 L 40.386719 12.3125 L 40.386719 13.714844 L 38.984375 13.714844 L 38.984375 12.3125 L 36.175781 12.3125 L 36.175781 5.292969 L 34.773438 5.292969 L 34.773438 3.886719 L 33.367188 3.886719 L 33.367188 2.484375 L 27.753906 2.484375 L 27.753906 3.886719 L 26.347656 3.886719 L 26.347656 5.292969 L 24.945312 5.292969 L 24.945312 12.3125 L 22.136719 12.3125 L 22.136719 13.714844 L 20.734375 13.714844 L 20.734375 12.3125 L 19.328125 12.3125 L 19.328125 10.90625 L 17.925781 10.90625 L 17.925781 9.503906 L 13.714844 9.503906 L 13.714844 10.90625 L 12.3125 10.90625 L 12.3125 12.3125 L 10.90625 12.3125 L 10.90625 16.523438 L 12.3125 16.523438 L 12.3125 17.925781 L 13.714844 17.925781 L 13.714844 19.328125 L 15.117188 19.328125 L 15.117188 20.734375 L 13.714844 20.734375 L 13.714844 23.542969 L 6.695312 23.542969 L 6.695312 24.945312 L 5.292969 24.945312 L 5.292969 26.347656 L 3.886719 26.347656 L 3.886719 31.964844 L 5.292969 31.964844 L 5.292969 33.367188 L 6.695312 33.367188 L 6.695312 34.773438 L 13.714844 34.773438 L 13.714844 37.578125 L 15.117188 37.578125 L 15.117188 38.984375 L 13.714844 38.984375 L 13.714844 40.386719 L 12.3125 40.386719 L 12.3125 41.792969 L 10.90625 41.792969 L 10.90625 46.003906 L 12.3125 46.003906 L 12.3125 47.40625 L 13.714844 47.40625 L 13.714844 48.8125 L 17.925781 48.8125 L 17.925781 47.40625 L 19.328125 47.40625 L 19.328125 46.003906 L 20.734375 46.003906 L 20.734375 44.597656 L 22.136719 44.597656 L 22.136719 46.003906 L 24.945312 46.003906 L 24.945312 53.023438 L 26.347656 53.023438 L 26.347656 54.425781 L 27.753906 54.425781 L 27.753906 55.828125 L 33.367188 55.828125 L 33.367188 54.425781 L 34.773438 54.425781 L 34.773438 53.023438 L 36.175781 53.023438 L 36.175781 46.003906 L 38.984375 46.003906 L 38.984375 44.597656 L 40.386719 44.597656 L 40.386719 46.003906 L 41.792969 46.003906 L 41.792969 47.40625 L 43.195312 47.40625 L 43.195312 48.8125 L 44.597656 48.8125 L 44.597656 50.214844 L 48.8125 50.214844 L 48.8125 48.8125 L 50.214844 48.8125 L 50.214844 47.40625 L 51.617188 47.40625 L 51.617188 43.195312 L 50.214844 43.195312 L 50.214844 41.792969 L 48.8125 41.792969 L 48.8125 40.386719 L 47.40625 40.386719 L 47.40625 38.984375 L 46.003906 38.984375 L 46.003906 37.578125 L 47.40625 37.578125 L 47.40625 34.773438 L 54.425781 34.773438 L 54.425781 33.367188 L 55.828125 33.367188 L 55.828125 31.964844 L 57.234375 31.964844 L 57.234375 26.347656 Z M 55.828125 26.347656 " fill-opacity="1" fill-rule="nonzero"/></g><path fill="#887be9" d="M 48.8125 43.195312 L 48.8125 41.792969 L 47.40625 41.792969 L 47.40625 40.386719 L 46.003906 40.386719 L 46.003906 38.984375 L 44.597656 38.984375 L 44.597656 37.578125 L 43.195312 37.578125 L 43.195312 36.175781 L 41.792969 36.175781 L 41.792969 34.773438 L 40.386719 34.773438 L 40.386719 33.367188 L 38.984375 33.367188 L 38.984375 24.945312 L 37.578125 24.945312 L 37.578125 23.542969 L 36.175781 23.542969 L 36.175781 22.136719 L 33.367188 22.136719 L 33.367188 20.734375 L 27.753906 20.734375 L 27.753906 23.542969 L 29.15625 23.542969 L 29.15625 24.945312 L 30.5625 24.945312 L 30.5625 26.347656 L 31.964844 26.347656 L 31.964844 27.753906 L 33.367188 27.753906 L 33.367188 29.15625 L 31.964844 29.15625 L 31.964844 30.5625 L 30.5625 30.5625 L 30.5625 31.964844 L 29.15625 31.964844 L 29.15625 30.5625 L 27.753906 30.5625 L 27.753906 29.15625 L 26.347656 29.15625 L 26.347656 27.753906 L 24.945312 27.753906 L 24.945312 26.347656 L 23.542969 26.347656 L 23.542969 24.945312 L 22.136719 24.945312 L 22.136719 33.367188 L 23.542969 33.367188 L 23.542969 34.773438 L 24.945312 34.773438 L 24.945312 36.175781 L 27.753906 36.175781 L 27.753906 37.578125 L 34.773438 37.578125 L 34.773438 38.984375 L 36.175781 38.984375 L 36.175781 40.386719 L 37.578125 40.386719 L 37.578125 41.792969 L 38.984375 41.792969 L 38.984375 43.195312 L 40.386719 43.195312 L 40.386719 44.597656 L 41.792969 44.597656 L 41.792969 46.003906 L 43.195312 46.003906 L 43.195312 47.40625 L 44.597656 47.40625 L 44.597656 48.8125 L 48.8125 48.8125 L 48.8125 47.40625 L 50.214844 47.40625 L 50.214844 43.195312 Z M 48.8125 43.195312 " fill-opacity="1" fill-rule="nonzero"/><path fill="#7700ff" d="M 31.964844 27.753906 L 31.964844 29.15625 L 30.5625 29.15625 L 30.5625 30.5625 L 29.15625 30.5625 L 29.15625 29.15625 L 27.753906 29.15625 L 27.753906 27.753906 L 26.347656 27.753906 L 26.347656 26.347656 L 24.945312 26.347656 L 24.945312 24.945312 L 23.542969 24.945312 L 23.542969 23.542969 L 24.945312 23.542969 L 24.945312 22.136719 L 26.347656 22.136719 L 26.347656 23.542969 L 27.753906 23.542969 L 27.753906 24.945312 L 29.15625 24.945312 L 29.15625 26.347656 L 30.5625 26.347656 L 30.5625 27.753906 Z M 31.964844 27.753906 " fill-opacity="1" fill-rule="nonzero"/><path fill="#7700ff" d="M 54.425781 26.347656 L 54.425781 24.945312 L 47.40625 24.945312 L 47.40625 23.542969 L 46.003906 23.542969 L 46.003906 20.734375 L 44.597656 20.734375 L 44.597656 19.328125 L 46.003906 19.328125 L 46.003906 17.925781 L 47.40625 17.925781 L 47.40625 16.523438 L 48.8125 16.523438 L 48.8125 12.3125 L 47.40625 12.3125 L 47.40625 10.90625 L 43.195312 10.90625 L 43.195312 12.3125 L 41.792969 12.3125 L 41.792969 13.714844 L 40.386719 13.714844 L 40.386719 15.117188 L 38.984375 15.117188 L 38.984375 13.714844 L 36.175781 13.714844 L 36.175781 12.3125 L 34.773438 12.3125 L 34.773438 5.292969 L 33.367188 5.292969 L 33.367188 3.886719 L 27.753906 3.886719 L 27.753906 5.292969 L 26.347656 5.292969 L 26.347656 12.3125 L 24.945312 12.3125 L 24.945312 13.714844 L 22.136719 13.714844 L 22.136719 15.117188 L 20.734375 15.117188 L 20.734375 13.714844 L 19.328125 13.714844 L 19.328125 12.3125 L 17.925781 12.3125 L 17.925781 10.90625 L 13.714844 10.90625 L 13.714844 12.3125 L 12.3125 12.3125 L 12.3125 16.523438 L 13.714844 16.523438 L 13.714844 17.925781 L 15.117188 17.925781 L 15.117188 19.328125 L 16.523438 19.328125 L 16.523438 20.734375 L 15.117188 20.734375 L 15.117188 23.542969 L 13.714844 23.542969 L 13.714844 24.945312 L 6.695312 24.945312 L 6.695312 26.347656 L 5.292969 26.347656 L 5.292969 31.964844 L 6.695312 31.964844 L 6.695312 33.367188 L 13.714844 33.367188 L 13.714844 34.773438 L 15.117188 34.773438 L 15.117188 37.578125 L 16.523438 37.578125 L 16.523438 38.984375 L 15.117188 38.984375 L 15.117188 40.386719 L 13.714844 40.386719 L 13.714844 41.792969 L 12.3125 41.792969 L 12.3125 46.003906 L 13.714844 46.003906 L 13.714844 47.40625 L 17.925781 47.40625 L 17.925781 46.003906 L 19.328125 46.003906 L 19.328125 44.597656 L 20.734375 44.597656 L 20.734375 43.195312 L 22.136719 43.195312 L 22.136719 44.597656 L 24.945312 44.597656 L 24.945312 46.003906 L 26.347656 46.003906 L 26.347656 53.023438 L 27.753906 53.023438 L 27.753906 54.425781 L 33.367188 54.425781 L 33.367188 53.023438 L 34.773438 53.023438 L 34.773438 46.003906 L 36.175781 46.003906 L 36.175781 44.597656 L 38.984375 44.597656 L 38.984375 43.195312 L 37.578125 43.195312 L 37.578125 41.792969 L 36.175781 41.792969 L 36.175781 40.386719 L 34.773438 40.386719 L 34.773438 38.984375 L 27.753906 38.984375 L 27.753906 37.578125 L 24.945312 37.578125 L 24.945312 36.175781 L 23.542969 36.175781 L 23.542969 34.773438 L 22.136719 34.773438 L 22.136719 33.367188 L 20.734375 33.367188 L 20.734375 24.945312 L 22.136719 24.945312 L 22.136719 23.542969 L 23.542969 23.542969 L 23.542969 22.136719 L 24.945312 22.136719 L 24.945312 20.734375 L 27.753906 20.734375 L 27.753906 19.328125 L 33.367188 19.328125 L 33.367188 20.734375 L 36.175781 20.734375 L 36.175781 22.136719 L 37.578125 22.136719 L 37.578125 23.542969 L 38.984375 23.542969 L 38.984375 24.945312 L 40.386719 24.945312 L 40.386719 33.367188 L 41.792969 33.367188 L 41.792969 34.773438 L 43.195312 34.773438 L 43.195312 36.175781 L 44.597656 36.175781 L 44.597656 37.578125 L 46.003906 37.578125 L 46.003906 34.773438 L 47.40625 34.773438 L 47.40625 33.367188 L 54.425781 33.367188 L 54.425781 31.964844 L 55.828125 31.964844 L 55.828125 26.347656 Z M 54.425781 26.347656 " fill-opacity="1" fill-rule="nonzero"/><path fill="#929394" d="M 44.597656 24.945312 L 44.597656 33.367188 L 43.195312 33.367188 L 43.195312 24.945312 Z M 41.792969 34.773438 L 43.195312 34.773438 L 43.195312 33.367188 L 41.792969 33.367188 Z M 43.195312 22.136719 L 41.792969 22.136719 L 41.792969 24.945312 L 43.195312 24.945312 Z M 40.386719 20.734375 L 40.386719 22.136719 L 41.792969 22.136719 L 41.792969 20.734375 Z M 38.984375 19.328125 L 38.984375 20.734375 L 40.386719 20.734375 L 40.386719 19.328125 Z M 37.578125 17.925781 L 37.578125 19.328125 L 38.984375 19.328125 L 38.984375 17.925781 Z M 36.175781 16.523438 L 34.773438 16.523438 L 34.773438 17.925781 L 37.578125 17.925781 L 37.578125 16.523438 Z M 36.175781 40.386719 L 34.773438 40.386719 L 34.773438 41.792969 L 36.175781 41.792969 Z M 33.367188 15.117188 L 26.347656 15.117188 L 26.347656 16.523438 L 34.773438 16.523438 L 34.773438 15.117188 Z M 27.753906 43.195312 L 34.773438 43.195312 L 34.773438 41.792969 L 26.347656 41.792969 L 26.347656 43.195312 Z M 24.945312 41.792969 L 26.347656 41.792969 L 26.347656 40.386719 L 23.542969 40.386719 L 23.542969 41.792969 Z M 23.542969 16.523438 L 23.542969 17.925781 L 26.347656 17.925781 L 26.347656 16.523438 Z M 23.542969 40.386719 L 23.542969 38.984375 L 22.136719 38.984375 L 22.136719 40.386719 Z M 22.136719 19.328125 L 23.542969 19.328125 L 23.542969 17.925781 L 22.136719 17.925781 Z M 22.136719 38.984375 L 22.136719 37.578125 L 20.734375 37.578125 L 20.734375 38.984375 Z M 20.734375 20.734375 L 22.136719 20.734375 L 22.136719 19.328125 L 20.734375 19.328125 Z M 20.734375 37.578125 L 20.734375 36.175781 L 19.328125 36.175781 L 19.328125 37.578125 Z M 19.328125 22.136719 L 20.734375 22.136719 L 20.734375 20.734375 L 19.328125 20.734375 Z M 17.925781 36.175781 L 19.328125 36.175781 L 19.328125 33.367188 L 17.925781 33.367188 Z M 17.925781 23.542969 L 17.925781 24.945312 L 19.328125 24.945312 L 19.328125 22.136719 L 17.925781 22.136719 Z M 16.523438 26.347656 L 16.523438 33.367188 L 17.925781 33.367188 L 17.925781 24.945312 L 16.523438 24.945312 Z M 16.523438 26.347656 " fill-opacity="1" fill-rule="nonzero"/><g clip-path="url(#1cb6634b52)"><path fill="#000000" d="M 57.234375 26.347656 L 57.234375 31.964844 L 55.828125 31.964844 L 55.828125 26.347656 Z M 50.214844 43.195312 L 50.214844 41.792969 L 48.8125 41.792969 L 48.8125 43.195312 Z M 48.8125 41.792969 L 48.8125 40.386719 L 47.40625 40.386719 L 47.40625 41.792969 Z M 48.8125 24.945312 L 54.425781 24.945312 L 54.425781 23.542969 L 47.40625 23.542969 L 47.40625 24.945312 Z M 47.40625 17.925781 L 48.8125 17.925781 L 48.8125 16.523438 L 47.40625 16.523438 Z M 48.8125 12.3125 L 48.8125 10.90625 L 47.40625 10.90625 L 47.40625 12.3125 Z M 47.40625 40.386719 L 47.40625 38.984375 L 46.003906 38.984375 L 46.003906 40.386719 Z M 46.003906 36.175781 L 46.003906 37.578125 L 47.40625 37.578125 L 47.40625 34.773438 L 46.003906 34.773438 Z M 46.003906 23.542969 L 47.40625 23.542969 L 47.40625 20.734375 L 46.003906 20.734375 Z M 46.003906 19.328125 L 47.40625 19.328125 L 47.40625 17.925781 L 46.003906 17.925781 Z M 44.597656 38.984375 L 46.003906 38.984375 L 46.003906 37.578125 L 44.597656 37.578125 Z M 44.597656 20.734375 L 46.003906 20.734375 L 46.003906 19.328125 L 44.597656 19.328125 Z M 43.195312 47.40625 L 43.195312 48.8125 L 44.597656 48.8125 L 44.597656 47.40625 Z M 41.792969 46.003906 L 41.792969 47.40625 L 43.195312 47.40625 L 43.195312 46.003906 Z M 43.195312 10.90625 L 41.792969 10.90625 L 41.792969 12.3125 L 43.195312 12.3125 Z M 40.386719 44.597656 L 40.386719 46.003906 L 41.792969 46.003906 L 41.792969 44.597656 Z M 41.792969 12.3125 L 40.386719 12.3125 L 40.386719 13.714844 L 41.792969 13.714844 Z M 38.984375 43.195312 L 38.984375 44.597656 L 40.386719 44.597656 L 40.386719 43.195312 Z M 38.984375 27.753906 L 38.984375 33.367188 L 40.386719 33.367188 L 40.386719 24.945312 L 38.984375 24.945312 Z M 38.984375 24.945312 L 38.984375 23.542969 L 37.578125 23.542969 L 37.578125 24.945312 Z M 36.175781 44.597656 L 36.175781 46.003906 L 38.984375 46.003906 L 38.984375 44.597656 Z M 37.578125 23.542969 L 37.578125 22.136719 L 36.175781 22.136719 L 36.175781 23.542969 Z M 34.773438 47.40625 L 34.773438 53.023438 L 36.175781 53.023438 L 36.175781 46.003906 L 34.773438 46.003906 Z M 34.773438 8.097656 L 34.773438 12.3125 L 36.175781 12.3125 L 36.175781 5.292969 L 34.773438 5.292969 Z M 34.773438 22.136719 L 36.175781 22.136719 L 36.175781 20.734375 L 33.367188 20.734375 L 33.367188 22.136719 Z M 30.5625 54.425781 L 27.753906 54.425781 L 27.753906 55.828125 L 33.367188 55.828125 L 33.367188 54.425781 Z M 30.5625 20.734375 L 33.367188 20.734375 L 33.367188 19.328125 L 27.753906 19.328125 L 27.753906 20.734375 Z M 26.347656 36.175781 L 24.945312 36.175781 L 24.945312 37.578125 L 27.753906 37.578125 L 27.753906 36.175781 Z M 26.347656 50.214844 L 26.347656 46.003906 L 24.945312 46.003906 L 24.945312 53.023438 L 26.347656 53.023438 Z M 26.347656 10.90625 L 26.347656 5.292969 L 24.945312 5.292969 L 24.945312 12.3125 L 26.347656 12.3125 Z M 23.542969 44.597656 L 22.136719 44.597656 L 22.136719 46.003906 L 24.945312 46.003906 L 24.945312 44.597656 Z M 23.542969 34.773438 L 23.542969 36.175781 L 24.945312 36.175781 L 24.945312 34.773438 Z M 24.945312 22.136719 L 23.542969 22.136719 L 23.542969 23.542969 L 24.945312 23.542969 Z M 22.136719 33.367188 L 22.136719 34.773438 L 23.542969 34.773438 L 23.542969 33.367188 Z M 23.542969 23.542969 L 22.136719 23.542969 L 22.136719 24.945312 L 23.542969 24.945312 Z M 20.734375 43.195312 L 20.734375 44.597656 L 22.136719 44.597656 L 22.136719 43.195312 Z M 22.136719 30.5625 L 22.136719 24.945312 L 20.734375 24.945312 L 20.734375 33.367188 L 22.136719 33.367188 Z M 19.328125 46.003906 L 20.734375 46.003906 L 20.734375 44.597656 L 19.328125 44.597656 Z M 20.734375 13.714844 L 20.734375 12.3125 L 19.328125 12.3125 L 19.328125 13.714844 Z M 17.925781 47.40625 L 19.328125 47.40625 L 19.328125 46.003906 L 17.925781 46.003906 Z M 19.328125 12.3125 L 19.328125 10.90625 L 17.925781 10.90625 L 17.925781 12.3125 Z M 16.523438 37.578125 L 15.117188 37.578125 L 15.117188 38.984375 L 16.523438 38.984375 Z M 16.523438 19.328125 L 15.117188 19.328125 L 15.117188 20.734375 L 16.523438 20.734375 Z M 15.117188 38.984375 L 13.714844 38.984375 L 13.714844 40.386719 L 15.117188 40.386719 Z M 15.117188 34.773438 L 13.714844 34.773438 L 13.714844 37.578125 L 15.117188 37.578125 Z M 15.117188 22.136719 L 15.117188 20.734375 L 13.714844 20.734375 L 13.714844 23.542969 L 15.117188 23.542969 Z M 13.714844 17.925781 L 13.714844 19.328125 L 15.117188 19.328125 L 15.117188 17.925781 Z M 12.3125 46.003906 L 12.3125 47.40625 L 13.714844 47.40625 L 13.714844 46.003906 Z M 13.714844 40.386719 L 12.3125 40.386719 L 12.3125 41.792969 L 13.714844 41.792969 Z M 12.3125 33.367188 L 6.695312 33.367188 L 6.695312 34.773438 L 13.714844 34.773438 L 13.714844 33.367188 Z M 12.3125 16.523438 L 12.3125 17.925781 L 13.714844 17.925781 L 13.714844 16.523438 Z M 13.714844 10.90625 L 12.3125 10.90625 L 12.3125 12.3125 L 13.714844 12.3125 Z M 9.503906 24.945312 L 13.714844 24.945312 L 13.714844 23.542969 L 6.695312 23.542969 L 6.695312 24.945312 Z M 12.3125 13.714844 L 12.3125 12.3125 L 10.90625 12.3125 L 10.90625 16.523438 L 12.3125 16.523438 Z M 16.523438 10.90625 L 17.925781 10.90625 L 17.925781 9.503906 L 13.714844 9.503906 L 13.714844 10.90625 Z M 22.136719 15.117188 L 22.136719 13.714844 L 20.734375 13.714844 L 20.734375 15.117188 Z M 34.773438 5.292969 L 34.773438 3.886719 L 33.367188 3.886719 L 33.367188 5.292969 Z M 37.578125 13.714844 L 38.984375 13.714844 L 38.984375 12.3125 L 36.175781 12.3125 L 36.175781 13.714844 Z M 30.5625 3.886719 L 33.367188 3.886719 L 33.367188 2.484375 L 27.753906 2.484375 L 27.753906 3.886719 Z M 27.753906 3.886719 L 26.347656 3.886719 L 26.347656 5.292969 L 27.753906 5.292969 Z M 24.945312 13.714844 L 24.945312 12.3125 L 22.136719 12.3125 L 22.136719 13.714844 Z M 48.8125 15.117188 L 48.8125 16.523438 L 50.214844 16.523438 L 50.214844 12.3125 L 48.8125 12.3125 Z M 55.828125 26.347656 L 55.828125 24.945312 L 54.425781 24.945312 L 54.425781 26.347656 Z M 46.003906 10.90625 L 47.40625 10.90625 L 47.40625 9.503906 L 43.195312 9.503906 L 43.195312 10.90625 Z M 40.386719 15.117188 L 40.386719 13.714844 L 38.984375 13.714844 L 38.984375 15.117188 Z M 29.15625 31.964844 L 30.5625 31.964844 L 30.5625 30.5625 L 29.15625 30.5625 Z M 30.5625 30.5625 L 31.964844 30.5625 L 31.964844 29.15625 L 30.5625 29.15625 Z M 26.347656 23.542969 L 27.753906 23.542969 L 27.753906 20.734375 L 24.945312 20.734375 L 24.945312 22.136719 L 26.347656 22.136719 Z M 34.773438 38.984375 L 34.773438 40.386719 L 36.175781 40.386719 L 36.175781 38.984375 Z M 30.5625 26.347656 L 30.5625 24.945312 L 29.15625 24.945312 L 29.15625 26.347656 Z M 29.15625 24.945312 L 29.15625 23.542969 L 27.753906 23.542969 L 27.753906 24.945312 Z M 31.964844 27.753906 L 31.964844 26.347656 L 30.5625 26.347656 L 30.5625 27.753906 Z M 36.175781 40.386719 L 36.175781 41.792969 L 37.578125 41.792969 L 37.578125 40.386719 Z M 33.367188 37.578125 L 27.753906 37.578125 L 27.753906 38.984375 L 34.773438 38.984375 L 34.773438 37.578125 Z M 50.214844 46.003906 L 50.214844 47.40625 L 51.617188 47.40625 L 51.617188 43.195312 L 50.214844 43.195312 Z M 51.617188 33.367188 L 47.40625 33.367188 L 47.40625 34.773438 L 54.425781 34.773438 L 54.425781 33.367188 Z M 37.578125 41.792969 L 37.578125 43.195312 L 38.984375 43.195312 L 38.984375 41.792969 Z M 54.425781 33.367188 L 55.828125 33.367188 L 55.828125 31.964844 L 54.425781 31.964844 Z M 46.003906 48.8125 L 44.597656 48.8125 L 44.597656 50.214844 L 48.8125 50.214844 L 48.8125 48.8125 Z M 48.8125 48.8125 L 50.214844 48.8125 L 50.214844 47.40625 L 48.8125 47.40625 Z M 41.792969 34.773438 L 41.792969 33.367188 L 40.386719 33.367188 L 40.386719 34.773438 Z M 15.117188 47.40625 L 13.714844 47.40625 L 13.714844 48.8125 L 17.925781 48.8125 L 17.925781 47.40625 Z M 27.753906 29.15625 L 27.753906 30.5625 L 29.15625 30.5625 L 29.15625 29.15625 Z M 33.367188 54.425781 L 34.773438 54.425781 L 34.773438 53.023438 L 33.367188 53.023438 Z M 26.347656 53.023438 L 26.347656 54.425781 L 27.753906 54.425781 L 27.753906 53.023438 Z M 5.292969 31.964844 L 5.292969 33.367188 L 6.695312 33.367188 L 6.695312 31.964844 Z M 12.3125 43.195312 L 12.3125 41.792969 L 10.90625 41.792969 L 10.90625 46.003906 L 12.3125 46.003906 Z M 44.597656 37.578125 L 44.597656 36.175781 L 43.195312 36.175781 L 43.195312 37.578125 Z M 23.542969 24.945312 L 23.542969 26.347656 L 24.945312 26.347656 L 24.945312 24.945312 Z M 24.945312 26.347656 L 24.945312 27.753906 L 26.347656 27.753906 L 26.347656 26.347656 Z M 26.347656 27.753906 L 26.347656 29.15625 L 27.753906 29.15625 L 27.753906 27.753906 Z M 33.367188 29.15625 L 33.367188 27.753906 L 31.964844 27.753906 L 31.964844 29.15625 Z M 43.195312 36.175781 L 43.195312 34.773438 L 41.792969 34.773438 L 41.792969 36.175781 Z M 6.695312 24.945312 L 5.292969 24.945312 L 5.292969 26.347656 L 6.695312 26.347656 Z M 5.292969 29.15625 L 5.292969 26.347656 L 3.886719 26.347656 L 3.886719 31.964844 L 5.292969 31.964844 Z M 5.292969 29.15625 " fill-opacity="1" fill-rule="nonzero"/></g><g mask="url(#bf9b1e62b3)"><g transform="matrix(1, 0, 0, 1, 6, 3)"><g clip-path="url(#5cd85eab37)"><g clip-path="url(#3bbe075d4a)"><path fill="#000000" d="M 41.40625 44.40625 L 42.8125 44.40625 L 42.8125 45.8125 L 38.597656 45.8125 L 38.597656 44.40625 Z M 37.195312 43.003906 L 37.195312 44.40625 L 38.597656 44.40625 L 38.597656 43.003906 Z M 35.792969 41.597656 L 35.792969 43.003906 L 37.195312 43.003906 L 37.195312 41.597656 Z M 34.386719 40.195312 L 34.386719 41.597656 L 35.792969 41.597656 L 35.792969 40.195312 Z M 32.984375 38.792969 L 32.984375 40.195312 L 34.386719 40.195312 L 34.386719 38.792969 Z M 32.984375 38.792969 L 32.984375 37.386719 L 31.578125 37.386719 L 31.578125 38.792969 Z M 31.578125 37.386719 L 31.578125 35.984375 L 30.175781 35.984375 L 30.175781 37.386719 Z M 30.175781 35.984375 L 30.175781 34.578125 L 28.773438 34.578125 L 28.773438 35.984375 Z M 27.367188 24.753906 L 27.367188 23.347656 L 25.964844 23.347656 L 25.964844 24.753906 Z M 25.964844 23.347656 L 25.964844 21.945312 L 24.5625 21.945312 L 24.5625 23.347656 Z M 23.15625 20.542969 L 23.15625 21.945312 L 24.5625 21.945312 L 24.5625 20.542969 Z M 23.15625 34.578125 L 28.773438 34.578125 L 28.773438 33.175781 L 21.753906 33.175781 L 21.753906 34.578125 Z M 21.753906 19.136719 L 21.753906 20.542969 L 23.15625 20.542969 L 23.15625 19.136719 Z M 20.347656 33.175781 L 21.753906 33.175781 L 21.753906 31.773438 L 18.945312 31.773438 L 18.945312 33.175781 Z M 18.945312 31.773438 L 18.945312 30.367188 L 17.542969 30.367188 L 17.542969 31.773438 Z M 17.542969 28.964844 L 17.542969 21.945312 L 16.136719 21.945312 L 16.136719 30.367188 L 17.542969 30.367188 Z M 47.023438 28.964844 L 41.40625 28.964844 L 41.40625 30.367188 L 48.425781 30.367188 L 48.425781 28.964844 Z M 42.8125 12.117188 L 41.40625 12.117188 L 41.40625 13.523438 L 42.8125 13.523438 Z M 40.003906 31.773438 L 41.40625 31.773438 L 41.40625 30.367188 L 40.003906 30.367188 Z M 41.40625 13.523438 L 40.003906 13.523438 L 40.003906 14.925781 L 41.40625 14.925781 Z M 38.597656 33.175781 L 38.597656 34.578125 L 40.003906 34.578125 L 40.003906 31.773438 L 38.597656 31.773438 Z M 40.003906 14.925781 L 38.597656 14.925781 L 38.597656 16.328125 L 40.003906 16.328125 Z M 38.597656 16.328125 L 37.195312 16.328125 L 37.195312 17.734375 L 38.597656 17.734375 Z M 37.195312 30.367188 L 35.792969 30.367188 L 35.792969 31.773438 L 37.195312 31.773438 Z M 31.578125 38.792969 L 30.175781 38.792969 L 30.175781 41.597656 L 32.984375 41.597656 L 32.984375 40.195312 L 31.578125 40.195312 Z M 28.773438 43.003906 L 30.175781 43.003906 L 30.175781 41.597656 L 28.773438 41.597656 Z M 28.773438 37.386719 L 28.773438 38.792969 L 30.175781 38.792969 L 30.175781 37.386719 Z M 27.367188 35.984375 L 21.753906 35.984375 L 21.753906 34.578125 L 18.945312 34.578125 L 18.945312 35.984375 L 20.347656 35.984375 L 20.347656 37.386719 L 28.773438 37.386719 L 28.773438 35.984375 Z M 23.15625 0.886719 L 21.753906 0.886719 L 21.753906 2.292969 L 23.15625 2.292969 Z M 20.347656 44.40625 L 20.347656 50.023438 L 21.753906 50.023438 L 21.753906 43.003906 L 20.347656 43.003906 Z M 21.753906 7.90625 L 21.753906 2.292969 L 20.347656 2.292969 L 20.347656 9.3125 L 21.753906 9.3125 Z M 20.347656 9.3125 L 18.945312 9.3125 L 18.945312 10.714844 L 20.347656 10.714844 Z M 17.542969 33.175781 L 17.542969 34.578125 L 18.945312 34.578125 L 18.945312 33.175781 Z M 16.136719 31.773438 L 16.136719 33.175781 L 17.542969 33.175781 L 17.542969 31.773438 Z M 14.734375 30.367188 L 14.734375 31.773438 L 16.136719 31.773438 L 16.136719 30.367188 Z M 13.328125 41.597656 L 14.734375 41.597656 L 14.734375 40.195312 L 13.328125 40.195312 Z M 14.734375 27.5625 L 14.734375 23.347656 L 13.328125 23.347656 L 13.328125 30.367188 L 14.734375 30.367188 Z M 11.925781 43.003906 L 13.328125 43.003906 L 13.328125 41.597656 L 11.925781 41.597656 Z M 9.117188 43.003906 L 7.714844 43.003906 L 7.714844 44.40625 L 11.925781 44.40625 L 11.925781 43.003906 Z M 10.523438 16.328125 L 10.523438 14.925781 L 9.117188 14.925781 L 9.117188 16.328125 Z M 9.117188 14.925781 L 9.117188 13.523438 L 7.714844 13.523438 L 7.714844 14.925781 Z M 7.714844 28.964844 L 0.695312 28.964844 L 0.695312 30.367188 L 7.714844 30.367188 Z M 7.714844 12.117188 L 7.714844 9.3125 L 6.3125 9.3125 L 6.3125 13.523438 L 7.714844 13.523438 Z M 7.714844 12.117188 " fill-opacity="1" fill-rule="nonzero"/></g></g></g></g><path fill="#ffffff" d="M 55.828125 26.347656 L 55.828125 31.964844 L 54.425781 31.964844 L 54.425781 26.347656 Z M 53.023438 24.945312 L 47.40625 24.945312 L 47.40625 26.347656 L 54.425781 26.347656 L 54.425781 24.945312 Z M 48.8125 44.597656 L 48.8125 47.40625 L 50.214844 47.40625 L 50.214844 43.195312 L 48.8125 43.195312 Z M 47.40625 41.792969 L 47.40625 43.195312 L 48.8125 43.195312 L 48.8125 41.792969 Z M 46.003906 40.386719 L 46.003906 41.792969 L 47.40625 41.792969 L 47.40625 40.386719 Z M 46.003906 23.542969 L 46.003906 24.945312 L 47.40625 24.945312 L 47.40625 23.542969 Z M 44.597656 38.984375 L 44.597656 40.386719 L 46.003906 40.386719 L 46.003906 38.984375 Z M 46.003906 20.734375 L 44.597656 20.734375 L 44.597656 23.542969 L 46.003906 23.542969 Z M 46.003906 12.3125 L 46.003906 13.714844 L 47.40625 13.714844 L 47.40625 15.117188 L 48.8125 15.117188 L 48.8125 12.3125 L 47.40625 12.3125 L 47.40625 10.90625 L 43.195312 10.90625 L 43.195312 12.3125 Z M 43.195312 37.578125 L 43.195312 38.984375 L 44.597656 38.984375 L 44.597656 37.578125 Z M 41.792969 36.175781 L 41.792969 37.578125 L 43.195312 37.578125 L 43.195312 36.175781 Z M 40.386719 34.773438 L 40.386719 36.175781 L 41.792969 36.175781 L 41.792969 34.773438 Z M 38.984375 33.367188 L 38.984375 34.773438 L 40.386719 34.773438 L 40.386719 33.367188 Z M 38.984375 30.5625 L 38.984375 24.945312 L 37.578125 24.945312 L 37.578125 33.367188 L 38.984375 33.367188 Z M 36.175781 23.542969 L 36.175781 24.945312 L 37.578125 24.945312 L 37.578125 23.542969 Z M 34.773438 22.136719 L 33.367188 22.136719 L 33.367188 23.542969 L 36.175781 23.542969 L 36.175781 22.136719 Z M 33.367188 47.40625 L 33.367188 53.023438 L 34.773438 53.023438 L 34.773438 46.003906 L 33.367188 46.003906 Z M 31.964844 20.734375 L 27.753906 20.734375 L 27.753906 22.136719 L 33.367188 22.136719 L 33.367188 20.734375 Z M 30.5625 53.023438 L 27.753906 53.023438 L 27.753906 54.425781 L 33.367188 54.425781 L 33.367188 53.023438 Z M 31.964844 5.292969 L 31.964844 6.695312 L 33.367188 6.695312 L 33.367188 13.714844 L 34.773438 13.714844 L 34.773438 15.117188 L 38.984375 15.117188 L 38.984375 13.714844 L 36.175781 13.714844 L 36.175781 12.3125 L 34.773438 12.3125 L 34.773438 5.292969 L 33.367188 5.292969 L 33.367188 3.886719 L 29.15625 3.886719 L 29.15625 5.292969 Z M 29.15625 31.964844 L 29.15625 30.5625 L 27.753906 30.5625 L 27.753906 31.964844 Z M 27.753906 30.5625 L 27.753906 29.15625 L 26.347656 29.15625 L 26.347656 30.5625 Z M 27.753906 12.3125 L 26.347656 12.3125 L 26.347656 13.714844 L 27.753906 13.714844 Z M 24.945312 46.003906 L 26.347656 46.003906 L 26.347656 44.597656 L 24.945312 44.597656 Z M 24.945312 27.753906 L 24.945312 29.15625 L 26.347656 29.15625 L 26.347656 27.753906 Z M 23.542969 43.195312 L 22.136719 43.195312 L 22.136719 44.597656 L 24.945312 44.597656 L 24.945312 43.195312 Z M 23.542969 26.347656 L 23.542969 27.753906 L 24.945312 27.753906 L 24.945312 26.347656 Z M 24.945312 15.117188 L 26.347656 15.117188 L 26.347656 13.714844 L 22.136719 13.714844 L 22.136719 15.117188 Z M 22.136719 16.523438 L 22.136719 15.117188 L 20.734375 15.117188 L 20.734375 16.523438 Z M 19.328125 13.714844 L 19.328125 15.117188 L 20.734375 15.117188 L 20.734375 13.714844 Z M 17.925781 12.3125 L 17.925781 13.714844 L 19.328125 13.714844 L 19.328125 12.3125 Z M 16.523438 20.734375 L 17.925781 20.734375 L 17.925781 19.328125 L 16.523438 19.328125 Z M 16.523438 10.90625 L 13.714844 10.90625 L 13.714844 12.3125 L 17.925781 12.3125 L 17.925781 10.90625 Z M 15.117188 40.386719 L 16.523438 40.386719 L 16.523438 38.984375 L 15.117188 38.984375 Z M 15.117188 36.175781 L 15.117188 37.578125 L 16.523438 37.578125 L 16.523438 34.773438 L 15.117188 34.773438 Z M 15.117188 22.136719 L 15.117188 23.542969 L 16.523438 23.542969 L 16.523438 20.734375 L 15.117188 20.734375 Z M 13.714844 41.792969 L 15.117188 41.792969 L 15.117188 40.386719 L 13.714844 40.386719 Z M 15.117188 31.964844 L 13.714844 31.964844 L 13.714844 34.773438 L 15.117188 34.773438 Z M 13.714844 24.945312 L 15.117188 24.945312 L 15.117188 23.542969 L 13.714844 23.542969 Z M 12.3125 43.195312 L 12.3125 46.003906 L 13.714844 46.003906 L 13.714844 41.792969 L 12.3125 41.792969 Z M 10.90625 24.945312 L 6.695312 24.945312 L 6.695312 26.347656 L 13.714844 26.347656 L 13.714844 24.945312 Z M 5.292969 27.753906 L 5.292969 31.964844 L 6.695312 31.964844 L 6.695312 26.347656 L 5.292969 26.347656 Z M 5.292969 27.753906 " fill-opacity="1" fill-rule="nonzero"/><g mask="url(#559e706489)"><g transform="matrix(1, 0, 0, 1, 23, 22)"><g clip-path="url(#de99c9ebeb)"><g clip-path="url(#4065943ef5)"><path fill="#000000" d="M 8.964844 5.753906 L 8.964844 7.15625 L 7.5625 7.15625 L 7.5625 8.5625 L 6.15625 8.5625 L 6.15625 7.15625 L 4.753906 7.15625 L 4.753906 5.753906 L 3.347656 5.753906 L 3.347656 4.347656 L 1.945312 4.347656 L 1.945312 2.945312 L 0.542969 2.945312 L 0.542969 1.542969 L 1.945312 1.542969 L 1.945312 0.136719 L 3.347656 0.136719 L 3.347656 1.542969 L 4.753906 1.542969 L 4.753906 2.945312 L 6.15625 2.945312 L 6.15625 4.347656 L 7.5625 4.347656 L 7.5625 5.753906 Z M 8.964844 5.753906 " fill-opacity="1" fill-rule="nonzero"/></g></g></g></g></svg>