<svg xmlns="http://www.w3.org/2000/svg" xmlns:xlink="http://www.w3.org/1999/xlink" width="80" zoomAndPan="magnify" viewBox="0 0 60 60" height="80" preserveAspectRatio="xMidYMid meet" version="1.0"><defs><filter x="0%" y="0%" width="100%" height="100%" id="93f42d633a"><feColorMatrix values="0 0 0 0 1 0 0 0 0 1 0 0 0 0 1 0 0 0 1 0" color-interpolation-filters="sRGB"/></filter><clipPath id="25e0978381"><path d="M 5 4 L 57.691406 4 L 57.691406 57 L 5 57 Z M 5 4 " clip-rule="nonzero"/></clipPath><mask id="4f486a888d"><g filter="url(#93f42d633a)"><rect x="-6" width="72" fill="#000000" y="-6" height="72" fill-opacity="0.3"/></g></mask><clipPath id="42b02aeb1e"><path d="M 0.519531 0.558594 L 52.691406 0.558594 L 52.691406 53 L 0.519531 53 Z M 0.519531 0.558594 " clip-rule="nonzero"/></clipPath><clipPath id="67881369db"><rect x="0" width="53" y="0" height="53"/></clipPath><mask id="cdf9b521c5"><g filter="url(#93f42d633a)"><rect x="-6" width="72" fill="#000000" y="-6" height="72" fill-opacity="0.3"/></g></mask><clipPath id="cf80f9e765"><path d="M 0.839844 0.480469 L 30.601562 0.480469 L 30.601562 47.761719 L 0.839844 47.761719 Z M 0.839844 0.480469 " clip-rule="nonzero"/></clipPath><clipPath id="ec5fd59081"><rect x="0" width="31" y="0" height="48"/></clipPath><clipPath id="dbac7b5a23"><path d="M 2.191406 3 L 55 3 L 55 56 L 2.191406 56 Z M 2.191406 3 " clip-rule="nonzero"/></clipPath></defs><g clip-path="url(#25e0978381)"><g mask="url(#4f486a888d)"><g transform="matrix(1, 0, 0, 1, 5, 4)"><g clip-path="url(#67881369db)"><g clip-path="url(#42b02aeb1e)"><path fill="#000000" d="M 52.691406 16.441406 L 52.691406 28.605469 L 50.957031 28.605469 L 50.957031 32.082031 L 49.222656 32.082031 L 49.222656 33.820312 L 47.488281 33.820312 L 47.488281 35.558594 L 45.753906 35.558594 L 45.753906 37.296875 L 44.019531 37.296875 L 44.019531 39.035156 L 42.285156 39.035156 L 42.285156 40.773438 L 38.816406 40.773438 L 38.816406 42.511719 L 33.613281 42.511719 L 33.613281 52.941406 L 30.144531 52.941406 L 30.144531 51.203125 L 28.410156 51.203125 L 28.410156 49.464844 L 26.675781 49.464844 L 26.675781 47.726562 L 24.941406 47.726562 L 24.941406 44.25 L 19.738281 44.25 L 19.738281 42.511719 L 14.535156 42.511719 L 14.535156 40.773438 L 11.066406 40.773438 L 11.066406 39.035156 L 9.332031 39.035156 L 9.332031 37.296875 L 7.597656 37.296875 L 7.597656 35.558594 L 5.863281 35.558594 L 5.863281 33.820312 L 4.128906 33.820312 L 4.128906 32.082031 L 2.394531 32.082031 L 2.394531 28.605469 L 0.660156 28.605469 L 0.660156 16.441406 L 2.394531 16.441406 L 2.394531 12.964844 L 4.128906 12.964844 L 4.128906 11.226562 L 5.863281 11.226562 L 5.863281 9.488281 L 7.597656 9.488281 L 7.597656 7.75 L 9.332031 7.75 L 9.332031 6.011719 L 11.066406 6.011719 L 11.066406 4.273438 L 14.535156 4.273438 L 14.535156 2.535156 L 19.738281 2.535156 L 19.738281 0.796875 L 33.613281 0.796875 L 33.613281 2.535156 L 38.816406 2.535156 L 38.816406 4.273438 L 42.285156 4.273438 L 42.285156 6.011719 L 44.019531 6.011719 L 44.019531 7.75 L 45.753906 7.75 L 45.753906 9.488281 L 47.488281 9.488281 L 47.488281 11.226562 L 49.222656 11.226562 L 49.222656 12.964844 L 50.957031 12.964844 L 50.957031 16.441406 Z M 52.691406 16.441406 " fill-opacity="1" fill-rule="nonzero"/></g></g></g></g></g><path fill="#ffffff" d="M 3.925781 30.867188 L 3.925781 18.703125 L 5.660156 15.226562 L 12.597656 8.273438 L 16.066406 6.535156 L 21.269531 4.796875 L 35.144531 4.796875 L 40.347656 6.535156 L 43.816406 8.273438 L 50.753906 15.226562 L 52.488281 18.703125 L 52.488281 30.867188 L 50.753906 34.34375 L 43.816406 41.296875 L 40.347656 43.035156 L 35.144531 44.773438 L 33.410156 44.773438 L 33.410156 53.464844 L 31.675781 53.464844 L 31.675781 51.726562 L 29.941406 51.726562 L 28.207031 49.988281 L 26.472656 46.511719 L 16.066406 43.035156 L 12.597656 41.296875 L 5.660156 34.34375 Z M 3.925781 30.867188 " fill-opacity="1" fill-rule="nonzero"/><g mask="url(#cdf9b521c5)"><g transform="matrix(1, 0, 0, 1, 3, 6)"><g clip-path="url(#ec5fd59081)"><g clip-path="url(#cf80f9e765)"><path fill="#000000" d="M 4.394531 12.703125 L 2.660156 12.703125 L 2.660156 9.226562 L 4.394531 9.226562 Z M 2.660156 24.867188 L 2.660156 28.34375 L 4.394531 28.34375 L 4.394531 24.867188 Z M 6.128906 7.488281 L 4.394531 7.488281 L 4.394531 9.226562 L 6.128906 9.226562 Z M 4.394531 28.34375 L 4.394531 30.082031 L 6.128906 30.082031 L 6.128906 28.34375 Z M 23.472656 38.773438 L 23.472656 40.511719 L 25.207031 40.511719 L 25.207031 38.773438 Z M 25.207031 40.511719 L 25.207031 43.988281 L 26.941406 43.988281 L 26.941406 40.511719 Z M 26.941406 43.988281 L 26.941406 45.726562 L 28.675781 45.726562 L 28.675781 43.988281 Z M 28.675781 45.726562 L 28.675781 47.464844 L 30.410156 47.464844 L 30.410156 45.726562 Z M 7.863281 31.820312 L 7.863281 33.558594 L 9.597656 33.558594 L 9.597656 31.820312 Z M 9.597656 33.558594 L 9.597656 35.296875 L 13.066406 35.296875 L 13.066406 33.558594 Z M 13.066406 35.296875 L 13.066406 37.035156 L 18.269531 37.035156 L 18.269531 35.296875 Z M 18.269531 37.035156 L 18.269531 38.773438 L 23.472656 38.773438 L 23.472656 37.035156 Z M 7.863281 5.75 L 6.128906 5.75 L 6.128906 7.488281 L 7.863281 7.488281 Z M 6.128906 30.082031 L 6.128906 31.820312 L 7.863281 31.820312 L 7.863281 30.082031 Z M 9.597656 4.011719 L 7.863281 4.011719 L 7.863281 5.75 L 9.597656 5.75 Z M 13.066406 2.273438 L 9.597656 2.273438 L 9.597656 4.011719 L 13.066406 4.011719 Z M 18.269531 0.535156 L 13.066406 0.535156 L 13.066406 2.273438 L 18.269531 2.273438 Z M 2.660156 21.394531 L 2.660156 12.703125 L 0.925781 12.703125 L 0.925781 24.867188 L 2.660156 24.867188 Z M 2.660156 21.394531 " fill-opacity="1" fill-rule="nonzero"/></g></g></g></g><path fill="#7700ff" d="M 24.738281 15.226562 L 23.003906 15.226562 L 23.003906 11.75 L 24.738281 11.75 L 24.738281 10.011719 L 31.675781 10.011719 L 31.675781 11.75 L 33.410156 11.75 L 33.410156 15.226562 L 31.675781 15.226562 L 31.675781 16.964844 L 24.738281 16.964844 Z M 35.144531 36.082031 L 33.410156 36.082031 L 33.410156 20.441406 L 21.269531 20.441406 L 21.269531 22.179688 L 24.738281 22.179688 L 24.738281 36.082031 L 21.269531 36.082031 L 21.269531 37.820312 L 36.878906 37.820312 L 36.878906 36.082031 Z M 35.144531 36.082031 " fill-opacity="1" fill-rule="nonzero"/><g clip-path="url(#dbac7b5a23)"><path fill="#000000" d="M 23.003906 4.796875 L 21.269531 4.796875 L 21.269531 3.058594 L 35.144531 3.058594 L 35.144531 4.796875 Z M 19.535156 6.535156 L 21.269531 6.535156 L 21.269531 4.796875 L 16.066406 4.796875 L 16.066406 6.535156 Z M 36.878906 6.535156 L 40.347656 6.535156 L 40.347656 4.796875 L 35.144531 4.796875 L 35.144531 6.535156 Z M 16.066406 8.273438 L 16.066406 6.535156 L 12.597656 6.535156 L 12.597656 8.273438 Z M 42.082031 8.273438 L 43.816406 8.273438 L 43.816406 6.535156 L 40.347656 6.535156 L 40.347656 8.273438 Z M 12.597656 8.273438 L 10.863281 8.273438 L 10.863281 10.011719 L 12.597656 10.011719 Z M 45.550781 10.011719 L 45.550781 8.273438 L 43.816406 8.273438 L 43.816406 10.011719 Z M 10.863281 10.011719 L 9.128906 10.011719 L 9.128906 11.75 L 10.863281 11.75 Z M 47.285156 11.75 L 47.285156 10.011719 L 45.550781 10.011719 L 45.550781 11.75 Z M 9.128906 11.75 L 7.394531 11.75 L 7.394531 13.488281 L 9.128906 13.488281 Z M 49.019531 13.488281 L 49.019531 11.75 L 47.285156 11.75 L 47.285156 13.488281 Z M 7.394531 13.488281 L 5.660156 13.488281 L 5.660156 15.226562 L 7.394531 15.226562 Z M 50.753906 15.226562 L 50.753906 13.488281 L 49.019531 13.488281 L 49.019531 15.226562 Z M 5.660156 16.964844 L 5.660156 15.226562 L 3.925781 15.226562 L 3.925781 18.703125 L 5.660156 18.703125 Z M 50.753906 18.703125 L 52.488281 18.703125 L 52.488281 15.226562 L 50.753906 15.226562 Z M 52.488281 18.703125 L 52.488281 30.867188 L 54.222656 30.867188 L 54.222656 18.703125 Z M 3.925781 27.394531 L 3.925781 18.703125 L 2.191406 18.703125 L 2.191406 30.867188 L 3.925781 30.867188 Z M 5.660156 30.867188 L 3.925781 30.867188 L 3.925781 34.34375 L 5.660156 34.34375 Z M 50.753906 32.605469 L 50.753906 34.34375 L 52.488281 34.34375 L 52.488281 30.867188 L 50.753906 30.867188 Z M 5.660156 34.34375 L 5.660156 36.082031 L 7.394531 36.082031 L 7.394531 34.34375 Z M 49.019531 36.082031 L 50.753906 36.082031 L 50.753906 34.34375 L 49.019531 34.34375 Z M 7.394531 36.082031 L 7.394531 37.820312 L 9.128906 37.820312 L 9.128906 36.082031 Z M 47.285156 37.820312 L 49.019531 37.820312 L 49.019531 36.082031 L 47.285156 36.082031 Z M 9.128906 37.820312 L 9.128906 39.558594 L 10.863281 39.558594 L 10.863281 37.820312 Z M 45.550781 39.558594 L 47.285156 39.558594 L 47.285156 37.820312 L 45.550781 37.820312 Z M 10.863281 39.558594 L 10.863281 41.296875 L 12.597656 41.296875 L 12.597656 39.558594 Z M 43.816406 41.296875 L 45.550781 41.296875 L 45.550781 39.558594 L 43.816406 39.558594 Z M 14.332031 41.296875 L 12.597656 41.296875 L 12.597656 43.035156 L 16.066406 43.035156 L 16.066406 41.296875 Z M 40.347656 41.296875 L 40.347656 43.035156 L 43.816406 43.035156 L 43.816406 41.296875 Z M 19.535156 43.035156 L 16.066406 43.035156 L 16.066406 44.773438 L 21.269531 44.773438 L 21.269531 43.035156 Z M 36.878906 43.035156 L 35.144531 43.035156 L 35.144531 44.773438 L 40.347656 44.773438 L 40.347656 43.035156 Z M 24.738281 44.773438 L 21.269531 44.773438 L 21.269531 46.511719 L 26.472656 46.511719 L 26.472656 44.773438 Z M 33.410156 46.511719 L 33.410156 53.464844 L 31.675781 53.464844 L 31.675781 55.203125 L 35.144531 55.203125 L 35.144531 44.773438 L 33.410156 44.773438 Z M 28.207031 46.511719 L 26.472656 46.511719 L 26.472656 49.988281 L 28.207031 49.988281 Z M 28.207031 49.988281 L 28.207031 51.726562 L 29.941406 51.726562 L 29.941406 49.988281 Z M 29.941406 51.726562 L 29.941406 53.464844 L 31.675781 53.464844 L 31.675781 51.726562 Z M 29.941406 51.726562 " fill-opacity="1" fill-rule="nonzero"/></g></svg>